<mxfile host="65bd71144e">
    <diagram id="XCHTsv22NzX_z0EY0Sg6" name="ページ1">
        <mxGraphModel dx="2820" dy="2234" grid="1" gridSize="10" guides="1" tooltips="1" connect="1" arrows="1" fold="1" page="1" pageScale="1" pageWidth="1654" pageHeight="1169" background="#ffffff" math="0" shadow="0">
            <root>
                <mxCell id="0"/>
                <mxCell id="1" parent="0"/>
                <mxCell id="2" value="DiversMap 構成図" style="text;strokeColor=none;fillColor=none;html=1;fontSize=24;fontStyle=1;verticalAlign=middle;align=left;" vertex="1" parent="1">
                    <mxGeometry x="10" y="10" width="100" height="40" as="geometry"/>
                </mxCell>
                <mxCell id="5" value="" style="swimlane;startSize=0;shadow=0;rounded=0;" vertex="1" parent="1">
                    <mxGeometry x="40" y="80" width="520" height="302" as="geometry"/>
                </mxCell>
                <mxCell id="4" value="" style="shape=image;verticalLabelPosition=bottom;labelBackgroundColor=#ffffff;verticalAlign=top;aspect=fixed;imageAspect=0;image=data:image/svg+xml,PHN2ZyB4bWxucz0iaHR0cDovL3d3dy53My5vcmcvMjAwMC9zdmciIHhtbG5zOmNjPSJodHRwOi8vY3JlYXRpdmVjb21tb25zLm9yZy9ucyMiIHhtbG5zOmRjPSJodHRwOi8vcHVybC5vcmcvZGMvZWxlbWVudHMvMS4xLyIgeG1sbnM6cmRmPSJodHRwOi8vd3d3LnczLm9yZy8xOTk5LzAyLzIyLXJkZi1zeW50YXgtbnMjIiB4bWxuczpzdmc9Imh0dHA6Ly93d3cudzMub3JnLzIwMDAvc3ZnIiBoZWlnaHQ9IjM4My41OTc1IiBpZD0ic3ZnMzQzMCIgdmVyc2lvbj0iMS4xIiB2aWV3Qm94PSIwIDAgNzExLjIwMTIzIDM4My41OTc1IiB3aWR0aD0iNzExLjIwMTIzIiB4bWw6c3BhY2U9InByZXNlcnZlIj4KICA8dGl0bGUgaWQ9InRpdGxlMzUxMCI+T2ZmaWNpYWwgUEhQIExvZ288L3RpdGxlPgogIAogIDxkZWZzIGlkPSJkZWZzMzQzNCI+CiAgICA8Y2xpcFBhdGggY2xpcFBhdGhVbml0cz0idXNlclNwYWNlT25Vc2UiIGlkPSJjbGlwUGF0aDM0NDQiPgogICAgICA8cGF0aCBkPSJNIDExLjUyLDE2MiBDIDExLjUyLDgxLjY3NyAxMzUuMzA3LDE2LjU2MSAyODgsMTYuNTYxIGwgMCwwIGMgMTUyLjY5MywwIDI3Ni40ODEsNjUuMTE2IDI3Ni40ODEsMTQ1LjQzOSBsIDAsMCBjIDAsODAuMzIyIC0xMjMuNzg4LDE0NS40MzkgLTI3Ni40ODEsMTQ1LjQzOSBsIDAsMCBDIDEzNS4zMDcsMzA3LjQzOSAxMS41MiwyNDIuMzIyIDExLjUyLDE2MiIgaWQ9InBhdGgzNDQ2Ii8+CiAgICA8L2NsaXBQYXRoPgogICAgPHJhZGlhbEdyYWRpZW50IGN4PSIwIiBjeT0iMCIgZng9IjAiIGZ5PSIwIiBncmFkaWVudFRyYW5zZm9ybT0ibWF0cml4KDM2My4wNTc4OSwwLDAsLTM2My4wNTc4OSwxNzcuNTIwMDIsMjU2LjMwNzEzKSIgZ3JhZGllbnRVbml0cz0idXNlclNwYWNlT25Vc2UiIGlkPSJyYWRpYWxHcmFkaWVudDM0NTIiIHI9IjEiIHNwcmVhZE1ldGhvZD0icGFkIj4KICAgICAgPHN0b3AgaWQ9InN0b3AzNDU0IiBvZmZzZXQ9IjAiIHN0eWxlPSJzdG9wLW9wYWNpdHk6MTtzdG9wLWNvbG9yOiNhZWIyZDUiLz4KICAgICAgPHN0b3AgaWQ9InN0b3AzNDU2IiBvZmZzZXQ9IjAuMyIgc3R5bGU9InN0b3Atb3BhY2l0eToxO3N0b3AtY29sb3I6I2FlYjJkNSIvPgogICAgICA8c3RvcCBpZD0ic3RvcDM0NTgiIG9mZnNldD0iMC43NSIgc3R5bGU9InN0b3Atb3BhY2l0eToxO3N0b3AtY29sb3I6IzQ4NGM4OSIvPgogICAgICA8c3RvcCBpZD0ic3RvcDM0NjAiIG9mZnNldD0iMSIgc3R5bGU9InN0b3Atb3BhY2l0eToxO3N0b3AtY29sb3I6IzQ4NGM4OSIvPgogICAgPC9yYWRpYWxHcmFkaWVudD4KICAgIDxjbGlwUGF0aCBjbGlwUGF0aFVuaXRzPSJ1c2VyU3BhY2VPblVzZSIgaWQ9ImNsaXBQYXRoMzQ2OCI+CiAgICAgIDxwYXRoIGQ9Ik0gMCwzMjQgNTc2LDMyNCA1NzYsMCAwLDAgMCwzMjQgWiIgaWQ9InBhdGgzNDcwIi8+CiAgICA8L2NsaXBQYXRoPgogICAgPGNsaXBQYXRoIGNsaXBQYXRoVW5pdHM9InVzZXJTcGFjZU9uVXNlIiBpZD0iY2xpcFBhdGgzNDgwIj4KICAgICAgPHBhdGggZD0iTSAwLDMyNCA1NzYsMzI0IDU3NiwwIDAsMCAwLDMyNCBaIiBpZD0icGF0aDM0ODIiLz4KICAgIDwvY2xpcFBhdGg+CiAgPC9kZWZzPgogIDxnIGlkPSJnMzQzOCIgdHJhbnNmb3JtPSJtYXRyaXgoMS4yNSwwLDAsLTEuMjUsLTQuNCwzOTQuMjk4NzUpIj4KICAgIDxnIGlkPSJnMzQ0MCI+CiAgICAgIDxnIGNsaXAtcGF0aD0idXJsKCNjbGlwUGF0aDM0NDQpIiBpZD0iZzM0NDIiPgogICAgICAgIDxnIGlkPSJnMzQ0OCI+CiAgICAgICAgICA8ZyBpZD0iZzM0NTAiPgogICAgICAgICAgICA8cGF0aCBkPSJNIDExLjUyLDE2MiBDIDExLjUyLDgxLjY3NyAxMzUuMzA3LDE2LjU2MSAyODgsMTYuNTYxIGwgMCwwIGMgMTUyLjY5MywwIDI3Ni40ODEsNjUuMTE2IDI3Ni40ODEsMTQ1LjQzOSBsIDAsMCBjIDAsODAuMzIyIC0xMjMuNzg4LDE0NS40MzkgLTI3Ni40ODEsMTQ1LjQzOSBsIDAsMCBDIDEzNS4zMDcsMzA3LjQzOSAxMS41MiwyNDIuMzIyIDExLjUyLDE2MiIgaWQ9InBhdGgzNDYyIiBzdHlsZT0iZmlsbDp1cmwoI3JhZGlhbEdyYWRpZW50MzQ1Mik7c3Ryb2tlOm5vbmUiLz4KICAgICAgICAgIDwvZz4KICAgICAgICA8L2c+CiAgICAgIDwvZz4KICAgIDwvZz4KICAgIDxnIGlkPSJnMzQ2NCI+CiAgICAgIDxnIGNsaXAtcGF0aD0idXJsKCNjbGlwUGF0aDM0NjgpIiBpZD0iZzM0NjYiPgogICAgICAgIDxnIGlkPSJnMzQ3MiIgdHJhbnNmb3JtPSJ0cmFuc2xhdGUoMjg4LDI3LjM1OTQpIj4KICAgICAgICAgIDxwYXRoIGQ9Ik0gMCwwIEMgMTQ2LjcyOSwwIDI2NS42OCw2MC4yODEgMjY1LjY4LDEzNC42NDEgMjY1LjY4LDIwOSAxNDYuNzI5LDI2OS4yODIgMCwyNjkuMjgyIC0xNDYuNzI5LDI2OS4yODIgLTI2NS42OCwyMDkgLTI2NS42OCwxMzQuNjQxIC0yNjUuNjgsNjAuMjgxIC0xNDYuNzI5LDAgMCwwIiBpZD0icGF0aDM0NzQiIHN0eWxlPSJmaWxsOiM3NzdiYjM7ZmlsbC1vcGFjaXR5OjE7ZmlsbC1ydWxlOm5vbnplcm87c3Ryb2tlOm5vbmUiLz4KICAgICAgICA8L2c+CiAgICAgIDwvZz4KICAgIDwvZz4KICAgIDxnIGlkPSJnMzQ3NiI+CiAgICAgIDxnIGNsaXAtcGF0aD0idXJsKCNjbGlwUGF0aDM0ODApIiBpZD0iZzM0NzgiPgogICAgICAgIDxnIGlkPSJnMzQ4NCIgdHJhbnNmb3JtPSJ0cmFuc2xhdGUoMTYxLjczNDQsMTQ1LjMwNjYpIj4KICAgICAgICAgIDxwYXRoIGQ9Im0gMCwwIGMgMTIuMDY1LDAgMjEuMDcyLDIuMjI1IDI2Ljc3MSw2LjYxMSA1LjYzOCw0LjM0MSA5LjUzMiwxMS44NjIgMTEuNTczLDIyLjM1MyAxLjkwMyw5LjgwNiAxLjE3OCwxNi42NTMgLTIuMTU0LDIwLjM0OCBDIDMyLjc4Myw1My4wODYgMjUuNDE3LDU1IDE0LjI5Nyw1NSBMIC00Ljk4NCw1NSAtMTUuNjczLDAgMCwwIFogbSAtNjMuMDYzLC02Ny43NSBjIC0wLjg5NSwwIC0xLjc0NSwwLjQgLTIuMzE0LDEuMDkyIC0wLjU3LDAuNjkxIC0wLjgwMSwxLjYwMSAtMC42MywyLjQ4IEwgLTM3LjY3OSw4MS41NzMgQyAtMzcuNDA1LDgyLjk4MiAtMzYuMTcsODQgLTM0LjczNCw4NCBMIDI2LjMyLDg0IEMgNDUuNTA4LDg0IDU5Ljc5LDc4Ljc5IDY4Ljc2Nyw2OC41MTMgNzcuNzkyLDU4LjE4MiA4MC41NzksNDMuNzQxIDc3LjA1LDI1LjU5MiA3NS42MTQsMTguMTk4IDczLjE0NCwxMS4zMzEgNjkuNzA5LDUuMTgzIDY2LjI3LC0wLjk3MiA2MS43MjUsLTYuNjY3IDU2LjE5OCwtMTEuNzQ3IDQ5LjU4MiwtMTcuOTM5IDQyLjA5NCwtMjIuNDI5IDMzLjk2MiwtMjUuMDcxIDI1Ljk1OSwtMjcuNjc4IDE1LjY4MSwtMjkgMy40MTQsLTI5IGwgLTI0LjcyMiwwIC03LjA2LC0zNi4zMjIgYyAtMC4yNzQsLTEuNDEgLTEuNTA4LC0yLjQyOCAtMi45NDQsLTIuNDI4IGwgLTMxLjc1MSwwIHoiIGlkPSJwYXRoMzQ4NiIgc3R5bGU9ImZpbGw6IzAwMDAwMDtmaWxsLW9wYWNpdHk6MTtmaWxsLXJ1bGU6bm9uemVybztzdHJva2U6bm9uZSIvPgogICAgICAgIDwvZz4KICAgICAgICA8ZyBpZD0iZzM0ODgiIHRyYW5zZm9ybT0idHJhbnNsYXRlKDE1OS4yMjM2LDE5Ny4zMDcxKSI+CiAgICAgICAgICA8cGF0aCBkPSJtIDAsMCAxNi44MDgsMCBjIDEzLjQyMSwwIDE4LjA4MywtMi45NDUgMTkuNjY3LC00LjcgMi42MjgsLTIuOTE0IDMuMTI0LC05LjA1OCAxLjQzNSwtMTcuNzY3IEMgMzYuMDEyLC0zMi4yMTcgMzIuNDk0LC0zOS4xMyAyNy40NTIsLTQzLjAxMiAyMi4yOSwtNDYuOTg2IDEzLjg5OCwtNDkgMi41MTEsLTQ5IEwgLTkuNTIzLC00OSAwLDAgWiBtIDI4LjgzMSwzNSAtNjEuMDU1LDAgYyAtMi44NzIsMCAtNS4zNDEsLTIuMDM2IC01Ljg4OSwtNC44NTUgbCAtMjguMzI4LC0xNDUuNzUxIGMgLTAuMzQyLC0xLjc1OSAwLjEyLC0zLjU3OCAxLjI1OSwtNC45NjEgMS4xNCwtMS4zODMgMi44MzgsLTIuMTgzIDQuNjMsLTIuMTgzIGwgMzEuNzUsMCBjIDIuODczLDAgNS4zNDIsMi4wMzYgNS44OSw0Ljg1NSBsIDYuNTg4LDMzLjg5NSAyMi4yNDksMCBjIDEyLjU4MiwwIDIzLjE3NCwxLjM3MiAzMS40NzksNC4wNzcgOC41NDEsMi43NzUgMTYuMzk5LDcuNDggMjMuMzU0LDEzLjk4NCA1Ljc1Miw1LjI5MiAxMC40OSwxMS4yMzIgMTQuMDgsMTcuNjU3IDMuNTkxLDYuNDI3IDYuMTcxLDEzLjU5NCA3LjY2OCwyMS4zMDIgMy43MTUsMTkuMTA0IDAuNjk3LDM0LjQwMiAtOC45NjksNDUuNDY2IEMgNjMuOTY1LDI5LjQ0NCA0OC45MjMsMzUgMjguODMxLDM1IG0gLTQ1LjYzMywtOTAgMTkuMzEzLDAgYyAxMi44MDEsMCAyMi4zMzYsMi40MTEgMjguNjAxLDcuMjM0IDYuMjY2LDQuODI0IDEwLjQ5MiwxMi44NzUgMTIuNjg4LDI0LjE1NyAyLjEwMSwxMC44MzIgMS4xNDQsMTguNDc2IC0yLjg3MSwyMi45MjkgQyAzNi45MDksMy43NzMgMjguODcsNiAxNi44MDgsNiBMIC00Ljk0Niw2IC0xNi44MDIsLTU1IE0gMjguODMxLDI5IEMgNDcuMTk4LDI5IDYwLjU5NywyNC4xOCA2OS4wMTksMTQuNTM5IDc3LjQ0LDQuODk4IDc5Ljk3NiwtOC41NTkgNzYuNjE2LC0yNS44MzYgNzUuMjMzLC0zMi45NTMgNzIuODk0LC0zOS40NiA2OS42MDEsLTQ1LjM1NSA2Ni4zMDQsLTUxLjI1NCA2MS45OTksLTU2LjY0OCA1Ni42NzksLTYxLjUzOSA1MC4zMzksLTY3LjQ3MiA0My4yOTYsLTcxLjcgMzUuNTQ2LC03NC4yMTggMjcuNzk2LC03Ni43NDMgMTcuOTI1LC03OCA1LjkyNSwtNzggbCAtMjcuMTk2LDAgLTcuNTMxLC0zOC43NSAtMzEuNzUsMCAyOC4zMjgsMTQ1Ljc1IDYxLjA1NSwwIiBpZD0icGF0aDM0OTAiIHN0eWxlPSJmaWxsOiNmZmZmZmY7ZmlsbC1vcGFjaXR5OjE7ZmlsbC1ydWxlOm5vbnplcm87c3Ryb2tlOm5vbmUiLz4KICAgICAgICA8L2c+CiAgICAgICAgPGcgaWQ9ImczNDkyIiB0cmFuc2Zvcm09InRyYW5zbGF0ZSgzMTEuNTgzLDExNi4zMDY2KSI+CiAgICAgICAgICA8cGF0aCBkPSJtIDAsMCBjIC0wLjg5NiwwIC0xLjc0NSwwLjQgLTIuMzE0LDEuMDkyIC0wLjU3MSwwLjY5MSAtMC44MDIsMS42IC0wLjYzMSwyLjQ4IEwgOS41ODYsNjguMDYxIEMgMTAuNzc4LDc0LjE5NCAxMC40ODQsNzguNTk2IDguNzU5LDgwLjQ1NiA3LjcwMyw4MS41OTMgNC41MzEsODMuNSAtNC44NDgsODMuNSBMIC0yNy41NSw4My41IC00My4zMDUsMi40MjggQyAtNDMuNTc5LDEuMDE4IC00NC44MTQsMCAtNDYuMjUsMCBsIC0zMS41LDAgYyAtMC44OTYsMCAtMS43NDUsMC40IC0yLjMxNSwxLjA5MiAtMC41NywwLjY5MSAtMC44MDEsMS42MDEgLTAuNjMsMi40OCBsIDI4LjMyOCwxNDUuNzUxIGMgMC4yNzQsMS40MDkgMS41MDksMi40MjcgMi45NDUsMi40MjcgbCAzMS41LDAgYyAwLjg5NiwwIDEuNzQ1LC0wLjQgMi4zMTUsLTEuMDkxIDAuNTcsLTAuNjkyIDAuODAxLC0xLjYwMSAwLjYzLC0yLjQ4MSBMIC0yMS44MTMsMTEzIDIuNjA5LDExMyBjIDE4LjYwNSwwIDMxLjIyMSwtMy4yOCAzOC41NjksLTEwLjAyOCA3LjQ5LC02Ljg4NCA5LjgyNywtMTcuODkxIDYuOTQ3LC0zMi43MTkgTCAzNC45NDUsMi40MjggQyAzNC42NzEsMS4wMTggMzMuNDM3LDAgMzIsMCBMIDAsMCBaIiBpZD0icGF0aDM0OTQiIHN0eWxlPSJmaWxsOiMwMDAwMDA7ZmlsbC1vcGFjaXR5OjE7ZmlsbC1ydWxlOm5vbnplcm87c3Ryb2tlOm5vbmUiLz4KICAgICAgICA8L2c+CiAgICAgICAgPGcgaWQ9ImczNDk2IiB0cmFuc2Zvcm09InRyYW5zbGF0ZSgyOTMuNjYxMSwyNzEuMDU3MSkiPgogICAgICAgICAgPHBhdGggZD0ibSAwLDAgLTMxLjUsMCBjIC0yLjg3MywwIC01LjM0MiwtMi4wMzYgLTUuODksLTQuODU1IGwgLTI4LjMyOCwtMTQ1Ljc1MSBjIC0wLjM0MiwtMS43NTkgMC4xMiwtMy41NzggMS4yNiwtNC45NjEgMS4xNCwtMS4zODMgMi44MzgsLTIuMTgzIDQuNjMsLTIuMTgzIGwgMzEuNSwwIGMgMi44NzIsMCA1LjM0MiwyLjAzNiA1Ljg5LDQuODU1IGwgMTUuMjgzLDc4LjY0NSAyMC4yMjksMCBjIDkuMzYzLDAgMTEuMzI4LC0yIDExLjQwNywtMi4wODYgMC41NjgsLTAuNjExIDEuMzE1LC0zLjQ0MSAwLjA4MiwtOS43ODEgbCAtMTIuNTMxLC02NC40ODkgYyAtMC4zNDIsLTEuNzU5IDAuMTIsLTMuNTc4IDEuMjYsLTQuOTYxIDEuMTQsLTEuMzgzIDIuODM4LC0yLjE4MyA0LjYzLC0yLjE4MyBsIDMyLDAgYyAyLjg3MiwwIDUuMzQyLDIuMDM2IDUuODksNC44NTUgbCAxMy4xNzksNjcuODI1IGMgMy4wOTMsMTUuOTIxIDAuNDQ3LDI3Ljg2NCAtNy44NjEsMzUuNSAtNy45MjgsNy4yODEgLTIxLjIwOCwxMC44MiAtNDAuNTk5LDEwLjgyIGwgLTIwLjc4NCwwIDYuMTQzLDMxLjYwNSBDIDYuMjMxLC01LjM4NiA1Ljc3LC0zLjU2NiA0LjYzLC0yLjE4NCAzLjQ5LC0wLjgwMSAxLjc5MiwwIDAsMCBtIDAsLTYgLTcuNTMxLC0zOC43NSAyOC4wNjIsMCBjIDE3LjY1NywwIDI5LjgzNiwtMy4wODIgMzYuNTM5LC05LjIzOCA2LjcwMywtNi4xNiA4LjcxMSwtMTYuMTQxIDYuMDMyLC0yOS45MzggbCAtMTMuMTgsLTY3LjgyNCAtMzIsMCAxMi41MzEsNjQuNDg4IGMgMS40MjYsNy4zMzYgMC45MDIsMTIuMzQgLTEuNTc0LDE1LjAwOCAtMi40NzcsMi42NjggLTcuNzQ2LDQuMDA0IC0xNS44MDUsNC4wMDQgbCAtMjUuMTc2LDAgLTE2LjIyNiwtODMuNSAtMzEuNSwwIEwgLTMxLjUsLTYgMCwtNiIgaWQ9InBhdGgzNDk4IiBzdHlsZT0iZmlsbDojZmZmZmZmO2ZpbGwtb3BhY2l0eToxO2ZpbGwtcnVsZTpub256ZXJvO3N0cm9rZTpub25lIi8+CiAgICAgICAgPC9nPgogICAgICAgIDxnIGlkPSJnMzUwMCIgdHJhbnNmb3JtPSJ0cmFuc2xhdGUoNDA5LjU0OTgsMTQ1LjMwNjYpIj4KICAgICAgICAgIDxwYXRoIGQ9Im0gMCwwIGMgMTIuMDY1LDAgMjEuMDcyLDIuMjI1IDI2Ljc3MSw2LjYxMSA1LjYzOCw0LjM0IDkuNTMyLDExLjg2MSAxMS41NzQsMjIuMzUzIDEuOTAzLDkuODA2IDEuMTc4LDE2LjY1MyAtMi4xNTUsMjAuMzQ4IEMgMzIuNzgzLDUzLjA4NiAyNS40MTcsNTUgMTQuMjk3LDU1IEwgLTQuOTg0LDU1IC0xNS42NzMsMCAwLDAgWiBtIC02My4wNjIsLTY3Ljc1IGMgLTAuODk1LDAgLTEuNzQ1LDAuNCAtMi4zMTQsMS4wOTIgLTAuNTcsMC42OTEgLTAuODAyLDEuNjAxIC0wLjYzMSwyLjQ4IEwgLTM3LjY3OSw4MS41NzMgQyAtMzcuNDA0LDgyLjk4MiAtMzYuMTcsODQgLTM0LjczMyw4NCBMIDI2LjMyLDg0IEMgNDUuNTA5LDg0IDU5Ljc5LDc4Ljc5IDY4Ljc2OCw2OC41MTMgNzcuNzkzLDU4LjE4MyA4MC41NzksNDMuNzQyIDc3LjA1MSwyNS41OTIgNzUuNjEzLDE4LjE5OCA3My4xNDQsMTEuMzMxIDY5LjcwOSw1LjE4MyA2Ni4yNywtMC45NzIgNjEuNzI1LC02LjY2NyA1Ni4xOTgsLTExLjc0NyA0OS41ODIsLTE3LjkzOSA0Mi4wOTQsLTIyLjQyOSAzMy45NjIsLTI1LjA3MSAyNS45NTksLTI3LjY3OCAxNS42ODEsLTI5IDMuNDE0LC0yOSBsIC0yNC43MjMsMCAtNy4wNTcsLTM2LjMyMiBjIC0wLjI3NSwtMS40MSAtMS41MDksLTIuNDI4IC0yLjk0NiwtMi40MjggbCAtMzEuNzUsMCB6IiBpZD0icGF0aDM1MDIiIHN0eWxlPSJmaWxsOiMwMDAwMDA7ZmlsbC1vcGFjaXR5OjE7ZmlsbC1ydWxlOm5vbnplcm87c3Ryb2tlOm5vbmUiLz4KICAgICAgICA8L2c+CiAgICAgICAgPGcgaWQ9ImczNTA0IiB0cmFuc2Zvcm09InRyYW5zbGF0ZSg0MDcuMDM5MSwxOTcuMzA3MSkiPgogICAgICAgICAgPHBhdGggZD0iTSAwLDAgMTYuODA4LDAgQyAzMC4yMjksMCAzNC44OTEsLTIuOTQ1IDM2LjQ3NSwtNC43IDM5LjEwNCwtNy42MTQgMzkuNiwtMTMuNzU4IDM3LjkxLC0yMi40NjYgMzYuMDEyLC0zMi4yMTcgMzIuNDkzLC0zOS4xMyAyNy40NTIsLTQzLjAxMiAyMi4yOSwtNDYuOTg2IDEzLjg5OCwtNDkgMi41MTEsLTQ5IEwgLTkuNTIyLC00OSAwLDAgWiBtIDI4LjgzMSwzNSAtNjEuMDU0LDAgYyAtMi44NzIsMCAtNS4zNDEsLTIuMDM2IC01Ljg4OSwtNC44NTUgTCAtNjYuNDQsLTExNS42MDYgYyAtMC4zNDIsLTEuNzU5IDAuMTIsLTMuNTc4IDEuMjU5LC00Ljk2MSAxLjE0LC0xLjM4MyAyLjgzOCwtMi4xODMgNC42MywtMi4xODMgbCAzMS43NSwwIGMgMi44NzIsMCA1LjM0MiwyLjAzNiA1Ljg5LDQuODU1IGwgNi41ODcsMzMuODk1IDIyLjI0OSwwIGMgMTIuNTgyLDAgMjMuMTc0LDEuMzcyIDMxLjQ3OSw0LjA3NyA4LjU0MSwyLjc3NSAxNi40MDEsNy40ODEgMjMuMzU2LDEzLjk4NiA1Ljc1Miw1LjI5MSAxMC40ODgsMTEuMjMgMTQuMDc4LDE3LjY1NSAzLjU5MSw2LjQyNyA2LjE3MSwxMy41OTQgNy42NjgsMjEuMzAyIDMuNzE1LDE5LjEwNSAwLjY5NywzNC40MDMgLTguOTY5LDQ1LjQ2NyBDIDYzLjk2NSwyOS40NDQgNDguOTI0LDM1IDI4LjgzMSwzNSBtIC00NS42MzIsLTkwIDE5LjMxMiwwIGMgMTIuODAxLDAgMjIuMzM2LDIuNDExIDI4LjYwMSw3LjIzNCA2LjI2Nyw0LjgyNCAxMC40OTIsMTIuODc1IDEyLjY4OCwyNC4xNTcgMi4xMDIsMTAuODMyIDEuMTQ1LDE4LjQ3NiAtMi44NzEsMjIuOTI5IEMgMzYuOTA5LDMuNzczIDI4Ljg3LDYgMTYuODA4LDYgTCAtNC45NDYsNiAtMTYuODAxLC01NSBNIDI4LjgzMSwyOSBDIDQ3LjE5OCwyOSA2MC41OTcsMjQuMTggNjkuMDE5LDE0LjUzOSA3Ny40NDEsNC44OTggNzkuOTc2LC04LjU1OSA3Ni42MTYsLTI1LjgzNiA3NS4yMzMsLTMyLjk1MyA3Mi44OTQsLTM5LjQ2IDY5LjYwMSwtNDUuMzU1IDY2LjMwNCwtNTEuMjU0IDYxLjk5OSwtNTYuNjQ4IDU2LjY3OSwtNjEuNTM5IDUwLjMzOSwtNjcuNDcyIDQzLjI5NiwtNzEuNyAzNS41NDYsLTc0LjIxOCAyNy43OTYsLTc2Ljc0MyAxNy45MjUsLTc4IDUuOTI1LC03OCBsIC0yNy4xOTYsMCAtNy41MywtMzguNzUgLTMxLjc1LDAgMjguMzI4LDE0NS43NSA2MS4wNTQsMCIgaWQ9InBhdGgzNTA2IiBzdHlsZT0iZmlsbDojZmZmZmZmO2ZpbGwtb3BhY2l0eToxO2ZpbGwtcnVsZTpub256ZXJvO3N0cm9rZTpub25lIi8+CiAgICAgICAgPC9nPgogICAgICA8L2c+CiAgICA8L2c+CiAgPC9nPgo8L3N2Zz4=;" vertex="1" parent="5">
                    <mxGeometry x="203.57" y="126" width="92.86" height="50" as="geometry"/>
                </mxCell>
                <mxCell id="6" value="&lt;font style=&quot;font-size: 16px&quot;&gt;Server&lt;/font&gt;" style="text;strokeColor=none;fillColor=none;html=1;fontSize=24;fontStyle=1;verticalAlign=middle;align=center;rounded=0;shadow=0;" vertex="1" parent="5">
                    <mxGeometry width="100" height="40" as="geometry"/>
                </mxCell>
                <mxCell id="40" value="" style="shape=image;verticalLabelPosition=bottom;labelBackgroundColor=#ffffff;verticalAlign=top;aspect=fixed;imageAspect=0;image=data:image/png,iVBORw0KGgoAAAANSUhEUgAAA1wAAAHPCAMAAABwVisyAAAABGdBTUEAALGPC/xhBQAAACBjSFJNAAB6JgAAgIQAAPoAAACA6AAAdTAAAOpgAAA6mAAAF3CculE8AAAAilBMVEX39/fb7eKU069Nunwwr2gUpVNbvobp8u2i2Lkiql2FzqWw3sQ+tHFpxJG+4s53yZvN6Nm/4Mzb7OHN5tei1bZcuIAWnEpOs3WV0KwkoVRArWp4w5V5w5U0p2AYnEpBrWqHyaDq8u1rvoux28Eyp2CGyaAloVSW0KxQs3VsvovO5tej1bZduID///936QNHAAAAAWJLR0QtzdpBPQAAAAd0SU1FB+UIDQIRI7p9NYEAABg9SURBVHja7d1tQ9w4sobhQIAmQEjTQHcgZ5mEkNnZ2f3/v+8kM0PjtvVSpZItyb6vrxlMt0cPsksl+907AAAAAAAAAAAAAAAAAAAAAAAAAAAAAAAAAAAAAAAAAAAAAAAAAAAAAAAAAAAAAAAAAAAAQOLo+P3J6d77upz8+kRnx6vSJwlIcP7htAEXpU8ToHZZOjZCV0xeaMyqiXnrl4+lTxWg87F0ZuQuS58rQOOodGIUTrgwREsamrgoaqApLU1cPx2VPl+AWFMT1+np+9LnC5C6Lp0WrevSZwwQel86LFonpc8YINPcxEVNA61obuI6Pf1ATQMtaHDiOj09K33WAIGr0kFJQk0D9TsvHZM01DRQvxP7QC+CmgZq1+jERU0D1Vu1OnFR00DtLkpHxICaBmrWzh5Jh6vSZw8IaHniOj09Ln36AK+jlieu09MPbJtEtRrbajLA8zRQq8b2SDpQ00ClWp+4qGmgVk127PZQ00CVGtxqMkBNAzWaw8RFTQNVanOryQA1DVSn2Y7dHh4Fheq027Hbc176TAKHjktnIhtqGqhL0x27PZ9Kn0ygq+2O3Z516bMJvJnTxEVNA1Vpv/HpADUNVKP9jt1D1DRQjbPSaciNmgYqMY/GpwPr0ucU+MscOnZ7qGmgCjOcuHgNOeowm8anLl5DjgrMpWO3h8dbo7xZTlynvIYc5c2q8amLmgYKm1fj0wFqGihrthMXNQ0U1vgzdsOoaaCkmXXs9lDTQDlz69jtoaaBcmbXsdtDTQOlzLLxqYuaBkrJ0rF78v7jxcXF2fsR2B+lSE0DZVzmiNaoD+E8sl638hpylJGh8elq7OsuazmT15CjhAwduxPsp7fOXTzeGtNbZZi4JngSjLU/66T0ecYCZWh8muRdc9ZnAVPTwNRydOxOc8llrBlS08DUMkxcEzVAWFfjqGlgWjkan6aaEqwVQ2oamFSGjt3JHg5ITQMtyTBxTfhYW2oaaEiGxqfjCT8uNQ00I0PH7qTXWtbPy2vIMZkME9e0uzk+GT8tNQ1MJEPH7sT7EK01jUmWu4EsHbvriT+ytRFyyjtELFiGjt3pb2KMV7K8sgtTyNCxW2CoWhcPqGlgAhkan0osHFk/NjUNjC5Dx26ZlgfjhEtNA6PLMHGVeaiSdbGLmgZGlqHxqdTjAI39kNQ0MLIMHbvrQh/dekFLTQOjWtuzVW6MWtcQqGlgTPbGp5JdsMZPz+OtMaIMHbsl929YbxgneKAOFss+cZV9QrSx1ElNA6PJ0PhU+I+/cbFrst3TWBx741Pp2xbrde269P8CzFSGiat4wc24lFD6jwNmKkPjU/mlIuuXoKaBMdgbn2p4GIVx+qWmgRFkmLiqeIySseJJTQP52Ruf6nhRo3Wxa136C2B2MnTsVnK/Yry8paaB3OwTVzWj0riiUMnfCMxGhsan4mX4TN+Fmgbysjc+lS/D7xln4SrqMpgN+8RVQxn+lbXwWdFXQfvsjU9V/bk3LnZVc/eIGbA3PtVRht8zXuWWeQoI5ijDoworK7EZd1RX9qcCDbM3PlV3IWX8SlVd5KJhGRqfqinD77+TcTKmpoEsrC/gqaoM/8p4YVjhN0KD7I1PNZXh94xFmhq/Eppjb3yq8w7l0nS1W1mFBk2yP6qw1n6hI8ufjeruItEge+NTvX/kV+cf36e4uFiX/uiYAXvjE+8HAZzs68dcQAEu9sans9JfAahShsYnataAi73xqc4yPFCavfGp1jI8UJi98aneMjxQkr3xiTI84GRvfKIMD7jY148pwwNO9sYnyvCAy6U5WzxXHXAyrx9Thgec7I1Px6W/AlAl+/rxSemvANTJ3vhEGR5wOTJPXNU9TQ2og339eF36KwBVsj84g2ePAU7m9WPK8ICTvfGJbVyA05U1W7ypAHCyrx+zjQtwsT84gzI84MT6MTAOe+MT27gAJ/v6Mdu4ABf7+jHbuACnGtaPV9fNWZf+/4b6FV8/Xn+yP16gBOZrxJjvuEwT19GF/fnZhbD8gBjzIDP8BTe9ja40Zi5E2K8KL5N/94V5DaAkSqSIODYPstSrwrW5obEoOpURY+/OSPzFttd/F8cWG0SZw5V4X2/vFS6LJ10hyvwk0LRXL7SeLZ50hTj7i01Sfmvr2TJUcbAg5nWmhJuPddv3W6xxQcZcLtT/Ec/w4uXC2GIDCfOGE/1iqv39lYWxxQYy1nqh+t7e3oZfGuvHkDFfpGmvC9vs0+3gEY2QspbulHf3zU9crB9DzjqV6Kaulpt1/0LjE+Sszbuquy77EzsKY+KChnUy0Ty1sPn1Yx7RCA1rm4bmj3nrV4U0PkHHWo5X3Ia0voBM4xN0rDdCH8QrP6vS4TCi8Qla1jsh8dKPfedzWTQ+Qc26LXgt/D32nc9FMXFBzzqjSEedfedzUTQ+IYF1JVl4vdR2uGh8QgprOV5Yom46XPK6DdBl3QgiW1xtOlw0PiGNuRwvWkluOVw0PiGVtZAn+rvecriYuJDM2DwhuiNpuLWQxieks5bjJbW0hheR6diFgbUcv47/inbbn5i4YGHdJCxZSW72CfE0PsHEuh9E0DLe6qOfaHyCjbUcL7h0avURGkxcMLJWygXvJ2hzQxePKoSZtRwfX2dtc6WLxieYWdeh4gutTT6hho5dZGAtx8f/xDc4ddGxixysq7zxm5MG38NA4xOysJbj42U18wv3pkbHLvKwbuwSLAi19ng13tGKTKz3RPEevFVbbRo0PiGXCVaS26oY0rGLbMYvxzf14lYan5CR8apNcv/fULpofEJG1nK85E2uzdx3MXEhq/FXkt810x+/Lv0/A/MyQTn+p+sWVpNpfEJm1llFeJ9yXn+8aHxCZtZa+ZX0F52flU5PGI1PyG78leRXq/OP9dY2aHzCCIwXbCe6UXl07bAO/8z6OuzYWpY5ZeLCKKzdtTUMy2vrYhqNTxiF8e9+FRdU1qVqGp8wCuuTZCQryaOz3ToycWEk1o0hNRSxbc8gpfEJIzkyXlNV8cAkSyGSxieMxlqOr+EPv+XOsYbPj5myPuyihr/8hnDR+IQRWTd2CZ5uPTbD34ca7hkxX8bWifLVNkMHchXVTsyXdWNX8XWi9AbkKtbpMGfGttrSI9TQf1xDhwlmzbqxq/AQTf/boOyNBPSMG7vKTl2G/sjiF7SYP+vGrpL1bMNnL1+KwQIc28JVsqBtuGGsYBEBC2BcSS43dRkuCmtY/sYCWDd2lWoislzQ0viEaRg3dpWaBQwXhVW0HGMJrBu7ykwDlgmXxidMxbixq8jUZbkopGMXk7Fu7CqxZmS4KCzdVoJFMW7sKrBoZLkopPEJE7Ju7Jp86rJcFDJxYVLGjV2TT12WfmPe0YppGTd2TTx1WbpKaHzCxIwbu6a91DIVYOjYxdSMG7smLRJYVr1pfMLkjBu7ppy6TK3GND5hesaNXdNNXaaLQiYuFGDc2DXd1GVqhaTxCSUYN3ZNNXWZPiaNTyjDtpI80dRla9Vi4kIZxo1d00xdpqomjU8oxbaxa5Kpy/QHgMYnFGPc2DXBDY2t6sLEhXKMG7vGX0MyfUAan1CQcWPX1diXXbYmLRqfUJJxY9fYF4ameuZV6ZOLZat7Y5ct+jQ+oSzrG7vGTJet3kLjE0ozbuwa8a1Xxll1XfrMYvGsb+w6vRrp8uvIFnsan1CecWPXT2djPIj92PiEKhqfUJ71jV2/fDi7uL7+uy6/vn51eSFzfj1w/tEYLdaPUQVjOb5KND6hCtY3dtWIiQt1sL6xqz68oxW1MK4k14fGJ9TCXI6vDB27qIfxjV21ofEJ9bC+sasuND6hJsaNXXVh4kJN5lSOp/EJdZnRSjKNT6iLdWNXPcZr0wfSWDd21YLGJ9RnJuV4Gp9Qn3msJNP4hBrNohxP4xNqlGNjV2k0PqFOMyjHs36MOrW/kkzjE2rVfDmeiQvVanwl+az0+QO8Gi/H0/iEijW9kkzjE2rWcjmexifUreGV5OPS5w4Iarccz/oxatfsSjJleNSu1Y1drB+jfo2uJFOGRwOaLMezjQstaHElmTI82mB/Y9fk2MaFNrS3knxV+pQBQp9Kh0WLMjxa0dpKMmV4tKOxlWTK8GhIUyvJPL8aLWlpJfkDExeaclU6MnKsH6Mt7awks36M1jTTBMXEhda08rJJJi60p5E9yUxcaE8jTVBMXGhQEyvJrHGhRS00QbHGhTZdlo5OHE98QqOq79PgohDNuq66x/DksvT5AQwuLz6+/3Txy/n18UVNjtelzw0AAAAAAAAAAAAAAAAAAAAAAAAAAAAAAABS3WysR1jd3Jb+DvYvAWR2d7/9aXeXfoTV593PIzzciw7xuFX7Ej3o5v/+9fT09NvXb+5Pt3vY3d8ZHlK9+ny/2+2ev7v+7fbL46/v/l17zO6n//Lz/D0+3xgOgRrd7gf7S+rc8/3h9RCP8UP80Gdru43NSV+f/vH7v4e/8PXTPSSP//0hXgbjf7N7/Yy71IlzdW8+BKr0Foyf0iavu84RHmLpWj1sE/wIHvPbH09v/tP7x13nMM9J32/VnWt7p+i283Wi390twyFQpc3hWE9J183BER4if3yTJq7tQ/CY/3nq+nrwb88Hx/mc8P1Wh9exB9Pf7cHpS4pG7xDMXfOx643ihHS9HB5hF/yPN0nZCn+um6dD3fF50zuOfuz2srV96N669U7fg/703fZm8p36CKjUrWoUO931jxD88/28TfMYOOYfvXB1Lwz7fzzUF4arQf2lM/vZT9/t4CqZC8O5cFykaYfHff8Aofujm20q/5jb9LL19Hvn3/qHCV9fDg2z1c35F+vpG2YrcnuJduy21uHRvyoMX9i4fp+Mf8rpXxU+Pf25/7fvipC6rFzrBvlOnyNbXBfOhnOw69KlGR3pE1fgbunrIFxv9fLhzKxaS3Jmq/NJjKfPlS3CNRvumUSVLs3oeNmm814ujRcud7Y6h7CdPme2CNdseC7TNOlSjI67rYH3bmm0cHmyFQ2X8PS5s7W9H+F/M0rw3QMp0iUPV9r6cfQzjRUuX7a2ocPLT58nW0lLcaiRt8AgT5c8XGnrx3u+avxI4fJmq3MI76pd/PT5spWwEoc6+at34nSJw2WcuLy5GCdc/mx1D+FdtoudPm+24j3KaESgNC5NlzhcqevHe55q/CjhCmSre4iVt0QTPn3ebL0YWvdRl9C6kzBd0nClNj51uK+YxghXKFsHh/CmJHj6vD9F4+6MBBd1ZemShit9/XjPXY0fIVzBbB0eIiVdZGsRwiNelC5huJzrx4+7AMfYcx45f7jC2eodQp8usrUMkelEki5huFy/KbykI+17zB6uSLb6h9Cm645sLUPsWk2QLlm4XOvHkb1LjuqisxqfO1yxbA0OoUuXdyWdbM1M9EYoni5ZuFxVtVj/t2PqckUjc7ii2RoeQpMusrUY8SpDNF2icLnWjx9iVWfH1OWqxucNVzxbjkPI00W2lkNQwoulSxIu5/pxfFJ0RNJxJZk1XIJsuQ4hTRfZWhBJfTwSAkm4XBPXS/zTrURbCXOGS5It5yFk6SJbSyJafAqnSxAu5/qx5Dlnw52+jmp8xnCJsuU+hCRdZGtRZCu7wXQJwuVqfBJtW9pIPku+cMmy5TlEPF3eraJka5aEbROhdMVj4xxUsjakYSyH1fhs4RJmy3eIWLpYO14YaU9SIF3xcLl+ifApTI6pazASc4VLmi3vITbeA/w6fWRracQNf/50RcPlnLiku5aGU9cglpnCJc5WyiHuyNbyyLtpvemKhitl/XjPMXX1l8fyhEueraTJ7zPZWpxhuIKXNi6xcDkbn+S7loZTV38ffJZw+WPxIj1E+DBka3GG4Vpp0xUJl3P9WPHgy82gW75/XfjfP/renlsoDVfgW++Eh4gdiGwtzXDkvNOmKxKuxPXjTIThCn1nXbh06SJbc+YIlzZd4XBt0hqfcpGFK/iNleHSpItszZorXMp0hcOVvH6chyhc4e+rDZc8XWRr3pzh0qUrmB1n49OEbyeVhCvybdXhkqaLbM2cO1yqdAXDpd9/nJcgXLHvqg+XLF1ka+484dKkKxQu0/pxDvFwRb9pQrgk6XrkGWpz5wuXIl2hcLkO4nrq5ermh97rD29u+r7tDxwNV/x7poQrni6yNX/ecMnTFQiXcP14k/S40P1yl2URWfAtk8IVSxfZWgB/uMTp8odrJWt8Snz3yf7q0hAuyXdMC1c4XWRrCQLhkqbLHy7Z+nFitt76NNLDJfqGieEKpYtsLUIoXMJ0+cMlmrhSXzb5NsKTwyX7fqnhCvzVUL/1HC0Khks2+vzhunf84GABOfFlk53jpIZLODOnhis0I5OuJQiHSzT+/ON+E/7Bv3zfpukM8MRwSe8pE8MVvtolXQsQCZdkBPrD5Xi+zOAdOV+2SboTYFq4xNXQtHDF7iRJ1/zFwiUYg4GBL9hukvjuk+74TgqXfB0vKVzxKg3pmr1ouOKjMBCud58dP3b4hPi0cB3cuaWES9GBkhIuSQWUdM1dPFzRcRgc+a5yxXP4A0gcDO+EcGl6JxPCJVtdIF0zJwhXbCQGwxV9qlrSPddhyVEfLlXXvz5c0pW7z+8wZ5JwRcZieOi7Zqbuf3CbEq7D0a0Ol26/mjpc8lXx6TaNogBRuMKjMRyuaDk+4bqwt1amDZdyp7U2XJqOE9I1Z7JwBcdjZOy7mnK75Xj/c2q9eoNbGS7tM0KU4dJ1c5GuGROGK5SuSLii5Xh1b2G/yUMXru/ap1vpwqX9NqRrvqTh0jx2pTf4ne+965bjb5QdUP2xrQuX95f5hrkqXP73mJCuxRGHS5EuyRN3D8rQqx+aeA26E3XhUg9yTbi82XrcqB+2itbJwyVPV3/0O9sHewN0uJv4Ly/xn8wULv8QV4TLn62V+nGQaJ4iXOJ0id5yInq82o3oB3OEKzDA5eEKZUv9OEg0TxMuaboGw9+5liV5saQrlcORnSFcd6oP4QlXOFuka3FU4RKmS/ZmScEjrWUTV4ZwBQe3NFyxbJGupdGFS5au4fhPfBmDbOKyh+tO+Smc4Ypni3QtjDJconQ5JhdnOT72IAnhxGUOV2Rgy8IlyRbpWhZtuCTpcgUgWo4XfTb3uDaGKzasReGSZYt0LYo6XIJ0ucLlLMeHn+csnbiM4YoOakm4pNkiXUuiD1c8XTvZL4qV410/4SwxmsIVH9KCcMmzRboWJCFc0XQ5MxPd2CX5AXeF0RIuwYCOh0uTLdK1HCnhiqXLPSG5yvEPgSfBu+7S3KPPEC7JcI6GS5ct0rUYSeGKpMsdro1+a0mfZ2ksPVyiwRwLlzZbodPHzv85SQtXOF2eWyl5D60yC8nhkk0UkXDps0W6FiIxXMF0ecK1Sny27p6vpyM1XMKLsHC4UrIVOn1fYh8HzUgNVyhdviJg4hsXomFIDJf0BicYLu+T7iPvWvCfvgnfaYtxJYcrMDx28l+m4W1GTAuXuHgQDJfvJETfY+I9fYKeS7QhPVz+4eENV+oLTSJpSAqXvDAXCpfvGwneEeQ9fbwqeS4M4fIOD//acNIbJP/h/4ueEi5F0TsULs9TF0Xv3/KdvnhDM9pgCZdvePjDtdmm88chIVyaBaVQuNwXusJ326lPH9piCpdneARGR3o5PnArog+XarFWHS7xeyPVpw9NGYyOB9WPO4dHYHSskleSA3n4dyBcn5XHchjmM3D6NNnSnz405d74v9Y1PEJLNanl+FAN7c9BuL7t/81VcVA2GQ3C1fn747iJVL3vWHv60JLBYNe+HMAxPIJPx5A//lAeiH/1svVb598edIdyGDwB5P7t34Y7aZTvEteePrSk3zax0R5gMDzCF5Zp5fjw4k//puu/nX8bzC365tiXwBH6/6bMlvr0oSW9qSvhmqQ/PCJ/eV1vIY+KJOI378Q16BdOaDzv/T147P5bb+pSZ+vn6Xs2f0DU6tk7cKQO0xVrPU0px8e6Fv78vZOt3w8n38OSRtLQPVjNejhc5D08ffps9Q9B5+6sdIbOc9LgOPjjG18CTXjdXTQSf77ddv3xzf/7HhLvZzrf76XfQNGpdySevu4npJoxMzfPf9857NJ7Rl9fHXIv6N3Rl+MF8+m3r3/H63+O73DzWjB/Vt9Q9r/fw49hfm7/OfxjeiXi9bHd93TtztJt8sD7x428J07zqzY30gP/ety898Nt3q2MA/cm/KlvE2et/c+bPyAAAAAAAAAAAAAAAAAAAAAAAAAAAAAAAAAAAAAAAAAAAAAAAAAAAAAAAAAAAAAAAAAAAGL/DyipGkXBaqaUAAAACHRFWHRjb21tZW50AA+69OkAAAAldEVYdGRhdGU6Y3JlYXRlADIwMjEtMDgtMTJUMTc6MTc6MzUrMDk6MDBwgrXOAAAAJXRFWHRkYXRlOm1vZGlmeQAyMDIxLTA4LTEyVDE3OjE3OjM1KzA5OjAwAd8NcgAAAABJRU5ErkJggg==;" vertex="1" parent="5">
                    <mxGeometry x="370" y="113.5" width="139.31" height="75" as="geometry"/>
                </mxCell>
                <mxCell id="46" value="" style="endArrow=classic;startArrow=classic;html=1;fontSize=16;exitX=1;exitY=0.5;exitDx=0;exitDy=0;entryX=0;entryY=0.5;entryDx=0;entryDy=0;" edge="1" parent="5" source="4" target="40">
                    <mxGeometry width="50" height="50" relative="1" as="geometry">
                        <mxPoint x="300" y="180" as="sourcePoint"/>
                        <mxPoint x="350" y="130" as="targetPoint"/>
                    </mxGeometry>
                </mxCell>
                <mxCell id="39" value="" style="shape=image;verticalLabelPosition=bottom;labelBackgroundColor=#ffffff;verticalAlign=top;aspect=fixed;imageAspect=0;image=data:image/png,iVBORw0KGgoAAAANSUhEUgAABAAAAAISCAYAAABS070pAAAABmJLR0QA/wD/AP+gvaeTAABtzklEQVR42uzdeZxcVZn/8W86ZCHs+77IoqAgCi4oM6DIKIICoq0DId333GpKxYk6LoMbcgXprvuc6ipoRiGiuKFgVBRxQXQcVMDfACLIKqtJV4edsITs6f790Y0GSCd9q25V36r6vF+v89+YrnrOKaaeb517jgQAAAAAAAAAAAAojHdWYEcr8J9QEJfl7Hty9pt/jDC+VC4+T86+oMCfKmdHKChvSeEAAAAAAMi6oHCgnBXl7E45G6ly/F3OrpCzLynwb9HcgRkUFgAAAACATDT+8aFydk0NTf/6xnMK7VcK40+qu/Aqig0AAAAAQKN19W6j0H9Hzobr1Pyva9wuZ19UUNyPCQAAAAAAoN6cHSFnDzew8X/pCO1WhfEn1dW7DRMCAAAAAEDaQp+Ts5WT2vy/cCxTYJcosH9lcgAAAAAASIOzD8jZmgw1/y8et8nFTp3RdCYLAAAAAICqmv/Cm+VsRYab/7VHRWH8SYXxZkwcAAAAAAATbv57t5OzwSZp/tceixXEZykob8kkAgAAAACwIWF8aRM2/y8MApx9UbMHNmcyAQAAAABYl1zx8AZf9VfP8YRC+4w6SxszsQAAAAAArM3Z/2uR5n/tsVAu7lYUdTDBAAAAAACM/vo/0rrD3yLnj2SiAQAAAADtLbSf1NhkL5Wz+xTaTaNX9NnCTD5OEMaXKox3ZsIBAAAAAO0nX9hCzpZX2VT/Xc5/UEE08yX/7uyBzZUrHq7QPiNn18jZqowEAc8o8J9QFG3E5AMAAAAA2ofzp1TVRIfWlejZ+nxhC4X2Xjm7SKE9mYEg4DblioezAAAAAAAA7RIA/Dhh4zyswL+7pr8ZRDMVxrPl7HeT/KjAsJx9m2sDAQAAAABtEADYgoRN8/+k+vcD21ehDcjZM5N4SOC9cnYwiwEAAAAA0JpOizZN/At8GB9Xl9cye2BzBfaxsWZ8MoKA5XL+gywKAAAAAEDr6S4ekrBJvk8amVLX1xRFHXL2Ljm7elIeDwjisjrnT2VxAAAAAABaR+iPStYc2yUNfX1B4UAFdskk3CDwU83xm7BAAAAAAACtIbCjEz4rf/6kvM4e/zKF/itytrSBIcCf1VXYnUUCAAAAAGh+OX9swh0A35zU19tzzg5yvlfOnmpQCPConB3BQgEAAAAANLduOyxhQ3x9Jl53UN5SzuIG7QhYKWf/WfezDwAAAAAAqJueeNfEzXC+sEVmXr/r303Of0vO1jQgCLhG3YVXsWgAAAAAAM1n9MT9lcmuAbT3Zu59dPlXy/mrGhACrJbzP1ZoA3LxlxXGn1ZoeYX+/XKFdyiID5UrvlJdpV0UxpuxwAAAAAAA2eHszwmb4O9m9r2M3mpwV8OvDhx/rFFoT8rZ/XL2Fzm7Rs5+JmffVWD/PXaewUnqKu3CQgQAAAAA1FcQlxM2tSs0x2+f2fcTRRspsI/J2dMZCgImMh6WsysVxKeru3iIoqiDxQkAAAAASE/o35+4WQ3jT2Y/2OjbU86ubLIQYO3xkEKbr8DmKucP4BBCAAAAAEBtcqWt5WxFwuZ0oeYOzGiK9xfEJ8jZgiYOAp4fj8jZZQotr1zfPixcAAAAAEByzq5IvgvAPtI07y+MN1NgP2qBEOCFIYzz31JoXQrjnVnEAAAAAIANC/y/V9GAVtRZ2rh53uTIFDn7r9GT/FsqCBiRs2E5u0GBfY6rCgEAAAAA6wkAopljh9AlPQsgar73Gv+bnD3VgiHA2vPyNwX+THX1v5zFDQAAAAB4odCfUUWzuawpn0fP+QNGt9C3cAjwz3GDQvuITos2ZZEDAAAAAKR8cVs5ey5xgxnYr5vyhPow3lkuvrlNQoAROVssZ15B354sdgAAAABod87iqprLwJ/anKFHNEuh/04bhQAjY2cgfFuufzcWPAAAAAC0q3xhCzl7vIqm8rmmft7c+VPkbEmbBQEr5Wye5vjtWfgAAAAA0I5GT8qvoqH01yk/b1rTvu/AXiPnr2uzEGBEzh5TaHlFUQeLHwAAAADaSWc0Xc7urPJRAGvuNz8yRc7eJWc/k7P71zEWt3AQcKNy8Rv4AAAAAABAOwn8W8bulk9+H30YH9fStenxL1MQn6jAn6kg/rqc/ULO/jp2q8DTTR4CrJGzi5QvbsuHAAAAAADahbNvVNlEPqUwfkXb1i2KOnRy31YK+/aSs4Pl/JEKrFNh/CE5/3mFcb+c/9bYLoPbMnn2QGhPKohPU+f8qXwQAAAAAKDVzR7YXM4erLKJvEuzBzaniBOUL++kID5RLj5vLBTISBgQ3yxXeDMTBAAAAACtztkRY9vCq2kgfyqNTKGIVcj17aPQPqPQbspAEDAsZxfp5L6tmBgAAAAAaGVBfFYNzeMXKWCNwr69FMSny9kdkxwEPCRnH2BCAAAAAKBVdc6fKmf/W/WhcoEdQxFT4vwbFdgFk3wbwS+UK+7BZAAAAABAKwrjneXskSobxsdpGFPWWdpYYTxbzv40SSHAEjn7Tw4JBAAAAIBWFMT/VvV5AIH9n+YOzKCIdZCL36DALpGzFZNwW8BNcnYwkwAAAAAArcbZ2dU3i/4rFLCOAttx7LyGJxocBKxSaOcQ8AAAAABAK4miDjn7RdXNYuBPpoh1dlq0qQL/CTmrNDgIuE3dxUOYAAAAAABoFUF5S4Xx36psEp9Rt+1NERugM5qu0Ofk7L6G7gZw8ZfVGU1nAgAAAACgJUIA27eGk+j/TIPYQFHUocA65ezuBgYB9ylXPJziAwAAAEArcP54ORuu7lGA+CwK2GCd0XQF8WkNfDRgpYL4LMIeAAAAAGgFYRxV2RyukfNHUsBJkJ83TaHl5ezRBgUBdyqw11B4AAAAAGhmUdSh0H5VZWNYUVfvNhRxkpzct5VCX5CzZQ0IAZYpiE9XFHVQeAAAAABoVqPXzy2qsjH8HgWcZD3x/nL+qgbtBric0AcAAAAAmpmzI+RsdVVNYRjPpoAZEMQnytnfGxACVHj8AwAAAACaOgSIP1tlQ7hEXf0vp4AZkJ83TYF9TM4/W+cQYFjO5ikfzaLoAAAAANBsOudPVRD/vrpdAHatOudPpYgZEdi+NZztkGTcoKBvTwoOAAAAAM2mJ95Vzh6vLgTwZ1DAjAn9e+r+WEBoTyqMj6PYAAAAANBsnD9+bIt30mZwhboLr6KAGZOPZsn5XjlbWedHAorKz5tGwQEAAACgqUIAK1a9JZxHATI6p8VXytn/q/MjAX9Wt+1NsQEAAACgWeTnTZOzP1XVBAb2MQqYUVHUodDycrakjiHA0wqsk2IDAAAAQLMIivtV2Sg+ra7SLhQwy3NbOFDObqzrIwFBfJaiqINiAwAAAEAzcLGrsgG8nOJlXBRtpNA+I2fL6xgE/EyzBzan2AAAAADQFCGAfb/KWwGOyu6bGpmisG8vBfEJcvYpBdYnZxcptPkKbb5c/AO5wpvbYn7DwkFydnsdQ4C7FMav4IMEAAAAAFk3e2BzOVtQReN3p6Joo2w1u/7jo2cb+GcndKuBsw+3xRzn501TGEdytro+IYB/Vi5+Hx8mAAAAAMi6nD+2usYv7s7U+4iijeTsroTN6w91ct9WbTHPgR0tZw/VaSfAGjn/eWlkCh8oAAAAAMgy579VxS+/92ZuF0Dg311F8/p3Of/G9pjn3u3k7Ir6PRLgf6g5fhM+UAAAAACQVUF5SzmrJD8LwLqy1+Tad6toXlco8Ke2zXw7/9GxxyDqEQTcqHx5Jz5UAAAAAJBV1T0KcHvmtn2H8WZVHnw3LBe79pnv+A2jux/qEgIsUFA4kA8VAAAAAGSV8z9M3OwF8b9l7n10295y9ngVjetyddvebTPfo2HJZXUKAZbI+eP5UAEAAABAFvX4l8nZssT3wWezuX1rddvc4x+03byHlq/TIwGrFcSn88ECAAAAgCwK4nLiJi9X3COj72XO6Nb+hO+nx7+s/ebd/lVBvKguuwECb4qiDj5cAAAAAJCtRnBHOXsu2WGAvpDZ9+PsU1U0rRe25dx3lXaRsxvqEgKE8aXKz5vGBwwAAAAAsiSM+xM2eI9r7sCMDIcASW8GWKqeeP+2nPsgmqnQf6dO5wL8Qp2ljfmAAQAAAEBW5Ip7yNmahM3dBzL7fjpLG8vFNye84vDatl4D9TsX4Ebli9vyIQMAAACA7DSAv014G8DPmyDUWJzsisN2XwOFf5Gzh+sQAtyprtIufMgAAAAAIBsBQJCwqVsp17tdtt9THCX6pRpSYPvK2T11CAHuluvfjQIDAAAAwOQ3y5sl3wLuP5rp95QvbCFnT03w/VzJIni+bsVt5fx1dQgBFqir/+UUGAAAAAAmm7PfJWzo/tIEwcZEDzj8KgtgLZ3R9DodDviouvyrKTAAAAAATGoA4D+fuKHL+i+6PefsIGdLJ3AIYJ4F8CJR1CFnvg4hwENyxVdSYAAAAACYLEHx9cnve7fPZD/YsHkbPtTQXsMCGEdoH5Gz1SmHAA+ru/AqigsAAAAAk6Fz/tQEz8w/P27IfgDQv9v6zzfw9zL5G6qhP17OlqUcAjyioHAgxQUAAACASWn07IrkuwD69mqC9/W99byHs5n4CcjFb5Czx1MOARYrF7+B4gIAAABAo4XxJxM3cYF9LPvNqz9AzobX8fqXZP46w9YPAR5TWDiI4gIAAABAIwXF/ao4B+Da5nhv9qN1vP4PM+kJhX17ydn9KYcAj3MmAAAAAAA0mrO7EzZvaxTGO2f/ffk3vuh1X64o6mDCq5Av7yRnt6UcAgypx7+M4gIAAABA4wKAYvLmzX+wSd7b/4y95l8oiGYy2TWHAHemHALcrTl+e4oLAAAAAI3QbYdVcQ7Ar5vjvcVvk/Pnq3P+VCY6BYHtKGd3pRsCxDcrX9iC4gIAAABAIzi7J2Hjtkr54rYUrh3XSu92Cu3WVEOAwP5PYbwZxQUAAACAujd1vreKwwC7KFybqs9OgF8qP28axQUAAACAehq9Ni9p0/ZTCtfGRs8ESDkE8N+SRqZQXAAAAACop+Tbupdqjt+EwrV9CHB3uo8D+DMpLAAAAADUk7NPJX8MwL+fwrW5OX771HcCBPFpFBYAAAAA6iWMd5az1ckCgPhSCge5/t3k7MEUQ4DVCuPjKCwAAAAA1K2Rs98lbNSeURDNpHBQrm8fOXsoxRDgGQX2GgoLAAAAAPUJAHqquMLtGAoHSVJQOFDOnkgxBBhSV2F3CgsAAAAAacuVtpazFQmbtAspHP65hoqHy9lzKYYAN6qztDGFBQAAAIC0ObsiYYP2kKKog8JhrTX0rsTnSax/l8klFBUAAAAAUm/e4vclbtByxcMpHF4g8CfL2XBqIUDoz6CoAAAAAJBq4xbNlLPFCa9tK1M4rCMEODPFRwGG5eL3UVQAAAAASJPzFydszv4ujUyhcHjpWrJvpBcC+GeV8wdQVAAAAABIrWkrvCP5Fu3CQRQOL9EZTa/iesn1jbuUL2xBYQEAAAAgDVG0kZw9nPDX2V4Kh3UKylvK2e3pHQoY/5yDJwEAAAAgLc5KCRuzhTRlGFdXYffkoRKBEwAAAADUXxi/rorG7AgKh3G5wpvlbHl6hwL64ykqAAAAANRsZIqc3Z2wKfsqdcN6BfFpKZ4H8Kh64l0pKgAAAADUKow/mewgQHtScwdmUDisl4vPSzEEuIE1BwAAAAC1CmxHOVuV8NlstmVj/fLzpimIf59aCBDG/RQVAAAAAGrl7KfJGrL4lxQNG15XvdvJ2d9TOw8g9O+hqAAAAABQi8C/O2EztkZh314UDhteW8XXp3go4FPqtr0pKgAAAABUK4o65GxBwmasSOEwIc6fkt55APHN6oymU1QAAAAAqLpJs7MTNmOLlY9mUThMSBB/PcVDAWMKCgAAAABVN2i27+i964kOAzyFwmFC5vhN5Oy2lAKA1eq2wygqAAAAAFTL2TWJt2MDExXGr5Czp1MJAQJ7QLMHNqeoAAAAAFBdAPCB5M1Y4R0UDhMWWGd6VwP671BQAAAAAKhG5/ypCuyBZL/Exr+ncEjE+fNTCwGCeA4FBQAAAIBqhPGnEzdhPI+NJOYOzFBot6YTAvhnlevbh6ICAAAAQFJdvdvI2dKEv8L+nMIhkVz/a+VsRTqPAthvpZEpFBUAAAAAknL21SoasSMoHBIJ40+mdx5A/CEKCgAAAABJ9cS7ytnyhFuxb1EUdVA8TNzIFDn7WUohwHM8CgAAAAAA1XB2URVbsd9L4ZBIvryTnD2WUgjwGx4FAAAAAICkwr695GxVwgbsHnVG0ykeEnHx+1J7FMD5D1JQAAAAAEjcmNk3qtgF8BkKhyrW2mUphQDPKFfcg4ICAAAAQBKj27OXJGzAlqrHv4ziIZGgvKWcDaYUAvwvjwIAAAAAQFLO4ioasMsoHJKHAPGJqT0KEPhTKSgAAAAAJHFy31YK7cnkjwL4oygeEnP2/ZRCgMXKl3eioAAAAACQrCn7zyoasCHlSltTPCSSL2whZwtTOhDwxxQUAAAAAJLoLG1cXVPmL6Z4SCy096b3KIAdTUEBAAAAIIkgnlNVAxb691M8JF9v9qOUQoAFOi3alIICAAAAwER1zp8qZ7dX0YA9rJ54VwqIRLoKu8v5Z1PaBdBHQQEAAAAgiZw/tsom7Eblo1kUEIlUd/bEusZK5fwBFBQAAAAAEjVl/ofVPQpg17IVG4lEUYecXZ9SCHCDOudPpagAAAAAMFG54h5ytqS6Jiz+pYJoJkXEhHUXD5Gz1amEAKHlKSgAAAAAJOHsv6pvxAgBkHi9nZvSLoDHdXLfVhQUAAAAACYqP2+aQru1hl9if0UIgImvt8IWcvZwSiFAiYICAAAAQBKu+Eo5W1ZDI/YbzR2YQSExIdVeQ/nSsUrdhVdRUAAAAABIFALYF2tsxi6kiJiQ0QMBb0gnBPA/pKAAAAAAkMToowA31XgwWxeFxISE/k1yNpxCCDCsoHAgBQUAAACAJILifnL2dA3N2GIFtiOFxARDgO+kswsg/gHFBAAAAIDEIUD8b3K2tIaG7CKKiIkFAPHOcvZMCiHAGrniKykoAAAAACTl7Ag5e6rKZmwp17NhwgL7XCq7AIL46xQTAAAAAKprzF4jZw9VdxZA/EkKiAnJR7PkbCiFEGCpunq3oaAAAAAAUFUIUNxPzh6v4mT2WygeJiy0fEq7AE6nmAAAAABQdQhgR1dxWvsKRVEHxcOERNFGcnZ3CiHAAkXRRhQUAAAAAKoPAX6U/NfYaCaFw8TXWHxiKrsAQnsvxQQAAACAqpsz/5bEd7PzSywSGZkiZ/8vhRDgGmoJAAAAANWaOzBDzpYlaMIep2hIbPT2idp3AXT5V1NMAAAAAKhGt+0tZ8sTbMO+lqKhKqH9NoUQYB6FBAAAAIBqOPtNwgasRNFQ3VrzR6YQACzR7IHNKSYAAAAAJGv+q9iW7U+hcKh+zcU3134loIUUEgAAAACSCG1+8uaruB+FQ/UBgJ2Uwi6A6ykkAAAAAEy4EevdTs5WJmy8BikcahJFG8nZgppDgO7CqygmAAAAAExE4E+tovG6kMIhhbV3Zs0BQGgDFBIAAAAAJsLZlcm3/8cnUjjULOzbS86GawwBHtfcgRkUEwAAAADWZ3Qb9jMJG66Vyhe2oHhIhbP/rf0wQP/vFBIAAAAA1icovr6KhusXFA7prcF4TgqHAf4vhQQAAACA9Qn9x6totk6icEjNadGmcrakxgBgWD3x/hQTAAAAAMYNAOJLEzZaTymIZlI4pMrZd2vfBeDPp5AAAAAAMH7jdV/CJutiiobUBXZ0Co8BPKU5fhOKCQAAAAAv1tW7TeIT2Lvjt1E4pG70MMqHUzgM8FSKCQAAAAAvFvqjEjZYD6lz/lQKh/qsRxuoPQCw/6OQAAAAAPBigX0uWXMVlyka6rceCwem8BjAiJwdTDEBAAAAYG3Orky2/b94CEVDndfk9SkEABdRSAAAAAB4XhR1yNniCTdVod1K0VB3QTwnhQBguQLbkWICAAAAgCR1+Vcn3P5/OkVD3eWjWYmCqXEDK38GxQQAAAAASQrjTydoqFap55wdKBoawvneFHYBPKrO0sYUEwAAAABC+1WCk9V/TcHQMD3xrnK2svZdABZQTAAAAADt7bRoUzlbnuBu9X+naGiowL6Zwi6A26WRKRQTAAAAQPsKi+9M0EQ9rXw0i6KhwQHAa1K5ErA7fhvFBAAAANDGAYD/ysS3UceXUjBMzjpN8JjKuMNfRSEBAAAAtK/AHkhw+v8cCobJCQD8UansAujyr6aYAAAAANqwqYpfkaB5WqN8cVuKhknj4ptTCAEuopAAAAAA2rCh8h9M0DjdQMEwyQGASyEAeE5dvdtQTAAAAABt1lDZtyf+/L8vUDBMqrkDMxTEi2oOAQL7HMUEAAAA0GYBgL83wfV/76ZgmHRBfHoKuwAeUhDNpJgAAAAA2qSRsh0TPf8flLekaJh0c/wmcvZYCiHAhykmAAAAgPYQ+vckaJb+SsGQnbUbRyk8BvCAomgjigkAAACgHQKAQoKG6RsUDJnhereTsyW1hwDxiRQTAAAAQBs0UXZ1gl9L51IwZGz9+hQeA/iLNDKFYgIAAABobUlOU88VD6dgyNb6tR3lbGnNIUB3/DaKCQAAAKB15YvbJmiShjkAEBkNAS6ofReAv4pCAgAAAGhdueLhCZqkQQqGjAYA+8rZ6hpDgGHl/AEUEwAAAEBrcvF/JGiQ/oeCIbtr2b6bwlkA36OQAAAAAFpT6L+SoDm6iIIhu2u5cJCcDdcYAKyU69+NYgIAAABowabJfpXgqrTTKRgyvp5/UvMugNAGKCQAAACA1uPs9ok3Rv79FAzZDgD8m1I4DPBZdfVuQzEBAAAAtFgA4J9NsAPgUAqG7K9p+10KZwF8iUICAAAAaB3JrgAcUVdhd4qGJggAjkghAHiaKy8BAAAAtFKjdHCiK9I6o+kUDc2xtv0faw4BAvschQQAAADQGsL4uAQN0eMUDC26tscbD6mztDHFBAAAAND8AgsTNEO3UzA0j5EpcvbXFG4E+Ai1BAAAAND8wvjTCRqhaykYmkpgnSnsAhjk0RcAAAAALRAA+MLEG6H4lxQMTSWKOhJdczn+6KGYAAAAAJo8AIi/liAA+AEFQ9MJ/KkpBAB3K4o6KCYAAACA5uXs8ok/AhB/jYKh6XRG0+VsKIUQ4CSKCQAAAKB5hfbbBA3QuRQMTcn5z6cQAPxFGplCMQEAAAA0a2OU5K50T8HQlHKlreX8symEAO+imAAAAACaNACwGybc/ATWR8HQxGu9yC4AAAAAAG3cFPlbEjQ/Z2f+/YSFgxT07cnE4iWCvj3lbFXNIUDg300xAQAAADRhAGB3JWh8zsz0e5njN1EY/03OHlZPvCuTi3Ws9++nsAvgz+wCAAAAANB8AnsgQePzpUy/lxdcaciVhVhnAHBwCgHAiJw/nmICAAAAaLaG6MEETU9vZt9H4E9+0etdpXx5JyYYL5Hs5otxRnwzuwAAAAAANFsAcE/T3wLQE++/zhPeQ/sIE4yXrvnCO1LZBRD691BMAAAAAM0UANyR4FfP8zL3+vPFbdezi+FnTDDGWfd/SSEEuENR1EExAQAAADRJI5TgFoDALsjUa4+iDjm7cvxfaO1JGjSMEwD0pLILIIhPpJgAAAAAmqURuiFBAHBJxl772RM4t+CNTDJeorO0sZw9WvtjAHYrIRMAAACAJgkA/HUJGp7sbKkP4hPlbHgCz2kXmGSMs4bOSudGgPh9FBMAAABAEwQAdnWC7c6/z8Rr7ra95ezpCd5ccC+TjHUHALajnC1PIQT4KzcCAAAAAGiGAOCyBNcA3jLpr3d06/ZtCU9rP4qJxjjr/6J0zgKwTooJAAAAINsCuyBBo7Ng8hu2+LzkDZr/MRONdQoLB6XzGIDdSDEBAAAAZLwBsnMSNDkrJnWrc+BPrrI5W6Owby8mG+teV/brdHYB+HdTTAAAAAAZDgDiTydqcrp6t5mU1+l6t5OzJ2po0GImG+uU88emEgCEdi3FBAAAAJDhAMDnEjU53YVXTU4A4C+usUF7XJ2ljZlwvNTIlMTnSoy/C+At1BMAAABANgV2TOYP1AviQyd05d+GRw8TjnHW2JyUrgT8JcUEAAAAkE05f0DCXzhPbfhrdPablA5qu4Pr2rBOnfOnytk9Ka2zgykoAAAAgOzJF7ZIeKJ+b0NfX+jflFJTNvYIQ/w2Jh3rXmvxh1JaZ9+nmAAAAACyyflnEzQ3lzX4tX0r1QAgsB8x4VinfDRLzh5JYZ2tVFdhdwoKAAAAIIMBgN2ZoLm5oWGva47fJGE4MZGxiuYM438W/OdTWmfnUkwAAAAAWWx6rkrQ2DzVsOfonT8l5eb/+YMMC0w61ikobylnz6SwzpYqjHemoAAAAAAyFgBYKVFzkyvu0ZDXFdpv6xIAOFusOX4TJh7r/jz43pTW2YUUEwAAAEC2hJZPFgD4Y+v+mnrO2UHOVtcpAJic2wzQJJ+HeGc5W5bCOlvO4yYAAAAAssUV3pzwrvPP1v81xd11a/5Hxz2Kog4mH+OEAP3prDN/McUEAAAAkB0n922VuWvOArukzgHAiJy9i8nHOuXLO8nZc6ncCNBte1NQAAAAANnhbCjBVXoP1PW1RFGHnD1W/wDA/5GJx7gC60tprV1NMQEAAABkKACIf5msqendro5hxMEN+PV/dHQXD2Hyse512LtdatdQBvEJFBQAAABANoRxlJmDAEP/8YYFAI14nAHt87kYf1TU1bsNBQUAAAAw+QI7JuFBgF+uY9N1aQMDgFUK+vZkAWCd5vhNEj0es/5xOQUFAAAAMPnyxW3lbDhBM3N9HcOIBxoYAHBfO9bPxS61tRbaZygoAAAAgAw0OnZfol/O84UtUn8Nc/z2DW7+R+RshVz/biwArNPooZR/SW29BfHXFZS3pLAAAAAAJk/iq/f88am/hpw/NpXT/ZMe3hb6r7AAMC5nRyTcIbOh8bRCG1AYv4LiAgAAAJiEJifhVud6NM1BfHoKzdW7FNpAwv/NcnWVdmERYPy1ad+sw+6T4dHAyj6sfHFbigwAAACgMXriXRM2L4PSyJR0Qwj7do0N1RrNHthcXaVd5GxZwuezB1gEGFdX7zZy9lgdH0VZKed/rMCOVhR1UHAAAAAA9eXszoTb7d+Y8t+/obZD1uK//fPf8ucn/N8vUxjvzCLAuELrasy5FP5eOetRZzSdogMAAACoUwAQn5ewWYnT++MjUxI/u//Sxumqf/xzozsalnMjANJdo3Z1Aw+orMjZf2qO34TaAwAAAEhX8kP47k/tMQDXv1sK16y9cBt/6L+S8N9Ypa7+l7MQMK7Rx0ueaPBNFY/J2Rd1ct9WTAAAAACAdATRTDl7JmFzckQ64UPx8NoDAJ9bR6iQcBeA/yELAesV+vdPwnWVI3L2jIK4rFzfPkwCAAAAgNo5+17CpuTb6YQP8ZyaG6Tu4iHreD9fTXwyey5+AwsBG/icfHeSQoDRwy6dXakg/rfUD+IEAAAA0EaC+ISEzcgSzR7YvOa/G/ozamyKlq/z0LSuwu5ytiLhv/U7FgLWK1/YQs7unsQQ4Plxh8L4Q5wTAAAAAKCKAKCKxwCC+LQUgoev19QIBfZ/4//bdkEV/97RLAasV49/mZzdkYEQYETOFiuwPgW2IxMDAAAAIEEzbpck/hWy1q3Iof22xuf/vzLuv50r7lHFLoC/cB87Nui0aNOx2zNWZyQIWCZnF3JOAAAAAICJ6Y7fVsUVfEfW9DdH7z6vofGJ3fr/fZuXPFSIZ7MYMCG5/tfK2Z8yEgKMyNlqhTZ/nediAAAAAMA/jUxJ3pD7H1f956Koo4pf6Dd8AOALGrQqdgEE9sA6zxUAxvvcBHa0nF0tZ8MZCgN+o247jPkBAAAAsG5BfHrCJmOVXP9uVf2t0bvVa2tygvKWG/w7Yfy1KnY2fJTFgOSfn8KBcnahQnsyM0FAEP9cYeEgJgcAAADAC/Wcs0MVv5j3VfW3uu2wGpubxybWlPXtKWcrE/7bjyqMN2NBoLogIJopF79Pzn5W8y6X9K4Q/Lby5Z2YHAAAAAD/5OIfJGwunlK+sEXyJsmfXGNT86eJvye7qIp//0ssBtRs9OrAD8jZ9+Vs8SQHAU8rjD+p/LxpTAwAAAAAqbt4SBWH8X02eQCQ+HGDF+88uGTCf2v06rakuwCWqCfelQWB9MKAedPUHb9NoQ3I2YOTGATcplz8BiYEAAAAgBTYrxNvmZ/I8/hrc/78Gp9tPivZ37Nv1DVkAJIKCwcp8GcqtFsn5cYAZ16dpY2ZCAAAAKCtAwD/lioainOTNT/2kxp3AITJ/l7fXqOHFib6O8NyhTezIFB33ba3QvuMnN3Z2CDA3ytnRzABAAAAQDtzdn3iGwFy/oAEAcBNNTYuRyZ/T/7iKv7WjYqiDhYEGib0bxq7veLpBgUBw3L2VQ6+BAAAANpVd/y2KpryWxREMycYMDxcU9MS9u2V/D3Z3lXsAhiRix0LAg2Xj2YptC45u2asSa/zlYH2gHLFwyk8AAAA0I6cXVFFI/HVDf67cwdm1NjQrK76JPPAvlnF33tIswc2Z0Fg0nTb3gr9GXJ2V92vDAzj/gkHeQAAAABaRGD7VnWPeeg/vt5/d/R5/FqalPuqfk9hvLOcPVHF34xZEMgEZwfLWVHOKnUMAu5UGL+OYgMAAADtJIz7q2wgPjXuv5krHl5jc/KzGt/T7Cr+5nLl+vZhQSAzOudPVWDHKLAfVRXUTeRcD2dfVOf8qRQbAAAAaAdBeUs5e6jKZ4ov0By/SUoN+No7DAo1vy/nf1zF376CBYFMyhe3Veg/Lmf3pH82QPx79cS7UmQAAACgLUIA66yhgVgo5095wTP7QXx6bQGAddX8nub47eXs0Sr+9ttZEMiszvlTFfr3K7RbUw4CHpfzx1NgAAAAoB1UdyDg2mNQgf23nJXk7LEa/62DU3lPob23ir99h6JoIxYEMi2KOhT4k+VsQbrXBfrzOSAQAAAAaHWjh+c92qB7ydc3nkm1AQ9toIrrDj/KgkCTfG43Gwve1qT3GfS3KCjuR3EBAACAVhbYMQ25j3z9W/B/lep7ys+bJuevS/g6Fitf3okFgabRbYelfIXgEgUWUlgAAACgtUOAvkneAfDh1N9Tzzk7VHGl2i9YDGgqUbTR2Pkby1L8PP5UXb3bUFwAAACgFXVG0+X8Hyep+R9WV2H3uryvMH6rnK1OthshPo4FgabT5V8tZzek+Lm8X7n4DRQWAAAAaEX54rZydn/DA4DAfl3X9+XsU4kPNpw9sDkLAk0nijaSiz8rZ8tT+nyuVGAfo7AAAABAK+qJ95ezxY19/r8Bv7iH8dcSHoh2PosBTSsoHCgX35xiSHeJ8tEsCgsAAAC0mu74bSk/T7y+w/+ulUam1P095edNk7OrE7y2NQr9m1gMaFr5edMUxpGcrUztloCwby8KCwAAALSa0N4uZ0vrHACskLODG9cQFbaQs9sTvL7b1BlNZzGgqTk7WM7+mtJn9gkFdjRFBQAAAFpNYP8qZ0/U8dn/xj9bHPTtKWcPJ3idX2AhoOnNHZghZ7GcrUnhs7tGzn++ITt3AAAAADSyYS7uJ2d3pt/8x+VJe09h/Do5e3qCr3WZuvpfzkJAS3D+yCquxhzv8Z2fcFgmAAAA0Gry0SwFdoGcDafz62H85Un/9dDZEQkecbiGXzvRMnKlrRXYj1IK8+5WT7w/RQUAAABaTbcdJmd/qaFZuFPOjsjM+wnsmLFzCCby2ntYAGgpoc/J+WdTCAGeURCfSEEBAACAVhNFHQriE+T8dRPcEbBm7P/2JEVRRwaboPfL2eoJbHd+UvnyTiwAtJTA9pWzG1IIAYblfG8mP+MAAAAAUpAv76TQAjn7qpz9QaHdpNBukrM/yNk8hfGH1FXapQmaoHCCYcbPmHS03ud43jQ535vSAYE/1WnRphQVAAAAQHY5+4CcrZrAToA8xUJLysVvkPP3phAC3KMwfgUFBQAAAJBdgXXK2coNNDdLlOvbh2KhJYXxZnI2L4UQ4Ak5fyQFBQAAAJBdOX+snC3fwC6Aa3nWGa0dBNh7R5v4mkKAVXLxf1BMAAAAANkVxCdO4HaAD1MotLRu21vOrql5N0DoCwRmAAAAADIcAtgxcrZkvY8CBLYvhUJrG5mi0OcU2pM1BgFXcDggAAAAgOzK+QPkrLKepuY2BdFMCoWWF5S3HDsbYLimwwGD4n4UEwAAAEA2dfW/XIE9sN7tzUDbBAF2jJwtqCEEeETddhiFBAAAAJBNudLWCu3acRqaYeX8sRQJbaOztLHCOJrAjRnjjRUK4hMpJAAAAIBsmj2wuZy/apyGZlBdvdtQJLSV0L9Jzm6vMgRYrjA+jiICAAAAyKYo2kiBXTBOQ3M5BULb6YymK/BnTuDWjHFCAH8URQQAAACQXYH/hJyteWlD4z9KcdCWnH9jdWcD+Gfl7GAKCAAAACDLDc/x67gmcIWC+FCKg7bU1buNgvjnVewEeFC50tYUEAAAAEB25fpfK2cPvqiZWah8cVuKg7YURR1y8XmJQ4DQfqUo6qCAAAAAALKrq3eblx4O6K+imUFbC+NPy9lwohAgiM+icAAAAACyLYo65OzsFzQ8QVymMGhrQXx6wp0Aa+TsXRQOAAAAQPaF8XFy9tQ/G5r4PygK2pqzyxKGAE8o6NuTwgEAAABogoan+Eo5u2+smVnNL5po789D73brOCxzQ+MGzR2YQfEAAAAAZN/ouQB/5JozQJKz71VxPeD5FA4AAABAc8hHs9Y6HPBhddveFAXZW6fzpilX3ENh4V8UxrPl7FNydrZCG5Czb8vZT+Xsf+Xim+Xs/rXGQwrtyQkNZ8uquBpwRM5OYoIAAAAANIe5AzPGGqgRObtfge1IUdBwnfOnKte3j5w/Xi7+rAK7RM5fJ2eVscdURjI6lqq7eAgTCAAAAKBJmq9ouoL452Pbmm9RvrAFRUFdm/2gcKBCyyuwb479cr8sw03+hsageuJdmVgAAAAAzSGIZsrZ1WPXA/5e+WgWRUEqoqhD3XaYgvgsOfuNnD3dxM3+eOM2ndy3FZMNAAAAoDnko1lyds1YQ/M/hACobS354+XsG3L2SAs2/C8dgfUx8QAAAACax2nRpnJ2vZyNKLTfqrO0MUXBhETRRgr8uxXYj+TsubZo+tceYdzPIgAAAADQXPKFLf55RaD9hhAA69XlXy1nJTl7uO2a/n+OxxX4U1kMAAAAAJowBHjBFYHX8HwzXiDXt49c/Fk5+0ubNvxr5OxGBfFZCuJD1Tl/KosCAAAAQPOaOzBDof/OWMNzhwLbl6K0q5EpcnawAn/m2Kn97fkrfxhfqiCeozl+e9YEAAAAgNYT+o/L2So5e1qhfw8FaSOzBzaX85+Xs8G2/JU/tJvk7GyF/k38yg8AAACgTUKAwr/I2Z1yNiwXf5aCtIEgPlTOFrRPw++fVRD/XoE3BfGJ6jlnBxYBAAAAgPbUGU1XYJ+TsyUK4tMpSAvL9e0jZ0+3YKP/tEK7Vc6ukIvPG93dUniHcsU9mHQAAAAAeElzWNpaQXy6AptLMVqUs+83YXO/Ws4qcv46ObtMzryc/6icP165/tdykCUAAAAAVItnols5AKhkvNlfKWfXy1mswJ+sXP9rFUQzmTgAAAAAABIFAHF3Bq/d+7NCX1Doj9IcvwmTBAAAAABAKiGA/WGSm/4FCuKvy9kHlC9uy4QAAAAAAFAPOX9sgxv+R+TscoX2EXX1v5wJAAAAAACgIUamyNnddWr2l8rFN8v5i+VipzB+BfUGAAAAAGCyhPGn02v6/bNydpK6bW9FUQfFBQAAAAAgKwLbcezE/XRCgNAXKCoAAAAAAFnk/MUpbv1frHxhC4oKAAAAAEDW5Pr2kbNVKYYAF1JUAAAAAACyyFmcYgAwrLD4TooKAAAAAEDWRNFGCu2mVA8EDAoHUlgAAAAAALImjF+X8qMA96mrtAuFBQAAAAAga5ydnWIAMCJndymwHSksAAAAAABZ0hlNl7M/pRwCLFBgr6G4AAAAAABkSWA7KogXpRwCLFdoXRQXAAAAAIAsCYvvlLM1KYcAw3L+89LIFAoMAAAAAEBmQgB/RsoBwPPjegW2LwUGAAAAACALOudPVWC/rlMIsFhBPIciAwAAAACQBWG8mUK7qU4hwIic/7Hm+O0pNAAAAAAAk62rdxs5u6t+IYA9pcA+ps75Uyk2AAAAAACTqSfeVc4W1jEEGJGLb1ZQfD3FrrcgmqmwcJBC/x6FlpezL8jZuQrsEoU2/x/D+Yvl4i/L+Y/K2UnqLh6iuQMzKCBSM3dghsL4dXJ2kgL7mEI7R85f/MJ1aN9VEJfl/OflrEfOH6/uwqvUGU2ngAAAAECddBcPkbPF9Q0BbIVCO0f5aBYFT0PPOTvI+eMV+oKcv0qBPVDj9Q4rFdqtcvYNOfuAcqWtKTImLFfaWs4+IGffGFtHq2pYi6vl/L0K4p8riM9SYMewHgEAAIA0+8l4fwXxojqHACMK4kUKrYsrA5NyvdvJ+VPk7Ltydn/dJ2q0CbtOzj6sfGELJgAvMXtgczn/QTn/x9H1Utf1OCxndymIv67AOhWUt2QCAAAAgBrk/AFytqABveWInP1Cub59KPr6dBcPURCfJWc31Pjrfq3jOTn/LQXF/ZgUqKv/5aOPkdiSSVyTq+T8HxXY59RdeBWTAiCpkRFNWdCnrRaUtdeiog4ZKuuoSlnvG+zXqZWy8pWy8kMlfXqwX6cP9uv0Slm9Q2UVhsoqVEq6oFLSPEZjx2BJ72HljnrkXO2woKy9Fpr2XlTUIYuKOqTSr7cOlXVUu47n67CoqP0WlLXXUL92uyMSjxWOWTRPszLxWS7rfcxGxozuLL+uQd/hl8nZl9RZ2pjCP8/ZwXLxeXI2OInN1fi/woY2X922NxPVhsK+vcae3V+TwbX5oEJfUGD7MlEAnvew1yaLijpksKzZlZLOqZT0o8GS7qiUtLhS0gijyUZZve2ydh+MNHOoX68d7NcpQyX1VUr6UaWk6yolLaiUtIL1kGg8Uinpr0Ml/WqwpK9X+vWJRSW9fbCkXdrpv4cL+rRVRuajyP93yqDO+VMVxlEDv+cPjT4W0M4Ce42cXZnBxmpdY4mC+DSe42gXI1MU+FPl7JkmWJtrFNglBAFAe1pU1B6D/Tpl7NfiOyolDdP8EABk3aNf0aaDJR0xVNanKiX9oFLSPZWSVjPnDRmLB0v6Q6Ws8lBZJw2W1LLbkwkAMLGeND5BoT3ZwO/uVyhX3KO9itxte4/9qjrcJM3/2uNq9cS78klpYfnyTnLxL5twba5SEH9d+fJOTCLQwvFkpI6F5+rwsS35gzQzBADNYLCkjQfLeudQSecNlXQ7zX7mxhOVkn4+VNJ/tFIgQACACesq7SJnf2jg9/alCuLT1Tl/ausXN/Q5Of9sEzZXLzzVMdf/Wj4prZgAFg7M6KMoScbjCuITmEygtSw8TwdUSirS9BMANIsHTTsOlfWRoX5dVSlpKfPZVOPeoX4NDJb1lpFIHQQABABtIYo2avAjASNy9ie54itbs6Cd86cqsAuavLFaezwjV3gHn5QW4vyRcvZUi6zPYYVxxKQCze3+grYYKuk/KmXdRENCANAMFhW1baWkD1VK+h2/8rfMWDTUr4FFRf3LyIia6lFYAgBUJfTvkbPFDX3UvOXOBuicP3XsKr+RFhsrFBbfyaekJT7oR8nZ8hZco57JBZrPQ0W9slLSdyolLaf5IADI+nodGdGUobKOqpR0ZaWkNcxbS4/KYL+iRUVtSwBAANDSevzLxm6la+D3dn+x8tGs1iigs2ILNlb/DAECO5pPSTM3//Fb5Wxpy67RMP4kkww0h0XnafdKWd+slLSKRoOR9QBgJFLHYEkns0OlLcczlZK+sug87U4AQADQsjqj6XLmG3xu3e3N/0hAYEc36WF/ScZTCor78Slpyub/FS207X+8sVLdxUOYbCC7Hixry8F++UpJy2gsGFkPAEbma2qlrHylpAeZo7YfqyolfWdBWXsRABAAtKwgPlSBPdDA7+7LFFrQrM3VZnK2sMWbq+fHba2zZaNNzPGbyNltbbE+Q7tVUbQRkw5krJEa/QX1Y5WynqSRYDRDALCwpNdV+nUDc8N40XhuqKwz7x3QDAIAAoAW7Ru2b/AtYcNyvrf5bgkI/Rlt0vyP3Q5g3+TT0URa81yK9YQAPsekA9nxyLnaYbCkX9M4MJohABgsaeuxcymGmRfGesb9i0p6OwEAAUCLxvZTRm+0a+ABgaH9Sif3bdUc9Tkt2rTBpydmY+T8sXw4mkAQn9h2a9PZ/YqiDiYfmHwLz9U7KiU9RrPAaIYAYOG5ej3b/RkJxnClrPJIpEnfeUgAgLo4uW8rOZvXwB+ZH1B34VXZL0wYf6gNG6zRJquztDGfjEyvzc3kbLBN1+e7WADA5Bq7Io1D/hhNEQAM9ut01iujyrV702QfEkgAgLpy8fvkbKhB3+GfkPNHZrwgdk2bNlgjCuKz+ERkWBCX23ZtOvseCwCYHCOROipl9dMYMJohABhbr2XmgFHjWFDp10EEAAQALeu0aFO5+MtytqwhB3uHls9og1XeUs5WtW+T5Z9VV+82fCIyqKuwu5ytaOMAYHHzHSYCtEjzP/r8NA0BI/MBwIORZlbKuoL6M1IaS4bKOooAAK39A2PfngptfkNuvwv8mdkrgPNHtnGD9XwI0MsnIYOcXdT2a7Mn3p+FADTWUEl9NAGMZggABkvauFLSldSe0QohAAEAGt9rFF/ZoCDg29m64Sv0HycAsMXKF7bgU5ClD2T/bnK2vO3XZujfz2IAGthQ9etUvvwzmiEAGInUMdivn1B3Rp3Gskq/DiUAQFsI/Zvk7Or6fqePL1VnND0jjZb/FgGAjcjZf7H6sxQAxOexJtmdAjTSoqIOqZS0nC/+jGYIAColnUPNGfUcQyU9NNSv3QgA0DaCwoEK/Xfq9nh8YL/OxgH0zm6kyRq7soHnrbNh9sDmcvY069JG5OwKFgRQf3dEml7p12186Wc0QwAwVNLxlZKGqTmjAeP6Rl0RSACA7AQBfXuO/Ri5tA7f7a+e/BDA2d9psp7fmmHvZcVngLP/Yj3+Y1zPggAa8mvq2XzRZzRDAPCw1/aVkh6n3owGruszCADQnj1J73YK40ihPZnyLXS/12nRppPZbD1Bk7XWZGBy5edNk7MK6/Ef43YWBVBfi87T7mz9ZzRLAFAp6VJqzWjwWLHwPB1AAIC21dW7jcI4krPHU/yOf6Xy86ZNVgCwiiZrrdFdPIRVPplJm53EOnzBWMiiAOprqKSv8QWf0QwBwGBZb6HOjEkavyUAQNvrjKYrtC45uyel7/k/bfztAJ2ljWmwXnJC49dY3ZMaAPyJdfiiGyoA1M3CWDu32K//yyplPcmYnDFU0hfrtVZHRjRlqKQbaUQZkzUWlfR2AgBAUhR1KLBOObs9lSsCNTKlcS/+5L6tMnLS+R8z1HA9p1xpa1b2JBi9giMr62C1nL8uA69jBQsDqJ9Kvz7bRL8uP1kp6ZpKWRdWSvpCpV9dlX69dehcveKRc7XDg5FmMqMtHFadq3e0SCO5qlLS34ZKurxSUnGwpM8MlZSr9Kuz0q/OoX4dN1TWUS0x+nVcpV+dlbLyg/366GC/Th/q10ClpP+plPRYE87dtQQAwFo6509V4P9dzt9S4/f9s9swADAvZ9dk6Oq1z7OiJ4GzyzO0E+RSOfsuAQDQukZGNKVS0t8y/GX7rsGSzh8q6fjKgHZlxto8rCrpd03a8K8c6tfvK2WdUenXWx/22oTZHPXIudphsF/HDJV0Xsb/W7T2LoB/JQAAXvKNYopy/lg5+0sNh9Hn2y8ACOPjMvTr79DkHcrQpnJ9+8jZmgwFAK8jAABa26KyDs7gF+zVlZJ+OFjSG5gh/GOtjh5UuabJzkO4qVJW/v6CtmAGJ9gAl7XXYL+isd0+mZzXoZLq9qgsAQBaQuiPkrO/VvGdf42C+IT2CgA0MkXO7sxQCPABVnAjPyw2kKG5/4MkEQAAra3Sr89nrGG6b2FJr2Nm8JK1WtLnmqXxH+rXVQvP1eHMWvWeGNDmgyV9plLSoxmc48X1etyIAAAtY+7ADAX+E3L2VMLv/c8oLBzURgGAJGcfztBjANexehukq3cbOXsuQ9dBnkAAALRFU3VNhr5U37OoqG2ZFYyzVv/aBL/4Dw2W9B5mKz0PlrXl2JkBw5l6DKCsuvxKSQCAltNzzg5y/mI5G07w3X9QPefs0D4BQD6aJWePZacRLL6eldsAQXx6hn79v0dR1EEAALS2kfmaWilpSUa+bD6zqKz9mRWsy8Ne22etAVzH+AUBVv0sKuuESknPZmW+B0s6nwAASMD5N8rFNyf4MfL39XscPWsBwGjTdXZ2ngP332HF1llnNF3OKhn69f+0tdYiAQDQul+o98/QL6dnMCMYT6VfnRlv/i8YidTBTNV9HRyambMB+nUbAQCQUBR1KLT8hHc9B3ZB+wQAc/z2crYsI69rhQLbkRVbR2E8O0O//j+ufDSLAACgqWrgL2lPP1jWlswIxjPYr//O8PP+F42MaAqz1BhDZR1WKWlZBuZ++KEBbUcAAFTT+xQOmvBtAWE8uz0CAEljz0pk5BdhfyYrtY6c/Tk7Oz7snBe9NgIAoFW/SJf06Yx80fwus4H1hlXZOqviBXfC3xFpOjPU8EDo1EyEl2W9hQAAqFJ+3jQ5+5Kcrd5AH7BcYfGd7REA5PwBCQ9LqOeW8EXqjPh/cPVp/o/I0K//y15y4AYBANC6TVVZ5Yx80Xw/s4ENBACVDDb/SwfP077MTuONjGhKpaTfZuA6wBwBAFCj0WvH79tAL7Ay3esBsxoASJLzV2XoRoBTWKF1CQB+mp2dHvbNdbw+AgCgdQOAy7LwRfNBE4+ZYVyL5mlWJg8ALOvLzM7kGerXayd7XQyV1EcAAKRg9sDmcva9xoUAWQ4AQnt7hraG38TqTFlQ3C8zuzycDSvnDyAAANooACjp5xn4kvkoM4H1Nnrn6hUZ/PX/ucp/axtmZ3INlvTrSQ4AvkcAAKRlZIoCmytny9e7W9kV3tHaAYAkOX9Lhk6HP5TFmWYAYP+doe3/V697/REAAC0cAPwmA18y72EmsD4LS3pd5g7+K+lyZiYD4VBJ/z7Ja+FnBABAynri/eXs9vX2Bc4f3+IBQOwy1CR+n1WZkq7ebSZ8BUZjtv8fTQAAtFkAUNYfM/Al8y5mAuszWNIRWQsABsvqYWYm31izvHoS18LvCACAOjgt2lTOvr/e3iCMj2vdAGDuwAwF8aKMvMaV6ol3ZVWmwMWfzdDjHbeO/zoJAICWDQBKuo4AAJkPAPp1TOYeAejXQcxMZv479tdJXAc3EAAAdRRa13p+MK0hBMh6ADDahH0hQ7sAzmY11qgzmi5nQ9kJAHyOAAAgACAAQBYtKuuErAUATwxoc2YmI/8dK2v+JK6FWwgAgDoL4kPlbME4PcJShYV/ac0AIFfaWs6WZOR1PqogmslqrGkhz8lQoPOQ5g7MIAAACAAIAEAAMKGxZmREU5iZbBgs6esEAAQAaHFhvJmcXTZOn3C38vOmtV4AMNqIfTVDW8YDVmK1RqYotFsz9Ov/GRtYdwQAAAEAAQAIAP45ljErGfrvWFkXEgAQAKBNeqggPl3OVq3jLLOwNQOAwPaVszXZeK3xzSzCKgX+LRn69X+JcqWtCQAAAgACABAAEAAQABAAEAAg80J/lJwtfmGv4BN+FpslABhtxq7I0Knx/8oKrEKW5tDZhRN4vQQAAAEAAQAIAAgACAAIAICM9FPFV77kXIDQv6k1A4Bc8fAMPQYwn9WXUFDcT86GMzKHa9TV/3ICAIAAgAAABAAEAAQABAAEAGgqPfGucnbfWv3CZa0ZAEhSYP+Xkde7Sl2F3Vl9CYT+Kxn69f9nE0vYCAAAAgACABAAEAAQABAAAFnrrfr2WisEWKF8eafWDACcnZShxwD6WHkT1NW7zXrusZyEufNvIQAACAAIAEAAQABAAEAAQACA5g0B4s3k7MqxswC+1ZoBQBRttJ67EBv9GMCTykezWHkTENjnMvTr/w0Tft0EAAABAAEACAAIAAgACACArMrPmyYXf1nOVqjbDmu9AGC0KftUhprJHlbdBnRG0+VsKDvnN8SzCQA28B+R0B816SPXtw8fngZz9mE5mzfpgwAAIAAAAQABAJBMT7yrcv2vbc0AYPbA5nL2VEZe9+3SyBRW3HqE1pWhwGaB8vOmEQCsx9yBGTxi07YBwOWZmHsCAIAAAAQABABAnTRjADD6RbWUoV+U38pCGs/IFDn7a4YCgP9KuM7a8xEAZ8sIAAgACAAIAEAAQABAAEAAABAAZCMAyBX3kLNVGTkL4CcspPEaCn9khpr/pzV7YHMCgAm974cJAAgACAAIAEAAQABAAEAAABAAZCMAkCQX/yAzd8qHfXuxmNbZUFyZoQDg3Cpef7sGAPcTABAAEAA0ZNzNwgMBAAgACAAAAoCJCOPXZai55D8UL9YT7y9nwxmZn1UK+vYkAJjw+76HAIAAgACgIeNBFh4IAEAAQAAAEABM+Aur/2NGXv9inRZtyoJaS2AXZCeg8T+ssiFq1wDgLgIAAgACgIaMVQ9GmsniAwEACAAIAAACgIkI/XsytAvgwyyoMfnitnK2NDNzExRfTwCQ6H3fTgBAADB5AUBjblbJSAAwsvBcvZ7FBwIAEAAQAAAEABMRRR1y/t6M3AbwN64E/Ecj8YUM/fp/XQ3voz0DgNBuJQAgACAAaNj4HIvv/7d37lFylGX+/+YewkVA5S4gLig3QRB1WVAUFJUVdHVcBRK6OjGs+RFddYVdXLBZlUxXdb01GYM6Lq6KrkhQ8QYqcPAKZiWAIlnQEJKZeqsTEsItEHLv3x/TsBC659qXt7o+n3Oew+GcyfRUPW9Vv8/nvQECABAACAAABMCIO63Fi9w5EtB/R+bbVK4wXZ7/sEM5eT8CYNTP1N0IAARAxwuASL91pKN5C40PEACAAEAAACAARsrcwgx5/iOOXMdPMt+m8n7OoWUZD6pr8SQEwKiv+04EAAIgAzMAfupIR3PjuqJ2pwECAgAQAAgAAATAiDuuwZWOXMcO5Yuvzm6DqkyQ5//Zoen/HxtnQZRVAbAEAYAAyIAAuMaZoirUhTRAQAAAAgABAIAAGCn54gHy/M2pPW++U8gHZzg0+v+IZga7IgDGJNRuRwAgANoWhcLEVlxuYrTAoaJqxfJeTaMRAgIAEAAIAAAEwMg7r9905Fqe1Hm9e2S0gLjRnbX/QXcDrgcBgABAAHSoAIiN3udSYRUbXUEjBAQAIAAQAAAIgJGS6z5Wnr/DjWPn/PmZa0tzikc6c/89f7NmmQMRAAgAQADUY6CoAxwrrLbaUG+lIQICABAACAAABMBIyfu3OrL2fHmrOrEOFQ9fcWj6/7cadE1Z3QPgDgQAAqDTBYAkWaM/OTYL4Akb6k00RkAAAAIAAQCAABiRACi9y5kiNOe/OzPtaG7pZfL8jc5sxDgreC0CAAEACIDhSCJd7FhxVbFGT9lQXTRIQAAAAgABAIAAGJbKBHn+MkdmAfw8M+0oH1zm0Oj/bQ0siBAACAAEQCcLgFCvsEbbHJQAFWt07ZpAr6RhIgAQAIAAQAAAIACG7sTOcWYkek7xyI5vQ7nCdHn+w84IgNnBWQgABAAgAEbcgTb6hqMCoGKNNttI37SR/rZS0EQaKQIAAQAIAAQAAAJgZ+b3TpPnr3ZkGcCizi8aip5Do///29AzxLMrAH6PAEAAtC26Fk9q5WWvjnSoNdrssAR4NtYmob4dG51rQx2xtE9TaLQIAAQAAgABgAAAQABIUi74rCPLADYoF+3ZuQ2oMkGe/2d3jv7z5za4IEIAIAAQAB0uACQpDhWkQAC8+NQAo+XW6KbE6Kux0ReTSN021GfiUJc4H0Yft5HmPhux0blJqLNtqLeWSzqxvFAHLytoKgIAAQAIAAQAAAJgBB3ZK1/uzKZ0ueCTHdt+csW3OzT6v0bze6chABAAgAAYLSsLmm5D/TmFEqDTY0ditNoa3WUjfTcxutyG6uo3OrpS0GQEAAIAAYAAQAAAIACe35ntc+TaVrajQ9uagqF4kzuj/8VCE9pQVgXAEgQAAiBLAkCSbKjjrNEmiu7UxCZrdJc1+q/EaF6/0dGViiZ02mOJAAAEAAIAAAEwUmaFR8jztztSnJ7decVC6Sh5/g5H2s9GzQz2QQAgAAABMB5io3Ot0Q6K69TGWmv0vTjSnFWR9kcAIAAQAAgABABAlgSAJOWKP3VkbfqtHdd28sWvOjT9/z+bVBAhABAACIAMCQBJskaXUkh3xvIBG2mpDfWZ/kiHIQAQAAgABAACACALAiBffKszReqs4LUd027mfGFfef4mR+7tduWLr0YANFKc+f+DAEAAtPEYwLav7bZGJQrojoslidG8tVdpNwQAAgABgABAAAACoFMFgCR5xbsduca+jmk3zpyy4FfkFW9qYkGEAEAAIAAyKAAkKTG6yBptp3DuuHjGGl0zsFDHIAAQAAgABAACABAAHSkAgvOdWac+68qXpr/4L0yX5z/szuZ/wRkIAAQAIACa1Lmea402UzR3ZGy3kX5kQ52OAEAAIAAQAAgAQAB0kgCY2zdFnj/gyHVenPo2kw9mO7T2/54mF0RZ3QPgDwgABAAC4LkO9vHWaDkFc+dGYnRnHOk0BAACAAGAAEAAAAKgEwSAJOWKlzhynf2udW5HR2WCPP8+d0b//VkIAAQAIACa3slepJdaox9TLHf8poHfdW3DQAQAIAAQAAAIgDEJgGhPecEGR4rW96e3QOg+06HR/1hz+6YgABAAgABoFUmkD1ujhymWOzo2W6PSmkC7IgAQAAgABAAAAiCtAkCSvOJCR671V+ktEIKfO7T537+1oCDKqgC4EwGAAGhbNFvsjbfDvUgvjUN9zRpto1ju6FieRPo7BAACAAGAAABAAKRVAMwJXinP3+bE9eb841PXVmYFr3Wn+A826NwFeyEAEACAAGgXq0s6yhp9zxrtoFju2NiWGF1eWaxJCAAEAAIAAQCAAEibAJCknP89R673a6lrK7ni1Q4JgC+2qCBCACAAEAAIgKELtJJOjEPdwJGBHR232kVqyyk+CABAACAAABAA4+rgdp/syPVu0sxgn/QU//5+8vxNjty7bZoTvBIBgAAABIBLrI50aGK00Bo9RcHceREbPbS6pKMQAAgABAACAAABkCYBMNjJvcORZQCXpqad5IsFhzb/+0EL20o2BUDeX4oAQAAgAMbGwz3a1xp9whrdReHccfGwDXUcAgAQAAgAAARAqgRA8QOOXHOSio5ul9lFnr/WnaP/uk9BACAAAAGQBsqRjrSRPm+N7qd47phYX450AgIAEAAIAAAEQFoEQNfiSfL8Bx257n9MQVEwx6HR/9+3+NoRAAgABECro6swtRNvb7xQh1ujT1mjX3GCQLojMVq9OtKhCABAACAAABAAaRAAkpTzP+7IZna3u91AKhPk+fc5JABaK0yyuwfAXQgABAACoHmsK2r32Oid1ugLNtJvrdEmCuvUxb2x0S4IAEAAIAAAEABpEAD54u7y/Mfc2AugdJKz7SPnv9Oh4n+Fuha39iim7AqAexAACAAEQOtYWdD0AaPXJ5HyNlJoI91sjcoU2Y5HpC8hAAABgAAAQACkQQAMdnaLbqxpD65xWAD8wiEB8Ik2tJGMCoDgjwgABAACoP2s79Ue5Ugn2FBdNtS/xUZXx0a/sEZ3JEb3WaN+a/QYxXjbYke5pKbuS4MAAAQAAgAAAdAoZpkD5fmbnSjwcv5+zrWNfPdxDhX/jytf3B0B0LLrvhcBgABAAKSPcp9m9C/QXi7Gwz3ad6BHJ8WR/iEO9bHYyE9Cfdsa3WGN1qVYAtxTKWgiAgAQAAgAAASA6wJAknL+t91YBhB81sFi4GsOCYBSm+5BVgXAfQgABAACAFpJ/wLtlUT6u+pGidfbSI+mZlPAUE3bnwYBAAgABAAAAqCxHd4T3BAAxbJTnd6cv588f5MjbWOL5hQPQgC09LqXIQAQAG2L+b3TSAYsK2hqYvQeG2mxNdrq+iwABAAgABAAAAiANAiAwU7vLx05EeB8hwqBKxwa/f9OG+9DVgXA/QgABAACAFyhvFAHx0ZfdFkExD16LQIAEAAIAAAEQBoEQC54jxubAfpLnWgTXWYXef5aZwTABaUTEQAtJl/8CwIAAYAAANeIjY61Rvc6KQBCFRAAgABAAAAgANIgAAbPuv9fR5YCvKntbSLvz3Wm+M8Vf93mgiirpwAsRwAgABAA4CLritrdGt3ooAS4HQEACAAEAAACIBUCQJIXXJj56e6SVChMlOc/4M70/+AcBEBblgA8iABAACAAwFWW9mmKNbrJscJ4YzNOA0AAAAIAAQCAAGgGg9Pe12V6wztJyvnvdmjt//1SZQICoA0CIOc/hABAACAAwGVWRtrTGt3vVHHcq4Z/fyMAAAGAAABAADSt6Cn+hyP34nNtLABucWj6/zwHCqKszgBYhQBAALQv94XpJANGQrxQh1ujjZ28ESACABAACAAABECzmBnsI89/xoF7sbYtHeCcf7xDo//rNLcwAwHQNgHQjwBAACAAIA0kRgtcKY6TUCcjAAABgAAAQACkRQBIUq54tSMnAuTaIAC+7o4AKH7ekYIoqwIgRgAgABAAkIoCqFcHuVIcl0s6BQEACAAEAAACIE0C4ILuo+X5OxwogO9u6XXPjfaX5292pC08o5nBPgiAtgqABAGAAEAAQFqIjR5CACAAEAAIAAQAAAJgbOT9n7nRCfZPbWHH/3PurP33v+5QQZTRTQCLZQQAAgABAGkhCfVrBAACAAGAAEAAACAAxlr8vN2RZQCLW3K9M4Nd5fnrHWkHOzQ7OAYB0PYZAGsQAAgABACkpggy+ikCAAGAAEAAIAAAEADj6Qjf48A92apZ3Qc3/1qDCx0a/f+FY+0gqwJgLQIAAdC26DK7kAxAACAAAAGAAABAALSwI1y8wJGCuLlFUKEwUfniX9zZ/K/7TASAEwLgEQQAAgABAAgABAACAAGAAABAAGRDAHQVpjqxDjrvP9rU4/BmB2e5U/wHf3Tu+ciuAFiPAEAAIAAAAYAAQAAgABAAAAiAbAgAScr5lzpyb+Y07Rrz/q0OTf/PIwCcEQCPIQAQAAgAQAAgABAACAAEAAACIDsC4NwFe8kLNjhwb+6TKhOaIDiOd6f4L5Y1v3caAsAZAfAEAgABgAAABAACAAGAAEAAACAAsiMABovkRW6cCFB8a+M7+8E3nBEA+eAyRwuirAqAJxEACAAEACAAEAAIAAQAAgAAAZA1AXC4PH+7A3sB3NDQ65ob7S/P3+xI7p/SbLM3AsApAfAUAgABgAAABAACoN0CoLxQB/dHOszFWNqnKQgABADASFlZ0PQ40mmJ0TxrZKzRddboJmt0S/W/19lIoQ310djoLct71aTZ0QiA4cn7Nzhwf7Yrv+CwxnX0i593aO3/lx0uiLIqADYiABAACABAACAA2i0AbKjTrdGTjt2DZ+OXK7r1EgQAAgCgHrHRgXGk+dboVmv0zCjb4UYb6ebEaN6qSPsjAFpJzj+1o+7RzGBXJ3Z5f1Zs5PzDEQDOCYBNCAAEQPtyX5hOMgABgAB4lgGj11ujtU5KgFB/jo0ORAAgAACeTxLq5Njoh9Zoe4Pa5HZr9L3Y6A0IgNZ1jJc4cI8e07zCbg24lo+6c/Sf/2PH855VAbAZAYAAQAAAAgAB4MoeAAO+XmUjPeiiBIiNHooXqi2DGQgABAC4RbxQh1ujG5v8zvlhf6RxzAxHAIyMXPAhR+7TR8d1HYXCRHn+Xx0SAG9BADgpALYiABAACABAACAAXNoEcFWk/a3RPY4uB1hTjnQCAgABANmkUtBkG+kya7S5Ve/i2OhfK4s1CQHQLAqFyfL8VQ7cp/8d15GAueA9Dq39/58UFERZFQDbEQAIgLaFi0eCAgIAAeDEKQArI+0ZG/3GUQmwYaBHZyIAEACQLcolHWKNloywbe2wRn+xRtfHRlfEoS55NqzR56zR963RihG31Ui/Hf0yJATAaIrnT7pROBffPo4O/m3uCIDgXASAswJgBwIAAYAAAAQAAsDFYwCX92qaNbreUQmwOTH6EAIAAQDZYMDo9YnR6mHa09bY6Iex0fv6F2ivkfze1b16eWL0ocToZyPYRyC2kY5HADSDfHF3ef7jDtyrn4zp758dvs6hqf/9KhQmIwBcFACVCY7MEEEAIAAAEAAIgNrfVIs1yRr1OSoBdthQn0QAIACgs0lCnWyNnhqq8LeRvrQ60qHj+h4o6TXW6Jrq7IF6+wI8MdCjkxAAzZEAoQP3aodmhUeM/m8PrnFGAOSLn05JQZQ9ATC4TwQCAAGAAAAEAAKgZoe2UtBEJyRARROqZ2m7KQGMLkUAIACgQ793Qh1njR4bog3dlYR6XUO/D4xOtUYPDPGZj6wu6SgEQKOZUzxInr/FgfvVk9K/uyLPf1zn9e6BAHBWAExGACAA2hpdhakkAxAAzgqAiu3VQS7lP4l08VAjY+2MxGhhM4VJbHR1JwmAtVdpNyfyFqqXNyvUfS+X9DJr1D+UQFpWUFP6MmsC7WqN/muIPQEeXBlpTwRAo8kXr3Xgfj05qiLaC650Z+1/MUpRQZQ9AdBVmIoAQAAgAAAB4IYASEKd7VxhG+ksB9vABdZoq6OzAa5tVjGQGP13G6/r7kZfT3VWx/Z25yw2upo3K9RsowVNtJFurtN2tidG85792eW9mta/QHuNJMp9mjGqd97giQP12vCPKxVNQAA0VgC83pECaf6I/t55hd2U9x91JM9blVtwKALAYQGQK0xHACAAEACAAHBkBoDRO5wb1Y7U7WQ7iHSWNXraUQlwy7qidm/4NYf6QxuvaUmTnucNDkiuH/FmhVrEoT4yxIyfi3YSdPPG2AbL1ui22MiPe/TGesV8HKpQV2KFOh8B0PiO8m/af8+C5SoUhp9Wlvf/nztr//3FKctzBmcAmF0QAAiAtsbcvikkA0ZZMNzYwQLgVAeLWWeP8a1uyrXe0eUAd64JtE/DChGjXazRM22cJv/rpuRw+B3VWzEDYBlvVtiZ1b16+RDvl54abXleg9rk7eVIJ+z8+6szZr5V59+sqb8UAAEwNnLF9zpSJL17yL9zcEO3v7oz/b90UqrynEUBMDPYFQGAAEAAQJpIjO7rWAFQ0okOFrPbyiW9zNlOeklHWaMBR2cC/HVNoFc24joHenRmm4XGz5qRv9homQvHOa4JtCtvV3hB2wxVrNNefr+0T1OaKAAq1mjjQI/OfNF3RJ9m1PsOjI2uQAA0EmcK6+DnQ3fog3PcOfovuD2FBVH2BMDgcZcutJcr+apBAAAMx7KCprZzFPQFna0evbHR1zdQ1AGOFrKfcLldrPS1nzW629F7t95G+tvxXuMQI3+tim81SQD80AmhZ/QO3rDw3PO2SC+tszxl68BCHVNHTtcSAA9boxU7xSpr9PgIZqY8sSrS/i/6nMGZT7U2Qn1sRbdeggBoJLniPCeOBJxTPHKIDv2vHNr87x8QAMwAGMUMgK/zdYMAABi2WIg0x5XCrl4ncDxUz7t3cXO7+105DnCIQnJva3SHoxLg8djoLWO9tupU5I3tPuGgGXlLInU7stkl/RB4frv8lzrt5Ct1/00NAZCE+sehPmdNoFcmRrOt0f112uZVdYTgtTWlQaT5CIBGMrcwQ57/iAOF0qLagqJ0kjuj//6DI9qvAAHQfgEweN0bHbjuO/m6yagAKBQmkwwYUXFc0GRXpv9bo0p5oQ5uysjT0MdNtXMzwA+73kbKfZrhyiaRNeKZONI/jLFN9LR9xkuoS5pSaA0WPxUH9gF4ovboKWQRG+rPtZZD9Uc6rJEC4FlWFjTdGt1S4zNtrU0BY6Nja80CSIzuRAA0mrz/BQemSm9QLtrT0eJ1dCcWIADcEAA5/yEHrnu7ZpcO4SsHAQAwxIhMt0PF3NbKYk1qxnXGRr9wtIAtD3/etBuiyEb6pqP3cJsNdeGopEakE6zRZgf+9g82I18DPTqJEy/AJfqNjq4jwW4YRmaNWQBUpcMRdeTUgXXE4C11fv5vEACNZG60vzx/c/sL7OCTL+zIh6+Q529xJLePaG5hRirzm9kZAMHtbpwaEVzG1w4CAKBmRyfS26zRNocKuZVNvNYrHS1eK3GoG1xfCiAN7pYdG/mu3sck0mdHch0ruvWSIaYGt3rTyxObkqvFmmQjPepIbjY1Y28PSBdxqI/Vef+9v5kCoFrUP/miZ6/GiQDVn72gZjt+kWREADSiWPqGA/dvpboW/9/IQ85f4NDof3p3c8+qAMgXQ0faz2qd17sHXz0ZEwDPf5cB1O5UnWONNjlWxF3fRAHwAVcL1+oa2DA14sjoU3U2y3LhPn5pqFkkywqaaiPd7MqMl9holybm6XsO5caujnQob95MC4Abap0UUe7TjGYKgEpBE2vN9omN3lDr5/sXaC9rtL3Gu+W7CIBGMzs4Rp6/o/2jpcWzJUnzCrsp7z/qSF43K188AAGQtiUAwXsc2j/ia3z1IAAAnutQhTrblV3/dxrBvbhZ1/xwj/at2alzq3iNmrUEogmd+fOt0RZH7+X1y3s1bee/ee1V2s2xpSD3NFnU/JNjeVllQx3BGzijAsDooRpt4o4RyOpxCYB6y2GGElLW6J5am7YiAJrTcb65/QLAv3Xwbyle5Ezxlg+uSXleMyoAoj0dWkJSUT74Z75+EACQbaob/l3ubCEc6rgmF0RLnBYAgx3bn68JtE8qOvSR3mWNnnL0Xt62vlfPzX7rNzq6zgZkbZ2t0Mz8VI9xdE3SbIhDfaTWBmzQuVQ349teY/r/omYKgKV9mmKNflmjHa4datlVbHR1jX+zpVLQZARAwwsm/51O3MfZ4esc2cBt8IjCWcFrEQApFACSlPcXOzQLYIc8/3IKw4wIgDSeGAJNZaBHb7ZGdzlc/K5sdlFgjf7ddQHwbOc0jnReGoqkuEdvtEaPOHof7y4v1ME21GfafdxfnSMAz2l2fqzR9x3NzZJySafwZs4GSY9eXUf6Djs4NVoBUKlowppAr7ShZtUZya9Yo74h32uhLhl+1gACoFFjExPk+fc7cB/vdWftf/HXHVAQZVcAeP5bHBIAz85y+Z1y3cfydYQAgGyMulSnav/O+ZFvo8ubfT/6Ix3m/DKAF44QL7WRPvDCUSf3KJf0GlePWXRsk8sXbIy3rqjdWyD+znS8nd+TGF3UrOM/wRkBfVKdGU/DjuTXEgDW6Ckb6dEXhdGGEbS5J5NQrxhSnEWaOfwsNQRA48gHs50rmNo6GyE4CwGQYgEgSV7wRwfb1jblilenfnYJAgABAC/U6INHtf2tNbq0epTRxpQUu5ttrw5qyUhUqJ+nRgA8bwO1JFSvjfQ2V2VAbHSgc1Ps3Y7vt+idMNEaLU/JPfmjjRTFRu9LQr2CZQKdgw311jqSc9g6p44AGPuJFKHePYL32fvqnNpxCgKgGczvnSbPX03x71fk+cukSvpfflkXABcUT3e8nS1Rzr9U+e7jWB6AABgNywqamkQ6g2htlI3eYUN1xaE+Ehv9qzXqqxb7K6zR1jQWQ4nRV1s2Wh3pvSkvHNfHob6TRLrYRjprdaRDXSmUqrtn/47ifkRt/j0tK76MPpjS+7TRGv3JGv3URvp6Eqk7DnWJDfXPNtLc2OhcG6qL74XmRxzptHEKgNNrHgEY6V0tEwCRfjvSfWaqG+W+6HcM9OjNCIDmzQK4jOLfrygXfKRDCqJsC4DBWQDXp6PdBRvk+b9Szl+kXPES5YvnKR+coZx/qi4onahZ4RHKLziMGCJy/i+cyGUL5GF1gyk688R44+lySYe0bJZERROGWBea1njSGq2wkZZao9tspB/ZSIvbEkY/cfaIQHdieatPe7CRfst9J8YRj49rhtDgXiG1ivIPNFEAPGKNvm9D/ZuNdPwoZzSdW2fJwusQAM1ittlbnv9UxgXAGs3vnYYA6BABMLt0iDz/ccQWgQAgiBeNhH66DdNR/557T7Rxb4e5rW7z5ZJOQcwQ7RIA/UZH11lTf+FYBMDOewes79Ue1qi882yplb72G5OwCPWxmjMWjP4GAdDcovErme6854uFDsolAkCScsW3y/O3UZwSCACC+L9d2pcVNLUdr2RrdCv3n2hD3L+0T1Pa0eYTowXcf6IdAmBdUbvXElBxqKARAqAqdrtq/N0/HZMAMPpirQ1Fl/dqGgKgmcwKj5Dnb89o532jvCtfjgDoMAEweC+uoDglWiMAmg8CgBjv+t5+o6Pb9Toe8PUqa/Q0eSBaGQM9OrNdbb5S0GT2aCDaIQCq0rVcYwbYzxolAKrLu26rIRneP4a/9Ve1jqp94U8hAJpVLP04o6P/X+2wPCIAnqVQmKy8fwMFKoEAIDIe20ay+3MLlgL8M7kgOnGzy7pTsQePwnycfBBtEAC31Nq/ZLiTTUYqACRpdUlHWaMtOz13q2OjvUcx+r+LNXpm+NkECIAmTZkOTstgx327vNJRCIAOFQCS1LV4kvLFaylSCQQAkdlCKNLFLryOqyNG15ETogXF/33lPs1wod1XN2TbQF6IlgqASJfVOQngtEYJgGoB79f4nG+M4u88a2TfWwiA5pH3b83Wzv/+tzsuhwiAFzN43OWNFKpEk2IHAoBwOP7dpddxuU8zrNFd5IVoYqztj3SYS+3eRnpbnVFOgmiKACgbnVrnd3+5kQJg7VXazRrFNTbwe+cIZyp8q84GgG9AALSseOw+OUOd9m3K+YcjADIgAJ6bCRB0y/N3ULASCAAiA7EjifRZF7+mqm35AXJENDpioyeSUCe72O6t0Qet0WbyRLRCAFQKmlirMLdGT66MtGejBIAklSO9t8bnlPsXaK+h/t2qSPtbo001/u2KSkUTEACtLSBvy0in/Tsdmj8EwND35x/l+U9TtBIIAKKDY5MNNcvlr6qBog6wRn8lV0QDY125pBNdbvc21JsSo9Xkimi2AKjOPAlHuyxsLAKg+lk31/isq4aRYl+oc3TnlS/+aQRAswukt2Ri7f+c4pEIgAwKAEmaXXyDPP9+ClcCAUB0YKywoY5Lw9fVqkj7J0Z3kjNi3BHqzwO+XpWGdh8bHWgjLSVvRLMFQDnSkdZoe43f/9iaQPs0UgAkPXp1jRku2wd69OZaP7860qF1TobZVvtZRgC0oIgs3tTha/+/3rm5QwCMiLl9U5QrXiLP30IBS4xbKCIACBemP4e6oV6nzlWqewJ8n/wR44hr1xW1e5ra/YpuvcRG+ia5I5opAKqj7NfX+b74TiMFQHUWwJU1PusvsdEuL1ieMLgh7E11rv2a2r8dAdB8ZnUfLC/Y0KGd9bWabfbu2NwhAEZHvvsU5f0/UcQSCAAixTEQh3p3Wr+2KgVNTCL9S521oARRLx6LI52X5i5b2egdddZpEwiARs04OdYaba0z1X5mIwVAVeiuqrE3h7/TUph6R8JutqGOQAC0k1zwyc7srBcv6Oi8IQDG0v2coJzfJc9/kGKWQAAQKYrtidHC9b3aoxO+vqod1XvIKzFcu4+Nrk7bbJd6rO7Vy6uzAbaTW6LRAqA6Mv/5IQru0xslACRpoEdn1npmyyWdUn3Pv69uWw/1mfq/GQHQuqLI83/UYR31/1angwAYx7KAwgzl/Evl+WspaolRnSiCACBaH78b7jznNLK0T1Os0ac4N52oVURYo+vSssfFaEl69GobabE12kGuEQBNWGpV7+SVR2yoNz0nC3p1UBLpjOfHwz3ad1QyN9JpO/+OcqQjk5LePsS7/d7lvZqGAHCBmcE+yvkPdUgn/QGdu2AvBAACYFi6ClOV92fJ8++luCUQAIRjcaurx5w1eDbAgYnRfzMqSlijLTbS15MevVoZwIZ6qzW6jbwjABr6Tu3Ra63Rxjqf97QN1dXkdn2hNdpS5/M3lEt6zdC/AQHQWi7oPlqe/1jKO+iPKOcfnol8IQAaR6EwUV5wTnUmzGYKXQIBQLRxl/M/2EhnKWOUIx1ZFQHbaAfZPNJyoEcnKYMM+HpVEqnbGq2nHSAAGrQUYOZQM0ySUL1rr9JuDZa5e1ujbw05s2dE8gEB0Hpy/vGpnRadK5aVK70mM7lCADRpVoDZpbpPwE/k+VspegkEANGC2GiN+pJQr1PGiRfq8DjUIpYGZDL+2h/psKy2/ZWR9owjzbdGt7M8AAHQgIL848N8trWhcpXFmjSez1lW0NTE6CJr9MgQn7XDGv3TyH4jAqCdEsCmrGNule8+LlN5QgA0nznFg5QLPiLP/0EHn5ZBjDy2IgCIhh7nZ7TMhvpMEuoVghewolsvsUafio2W0VayE4nRahvp+Ky3/3JJhyRGn7ZGd9EuEABjlgCDQmm4WVUPWKNP2F4dNJrf3R/psNjoX2udBrBTbLWhLhz5b0YAtI988QB5/pJUdMrz/lLNMgdmLkcIgBbPDChMVT44Q15wpTz/lwgBBAACgBhjPBCHKjLaP3JsqOOqU6RX0X6yURR14saX45ABL7OhuhKjhTbSUtoHAmA0JKHOjo2eGLGUNvqyDXVh2ejUckknPhux0VtsqI8mof7TGv11RNcX6dGBHp05ur8YAdBeCoXJ8vx/d3hN9FZ5xc+rqzA1k/lBALRZCCyepHz3cfKCC+X5/ykv+K08/xGKZAQAAoDYedMjG+nmJNK/xAt1uGBcVEedPm6NfsfGgR0dW5NIeVp8DSEQ6cg40hwb6UvWaMkQG74RCABJ0sM92tca/aTFM9x+OLYjPBEAbjCneJA8v0+ev92hUf/FmdnsDwGQLuaWXqacf6pywUeULxbk+V+R5/9Qnn+HPH+lPH8jhXRqYwsCgBgmtlWnU15Xnb7+hkpBk3kxNmlmwOAxVh+Ojb5oje5mA8EOfJ5CfZSWPjSVgiYPLNQxcajzq+fAX2eN7rFGT9GGEADPaycTE6PZ1ujhJl9T2YaaValowtj+UgSAW8wOXyfP/1obC5gt8orX6QL/70gGAiD15ArTde6CvZTz91N+wWHEMOH5TyAACFdG9GOjh2Kj39hI30wifdaGmhUbvaHcpxm83NrH2qu0mw11emL06STUtxOj+6zR1gy20c3VTv4D1mhJEurn1uhaa/TlxGhBEuliG2muDdWVlPT2AaPXJ0YLHN4r4wpa99gl2UCP3pwYfSg2+ngSqdtG+ma1Tdxrjaw1epr3eucLgOf6GJH2TIwut0ZrG3wta6zRpeuK2n2cI2l9U5QPzmh7ZH2keWfmFXaT539YXnB986c8Bxvk+TfK8+dottmbm/98IRMc0/ZnwwveRiKgRcLrsawIgGUFTU0inUG0PwZ69OZySSfaUMfFRgcu79U0HsZ0sbKg6eWSTkyMzkmM5sVGVyRGX61Oh70lMbqzWgitcDTusUa/TIx+YI3+y0YKbaTL4kjz41Dn21B/Xy7plH6jo2OjA9cE2nWs96q6YZiryyr6xrtbOQz9nKyKtH+/0dHlkk4cMHo93wHNj3budVHu0wwbaaaN9CNr9MxYT7BJjH4QRzpvZUHTeZKyQqEwcXAdtD9HOX+R8v6t8vxlY+isP6188S/KFX+tXPFqecWL5HWfrLl9U7jJAJAlAQAA0C6SUGc7vKb8lvGPLgLAi+Sf0S5JpDNspM9XZeO91mi9NdpSffa2VP//T9bo+9boczbS2yj6oTb54u6aGeyj/ILDlPOP1wWlEwfDf5XyxQOUi/bkJgFASgQAS14AoOOxod40zJne7YtQf1jdq5eTJQAAAAAEAAIAAKAB9BsdbY0GHJ0JcH95oQ4mSwAAAAAIAAQAAEADKJd0iDW631EJULahjiNLAAAAAAiAZsUmEgEAWSI22tsa3e6oBHisbHQqWQIAAABAACAAAAAawJpAu1qjGx2VAJtspA+QJQAAAAAEAAIAAKABVAqaHBtd7agE2GYjzSVLAAAAAJ0jANY5IACeIREAkFkJUNGEJFK3oxJgRxyqQJYAAAAAOkMA9CMAAADaT2z0cWu03UUREIdaVCloIlkCAAAASLcAWIUAAABwRAKEOt8abXFRAiRGP1hZ0HSyBAAAAJBeAeDCDICnSAQAwCA21OnW6ElHlwTctr5Xe5AlAAAAgLRRKEyW5292QACsIxkAAP/HQI9OskZrHZUA9w4UdQBZAgAAAEgTs8IjHCj+K/L8AZIBALCTBPD1KhvpQSf3BDB6KF6ow8kSAAAAQFrIBec6IQDy/lKSAQDwYlZF2t8a3ePoTIA15UgnkCUAAACAVAiA4k8dEQA3kAwAgNqsjLRnbPQbRyXAhoEenUmWAAAAAJwu/ruPlefvcGQJgCEhAAD1Wd6radboekclwObE6ENkCQAAAMBFugpT5fl3OVL8V5QvnkdSAACGprJYk2ykrzgqAXZYo0+RJQAAAAC3upAT5Plfcab49/yKcqXXkBcAgJERh7rEUQlQSSJ1VyqaQJYAAAAA2k1XYarywVVOFf+eb6UKnUUAgFGQRPp/1mi7oyLgG5WCJpMlAAAAgHbhlY6S5//BseK/olzxapIDADB6ypHea42ecVQC/Dg22oUsAQAAALSSmcE+8vySPH+Lc8W/51eU899NkgAAxkYc6TRr9LijEuD3dpFeSpYAAAAAmklXYarypXfJK14nz9/sZOE/GLG6Fk8iYQAAY2dgoY6xRtZFCRAbLUtCvYIsAQAAADSMygTNKR6pnJ9XvnitPP8Jh4v+543+B58ldwAA4ydeqMNtpLkuRhLpDDIEAADgGnO+sK/ywRlECsILzlEu+KQ8/0vy/Jvl+etTUfC/MJ7QbLM3Dx4AAAAAAECryQUfSmERSaQ1csX/4KEDAAAAAABAABCdHSuUK0znoQMAAAAAAEAAEJ0bO+T5f88DBwAAAAAAgAAgOjsMDxsAAAAAAAACgOjodf/+/zD1HwAAAAAAAAFAdHbEmhvtz4MGAAAAAACAACA6NxLNXvA3PGQAAAAAAAAIAKKTi/9c97E8YAAAAAAAAAgAoqPX/Pv78XABAAAAAAAgAIjOje+w4R8AAAAAAAACgOjc2CYvuFJdiyfxUAEAAAAAACAAiE6MvL+U9f4AAAAAAAAIAKJzY6ty/gKm/AMAAAAAACAAiM6M7fL8Ps0uHcIDBAAAAAAAgAAgOjN+otnBMTw4AAAAAAAACACiIzf483+kvP8OHhgAAAAAAAAEANF5sU75oFu5BYfyoAAAAAAAACAAiE4r+r3iQuW7T1GhMJEHBAAAAAAAAAFAdE6sl+d/V57/Yc0MduWhAAAAAAAAQAAQnRGb5flL5Pmfk9d9sroWT+JBAAAAAAAAQAAQ6S/275Xnf0s5f7684I2a3zuNhg8AAAAAAIAAINIXO+T5sXLFX8sLviHPv1z54IO6oPtoze2bQiMHAAAAyBb/H0YhJwo/CmiwAAAAAElFTkSuQmCC;" vertex="1" parent="5">
                    <mxGeometry x="20" y="121" width="115.92" height="60" as="geometry"/>
                </mxCell>
                <mxCell id="50" value="" style="endArrow=classic;startArrow=classic;html=1;fontSize=16;entryX=0;entryY=0.5;entryDx=0;entryDy=0;exitX=1;exitY=0.5;exitDx=0;exitDy=0;" edge="1" parent="5" source="39" target="4">
                    <mxGeometry width="50" height="50" relative="1" as="geometry">
                        <mxPoint x="160" y="250" as="sourcePoint"/>
                        <mxPoint x="210" y="200" as="targetPoint"/>
                    </mxGeometry>
                </mxCell>
                <mxCell id="9" value="" style="swimlane;startSize=0;shadow=0;rounded=0;" vertex="1" parent="1">
                    <mxGeometry x="1169" y="80" width="281" height="302" as="geometry"/>
                </mxCell>
                <mxCell id="11" value="&lt;font style=&quot;font-size: 16px&quot;&gt;Client&lt;br&gt;&lt;/font&gt;" style="text;strokeColor=none;fillColor=none;html=1;fontSize=24;fontStyle=1;verticalAlign=middle;align=center;rounded=0;shadow=0;" vertex="1" parent="9">
                    <mxGeometry width="100" height="40" as="geometry"/>
                </mxCell>
                <mxCell id="7" value="" style="shape=image;verticalLabelPosition=bottom;labelBackgroundColor=#ffffff;verticalAlign=top;aspect=fixed;imageAspect=0;image=data:image/png,iVBORw0KGgoAAAANSUhEUgAAAgAAAAIACAYAAAD0eNT6AAAABHNCSVQICAgIfAhkiAAAAAlwSFlzAAAOxAAADsQBlSsOGwAAABl0RVh0U29mdHdhcmUAd3d3Lmlua3NjYXBlLm9yZ5vuPBoAACAASURBVHic7d13kFRVwobxZwYkZwOKomJARVHWFRUzKKZVUVTMGDGsCTO6rphzDmvOYVVMKyZUMGJYxYSiAgZQERRFcpyZ74+zlOETGGa6+/Tt8/yqqKEEpl92m77vvSeVVX1FFZIkKSnlsQNIkqTCswBIkpQgC4AkSQmyAEiSlCALgCRJCbIASJKUIAuAJEkJsgBIkpQgC4AkSQmyAEiSlCALgCRJCbIASJKUIAuAJEkJsgBIkpQgC4AkSQmyAEiSlCALgCRJCbIASJKUIAuAJEkJsgBIkpQgC4AkSQmyAEiSlCALgCRJCbIASJKUIAuAJEkJsgBIkpQgC4AkSQmyAEiSlCALgCRJCbIASJKUIAuAJEkJsgBIkpQgC4AkSQmyAEiSlCALgCRJCbIASJKUIAuAJEkJsgBIkpQgC4AkSQmyAEiSlCALgCRJCbIASJKUIAuAJEkJsgBIkpQgC4AkSQmyAEiSlCALgCRJCbIASJKUIAuAJEkJsgBIkpQgC4AkSQmyAEiSlCALgCRJCbIASJKUIAuAJEkJsgBIkpQgC4AkSQmyAEiSlCALgCRJCbIASJKUIAuAJEkJsgBIkpQgC4AkSQmyAEiSlCALgCRJCbIASJKUIAuAJEkJsgBIkpQgC4AkSQmyAEiSlCALgCRJCbIASJKUIAuAJEkJsgBIkpQgC4AkSQmyAEiSlCALgCRJCbIASJKUIAuAJEkJsgBIkpQgC4AkSQmyAEiSlCALgCRJCbIASJKUIAuAJEkJsgBIkpQgC4AkSQmyAEiSlCALgCRJCbIASJKUIAuAJEkJsgBIkpQgC4AkSQmyAEiSlCALgCRJCbIASJKUIAuAJEkJsgBIkpQgC4AkSQmyAEiSlCALgCRJCbIASJKUIAuAJEkJsgBIkpQgC4AkSQmyAEiSlCALgCRJCbIASJKUIAuAJEkJsgBIkpQgC4AkSQmyAEiSlCALgCRJCbIASJKUIAuAJEkJsgBIkpQgC4AkSQmyAEiSlCALgCRJCbIASJKUIAuAJEkJsgBIkpQgC4AkSQmyAEiSlCALgCRJCbIASJKUIAuAJEkJsgBIkpQgC4AkSQmyAEiSlCALgCRJCbIASJKUIAuAJEkJsgBIkpQgC4AkSQmyAEiSlCALgCRJCbIASJKUIAuAJEkJsgBIkpQgC4AkSQmyAEiSlCALgCRJCbIASJKUIAuAJEkJsgBIkpQgC4AkSQmyAEiSlCALgCRJCbIASJKUIAuAJEkJsgBIkpQgC4AkSQmyAEiSlCALgCRJCbIASJKUIAuAJEkJsgBIkpQgC4AkSQmyAEiSlCALgCRJCbIASJKUIAuAJEkJsgBIkpQgC4AkSQmyAEiSlCALgCRJCbIASJKUIAuAJEkJsgBIkpQgC4AkSQmyAEiSlCALgCRJCbIASJKUIAuAJEkJsgBIkpQgC4AkSQmyAEiSlCALgCRJCbIASJKUIAuAJEkJsgBIkpQgC4AkSQmyAEiSlCALgCRJCbIASJKUIAuAJEkJsgBIkpQgC4AkSQmyAEiSlCALgCRJCbIASJKUIAuAJEkJsgBIkpQgC4AkSQmyAEiSlCALgCRJCbIASJKUIAuAJEkJsgBIkpQgC4AkSQmyAEiSlCALgCRJCbIASJKUIAuAJEkJsgBIkpQgC4AkSQmyAEiSlCALgCRJCbIASJKUIAuAJEkJsgBIkpQgC4AkSQmyAEiSlCALgCRJCbIASJKUIAuAJEkJsgBIkpQgC4AkSQmyAEiSlCALgCRJCbIASJKUIAuAJEkJsgBIkpQgC4AkSQmyAEiSlCALgCRJCbIASJKUIAuAJEkJsgBIkpQgC4AkSQmqGzuAJCm/5s2DCRPh2/Ew/kf48WeYPAV+mQKTp8LsOeH3TZ0efm9ZGbRo9uufb9EM6tSBVi2gVfPwdcmW4ecrLAfNm8b5e6l2LACSVCImTYb3P4GPPoORX8Gor2DU1/DN91BZmb/XbdkcVloeVl4hfF1rNVhvLVhnDWjSKH+vq9opq/qKqtghJEmLp6ICPhgBr78Lr70Dw4bD19/GTvV75eWw6orQqQNs2Am22hj+0iE8TVB8FgCpCA0eCnseHTtFza21Ggx9JHaK0jN2HDz3Cjz7cniPTJ0eO9Hia9YEttgQttwY/tY1vFcUhwVAKkLPvQI7HBQ7Rc2t0x6GD4qdojR8ORYefjr8eP+T2Glyr8PqsPv2sPsOYdhAheMcAEkqMlOmwYMD4Y6H4e0PYqfJrxGjwo/zroP27eCwveGgPWDpVrGTlT6XAUpSkfjwUzjkVGizERxxRulf/P9o5Fdw6kXQtgvsezy8+t/YiUqbBUCSInvuFei+P3TaEe4cANNnxE4U1+w58O8nYcu9YINd4MkXocrB6pyzAEhSJC8OhY12DfM9XhwaO01xGjYcevSB9XaAAc9YBHLJAiBJBfbW+7DJ7uGu/78fxk6TDcM/h15HQ+ce8OZ7sdOUBguAJBXIt+Nh/xPCxd+LWM0MGw6b7gEHnxJ2N1TNWQAkKc8qKuDau2CtreH+J3yMXVtVVXDXI7BGN7j+Hv/3rCkLgCTl0Scjwx3r8efAtMQn9+Xa5KlwbH/Y9gD4bnzsNNljAZCkPLnnMdhw1/SW8xXai0Nh7W3hgf/ETpItFgBJyrGff4GdD4UDT4IZM2OnScPkqbBfXzis36+nG2rhLACSlEMffRZmqj81JHaSNN3+EGy1dzj2WAtnAZCkHBnwDHTpGfbvVzxvvQ8b9oD3Po6dpLhZACQpB666HfY+1kf+xeKb72HzXvC4h1ItkAVAkmqhqgpOugBOPB8qK2On0W/NmBk2D7rvidhJipMFQJJqqKoKjjsbrrwtdhItyLwK6H1i2C9Av+dxwJJUA5WV0Of0cGSvitv8olZZCccdFDtN8fAJgCTVQN9zvfhnSVVV2IzpxvtiJykeFgBJWkznXAPX3R07hWrimP5htYYsAJK0WO5+FM6+OnYK1VRlZZgT8MrbsZPEZwGQpGp6YxgccUbsFKqtWbOhR5+waVPKLACSVA3fjYeeR7rNbKmYPDVs1zxxUuwk8VgAJGkRKivhwJM9f77UjB0Hex0D8+bFThKHBUCSFuHca2Hw0NgplA9D3oB/XB47RRwWAElaiLc/gPOvj51C+XTZLfDw07FTFJ4FQJIWYNZsOPgUqKiInUT5VFUFh52W3iFOFgBJWoBzr4VPR8dOoUKYOh0OOjmt8xwsAJL0J0aPcY//1Lz2Dlx+a+wUhWMBkKQ/cfw5LvlL0VlXprM/gAVAkv7ghdfhmZdip1AMs+fAgSfBnLmxk+SfBUCS/uCfV8ROoJg+GJHG8I8FQJJ+44nnw9I/pe3868NGQaXMAiBJv3HxjbETqBhMnxGOfC5lFgBJ+p+X3vTuX796fBA8PSR2ivyxAEjS/6Qw7qvFc/y5pXtWgAVAkgjjvc++EjuFikm7tnDj+VC3buwk+WEBkCTg1n+75a+CunXguIPgo+eg+2ax0+RPifYaSaq+igq485HYKVQMOnWA2y6Gv3aMnST/LACSkvfaO/Dd+NgpCqt5U9hgXVhtJVhpeViqFbRoFn6tshImT4VfpsCUaTBlKnwxFkZ+CV9+U5r75TdsAGcdByf3Kd1H/n+UyF9TkhZswDOxE+RfWRls8lfYdVv4W1dYc9Xw3xbX5KnwxjB4+S148kX47IvcZy20rTaGWy6C1VeOnaSwyqq+oip2CEm/99wrsMNBsVPU3DrtYfig2Cmqp7IS2mwEEybGTpIfTRpBn33gyP2gfbvcf/+PR4b5E/c8Fp4YZEmLZnDp6XDYXjUrQ1nnJEBJSRv2cWle/OvUgaN7w+hX4Moz83Pxh1D2rukPY4bCeSdBqxb5eZ1c2207+OR56LN3mhd/sABIStygV2MnyL01VoHXB8D150DrpQrzms2awJnHwMgh4aJaXqRXl+WWgUdvhMdugjatY6eJq0j/L5KkwhhUYmv/d+oG7zwJG/8lzusv2TKMpw++H1ZYNk6GP1NWFh71j3gBem4fO01xsABIStbsOfDOR7FT5M4hveCJW6Bp49hJwsS6D5+F7beMnSRM7hvyANx68a8rHWQBkJSwYcNDCSgF++0Kt14Uxv6LRasWMPC2MBchhrp14LQjQxHZauM4GYqZywAlJeut92MnyI3O68LtlxTnuHvdumEuQqvmcN51hXvd9dcJG/r8Ze3CvWbWWAAkJev9T2InqL0mjWDAv6B+vdhJFu7cE0NBOeea/L5Oo4Zwdl844ZB0NvSpKf/nkZSsj0fGTlB7550UdvLLgrP7wsRJcMM9+fn+3TaBWy6EVVfKz/cvNUX4wEiS8m/ePPh0dOwUtdOuLRwTaXy9pq7tDztvndvv2bJ5GAJ58T4v/ovDAiApSWPHZX8C4GlHZu8xd3k53H0FrLxCbr7fHjuEpX2H9Ep3Q5+asgBIStKY72InqJ3GjcLM/yxq2RwevgHqLVHz77Hs0mHuw4B/hZ9r8VkAJCVp7LjYCWpn123DBMCs6rwuXHza4v+5sjI4Yl/4bHC4+1fNWQAkJSnrx/9ut0XsBLXX9xDYZZvq//41VoGXH4SbLgjHGat2LACSkvTTL7ET1M4WG8ZOUHtlZXDj+eEcgYVZoi6ccTR88Exp/L2LhQVAUpJ+mhQ7Qc01bZydpX+L0qY1nHPCgn+9Uwd48zG44GRoUL9wuVJgAZCUpKydXf9bq+fpaN9YjukdLvS/1aghXPEPePdJ+GvHOLlKnQVAUpJmzY6doOaWahk7QW7VrRtOEJy/lfEWG8L7T8OJhxXX2QalJmMrSCUpN+bOi52g5hpnePb/gnReF07uAx1Wh949XdNfCBYASUmak+FNgKqqYifIj0v6xU6QFocAJCUpy4+WZ86KnUClwAIgKUmNGsZOUHNTpsVOoFJgAZCUpIYNYieouazvYqjiYAGQlKRGGS4A4yZkexWDioMFQFKSsvwEoKoKPvw0dgplnQVAUpKyPAcA4LV3YidQ1lkAJCUp6wVg0CuxEyjrLACSkrRki9gJamfIm9k/0VBxWQAkJWmlFWInqJ3KSrjrkdgplGUWAElJWrFN7AS1d9UdMHV67BTKKguApCSVQgH4aRJcfkvsFMoqC4CkJLVeqjTOl7/wBnj/k9gplEUWAElJKiuDtsvFTlF78yrgwJNg2ozYSZQ1FgBJyVo54xMB5xv+ORxwQpgYKFWXBUBSsjp1iJ0gd554Hg7rZwlQ9VkAJCWr83qxE+TWnQPg0NNg3rzYSZQFFgBJydqwxAoAhL0Buu0LEyfFTqJiZwGQlKyVlodlloydIvdeewe67AbvDo+dRMXMAiApaaU2DDDf6DGw6e5w6c1QURE7jYqRBUBS0kpxGGC+OXPhtIthg13gjWGx06jYWAAkJa37ZrET5N8HI2CzPaH3iTBhYuw0KhYWAElJ26gTLLt07BT5V1UF9z4Oa24N198Dc10pkDwLgKSklZfDTt1ipyicX6bAsf1h9a3gln+7ZDBlFgBJyeuxbewEhTfmOzjiDFi9q0UgVRYAScnbZlNo3Ch2iji+/jYUgTW3CXsIWATSYQGQlLwG9WH7LWOniOuLMXDwKbDqlnDlbTBlWuxEyjcLgCQBffaOnaA4jB0HJ10AK2wMx58ThgpUmiwAkgRsuzm0bxc7RfGYOh2uvQtW2QJ2PhTeej92IuWaBUCSgLIyOGLf2CmKT2UlPDUEuvSErfaGR591nkCpsABI0v8c0ivdyYDV8crbsMffYcVN4eyrPXAo6ywAkvQ/LZrB3jvHTlH8vv8BzrkmzBPofSJ8+GnsRKoJC4Ak/cbJfaBundgpsmH2nLC7YKcdYcu94BGHBzLFAiBJv7HmqnDwnrFTZM+r/4U9HR7IFAuAJP1B/+OhYYPYKbJp/vDAiptAn37w8cjYibQgFgBJ+oPll4XjD46dIttmzoLbHoKO24WTCAcODgcSqXhYACTpT5x2JCzZMnaK0jD0XdjlMGjfFa65E2bMjJ1IYAGQpD/Vohmcf1LsFKVl9Bjoe26YJ3DmFTBhYuxEabMASNICHLEvbLdF7BSl56dJcMH1sNKmYRnhqK9jJ0qTBUCSFqCsDG6+EJo1iZ2kNM1fRrjm1tDraBgxKnaitFgAJGkhVloeLjsjdorSVlkJA56BjttDzyPhnY9iJ0qDBUCSFqHP3uGwIOVXZSU8Pgg27BEOIPpgROxEpc0CIEmLUFYGD1wD7drGTpKOp4bA+juFIuBWw/lhAZCkaliyJTx2EzRqGDtJOqqqfi0CvY52smCuWQAkqZo6dYDbLg5PBFQ48+cIrN0djjoTfvw5dqLSYAGQpMWwzy5w6hGxU6Rp7jy46X5YZfNw3sDsObETZZsFQJIW0wUnw+47xE6RrmkzwnkDHbeD/7wQO012WQAkaTHVqRMmBe7ULXaStI36GnY9HLbZH4Z/HjtN9lgAJKkG6i0Bj94EO3aNnUSDh8L6f4Pjz4HpM2KnyQ4LgCTVUL0l4JF/QdcusZNoXgVcexesuwO8ODR2mmywAEhSLTRsAE/eZgkoFl+OhW0PgMP6waTJsdMUNwuAJNVSk0bw7F1hhYDiq6qC2x+CDt3hyRdjpyleFgBJyoH69eD+q6H/8bGTaL7xP0KPPuHEwRkzY6cpPhYAScqRsjI4uy/cejHUrRM7jea793Ho3AM++ix2kuJiAZCkHDtsL3j8FmjZPHYSzTdiFHTpCbc+GDtJ8bAASFIe7NQNhg2EDTrGTqL5ZsyEw0+HfY6DmbNip4nPAiBJedKuLbz+CBx3UOwk+q0HB8Imu8M338dOEpcFQJLyqH49uKZ/mCDYpFHsNJrvgxGwSU94/5PYSeKxAEhSAezbA4YPgm6bxE6i+b4dD5v3gscHxU4ShwVAkgpk5RXgxfvg2rOhsU8DisL0GbDH3+GaO2MnKTwLgCQVUFkZHHsgDH/O3QOLRWUl9D0XLrg+dpLCsgBIUgTt2oanAdef43LBYnHmFXDJTbFTFI4FQJIiKS+Ho3vD6JfDSoE6bh4UXb9L4JxrYqcoDAuAJEXWqkVYKfDmY7BRp9hpdPbVcH4CwwEWAEkqEp3XhTcehdsvgeWXjZ0mbWddGbYQLmUWAEkqIuXlcEgv+PJVuPlCWLpV7ERpqqqCQ0+Fl96MnSR/LACSVITqLQGH7wNfvAoXnwZNG8dOlJ6582DPo2HU17GT5IcFQJKKWNPGcNqR8NlgOGr/sLOgCuenSbDzoTBpcuwkuWcBkKQMaNMa/nUefPEK9D0EGjWMnSgdn38JB54UO0XuWQAkKUOWXxau+ieMGQr9j4cWzWInSsPAwaV3lLAFQJIyaKmWcHbfMFnw3BOh9VKxE5W+E8+DL8bETpE7FgBJyrCWzeGfx8LYN+DuK6DjGrETla5pM+CAE6GiInaS3LAASFIJqLcE9O4JHz4Lz98L228Zzh1Qbr35Hlx8Y+wUuWEBkKQSUlYG3TeDZ++CjwfBEft68mCunXddaSwNtABIUonqsDrcdAGMexuuPiscQKTamz0HjjkrdoraswBIUolr1gSOPxhGvQSP3wzdNomdKPuefw2efTl2itqxAEhSIurUgV23hcH3w+dDwgmEDg/UXL9LoLIydoqaswBIUoLatwsnEDo8UHMffQaPPhc7Rc1ZACQpYb8dHnjsJthq49iJsuW8a8PBQVlkAZAkUacO7LYdvPRveP/pcBBRg/qxUxW/4Z/Dc6/ETlEzFgBJ0u906hCOIv7yVTjjaFiyZexExe3yW2MnqBkLgCTpTy23DFxwMnz3VthlcO32sRMVpyFvwIhRsVMsPguAJGmh6tcLuwwOfw6evA02+WvsRMXntodiJ1h8FgBJUrWUlcHOW8PQR8Jcge22iJ2oeNzzWNggKEssAJKkxbbVxvDc3fDBM3DAblC3TuxEcf00KWwOlCUWAElSja23FtxzJXzyAuy1U9oHED30VOwEi8cCIEmqtfbt4MHr4O0noGuX2GniePKFbA0DWAAkSTnTeV0Y8gC8cF9YTpiSqdPh9Xdip6g+C4AkKee22RSGDYQ7L4PWS8VOUzjPvBw7QfVZACRJeVFeDgftASNegIP3TGN+wKBXYyeoPguAJCmvWrWAOy4NqwaWXTp2mvwaMSqsCMgCC4AkqSC23Rw+fBa23zJ2kvypqoKhw2KnqB4LgCSpYJZZEp6+A045PHaS/Bn6buwE1WMBkCQVVHk5XHo63HJROIWw1Lz/SewE1WMBkCRF0WfvMDegvMSuRO9ZACRJWrjePeHG82OnyK2fJsG4CbFTLJoFQJIU1eH7wDG9Y6fIrdFjYidYNAuAJCm6K86EjTrFTpE7Y8fFTrBoFgBJUnT1loDbL4El6sZOkhtjv4udYNEsAJKkorB2ezjmwNgpcsMnAJIkLYbT/w4NG8ROUXsWAEmSFsPSrWDfHrFT1J4FQJKkxdRn79gJau/b72MnWDQLgCSpqHReN/tHCE+dHs4FKGYWAKkIzZ0XO0HtpHDsq/KnvDz7BwZVVsLsObFTLJwFQCpCs2bHTlA7SywRO0Fcn30BOxyUrbPhi80G68ZOUHszZ8VOsHAlsuJSKi3FfuewKKWylntxTZoMZ18N/7oX5lXAp6Nh+CBo2jh2suzpsFrsBLU3Yya0bB47xYL5BEAqQnMsAJkybx7ccA+sthVce1e4+AOM+Q76XRIzWXatsUrsBLU3o8ifAFgApCI0eWrsBLWT0hDAkDdg/Z3gmP7w8y///9dvvA9efqvwubKumO+cq2vGzNgJFs4CoEyZNgNOvQiGfx47SX5NmBg7Qe00ahg7Qf599Q3sfhRsvd/C349VVXBYP5g+o3DZSkGjhlC3TuwUtVPscwAsAMqMR56FtbaGy26BE8+LnSa/fvgpdoLaad40doL8mT4DzrwCOnSHx56r3p/5YgyccVl+c5WiUtgRsJhZAFT0Rn4F2/WGPf8O344P/+3FofDki3Fz5VPWnwCUYgGoqoIH/gNrbg0XXL/4KzWuvweefy0/2UpRVVXxj6EvSv16sRMsnAVARWvmrDCjer0d/vyD88Tzsz9bfkG+HBs7Qe2UWgF472PYohfs1/fXErq4KivhgBPguxr++dRMmQYVFbFT1E6D+rETLJwFQEVp4GBYe1s455oF32l9MQauu7uwuQphztzwd8uyFs1iJ8iNCRPD+H3nHvD6u7X/fj/8FEpE1i9shfBNBrbSXZR6RT4Z1gKgovLVN7DLYeHHV98s+vefd23p3VGN+ir7OwEuu3TsBLUzdx5ccSus0Q1ufyjcvefKK2/DyRfm7vuVqo8+jZ2g9poV+ZMwC4CKwuw5cP714a5/4ODq/7kp0+D4c/OXK4ZSWOGw3DKxE9Tcsy9Dx+3CRTpfyzGvvgNueyg/37tUvPdJ7AS1U14OrYp8KaMFQNENejV84P7zipotm3n02cUrDcXutXdiJ6i9Nq1jJ1h8I7+CnQ6FHQ+Gz7/M/+sd/c/wNEB/7qmM/5tu0QzqFPkyRguAovl2fJjZv/2BMOrr2n2vY84KewSUglK4KLTJ0BOAKdPglAtDCX16SOFed85c6NEHPhhRuNfMik9HF6aE5dOSLWInWDQLgApu7rywln+trcPa/lwYOw7OujI33yum8T/CiFGxU9RO86bQKgMffpWVcMfD0L4rXH5ruCAX2uSpoQCPzvikz1y7+YHYCWqvbZvYCRbNAqCCevkt6LRj2M0v13fs19wZ9gfIsgHPFP8Z4ouy2sqxEyzaG8Ngo13h0NPi77kwYSJ03796k15T8MuUUMyyrl3b2AkWzQKgghj/I/Q+Ebrtm7873MpK2L9veK2suu/x2Alqb7WVYidYsHET4IgzYPNe8O7w2Gl+9fW3sOke2X/6kwsX3gBTp8dOUXurWACUunnzwp35mlvDvY/n/+52wkQ45NRs3kV/MhL++2HsFLW3ahEWgFmzw4WlfTe45d+5XdaXK9//sOhzBUrdJyPDColSsMqKsRMsmgVAefPGMNhgF+h7bmFPt3v2Zbjq9sK9Xq5cdGPsBLnRcY3YCX7v8UFheek/Li/+A3nG/wib7RHew6mZNRsOPDn7e2DMV2z/Dv6MBUA59+PPYWx1sz3hw0ibefS7BF54Pc5r18ToMfDgwNgpcqNTh9gJgo9Hwjb7Q88js7W18pRpsPNh4eyAlBx3NgwromGZ2mhQH9ZYJXaKRbMAKGcqK+Gm+8Pj/jsejvsYfu68sMTwk5HxMiyOY84qje1hGzeC1VeOm+HnX+DY/vCXHWFwRieFVlSEv8N+fUtjPHxRLr4Rbn0wdorc6bA61K0bO8WiWQCUE+8Oh413g6PODB/AxWDyVNi2d+33GMi3ex4LmyGVgnXXjLf5SUUF3HhfGOe//h6YVwKF6oH/wPp/K5074z9zxa1w+qWxU+TWBh1jJ6geC4BqZdJk+Ps/w5Kqdz6Kneb/GzcBuu0TdnkrRsM/D3f/paLL+nFe96U3Yf2dwnvxp0lxMuTL6DHQpWe4SNZkp8xiVVEBJ5xXmucibLFh7ATVYwFQjVRVwZ0DwmEpN95XnLOq5/t2PGy6O7z5XuwkvzduAux0SGk94t1sg8K+3qzZYain277w0WeFfe1CmjsvPCbvuD0890rsNLU3/kf42yGlM+P/j7bYKHaC6rEAaLF9+GlYR33IqWHCXxZMnBSWWBXLASyffxkmSY4dFztJ7pSVwaYFLgAN6oeNY1LxxRjY4aAwuTGrS0bvfwLW2a50hr3+qF1baLtc7BTVYwFQtU2ZFpb0bbAzDM3B2eiFNnMW9OkH+xwX9zHxU0PCpi+ltvPbmqvCMksW/nUvPT2cvJaSwUPDnJvdjsjOv8W3P4Cu+8D+J5TeMM1v7dg1doLqS+yfjWrqgf+E2f3X3Jn9yVUPDoQ1tg6zjgs58/6Hn+DgU2DnQ0vzA3C7LeK87l/Whn13ifPaMVVVwRPPhydJG+wSJpMW4xyBIoQDTAAACvRJREFUV94ORaVLz7AVeKnbeevYCaqvrOorMrhnmgrl09Fw9FlhklUpWn1lOPVIOGA3qF8vP6/xzfehON14H8yYmZ/XKAbP3wvdN4vz2mO+CwV11uw4r18smjaGHt1hr51h282h3hJxcnz/Azz6HNz2YLy9QGJo2hh+fC9/nyW5ZgHQn5o1G/pfFXbUK5WduRamZXPYYwfYe2fY5K9hbLk2Rn0dStODA8MdUDFPksyFxo3gp/fjfvCdcmE41U9B08ZhMlq3LtC1C6y3Vv6GSubNg2Efw6v/hacGw+vvlv57/s/ssws8cE3sFNVnAdCfmjcP1twmTDpKTYP60Hld6LxeONhm1ZXC2d4tmkHDBuFDdMZMqKyCH38KEwy//wFGfQUjRofz3cdNiP23KKye28OjkbcynjIN1u4eVn3o/2vUENZePRSBddYI7+vlW8Nyy0DrpcIkzkWZMRPG/RDe35+ODstYPxkJ736U+9M9s+jZu2D7LWOnqD4LgBbo7kfhoJNjp1AWPHQ99Ppb7BTw5IvQo0/sFNmzRF1o2iSU3PIyaN7s11+bNDl8nfhzKFn6c8stA9+8EW8jrJqwAGiBKiqgQ/fi3URHxaFJI5jwbrjDLAa9joYBz8ROodScegRc0i92isXjKgAtUJ068M/jYqdQsdule/Fc/AGuPTvM6ZAKpU4dOGr/2CkWnwVAC7XPztk41lLxHNordoLfW3bpsDeAVCi7bAMrrxA7xeKzAGih6tSBq0tor3rl1hqrhBnmxebQXmE5nFQIfQ+JnaBmLABapG6bwO47xE6hYnT4PtWbPV5oZWVw52XZvCtTtmy2QXYO//kjJwGqWr75Pmy0Usob2WjxNG0MY98IM8eL1dsfwOZ7prGXheJ4+UHYMiOH//yRTwBULW2Xg1MOj51CxeTI/Yr74g+wUSfof3zsFCpV3TfL7sUffAKgxTB7TjgI6OORsZMotvr14MtXoU3r2EkWrbIynKD3/Guxk6iU1K0D7z2d7UnSPgFQtdWvB3deHt74Stuhe2Xj4g9h58YHrwunFUq5csR+2b74g08AVAP/uBwuvCF2CsXSpBGMejkst8uSL8aEI3QnluBJjCqspVrC50OgVYvYSWrHJwBabGcdB+u0j51CsZx4WPYu/hD2vn/s5uyc1Kbidd052b/4gwVANVC/Xnik2rhR7CQqtDat4eQMTwbdvDPcenFxLl1UNvTcPpwaWgosAKqRtdvDTRfETqFCu/LMsPwvyw7YDS48JXYKZVHrpeBf58VOkTsWANXY/rvCEfvGTqFC2WZT2Gun2Clyo99RcHbf2CmUJeXlcM+VoQSUCguAauXqs+CvHWOnUL41aVR6T3z6Hw9nHhM7hbLiH0fDtpvHTpFbFgDVSoP68MQtsMKysZMon646K0yiKzXnnRSOcZUWZseupbmhlAVAtbbCsvDMXdC8aewkyoce3eGwvWKnyJ9L+lkCtGAd1wiTnuuU4P4n7gOgnBk8FHY8GObMjZ1EudKuLbz7ZGkseVqUq++Aky4IOwdKAMstA289Diu2iZ0kP3wCoJzZetOwxKrcd1VJaNgAHrspjYs/hCNdH7zOfQIULNkSXri3dC/+YAFQjvXuCTdfaAnIurIyuPUi6NQhdpLC2nNHeP5eaNk8dhLF1KwJPHd3WO5cyvyYVs4dtle4eFgCsuv8k2C/XWOniGOLDeG1h2GVFWMnUQwtm8Oge2CDBFY3+RGtvDikF9zmcEAmHbU/nHF07BRxrd0ehg0MEyCVjtZLwUv/ho3/EjtJYfjxrLw5eE+490rHVLOkd0+47uzYKYpDi2bw+M1w6emegJmCVVeCVx+G9daKnaRwXAWgvHvzPejRB378OXYSLcxeO8F9V0HdurGTFJ/X3oG9j4VxE2InUT50WT/sZ7LMkrGTFJZPAJR3XdaHoY9C+3axk2hBDt8H7r/ai/+CbN4Z3nsKdtkmdhLl2oG7h8f+qV38wQKgAll9ZXjzMejaJXYS/VZZWdgN7+YLS3Ojk1xqvRT851Z44BpYulXsNKqthg3CsuW7Lk93mNIhABVURQWcey1ccEP4ueJpUD98AO6f6Gz/2vjxZzi2Pzz0VOwkqok1V4WHrod114ydJC4LgKJ4+S3Y/wT4bnzsJGlaafmwyc/668ROkm1PPA9Hn+XcgKwoLw8bPp1/UngCkDoLgKKZOAkOPhmeGhI7SVp26gZ3Xg5LtYydpDRMnwGX3wqX3RJ+ruLUvh3cdkmYz6HAAqDoBg6Gv58J3/o0IK8aNoCLToXjDgpj/8qtiZPgvGvhhnsd3iomDRuEw576HRWGvfQrC4CKwi9T4IzL4OYHPIwlH7ptEib6rVaCR/oWm48+g1MuhOdfi50kbWVlYWvnS08PQ176/ywAKipvvQ/H9Idhw2MnKQ3LLAmX/yNM9POuv7Deeh8uuQmefNFSW2hdu4RjnjuvGztJcbMAqOhUVcFjz8FZV8GIUbHTZFPDBuFRf7+jwo52iuezL8Icgfseh9lzYqcpbV27hG2st9k0dpJssACoaFVUwANPwjnXwBdjYqfJhiXqQu/dof/x0Ha52Gn0W+MmwNV3wB0D4KdJsdOUjvJy2HlrOO3IsOmYqs8CoKI3dx488B+4/m5416GBP9WwARzaC04+3PHOYjd7Tpj4eucAGPSqEwZrqmXzcOjY3/f35MaasgAoU97+IBSBAc/4OBXCxf7I/eDQvdydLovGTYB7HoO7HoHPv4ydpviVl0O3LnDgHtBzO2jUMHaibLMAKJMmTAx3UA8OhA8/jZ2msBrUD2v5e+8OO27lFr6l4p2PYOCL4enAByNipykeZWWwQUfYY0fYZxeHtnLJAqDMG/kVPPw0DHg6LMEqRfXrhQlOu+8Ae+zgxL5SN3YcPD0krCB46c30nnbVrwebdYa/dYWe2zuslS8WAJWUz78MH5wvvRmOcJ08NXaimlt5hbB+f4etYPstoUmj2IkUw7QZ8Po74VjtN4aFYbCp02Onyq06dWC9tWCLDaH7ZrDVxj7eLwQLgEpWRUV4lPryW+HH2x+EQ1yKUd06sM4asOF6sPFfwgdgu7axU6kYVVTAxyNh6LuhFAz7GEZ/HSbLZsXyy8L6a4ezKLqsD5v8FZo2jp0qPRYAJeWHn2D4Z+ED9OPPw5DB518W7klBk0bQtg2s2CZc8NdaFTquCeu0945HNTdvHnz5DXwyMryfP/si7KEx6uuwy2YMDepDm9bhSdaaq8Jaq4WvHdcIRysrPguABMyYGc4iGP8jfPv9/76OD4e7/DIlbE40/+vkqVD5v381deuEO5cllggX93r1oHHDMIa59JLhQt+mNSzfOlz4vctRoc2cFd7P3/8QnoCNmxAm0U6YGPYjmD4T5syBWbNh5myYOzcMO8x/z7doFibi/e4r4Wt5edhtctmlYYXl/vd1WVhuGWjVIvbfXItiAZAkKUHlsQNIkqTCswBIkpQgC4AkSQmyAEiSlCALgCRJCbIASJKUIAuAJEkJsgBIkpQgC4AkSQmyAEiSlCALgCRJCbIASJKUIAuAJEkJsgBIkpQgC4AkSQmyAEiSlCALgCRJCbIASJKUIAuAJEkJsgBIkpQgC4AkSQmyAEiSlCALgCRJCbIASJKUIAuAJEkJsgBIkpQgC4AkSQmyAEiSlCALgCRJCbIASJKUIAuAJEkJsgBIkpQgC4AkSQmyAEiSlCALgCRJCbIASJKUIAuAJEkJsgBIkpQgC4AkSQn6P8BUmDe050zIAAAAAElFTkSuQmCC;" vertex="1" parent="9">
                    <mxGeometry x="105" y="170" width="80" height="80" as="geometry"/>
                </mxCell>
                <mxCell id="29" value="" style="shape=image;verticalLabelPosition=bottom;labelBackgroundColor=#ffffff;verticalAlign=top;aspect=fixed;imageAspect=0;image=data:image/png,iVBORw0KGgoAAAANSUhEUgAAAOEAAADhCAMAAAAJbSJIAAABAlBMVEX////qQzX7vAU0qFNChfTpNiX2uLP7uQD7wS/7uAAwp1A+g/TqQTPqPi8lpEk3gPTpMh/pOSkfo0Yrpk3//PTpLxv+9vX4yMX85eP0qKPb7uBun/bB4skqevPX5Pz+//57p/f3vLj1sKzrSTz97u3znpj50c/yl5HsW0/ykYrvc2qJyJj0+/Zet3To9Ot+xI+Yz6XT4fz+8tSyyvrn7/38yElkmfb81XmNsvj95a3+7cdsvID/+emv2bn+9NrwhX3tamDrVEj73dtMsWbD1fuiwPlXkPX94qPu9P623L/93ZNwofZFr2HN59OUzaH7xTf80WfvfXXucGb8z1/92YX+6bnkCrwEAAAOT0lEQVR4nN1deV/bSAzNgTEJtokTwpFCOQLhCgHaQpcjnAUKy1nK9/8q6yN27NH4GsmJs++f/jalhrfS6EkayeRyqWPmenZldf1i+3Jz8+qqmW9eXW1e/nnfmh+fbc3NpP/t08Ta9cr6xWW+XqlIuq6qiol8Pm/+oaqqLkmVeuVqe2t+JInOXI8b3CxmJqlgKAbTinS1vd6aG/bPnADX85eKJKkR3Lw0TZ5682Jlbdg/egysjb/r9SjDBdGU6pvrrUx77NzqZUUSYedC1ev5i9mMklxbvdRx9Hq2VCvNi9mlYdMBmL2sU9BzSUpbmYo8a+vNukrEziGp1y9XsuKtrXddorKeF4a3bmTBkK1LOu9koej6+7A5zm5SuyfDUa1vX/+P+VkwOLaGxK91WUmfn8VRGoqvrr0PiF/eUo+tQcfVmY3B8bM46vr8QAnONlPRh1COlc3BHceZ98qg+ZlQpYsBuerKYB20D0WXZgfAb257KAbscay/p15CrihDMmAPejNlM24N0YA2lMpGivzmNqUh8zMhbaam/yv6cD3UgaqvpENwY+ge6kCprKdBcDsLHtqDIm2TS+PalT5sWj7oV8SHsdXMxhHsQ1VIk7gVPStHsA+FMsEZr2ePoJngrFIRXK0Pm0wA6kQV1XxmVIIFkWqsZ5agSXELT3Ajqy5qo47OUtcrw+YQgQryLI5n2EVtKBVURF3JpEz4odTHxQm2RoCgSVFY+q9Tu5CghaKLNv4vMlRNhEJtCnZv1pTRsKFBcVPQiPOjYsS8/i5IMT8qRsyL5m+z2U5oPFAqggF1O2uFbyCUvFi0uc5g6RsA9VLMiFvZas+EQTBDnRkR1c+bR1Gsc7Oa9eKiD/VKrMV4NTJGzEti9fDoKIZRD8dKUNtd5oP3kVGMvNKMw3BHa/s/mBsdxchLMVKbhqbtMB+NkGIoenSzf7dWrDb8H82MkBGjdb9bLRZru8yHI6QY+XrE3WK7VjRQXWA+3vz/BJsdzWRYLjIft0ZIMaTQ5K1TLVrQ9pm/GCXFkMIym71asYeO/y9GSTH0kMymoTkEgWJsYBXD3gXSdV1KHSGZzalrQqAYOfFRPWsjRpL05uafi431+VUb4ykisMZoVF2CxTKrGCtiiqGokrnVNNvKxMLPbrnPECrGpUCwUSvq++p1VpYKfCY0jPjErK20khpR0evbmVmZsOA5hXzFSBRsFEndyIRn9tHxEzSsyCjGWhLF0JvzmTKfiReNYVjbY75iPXYLXK1vZI5frl0sMwyhYsS8x1Aqm8PcAglCt8oSLJZvmK+JpxiqktLoIBJPwISGER+YL4qjGCmOf6LQgCY0FYNpaLQiMxulTjD/kQr22EjKV4yLCMVQKtn00FxuiQ2kTjxlFSN8NkNVshhiLCzwnDSxYqhNEoKp7ACfcp3UDDbPzFc2g42o5sNizNdft8tfju7u7o6+LN/++hrylZ+FCQr89D4T5DOeYMN8+9lAxQiZF/h6ezRlYNKB+R9fbgNZ3pcKFJj2PLIbcAxNI7It8D8BiqEoARb8cXu3ODU5xmJyavHu9kcARZmAoHzieWKgk5pdKUYxrvmKoUj8uvNgeYpDzyE5tcw35COBFWWPm7Y5au9Ce2G+O18x+LNXB0eB9GwY3srl+JPAihN9Nw2KpD0/ZRRjhqcY3FmI38uL4fwsQy7+85vzbw/xFEvf3Kfx5d5B7ZT55vMw2HCb6d/HpiL5WXYc+wX/8TTehvJf92lhTlrkKAa4NFVUTpRZjsfP4vgP/OcneCNOOM/i5qQegBoDKEYFHsKvd/EJGhTvYFT9i6ZYcg5iiFbY0FjFYMZsVDhzdRARYVhMjoGAszSBZvjZe1SIVvSMCBTDF2w4ffRfSQxoU5w6YB/yDSsZ7kGM4FeMUgx4F5KcoAFI8QPrp72D2Ihy0iJsaHgvTeF91oEIQYMi66hnSIKFwpn1nIcYDMMuTUGY+SFG0DiLbLh5RBqxl7iFq6FjRFYx3EtTOL16lyzIeCjeMU/CimLvIN5EyKGF8g1TtbmKIbFVfQIdZAF0EasYH+ZDOjH4FTk1Rk8xwCn8Lk7QoMhkN9iTaKWmUXrvGJFVjDn75ltnEtLfCH4mmBwVm4GboSY87e4jYMymzpS9CB+1jMj46TlOE63kez9GKLX9lFUMswWubvs/PFhE2nCRiae4xEZ+zMUMpZaf8hSDnek8Eo2jDib/9T8QV+6bVfBSrFBqGxGO2Sh5f8ImqPVeMLp/hjuIhwbDuCbkKgabc/+LNaHBcNn/yEMUw8JSrh0z0FhGZFvg20zvQjSb8WJy0n8ScXmNPB1XLGywLfC5ur/yvSVgODb13ffMbyiGpbPccyKGbAuc2W68IyA4NnnkeyYucyudxMq7PX7KXpr68BUrFTYYwUAdRPkzusD3ASgGvZMCN0XlpvJ9bid+LLWMyF6aeoEWQxuTy76nfqIYPsYX/J4R2TEbL2hMaERT31NRocaQ/NPYgm8DXJr28ZWI4diU7yAuoYLpm3/UKxbFThBDoe4Ml6G/Y4MhaCQ1iRkCxXBBFGhAqEEl34e5m4QEQxRjmSbQgBIK1XJ7zT0lZgha4A6+UDFkgimuCo7RLIVGDFAMIrEAFRSuWSPCEIzZ9CDcYwMMjygZJvfSQMUgyUothv6uIq66EGIILk3TteEwGIJL0yyfQyGGsAVuIq1Y+oZhOCGghya4ipFJPZyI19PnGJFtgefSy2leEQQNhkkzb8eIbAs8l9m8NGH15AJcmqZWW0yjAs1H7kWQIU8xslkfJutieMBRjHRqfNTYiVHjCzPkKEY6fRqU4Mv3uQVhhqAFnsle23GyfiljRKAYJHkb2y9FFcClz0RdfdaIZVYx0uh5n+N63udJbmYAwKVpGvcWyOu16SS3axCgoZHFu6foma8QAMXI4v1h0qY3Y0T20pT8DvgYfQeMEMQiRzHI7/FxTmrd4ye6QIRGZBUjY7MY5vxlBxFpDLBvs8ngPA0qmHIUg3QmCjvYZo/rY4JpkaMYlHNt2NUSa64NF2o4g5nZm01EZKa2EVnFyNx8afBaVzzAS1OqGWH0zoV8bj8IF2p4DQ2iOW/8alDvQbFn94IA79tIZvWRWujZ7cIeRN6EBsG+BTbn9uxbLGEZ8rqnP9A7M7iM1GLoLq8lvukG0Dj3wsi9J4LVrlf3YeiDyL9SRO2uEaw9WWm3DVzybRuRdxuF2T9E1oUmSv01WWRqagFMZloQ3iGl2LD07JDCN7eIUOTf7ovtAec+8YvA3j3gWKtPkdDY7K0HgV1ugs08Zpd7ifdmk6QoB49mcvfxvwfRy+ETUhNeJ0U2a1yKGu9m2GUZ+50KFEtrjJOSRFOLYoCjJgV68bDgi6QWKNzUpMi5Gk6OE5K3RjAPRZbBLqrw4jQ5CMKMV+5tIK4vGIq7gdOZcUHzVowz9rGit90AtWJYvIkBijBTkD/Ac9EllIuytoN6hw7FKzFAnMnRZG4OtDIipqJ31C1McP4nU8UaE+XqaehiRhhQ0zMO5HvOkzkv3UOgpglyPKZ/v5ALfJXIchQIOQR1b4EjFTbIBMPlWC12k0oHvu61GHJNSCgYLspadXe/ERxZG2xEwl3auwR/cr9b/23exCS1p9PuM7Bl+/lh7wa0ywnq3gJP7R3s0J5El2RNq2q1m739bvdh4eHhofuyt1vUNK0GWh8EdW8hxIToq8RInppWrVY1k5v9jWpMuF2i4Fdw3vfBBUU3Iz7AbQBRmOEHUhvtQTIsF5kQRJKQFgK00AGxJoYChBmKutfISHnpTB9LpIlNKMBlB03d23/BVwDiviUDD9C3IuHHKyoYIG/1YwNMOFC8KtEIM29RBHONwTAEk/BUYSZEKRwMRjHAfRxqbcRFRJixsVQeQLABGykE7xA0ERVmbND1M4IBwgxJ3etOJkQhpfTUA43dJaZ5r25oNuNFm7BlEwCm1CCqew9jEkzfT0GYIWmvxYqjDvZTpQjCDO4FLQ5Kx/EJ5nI3aaoiWEVBj5WYiKH1XnRSzE/BcDhNe20itKSASPEosq+dIKp7YwpFH6kdRbAITtPF/+SyCEVKKTiYvCFpr5X+8kmEok1zacoilbo3gRJ6kUq0ARPFFO01+TVhlHHwnIKfspunuM00Bwmk3g/6gh+01yjGSuLm2zxwfkUSCiDMnFH4aGTfIgwvtBTBZBhBmJEFdMKLHUqKsL1GMICYKBtNmyJb9y7h6148QUqKKdS9FATpKKbQXpNJCJJRpG+viSSjfJBk4bDuxfooHUHz1fsEY9Js3YsMM3LhG/dnFcRCDUsRvKoPOb0mTwinanw0asgktcqEGWR7TTjZDkbnBtVFJW6vlT7S+PVzmJAKdr5xW1vcoS4CdKvChxFMgGPaa3IBlWuH4bkoeBhhew3ho6VD4hjjRftUzIyg7kVYUKglkwDdsoAZQXtNfKxEnkjNQx10dhMHHLAoLN5eK/0kFwkO9qsJzUg2vZZiiPGjk+w0gjAj2l6T3wZhQBsLTwnkn90vFdzaKr0OyIA22i+xXRWOlYj4qFy4T+WX6IagsRvTVWsE02tyaYAO2sdzLI4E7TVZ/iAtlBIgBkfQxU8+vVY6HOgBZLDwFMERjJUkDTMDDjAcPO9qITEHGWZkeaj2c9DYqwU2Odi38iUKM3LhJ+JGghSd/Se+eCDqXrlUeEyxhkiO570qNKR4e02W304GrX+RaD/s1pgjCdpr8cKMXDg8Hob8xUCne1qu9rtyoL0WY6zEcM6Px6ycPi7aCzvFam+fopy07jXovWXVej40uqdPtWoNvCkjLMzIsuGb91mQhrjoLOyw2UzA9Josl+TC69vxsBIzQvjrXsNocqlUMrj9/Tw/y1zcFMHJ6+urHUsnXl8PP94e749PzqenU+f2HyspUbGfQ3guAAAAAElFTkSuQmCC;" vertex="1" parent="9">
                    <mxGeometry x="112.5" y="60" width="65" height="65" as="geometry"/>
                </mxCell>
                <mxCell id="34" value="Call API" style="text;html=1;strokeColor=none;fillColor=none;align=center;verticalAlign=middle;whiteSpace=wrap;rounded=0;shadow=0;fontSize=16;" vertex="1" parent="9">
                    <mxGeometry x="20" y="180" width="60" height="30" as="geometry"/>
                </mxCell>
                <mxCell id="38" value="" style="endArrow=classic;startArrow=classic;html=1;fontSize=16;exitX=0.5;exitY=0;exitDx=0;exitDy=0;entryX=0.5;entryY=1;entryDx=0;entryDy=0;" edge="1" parent="9" source="7" target="29">
                    <mxGeometry width="50" height="50" relative="1" as="geometry">
                        <mxPoint x="231" y="180" as="sourcePoint"/>
                        <mxPoint x="281" y="130" as="targetPoint"/>
                    </mxGeometry>
                </mxCell>
                <mxCell id="35" value="Page Request" style="text;html=1;strokeColor=none;fillColor=none;align=center;verticalAlign=middle;whiteSpace=wrap;rounded=0;shadow=0;fontSize=16;" vertex="1" parent="9">
                    <mxGeometry x="20" y="50" width="60" height="30" as="geometry"/>
                </mxCell>
                <mxCell id="12" value="" style="shape=image;verticalLabelPosition=bottom;labelBackgroundColor=#ffffff;verticalAlign=top;aspect=fixed;imageAspect=0;image=data:image/webp,UklGRsBjAABXRUJQVlA4ILRjAAAwfQGdASqwBFgCAAAAJZ278dFmowV58ggXwzPANT02f/NcfisIv+CX878Q/GhkXqD+T/EX++f4z/NfNJRv6F9lv1u/vP5FfHuUH8b+h/YB71vAn9K/Fn+n/9L61f0D/t/5j9mPmB+APYL/QT+b/rh/S/7J/2/sD/Of/D/W/+V8Z/5//Kv9L7DP6x/Fv79/MP/V+f//n/Mf+F/+T+Wf/H4Af+j1J/7F/Bf0N/7v5///v88vUg9DP9Rf5d+cn/y+U3/C/zD/nf+T9////+z399/sf9+/jn77/S9+jf9X/lf/a/P////gB///bw6SfqJ/svS93efifx2/cP15/Gfjf7N+v39d/uH+o/yXx1/3XdZ6R/5nlB+0/17++frj/eP+j/mPuv/E/7z/J/kV6O/GH/F/Lr4CPyP+S/0r8cf7b/uf9P9dvzn/W7j7Wv7J/4f9J7BfrX8//wn9//0P+f/w3/W/3n1+e1f67/M/sn7q/Wn/kfm1/kvsE/kv8//xv9x/a3+7/+f7Q/wX/h8ZL8p/hP/H/jPyM+wb+if1v/Tf4P/S/6X/N/9b/pfjl/H/77/Lf6T/m/5L/3fDz9C/vX+v/xX+d/3v+l//f+9/Rr+cf0z/Ff3f/Of6P/C//P/Wfe9///d7+4f/293f9jP/idmwMcSm7Rs91X13mjoim4qbdo2e6r67zR0RTcVNu0bPdV9d5o6IpuKm3aNnR1vDH0w5MabRMabRMabRMabRMabRMabRMabRMabRMabRMabRRWoESY02iY02iY02iY02iY02iY02iY02iY02iY02iY05hvYcGTxptExptExptExps/hgo+XUP6xj9RWIkSlKRVxestenzJ402iY02iY020NYcGTxptExptExptExpm9a2/CfMopxVaX7UlX/moyP5Pe+yRK976tzchmbvLe8s0RvxKJEPfMnjTaJjTaJjTaJjpMiTGm0TGm0TGm0TGm0GR8g9MU+QkmLy+ouC9WU3BLenccFDqEdj7UOTGm0TGm0TGm0TGq4cmNNomNNomNNomNNoMj5gFrb6l6uO0flrffNHCDvpTAxhJAhu1bIkxptExptExptEze4RJjTaJjTaJjTaJjRdVEO5N8fuUYz7aMfMniT3YDoMPjp43B7DgyeNNomNNomOkyJMabRMabRMabRMZqCZ6oZPPkv6y1vvmcPLY57l+Y+kEBvy16fMnjTaJjTaKK1AiTGm0TGm0TGm0S/aLS3HLAH9cNox8yeNNBqLP7s39hwZPGm0TGm0UVqBEmNNomNNomL3zRLT57ttegMSaayflo8LibvSa08x5s/MU74h6inYHRK3PcnOHlrY1yGX76J402iY02iY02iitQIkxptExptEv3r6s+1/3DSOWGly5nVbRa5OcMzokxpq4cG51Tz9FLB5a9PmTxptEze4RJjTaJjTaJfvVTVMqv+JSy2QPjTaJjTaJjTDisY2ao+HueisUvkp1HVloMnjTaJjTaQLBwZPGm0TGm0DmzQ5GqTnDy16fMnjTaJjRrax/HVi0fkNheU7llwVD+5NoyMv+673sqfMnjTaJjVcOTGm0TGm0TGbeqdZdJtExptExptExps5dgNm0J1FrqVS8wn5PKP7j+xGSBUC+W7gyeNNomOkyJMabRMabRMVvDE9oGPmTxptExptExogV9XaedEd7lja9QILL+bk0gDQtxZrLXp8yeOkyJMabRMabQWxxxnKPqPEJp70PFNKomjmm0TGm0TGm0TGms17Ulwcst7BvZsfWWx5TZNBFpYG5a9PmTxquHJjTaJjTaDSSSQBEJdBavjoorRO2jHzJ402iY0xnYxQ1B/JWZmJnQdCCkCeHasopGmlidSRndGm0TGm0gWDgyeNNol/B1kwc3ej/u2jGTPMwURS/btqT3WAaz6OYQlHjlOX2lPomJLt6We7dd/9+hCHyfLqeh+HQ4Xt9/kPP9FAkaDVXKgEjs5NbcFzFDzn5nFZtsTQbOnlfEucJruOayeNNomOkyJMabRMaLwIHuteWjnzJ4e1z/XWxeDMurCNuY+2z5NRHKZ9NultCJfbV7edBFgm/ty3uMjRhVbrI8xnbggCAyIEJjx0b29SAOJhsOGLbRQGvzUnkejDYC0LUmwW8oDuHliQ0TUjkxUZ4NEbEFKeNNomNVw5MabRMaaBWId+HjTaJjXPhfH/Sh+s/xLL8SxFMhULWZEruyy/s17HQJKE853X7t1U3XszNW2jHzJ5vcIkxptEvxRIJ7vwHuDJ402iY02iY02ieJ9ytJ/LC73OEFkz/m7FJV+O0GU5XhQlTxptExquHJjTaJjQ9TuVxKy16fMnjTaJjTaJjUi+7ddpGZ+CquiOVZllr0+ZCTZ/mRPmTxptIFg4MnjTZ9EFM8RDaMfMnjTaJjTaJjTXr9EWTp8QwV/sODJXm2er54cGTxptoaw4MnjTYRiHt5bTkUfQCZhFLU3zfwSt/kGBgHtcyxYgdNxfYlEgI1tIGe+rTLpYNtDhOfyn4kQM8Cu6peuOm4vsa31XyYUcy5ZmEa39X15XLBtobVXU4QUw7X6fRc/Fo7tHiXtjy6CXepov4HL+nRZMtqtpXLkjLEkCZDz1FLXp8yeNVw5MabRMabWUjHzJ43/eAokxqSjbIQyy16fMrX0+ZPGm0gWDgyeNNomNNomNNomNNomNNomNNomNNomNNomNNomNVw49nhPN2Kq40JssdE3jXrvDmd0bCx2jSzqsepnj3vmzeCpAnFgS5cuy6KAGRJdyQAR/8t7AhYnFE6Qyzc5hejrneKgpuLN38ze1BfCj3mPeWxBvccc58X9XKCgWJX5sApdYDg72w36O7hHZRJiRn4R08mqEJ3ZRiLX9qZMNLJKP/kVMmRWjIJRhgw69FCKLLNWPBi+wUNfHYSh5MLQcwz6ZFhsyi7pPLYJpFyIwBIYOlmlT71NqKZOjuphG4Ca9g5otyzsAbmvP0lY57eOwe8L6qQ2QIJ8YKJIMqWaqph9hPrX768OvkVKkkzDSMf6giLXuWDxm/4fLMFKkqp6n3Q4ngUE/Q1VJNS+tffAamrPCoua8+qYXouKJ6qA/nSVYIVts91e5/2Swmx0rjUzrIjkrDI+pLRng8IOo3Z2o/aFeamepJXnOu6lxZpZ+TXoUCdXrbq/kTckCxjo4ft3GqIK0IL981N+iWBsNDhSpsBl4VAdbTQ+ZHr7nA4XnggJosfwTkXR7aQWpnU5nLi8y4sEVlP2OmyA10j3rVzYFXFmZDXNia9jyPJAYkjgdW4Ir9uVKIBbRcETzdZFd3GKE21M/KZgqWL2I+hpLMEo0DHBli0G4HHKmsRazjuHL9sqghpveQPSmaJtfdodiQNgRj/wzLIwjHI2ihTd8uA1BdEQQB003MdsZrSBX9I1M4Njn/BBIE1iPcPvHeYaslX+eQRYdT5/H1bLRcubIAvIpLa9BFIXPl+m3cERHGRuvMueylX7Rnfj0VucSg62R4tgNdlpytP2q+KBd8D3yHsbhovpRP4YlkP+K9uDCza1jq9+we4DUzHs4vGMcMohoWy5TTcMLlm7DoxO0/RQ8Ar22aTJGy9rQptV/MhcEEa5UepCkjAxuJbG7hDSMhLjHDz1PcKhKxyPuf0FeDdBXgC+tYoUm36K9xifRJxJltu050oBaZye67DgW0w+Jx6QSTtjNOSceWvBh+wEv/+RheVE0nPu/l/PoNzedjFA7O0uH2XNyCkuCO40b5qynwPFdZkCWdQoPFshK9Cja144HNqe+X8IidzvcYJkC3Y5kcT21PjcIv9pwdtUZT5TzQ8MmF5VtkhDNShMyQ5g9SmS0DjjiLQ0axKK1BJjaU9Y5w9Hmp85wyA7Skxp2bB5bAAm+0aiJJErletHfUJcWjHzJ402iY02iY02iY02iY02iY02iY02iY02iY02iitQIkxptExptExptExptExptExptExptExptExptExpzDew4MnjTaJjTaJjTaJjTaJjTaJjTaJjTaJjTaJjTaJmVHJz7im4qbdo2e6r67zR0RTcVNu0bPdV9d5o6IpuKm3aNnuq+u80dEU3FRc3dbAAAP7/9zNQgSIz9zTxf4SzpHmo8rTlbTTozJ7MV7gGrchsHQLT76DYWpvYlXmhbLTt+QQIFQikgZFVNy2425gAAAAAfNT0dEZWjikfx+uhTUn/a+ClZdIb/RrIAiTz5ABz6n9mku2X61H5FZKjd7nUxjNbOAAAAAAAAAAAS5gzzN9ZP2vgcSm2djtI3GLozluBlJv5oWPUunPCQa5owk9Q9l3jfxs23MDCBBc+AeAETSIgFKS8af5nm5U76+BAzJQp1dCbiidHQcLgnT34Qasae6NRO3phzc8HVN5LkCswGHhPQ70pjfDSI0I8hBESvDXCt/jVWX1hwS6IX63fMa4wAbXKy/u32HBnIVt+WzRY2E1R5VB0jhs5VxQH5vVoxPq+xwkXWlEBFFQ6npgjvRJgleBw7xI+gm5F8Iy4krxQlGFADLgBEMBgAABjU+8C9zQ4EF+nA52dE0vrSA+torqMn2hGOt8VGcMGLe/sMXLlIat7aHuxWB0lr7gRSEbCbx38OiQUhc8WkzgU3txJuiZylpV43vlyhoYutsJ9rHiOS19A2hRjZA/OwMAVoR7zeDb6RqoNwBQQQT9FqG9dqo3Uoiq4KNQ1eRF9oaaZ2zhU9nHWOJq6xKOdki0jTWgly+6oqHt2leytjSK5E3AbKJ93qQZmo3jK4EIZs9SniAPIq/6qJCztj9cqdn+lrha6iZKiRyKFbQGENenwb8hc2NMW17K8k0YbCEGdYBfipyGExHRc50QjRzBDP/NvyuViIusstEfVd138j70F727pLjaLruQzcGJQe8Ui3ZLtj/YG9rPKVpCiK6WHJ8BeLt1ZmeU5WH/Nq6+4M/S8Uux8SKl/h3x0JZm7TDYToBaZ8gd1QBoz9pbcsVPW+uIuaYV/cFAt89uOwBYN5MI7tZ2n+GM78hbwhxL6GzkuRLaJxGsFhUjv9zggV/nt02TXxgutaGauTzE5lsuuR9yk2PC0HOYVAnOUGVVNIAFCLToEHoqFn1NTSyqAHQdl4LKkleqSbH7zPwOVFkcI9L/54GYtc3qUw1yHIahFaJ/yAHcKJYrGy5RYfZYszPzT5GlyiDPICqDtRcKzDvQ/eDBPcZxFAmLvcIFQkLhVZA4RtoKO541llHdpR+65jU2Al1ud0JCMxVasIqoKeEIROoHN+eI185qdKr3VHY+jLb5J9f4Bqvk9bQZjSARQHfJ7QlNbniz8rRLMBoU70dgZNiXXUX2Ufo7SUmClP6qmkSxXUSbkz/3YUAmGYol6deWUK4xZGtz0K+yN0AAE7ZZfapWWwzxam/p2pdbJcOhk2NmO6rIFa5N3I6CKeb130otP0yB+2r0zFvj7GiHMo+1IcnTbKP0oKZRCz5y9G8HJYn87LgUW2jMtn1ojxcsdl+aVLS3GQ3ERS+UXA0VNMApCPE1c5Lnir0LbDhRmhnZjlhiXMRkp4ahbKdYiWF5j7Z+KZsZjG+janrQ6MUPdMhu8w3ZOqLLQxZHU65TgK8skpZOO+e7AQPNSvVZFThOLAd4Z9zIz/EOQtwDwJjtinnRCT3yDzhMwP/My6hJgAAAQSibvwQY9bm3vFU4USmi4u2hew/M7OUX2hmz7G5w2sULm/YfSaHrpjJDm5T3TCGVEzQs3yZWw/f2DFO4OPJNsbDJSe/7NZ5HToFXI0Vwo/jfSW7VW86hF4vAtg6BmvDsFVBPcPYhP3DctMCE3dFQkRvZVKgVMnB1EHkrKTTKn0FBENLQspcnB0G341osSreT7U3WttO3ARkDIQSSEJe0UosY0s2GdS1InyzRQ8QtEdndgAABO2Xuwyrymh3K6A0F/ctydcO/DQqn3ZO3rFC26hE83IQYs/lAqHYhIpTyAYqbgCXB9k9bt30hbHk4Th1TYZhaKR5hjUVal0xUWy85BAcpL65l0FY4GJqbyBWmFIBiTIH4BUX73XcOd53MFZWsrs0O1I6PcAsAA2EgWVARb80Ij3oIkb7m0mVSnl7iaWWqvaW6VEeZoLFDjF46f3C5kTacVeYI/B9mxnRQDhwWKuRygryebfHqHA3zRS9VCzx0zJKANThZ67xEP5B7V5U2YhqNT2wIP8ixaf71rbJDCjX8zlQBOd0RRD7uzz8sYU76o5EHK7NAe2RDKJ35P8M5FN0oVq77Ajzg8dPOEI3ZRi/eUqcl5bsQXu3lYjFoL43akeMeXD+r6Z91UkSsinPS5ZidExBQzmpYhfNGOxiNcOSVS41YNSB9GRqaNdMcoXxkVRbSohq774oh1XWvOAADQnjPEMVXpqMUzN4lmSuiazx1NNCZrwuoZ8wnW/3pnUq+VQoGhNZAJ1hdqJVpTB8SFTlY0lpbVR+7GhgtVJP3Psb3DPNJb6Z77sya4VYrqAhlr3LgkhPDdGS24DzPzc1G6PbsIwQifR+GJTPrLKCJ/kFb4ZMrDUEs69uRsOR4LGg11/r1Ur//s/KHJ0waTXk5xdzFNaga0nW3s9/s5PyHQBV1FJFSAUHjkbcjmhmaD3gVfvqtitvlo6PliP2B3JVIeLFNnMUaQx8zIXAqZS+LOn4KgP/JaVRPYHpY1Cbsgq+/c8/EKV2MBL6+wwaN2HYrhC2zp408RWzgxcTIPVN0y3lc8WFbGoZnNo5azMk14OWbzOilzU0WnJJ9VqCXkbT5N7kKe6P8ux88R5A5IWaH2LblvpCWJqtIYS34q6GblrreNVIhccAGwEEbEgAAEMOkO4Y/0H6TWzWH8SLRy28j3nGWHNlGyXTupmNcfjUWpZdyH9Y04Iw5tSvkttxXbTCbdflPHArEx5/sMwbQLmKyBEJgFZ6zqqzbmHbYdyX+GwhNr9wsxzFJEZ+8ZFdHVfhdMp4+M4ImCVeBrH5zUj6IXHZQIWh66KQAB3ucqAtIOs+R7SV3u9lPB9pfT1Ii3Q0SqWKQW4nd7x0+840XKLRFbN/j5TxhrBxIfR9W7XmucSBfORCFY9klCmAcI389HUlhiiZdtuyM/m29uMInYHP0fJ4gGjsYU00gs2F7zXOs9hsNb8JHi9F+xeL1/yhOhBH4wAD5eGzOhWFpDjiEQ/mY8GTajwhfl17HF4aUR4wwcrii2azEHAuuCDxOGUFN6IfA0ejgdmxLpYfJeP2RUefNfqYHRjaVSt9Ng+U7OtkG+1Ti2nW5voa4/xDZ9vMLWUm3lvPtwzSZaKowAmrm3zQkIkzpGBlbGS03GWfEdiNEa4R5lem9qXoNQ+rRQgBCi7BRzpZzdLZJiES4heHVgLaiiXM2DO3epLAvPjF48VvY8bRSwCULXxxu0CKUR2ZBz9YgK9RQ8Kn9MgyEMKMNwmchg2b/pH/OU1pRNk7lU5rjPaiF+qIskQT5EX5zOGVNv8fji3TB+y13ee+jfOABDDZqfzG+DT1DZbVQLUYNI6lLQRWRQU8GoI1G4HkMwYgeG5qwxGGqDXnMqacXjdWNjzhnIGZCX1TdWvDAHQRPSeAgd0KFQFgU10447JSW+J0y1T+H1NCJOzHvIr25RvMINUMOrej3W334LG1mAHdKFDKRJDOrfdOQmY9VPQHUvp+f6yf8V/ahKS1GMC/kWK7/SvuF+7Gm3w2SbtRZBCkQERjeq5ZyPkLRUGnSTvqppTMFjLIFMKSq2R+tV6SA3jZkmcbj7KGwSl/YsQnNJIiPLrUeqaa3rZ1E8+T2yuwWc1QBpszPzfDHstaPPFmXXZDu5uM05cM9xvF3wDPLTymOnsVg9GQtmu6Tu4gh6SDHIu3FHrR4xvl6bwAMOaGdUj2eOvGRDkpkTgto144UPsSu3ucG33Kt0yXaEjXnNdTTofjLylqjlEtY86Hq4sIZHBq1cqxPwiVU09axvR7ytLr+6PQH7Phb5wWZE7lxkPe2kqTXSaygqYObqjNkQWSpIewz6+bYJsxCqk/HLgRnv2LYbFqWELuDAvaDDDe//RvJEuMaSEnAbQFm9IacGctlLLuivvrQBdVGbi36+79FUm5AQcYlGAKOATrYSaOkovaJmLeBeTB677ljHf7WOWBTGXYPuWPtXzwhJbDilFZDvR8kHnjHCjIvtTWC3b3ng8jWzfmR3ep32dK79swLt0yFub2dpnZH2Ge9b4tF2Y7twDL6cMlyAdchSF8U7c4tyMBTMBaThjekNAM2nzCfU7ct7T+a9VYvgRRiRIbGOXywCd5aEUYAaohPEr2HJajYwi1HkaGX643oaSSK72Lm27PZjR79Rtv5yxx4uAwJn0QmnEudSQvHk4fkR8xBHag+0Ni10v+wZIX4GIH5g88/tZfJZXPG9/iIoADh7Z5siwBAHDhAZdgeWqqRpZAlyDGppLu9qXf1amTPyuBOQxcB913P/u6kwYjjtmLV6JPiTOKKJwE70dLlJR6nlmw6Bg8D9iAV4bmNScov1gcQwcZl8HZpIbnKe6j4AAQXJc+7unotwrN6KCkXiOcB6ObvVzNKsEeDlbFuQzxIaO4xwDV1cjoMWRbNK9/o8HtCgX3/hN9/SW4R/gVMY7hBub5q+b4uPjo312OYprXk67EZxE9p/2XhH+qxBgAAC2cCG14KnydD3yor/rWuYvTpG1mBv+WNF252cpbz08+EH03+WQ8hx837ML7b85pZE5rQ3bWaNuT7QF5QWL4oVfWOQYDtOJgQVIWgKFZzEuV/jYZtG0JOyQGuehEeKC05CAE9sGongVHT6H5vfGW4CltPQW0gKd8WUHIoDJUC1k4pEQm0RRBPMMWyCfCzoF2BTc+7wuOZKUX+OGqGd8HKXgrRL1oBlpHYXHOcaylcs59geun0UIW7DCyM42B/N4o4h4ZRP9sbOkJJ85p6gUtAEAAFFqPhY9GhDhl2Jtl1ZQA+ZdL67O8hJed9mghJLbrUMBNunt80/meloTplzBPo9hqGQYSpVfDdG0r1bWjil3lIHRSS91GN9k+v+ZTOpqYWonrtx9wcuR2s7JMNaZFjKXfXbtA2W7KqoFFUVy0Uv+RqG8FFR/kVt45p5n6iPFxIDiuW8QbILIaayAsuZF9Jts7OdsFyeMmv1cdfs30UzmepI99lahYbAOdDs3PexRM/tKJfy3FSNkWzBUZKCstTOlbYZyvuFPNUqUGFUImQlM3Bw8sw89Sbv9eYPU3oAXBpx7QsCY/TIJxAJXe/vRJeXYAOkcS2ZKrb5H7LA/R36HiVwDAkbblHFPBwwiTjzRzWFuSU03TfEF5zw52tDTUx8Chexoo/AFem9T2DTWrlqWhYXGDZm/3NI2UNcz7j2mFhM6bV3Ne+SsQBl4mtpx1n4AQ904JLH5rhmioh2n+jAwtojjdInmDYW+D7n79/3QcdDVm5iYiTAgjC+ABW1CfESJaICqJvLTbBBp3kFEKBk2sSUsSv4ogT6wyVPPl5/tNwQC0F3LovmiLVm/xpnHp4mWsxvnMInZVGXFOvZ+ImIbyJtUgZ6oHh/vxdPJ2SB6UHJf/YrA0GPsgBYxRKDAyy0GKzlV70mxeffyVwK2+wntps9KmFokwhcrpCYZsEPyJp1tzA9n9gI1gyFJd8caYTRfNZFxAWXz5xTqF44j7D80Tak3bscctwvhVZB7QO3sowP1mkpO0xpz6BKySgJHLJCz/V3L7CtfWlt9Qte71cYjwLUU1AXPxlPu/EPw8GVaSi3Tjjqc8WzuaP+O3cMCjhDiWWLefw5n5GBdtzdv+uoQa5C7aUhejQGO/TlpCSu/bIs/VlvlJYXFdzccGqGVL4VAIj9M8F+D2XGl3/Fy8uaP++LpU4tUNX5TpYdl3+5DxRFfprRAnE/7IKUAS9KvZeTNaIq3b11c4DqlSIkmoscKiaXYksbxu5WOtdLQkVtZRAkbM71cACzjaoIKXJoi36L4COaTEETs3zQBcWuUBVIV6716/yqXLxqjrII5pfdIcCD0y1yvQrvcZIRIwnUEATDrnCfDi4vBz6tgc+M8B5F4IP5OcHG/3B4/KZiNqx8WLOrN6EEgSJ4bWLgwM7JhNT2VLTsq7C3QVF+pcM+ziQsPO1yEGZhXmn0/VZjt6ElZSAMPowtTD6BcUOlrJ1oQ7ThLh20WR/cCTZOgZX/vQr1moB2UmW1D9QoAht/cDmH3bcOZHJh/Hegiex0Xkk65XPzzJR+sApeknciZlZfewl7K4wRPWXY+wXw6PzzHVBKfj9/cSmRBKt6VlRdJact0VV2sSAhlQihNV3NAxN09fdAGXFcZrzZGx4HuP7uuhXHEBaL3c/BboDzeK9v+z5boUwAYz6DwAvRdodEKGUxIOxXwbzJhOOYz3Y6tDLbYfE/+jCTDd5DQEw88lWV57NmYv6DmZi2B6umkwRB4+UCUGrxsU9rGXjiR3uFA1l0WGSUQJ5fyKHofbsXRAX0JqtU7BLQd6KXsg8q4CgeQIPNJON6BYYe1ULw1zO4PboKGDzeBr6827Ic7DK50+Ot1b63AI3tUbRJa8dl4R2JgaNaegJPuZtcMo7+00Ggl9a5J4kUoDsW9GQmFE3S2b+VXix9kJayMAmLoSok8W0VuHzWDAsq4yAqt2qWLfPAy8yZZZ41xQJaNqJ9iDv8HzCYIlexqrOrBhZhSEc0kNo3GwYdC4JNmXMUG3cQndG/r2e8UCF8aX1E5S5QmdYq2jSiRpf0UyPnNhhgj8VGFlf2DPxiUPBh9M9JVXvdtA1rtkjWdEsXplIueAGXxBmn5hXJW3nZpBDgA229pFn3/oSEhRkIeF57hHEPeFgud2mKWU+nI2Svaa5JEhMj3KuKVVEATUkVuy6y6C/tYBwCV9bF8bBNR+S2qJ0Tbd+w3i6LeRyHeZXvSE1M0oeCXwJEBNbnylT3siizvFfXz3m68EAvW1VoS57TOl8oHf+Fdthop42w6pe5TvRxDxdb7999NA4NrrZGeapP0QYNWgA5iGU5XPh2RhMU/mBQlH4kbUZh/z+ydva2hc12VaJGpwdGRgz2VoRiuZqxHxa/mTwn0JxOxnyIQb9Aw+X9ZgbzfkSPJnrzNkCxq1FRVm2Erwi4dn8CYE9eoFmhcPFQzw+wBj3r4V2Sgr8i0TuPkun5s+DFFzo1rYykbNp+bZAk1ChHtbw44ZxLxz57IIQaiyron35HYFMqa3cjkJvtklsSUd7IB24e+ZWs9BTOpBk8+Xwc2K4A2BCehfv05g5CQopO0FVdqCbSmV3ef5S6RmlZBFWC33odU468XWZSRkTevgFzwTmplWOm5EAsEwBfJskKLz73wuISHExNesCGY7IQTpRwe7ytmQMJ9C728mDPA4sB9+utdW73HMEwrIIGN406bgxCNVhGxB/2gknxm3/xMMcpxpKCn0z4C5DaRegceqDeQwTzqG5M/EMgm8BjdHjy+WK1wCxMPeTFp2BNtrHJo38kzGsgWqt2zeOMTCdFnhKSE2WVOxhI2Tv9L8EAD7i7M4HbLYa+i4xMaO9wUaQybPyt8iYVPatSl8MHwOE8IT3XGmZ5L5ZPdyisk0UptJEv7K9YrI6Spj3sxeoeddFPe8G8bxzbjrB5wGOInhYl02U5G6TYh/Csgm+YIlWod6vX9Qw8+5/L/uYgrGuzR9XrlvEXjn9PUJSqXh0BpOzb3+cO0Wn3xYFWvZyqgNnFYs2p+OhybGCDIbxzFQhmZSSIBbu2I84GvS01zkFnY7en4tyaSle0tsjBoBxdn2yH5YMQTinPSrc0ZDYm0Xz3nm8EG7y5B5+zc4uGKvgw2niO1YH2fw+wmz6d5JAkEvTHRlYnnCkakaGYpPaCEfX7zoFUlBYygeb92xOMhe6svqV5Eaj23S8QAZSaLIXB4hy7BdWNYAglY0GDTzbmuoIwEMcamUxSWmDm1oQSB5PTEZV4LOFoNVJRolC3YT+OSyiJE7aZAoWpi3XoNCdMmyPNcJ2Ar+asNId/hb+zVgxRypQJJ6onZPld45Ohfly9WsnvXVoUvGwrJeEuNjytDwcDjcF9jKXOuQ8qaB5mdSE3Lr4iFrszu4sAGYlqMyP77nE26DeMWJIHmKOK5uJb8fTEMfQvBj0AAzkrs8p4duRjCGKVC+KmnNcltgFTLpNgqhackO/wsG1hGwnUheArkySnmeQsnomluV+HaHAMhCIjrdQdS34whHwUEAqhBEL/D5HdogJx11+7NXApOyXkv+fN6U5GX7dvT48HMO8M7Jndb4+udV5gRtD7vd9Aime5pFyjlI5b7lm146dq54kmPJf6A3E8GABdCVtPCgHihGcb78U+mBCzwoUXBDEwEjr6yejbBE85slE1v3EITb5MBKMAfaXcX+uw5lr6V7BgAA1wByCNO0pN9s70jTGgFHQ6Q521bQUiSbYUjGB3NCpa3SobFItmY7pajM+5MEpwe7srelHUuXpPaUfwG3+r/CPxH2FGLT0y6mcdRA851Mmd5mPPDCzxf2V3mxB4RoHJayhVJoCNGqTgEm93FwNgDZutjXoXuhtpAIyt7S0TRxD6rlH+7Pg1J8dy94UtDkVXWvez5P6tpOAAy4BWWODwzZhoNjGawDgEPnqzT54Z/MjxlRv/iVt/lPmo82dg1efNIt1aUjxdMxldlEic23eSlqHUtyEqKKycoa+mc3qRJDnXb6F2gaLQjnjMV1xPSo/R27dtoKn38WgaUa2qlaKuo2BNqc8uObMCrUWw3JCr9VKDbTN2JncTmbTmEX79s4GLNZEFq6uJPViBNxvQy5Or3Ei0AXibFNHXGBWdeL5xljnZlvE9mvENbWPSZZ4mf3lIbDzQ/kbZzolK+idaeJ9eRz2y53frGKP9DKxZLLx/Eees7Ylx1I3q6xmWBbVuK5u4WF+KOXYzJG9EerhXnz0vMxDF1ZKmrOWjnyV4iJgAOfui7agpSNAP4/7Ligm3YVb9doFcj/NlvOzDNKduW8SeRK6bthhtZOo1l+ABAFX8+69GzjmzVafgrKUIDi6b2riiqPZ3fPOq7yCrml/JzTWmXvHdHu41R7VgvDemCD3xSquY4/YRNn9P0Yf/Qyd5DGwqAU/EHynr1CUFfkABXv0lv6p5mg6g5wgLXnb2vviyq15TAru/5pzi0ycVtsYMPLVlrB3gvm4S7bYVGrZfRHfq+ht7h+tHN421siH1z6Loa/5JpqpgVaWzMSLyuHd4WliJtWeBQhxKubV3GJ+m26gPTXLa5exHyW80QUFje9QwDyW1GPxJVoxHDeFBw+bYq95/NyWa68Br0rK3HHgpDHTr0gV+x2AE3T5c4Kmpnll8iOa2oq1hMXmKYEBan0nzpd9cyCNYyMOPwr1H/jz0kzDqPAUe94iC3J1Ab+Y2d2QljU2nbCvcz3PqwakzP6fYtwni1cUp1jnxcsO/JF3gRlhRstGMqm8LBtLfYPC1RwnuMFGUCYC948ReK3HLNlK+aaLxT8ygE1FP4pkI+YaJoL+70k5+NqHIu2ZxbtroEu487w88hg5kFvq3b2DcFK95oRSTIFfRT/zu7CGZx6QQ3GjGHsZYKMLt4Kd7rtYTJoXtVu49DxUv44HmDQou7a5RiJLW2AU/14FWFuSCfCducxduqC4FkzOB4F2uCPxW8rBURNFFARmxMyXxe0pZTxaoZ7AwoxcZLtNFNCmdDRGeqALOghyr8Fgl269P/2UmTTZ2ldTW9BdkS4Qz8+BaCmJVK7YmS4oRsJNvWA2AT9sacFvsXyFbN+fYbl56bcZWusLhKI2UhQppLYCauP/Zua7IUKDiI38d8tN7okD3/Yzwr5hCVJoqD/RJc0iQAU4jNSgWSdtw8zRxc6XU8D3Qc8/rWgIzYDFJ19bz+fWd6kwC6eaMXs1vwcPnFWIJOXsb72aROJ/Xuw/r28CdllZf25EuxHtg3j0hZ8rz0gpbCM0/y1P9f7geFTMDPkYTRsjGBTHxLsAKv2UKCqNX9Kr+lJSZ2mOsOOtQMs1VPWULK+b1pjl0Qhd2zAmWfg0ACsNiiKqYG5TlTWNNnqhaewu55BuBSQzjJAhoTYHxAUlFOzgbD+sGqQ4jsc2Z4kyZLUwiabuC1SPnapCd72TfNDoTRRvAl7/dSKTQqLs3Rl9F5hJIS0CpmmLg48eFCF+UTzicMGdf6fc09EG8asWT35yEvOBcuNr8OaQBniRPwOSZEFUAxj5rOwmzk8YCWdcqsP3y8edNMloTUlTFGSy9UCghxz/JamSiE2ysmsk8ZqwBwjAmD+GbSK89Ssc/o5iFaWowzEiJ6SPiC76x2SxEDxVuf035/ySSsYDjEwALRUvxnVoUwwNkNHvRTqiUr+Yj8qdA+DrrRx+okglwtsclFj0WAxoDeNfgpZ5Fglo5j2G4ZML+JSUVbkORcLTgUzBh3r+533F/Lk5ESxRBqMWkmRkNmEiXf9KQwjtck/Hay4V7edHFPwI4CW8Y6I8GHl/DdZsTMZ7AMdeGI5lZvAqaWRmPb5/UZcAYcB4CCbUOuciaVMO5eyqN+wht3cqD8kd5e7bFsw15d1O4S6fvTDMMdVsar33KOn+4FcZXO6pdZP+XNGH0nQoYXpvuqmRHO9/zCWXtmYCqS19YpRZNP/HYcX9TfdwJYnZovenuHx9AvxhnQ+7YxfHWbxUOxAo1t1dmcLpebiyqA0TW4rHbwiItQSZ12k5krkHxCKTh+rJewJoN61Su/dwPrbC1LOFDOjf2KMxDhBMSSo+QAhbBiIR/uKchE4F7XtoFM3QmrgPtgkMggBVnrqTlJUu31F05Pv8kwUABnq+RCtqYRRNRc1HttSn2ZEkO+IOqfmy/QXGJBuI2Kl6q1JERp1cD12AUaKqD8Am0uoJG0qJoOSDZteooZ+hyZLkhh64dC1pfnZvI+9+lkZNwIilcD50wWRftsvYbmqY8MtGr5BuLQawBFbpVpZbX0w75bJuMBTAf64GOiNFEsRf/SM62IVSEtK0uXHLQ0Ee76k/vzQ1Y4Qt4hEBgBmt4qgK0mTul1QI1A+uenrTwSwVm9Btt4v4foVn6ghYDCN/pC/cAbsYuxiqQ2TzSq1Q/PxKDI4dg5mJ+NCidas/w0SUx4gfS8UdixQrYUG4zvwT8fbJMLTa4jb8nKqHpfpxdGgDz4kQSV3v+yxY1mtSlAz5BL3vjFQe7llwHP/mIrGD9lapXjYAUHAKveiDq4MshJRilmfQ0YPaQZYTRzI2yVO+s5pqas6aBTjiBqAVQq4c930xcGd5lNqk9yY5PSA1SQqlC691P06whuLlSGzzKMEkX8yZ5xf7P2dRdTWTrhGzOulzBZbDmUs05GHl/UGv4RlsCaZPoVS/DSZCCnyET8PTJ+Jc0qfOlIdtijeB7DPLdwJ2XDY0U85QLLXAzoTEcu/DyUHfaxxj33WU0I3IgB7M6MZQ823ysMldLl9uj2UP4mY6eO8LDDfEVEyhmhDCwI8MN/3KLIJIrBDWE5DE8Z9dtIqhWbZI3OgR07K81a0bIC1wNWtEVDLLD1bD4sWTkXIzJVk0kU2A57pEh/W5IkKAwhO4c5D+pGtiSWqG7/Edn7xCPF+vfntYgSVyGTw4am1n5hLqBSDQVBvY2lT0jg3e0TvaM6uqjRTZWV5p2QFEc914dBTm3MFTXd6BfD5K/UIyaeXd/BXSH2JqGAvgYEYML6EJcPXOjZpzvBDzYukDe+pytJxIxBhbbnyXO5fTbaPf+xYyTjlD2c7hcxus4znIH92oGaKIJK5hxHumypemLNjZdibqHKrlvqDwe7W3Lhh422uo9Vj1pxEzTyd3o5oAUCWmL4W6Zeaiwco9ogURWAgwxT42XDjQQSwgEflJesRdXyi8g8pFV0FLq9+1KnZvZCniF4Qh2heOwsUS3SOh3j/nCkbUt7dEd8iHxl5W5gBb7T6B0j1L7g642AClJA6zQ2LRvKL72TagoVZ7GVpR8XYmEqPkwmC5C9x2afor0N2DKM3AJTBpHNjUOkZf4NQCWP1TfDWHBiAIV4HD0NhVPvdiTDTyHOnFmf+1llxrgEdSQp95SA23oVgCF8AY90kwzZ/uhZz3nVrDf+jV91YToXK+BjCQzD1q3DlyzbWUpRToiVulF8RrEpNaMqIIFoRerPwQqR4XUQQ98xve926NhhfS9yNZr4l+7yOX2iI+RGC3wM5AaiD/oBYfOJL3QVwsf9RAyMOzwYl3bLn6+jYBxMxBthca4fjbM6/ZDUARb7Fq46PwGxZB/bqfIXCQvIb5aw3lE4GfnyAQr28Iz3zhLYlkXwAa2AzqY2vr9wNQ9SZRbM+Rtlgjhqsk1ppgx4tBbJp4XjKodBmyVfRceXhux2PRSkJGaenA4iRlPKtS9Ajcad4buCYMKSebUNs6Jh8/AjiiXK0ZcMGVrGSPOKwbXtvpD2YU7/U7dxTuU/lE5zjArq+eTXbYTrviqMWJi5AFBbzEI18Hv1QqSSTquhJ6XEXvH8eBSbaKARA9JYH2Z1NbKB3VhLVDfnKTipaU6WeZCycx8uuSolcaI6cFg4elIHXPM67zaFY7p2VLDX1/i0P3TUKbIdZBz+vGs9HHxkGKr5jg2mQ+8UCLviVCk9SPgAAAAAtfAQAAAAdJC3RWTafZX3yuUOaVi/pDUbSbC2vF3PoFDARaaVdf30Q7O8IvJRlqQ0tylO8RqocPgRdYDTEn21cjasivw3wayfp1YZUQD0rJDy0WFS1Z4ckoyNzPo3kA/zQIVA54hvIn2/UPLUPl3r/a0HHRsDeBUmL+V7TAm1m5S5SLmS+qlb9leEabQm99hbj16jc8mrf4hHmfM7ez1BQ0td7RIP4voYUDyzTEukirSIbacuZrC0rTAAtCMPeEf7kqI2WveyjkZxgNUPrktFReWkqd6Du7q102Tu9PnJUXS+hLeHQh1iye2yqYGqrQwvP8D0/csGodiD9kse68XMvXaLjUBr4FSy4Ez7qTy1yBosrNudydjmhryJMDbGq4cf7d3aBPaGIScdcRmSwKvATn2JmsNjSdN0TcuiIEDTcWZ7gzg1MVSVkC2y3zFSXfKy4EFJQs8ZYOXzk18FIE0t1Uwtol9TVw8XnvRN/CQVHpSlnZQ1xGYx30bCC2sBn4jVWsBU2wxaMb3wjNUQI9iHnpFgsV4w0zH1XtlGg3z1O248kT0MpR1MidGEGggCnqMJDUeieLrk9gYat617tnPd/EEowYIo9jeHsUGZCnZGjL2dKnMcA9lEDvFF+stHLPAQGgpavKUzYxxz+QS4v6+Vc+t0CkXuWD9XpOjEFJvaRvB5DQinjAfbqjRA6KSdGgyVukEg/Q4SVFkQ4XnmhH+ALqDcBw2yrdGI47b1Bnf/DmGF5rHiPM3CSkQZjp5lDxuDGSo/ZZBgc1ustwbgAD8w1Rshdm4j2B1q6t07UrerSTyFO5gIQ27RGY++6p5vpnMt6XbZG7D6HBC6vd8UjOOL2FBANCY/M1/BVmOoZTAkCvzHf2+Khswc17gtDen6Jvjul5oyTQ+nWwja8zYxX7aPys/TCFDwIK8dlS8k1WiE435pm9aXD59OF8lDBzSzjcE4e4ZV3mhQTXYOwS67bvQ4TVRIRRjmMhwXkHjLVRUekzAYl+y1l1PkHIbmyGlByy5OtaGfEJ1GSGr6wHkCN75ZuIdKvUkLRp76bdmHE+LZoB9HYxQH7f3EYiespqfBN4KDmF9jV0h2IlqEUwTTApOwuEs+PU2QnS2SOpA2ALPfzwtnki7NiklUFn1BGSTOKOxoOvu/xIwzzu7sFN6IzarxY+nOSDVp6cAKBzEfLxzn0TO3NHPA188YS4YwKXAS12Cyse9ZSvSs6wVvwbW8sKqnLcWRxCTIYcT0xIrBl37jwRMI2D9y0JHMfjUiIn+pPYAAAbWKhu3cGEBVwaF2+YWFiafzdYFm2K/0vRpwUfjnxAR6t+g6l6HLGcKJBDZTvfnxg1XGr2cnspg282gVCpyLC7Ke40WaoYwMDLO3BrTQmXYgdIlbl1275uClZIx0Ky6BUiwNUyNZmFmhVjfjTrJ4Vc+Y71m1uD9jhgp2+9t/WTCyeWi7dQdIvx5Hcjcc/hMnTLLMkRcnctHg4+sFYtnC77L9swjY6JlyAexl03Dv9AB91ThkYyW5lrDI/3o88RDGjoXj6CBPH0V3wKGhE6QGR/OkYkWAycR8uqJaFfB9gqhV98YCKV5nraVnGY1ctPtUvP78zqoTNmNzgsyzlPAO5zTr8x15QnofFiyQ2iZ9e4NOP2MPk9FnzKGn/qmItQ8UZiHI3g7kG5y6Z47XlUW89bgWMYF8SwTFveWRdB4DC7qeZJwxbzHQfxikAvcVru64T+Cz6HKzOf8E/EGxB/nlFneKFqFBVBOe+G4M4H2dgY8qHewcoi1T63daKaoYlyJyKmIqVQhyQrXuVb0tQ4JW1VY/cExDzpVEKHdvkh+ILiIQYfGTykuN5an7UbhbupwcKraiNJFQI6QhfZs7xZHib1So6LYXgyrKOBTXZ8kJxEP3mqPQn/fczY+gndyYvL6qP9rexc+BjcRnMGTQPzN0OcunOTd2A1dNdRitkHamgTdYLg5OIWwUodRbBH3HeeQelSNGqcCUGmMpi0FxEXHqJK3wYKDIr7p2/SSEvwy3vEwq5CgVNbe/Cbkl0N8C8oVLc2gzKzwSev/yF9f8FAyK74fWcb+pcIXrdcPXOiRscJjBQ789aMFjTiWt+6Ufonf/QXX17wINUxIhHc70z6QIYT2WXfEFjiHrYlRhVezL6O4At9IqfhopkZhmI+DgEVK4xTojX1PDlvQJMjFIBrXpB4jYH36Ag6ML9p5LaLs2zuUXs8ZBO+ABgflQ+fXm/sCB2wqueNJAdlMy0X+qRqmGGuJF08kHE+pH+tPTbAXu64TKhVkjRb02wD5nWLhfkQXiZ3kxEFPm3D3dGATjQj4JAN4D4a7smboXyEap4AXK+GKxnLhJF5vr1o6ajz8RXgOzOHMK9IN4IW5DbQK7Cs1kkksuWvOeS8ueg5/9D6b1N5gluQ33plasviJwCZUsQcr/bdZQRlQ/D6pgYGAoHgFP/XOT+21eV3mnElXgcCJVSAEScWw/IehXtD3ZT6VqmXrYaAyQ5mRqUjQneeMPPGSIqp2kLSNF0tF2FhcgDkZGRPivCgn/ZAE/7HZ8Ue9/+rCghJVC/SWkiFLW4G1ckFAswPRQEHFEKDtIMNHdlEtdyoF8rmLkAcjIyJ8V4Pa7L5Tm0avmVCc/wYYbQ5/qh/0iUSfmQAS3BJbY+wWcFZk6caCyngORA2EDYQNh0nOMxkHb3XanDVwFP6Y8N+G9qQ6qP5FFrDgA/MIIKh3QxSIpkwH5eiv5K6AJprzWbcz45kzOx+0wU9EfKiQ1GsOuwyTb1uCtnwQFp3ody471lypoH93pBZUENgnZuYb5iU5ixxI5TFmInOcABsS69f3TmWevTmXNLJJyygJSAxjJZQeAHcozOPX/oe5pe5RfYcs4/OpktsKl4l5tpxsRPNN/EO/hUhzxDYmzFL8cdlEmppTzF+sn1sG4ttesmXpS/RqP6jZM3IVi+11/LKbv0RxViu1PSSbYfht3j7V0qXNj5uFRKO2o8IF5PPg2SFZxdnFTomM4BF5dTSZSx3M8322Vpjdsw6MR7pGibKQdqT1VKkyQ0H8OJHfkAPfLkPI5XCBCQ+NBod+Y0Amf7k65DPXvFy2ZS61ZFcZ6GSqfUFWi2mQafAU3VoMSZfI3WT1hk874d4C6Pe/cj+1W8PPWS6YjsoAonjPHTTUvJw5tkkH79wnmguVPUonpSdB+wAAAAAAAAAAAAAAAAAUX2QQjmuhPNQk178P0f1rudio4Q/ifVvp4NpGIJqmOBCStvW1bMJL/xMZU52zeOUjeGdoF6v4a5O9Oi2ETxpPXjfs3CYIKJZGTeXJwCHycYkan4y5UWDbgzkbjucE7NBj2bUgg5wCcOFP6phKRywEEy1slzn1UpNGSGRhbpnHZDN6BFhGt6bgFiHEh9qIbMJ4IlymBUClVZ/NyxnWWnHZUz8gw5DUyseD4KMRT6p1ivjFT1KSs2bFVkeVQ+UySnBbP4Mw/sucgASU6El58YBkUy52w6u1Ok0u5oXnYfQX+GcyDPT8FVVT1qlSNaWthSZa6seIzErDAhe8G2DTj0M5y9ZPXBPRc6R1OTOKXVkx+KN9pqFI60B5fUidIPSU7eOEjopiX5Uj8dejqH+2EjKmj7d9ln7MOq72nJUXGpiaxEVgC+d8vaY84q4NwvdIq7nVjlBUpfE9BbMAnddKZx7Wt0cwsvp1U6epfr7KlJBRws0xzQSnL4+3Z8NeWiOTSyS7vWAQdc9vYdZ9Pugb5D+6nWPZzI2OfCNxlBq++5DjcYM/NLV5JRJvB2tZ0HsUijlPj6RVTfwBtLDk9qbCAlcdqOvaXm5fTAKKHwcSzfT2pMJqAmwNLuBNgeptJUGksmq9n7SkPp9QHbcyviwgJNDfmL1/m/lN9/GIml+sIaK4Bp/GZajXpwgqe3WBQSAg8568w2mSj72kw1+ThsGM8Li0STI2BECiuZnXxvc1wFb+6PElmkC/1Q6tFtL6i8iHqhIUH0kH4eegtPqbazvqGgMYfiw7I8nBdVmXVSPywqXUbW7enMLftfdG5UEOWnG/kuQcOamtzvh+Krp7XDaUsQOoqsf1Yyui/GZSgL7c/odqSy2dPso+ldtavo2J4IxOFv8QFB3xK9hxHuTTeHDw3y9oLQ4vHweCge53x5oJZX+AA8LlQVMZx833WmAnPob/7sYZjibhVoGzJ+jQTsPMLyZ2HusZEXErJXEh+IsncJYnQWzf3oWt4F/II7eTADxVrbLWp5JfSKqDixlGgTLBcXk+zrl+4tEjRhwaCBjsEd/tIBJN5vvkMYuejTl0SIWlxnNtVQC84CtZWIgrweST8OIlaniKgnK9HyMoZfJ/+W5MMcHHuIRONh+AtZ9OdwA89SQLUtTiCEh3SjrztmiMRnAvWbiZkYRz44nfKdjk7k4McycWJv7SSW0Yqby1Tp0a8HRs0cXmySXsimzYVyHOKOMVjs7POj8W40WSgybEtNeAW9PltxRnL5nCBcGAjcBvHGIU7ZQONwU8BR7YgoexKPVjw9yfa69CkGMjcps+rpFkooweyeQDcdCDvOgK/P9+CjfnBTQ9xBBs1uqNpB746hdMaBbxw8sxSjb5FkQJCc7qlhN4l/ppRLClW3vevi7lNG1vDvMlnlKTG0oSjQZfjFxNCLPbJC0Rir24/8julTklnP9x0rfHik2tJnlCiKVX9cAoIaLA7wXvNM5krP3Faw7D3fSGKCij3HYpaDLdkp1xxVQWcHpH6IEbDSyEjU6F7ipMJc3Hhb6gQ0AExy+SjUDVF+RdhnleX5903Ve1nXg5In2mRehGn4BuhvONX9aLZPCUC3Q3pRNObAnOqGmC2y9oF9L7JWqTYpwtXEWEMnOmN2wZ+Q6OhXUy+AZtzJubI8ZreXTuiApoVZq9QC1bMdz9gAJHH6D7ecK1F+eGtqE2BNu9ZzuzFHtsgrqteMcxpgmK8r6Zm4GvbQ8xtSmbJ3iGxSz5mOl1J1lcZbuwWhjKR/A+36O8dkLf5A+NkgcLLRtkJCpkpdKUzfNYzOZ1xbCPinlXVSKEFXG75BBSblqIwLMzmZcZhxJG0jKZCRVi1wTw6ME5dJtACkN1LffaCBM3hJ7lfu1y0wTznF5SRV9oDjSBWM+oZDe+ZtIQi/nYLRkro/zo7CgkzCsk/YrUD1hhOlgytEtDzX/1JSfOVJCJU22aNVAbZv9qI3/YH3ivoltgrXcuGx5ZQwEFgH570kCL1N67qXT1/CqetICMCu4XNq649V4XGHQBupXRjD4WlySAEG63oKYYasyMa8f2US7ggvaAYyYPSOV4eznh2tTBQBfr935gY3n4vdVd0PCS9iTxpafN+cNKapvdhrY6LF+2jJ79spOYaZDeeJzOxY3gHE6Al7lxSwTZYOIWaNwR1E1DKAup4poXA8rGfLLY9uctnHmdDIFWq/JQeaALidZOcJx2bI9y6dBjVZ+GU14Tmh2IPVtbGbqYibibM9kkP6VwLt6F6DYACqdkWiHvUV47KeYoYJm85/+ViIKmBSK6VlX0Spr8mGJkC1fcdCs3Fs2E5tAFKb1+QvBMp3GVaPDQcEk4FQsw0idhIO16i+0cb9wZ9gLr6VrIwVa6yYoV91/AuoNxKA/ZnZxhh20lRgrk/gVPdUSe4+qmvm+NqjF4aYM71Zh/iOvu97EbEHM/zT8HNUPLoSXR7e1aPiZXnfMRy3d8LuBrouVLs9na96rPCo0Yc/cwMB86gY8ZJjCNCsVZb06lHFhJdSZljwUJWNJx1J7y8ZeK0lF7+rSb3rCTlMvTlAIwLXcf6cZFqiXSax7fFl7JzKo86ky3SZ9HzhX97Y789gpufSVxOs5Zyv+e4WxvuDJx9DuqbzW1tjWkvViMj+vyrpkvUGOtuCyE26gdTzN0z8cb6j0p1q94P8y6em+V1IY5Uazi4OJm5OlhADf8OuNp2nQDpJ9Vb1QDDMdgB5qQUVI3pjyfrCIXgeNB2vZ7mWnguAclEDUCsYR5Y04Ceu+F+idCFeP9lENx+wnz34IIztME0mbDmOvbdK9aNMKMwWIW+sgww38sis2dbu8ULvQF5c0Jc4cxCTRBnLrPlvjUtHnjc/gMfCc5TRBiyvhJ0k/U8HHi4PgQm5K9QOByuboWsl/TW3xLhJ3pYNm8yqFdh/eamWbrns6jmAvq56QjNzxmiSA87YZ3WzYLEbafZy2LdeBAPzBzdjoK+YvRulBwkL5JuInIFmSBeD/rJV4Fxq4B/2smcF9XlWodCkZvKlb40YR28bYWF8bOECYeinvrYBqS8nM/CRexcwhTFXsxXNFMG5RvcHp9CzgKetOBfSafVNpHCwhvZoi5fxceRVr3QbYiDqxZzP9jPmN0Hqwp5E5NP+ZmEQ773TSVHmf4T09yUkRhvyLIgc/TSvUzBsrcrQkxvamDM1thSe1HLFwEjbs1SpVSjCew3P5hhetctbJlDdzeoiM7gVyw/iLLOm0CcThUb6VvPoQmxE2WeDzrrmbYBpkrYw0+UipI2LjEAYlC18j/rgs1Zezilgk4rnvmviz+QMfmvcFIpjVoYfU/c4ZfBPRh/PP4I+NpouzyBMkUNaP1stQajPlG8zlFe/FHpezjZF0iGtURsfTJeSuuUcErmbE0ddIQV7CbDkr+FySX6Ary0Y0A8VgD2heGEhEUPiEAjO/kPRUUjeHWUcLNOVQ0ZQP3f0lFEsxcq3Bvd1O0xMO381dmTd/Ah3E06W1GXIFJCS1C+0eN6BJUUgwMngb5ruh4Jj5HhWAf0xEeMCXKZ5JxFzTpXZhLTpFgekg0hj8lG9xFrIG+Utz8sV097+p6DDzrAYsFOb6ze9aY0cZ3PckL3Cww+7wrqHiW73rX2N63iUFI8oGD20vfe7nrunm5bpp/ezYQfbqrO2JrzkhYwmDxkLHIrYkjOzoEFAgrY6wZMxMasqVhuMqlq3vPtHl3WmvDP28ilEsaVqasf4OEbOh8wKFTVfdNpNpHBmsEakfSxbYXZ0MHOMX/Ib10Yyh8XMLkG69A/nSLmRDoAsPJMQt4xIArO3FuU4pgSNsSuzfJsJ5aVwaUDJRvs49284eYyRzwOXm+HsXqo488SMYrbnxZ2Ew3E39lwcFw1haGuW7bSpZcAHzmHR8EzI6tCF4n2l+wJaDvAQ7jO0cxrUVFRlyUiMt8wRW0BDLRz6HTv8M3u4IEcwFRLLQYl1N6ZAuzVr3YEEiHmEKB7btJNNo76SvSsLCmuCEXKly578U8X1FZqshFxzQALoJsPTxxkmyPX6R3mbAJfjyQBWzhB+YSSMUFn8C7LkEwe6tNYIoETA6tcZJRmRY2MR0i4y/2C5WUUP4S75nM6/1yiGo/IvokYuT+RNlXNpKKNbvLsF5Sg6xOnAdrFxMXWb+0Fqcb/mykkqzs/Uf1gpb32mjA4BqbyWEWwfQv05Dfz5ojpzSlR3PC/7zsXmUzHXMwR/IjLFOFLhd9wAfPXdslKNPz6j6ihiVyvSG6l2e61z1msoZsDJ2Fbv4bxz9+YXihx1XvLUHKF64qHmKeFvvXURoi/OEZu2S6jp2yLealr5NrYNBwKI7HdwKSuxAaV3ZC2xVe/zw9jitL7vJANn9FEMQsvuAAjg2zsHd2Ji98VUGBJhFBAbw2TR/wxaztfoXC9PN7QSJGKfn94J1AhXOLamsyePicRERogFwMPwZ+HPHxUOREMOxE0qlfn819iXa8qX375sNR4w8B3pM60p0d84ewX9WoE9hCEnHZgX4wKAp0FhUlPlZAeIALQgXTAqgHCAGRlffnYfoUZqwrrWTmoTL+SJ4ZgCgTCGa0NKFymuTF+PgI7h6xit2deFVbpX3YBVYTl33n/O7aiWREobbGEeODyDJU08k3/YXxK+4npkJ1muy60RMpah0H+FrjGxX6X7xVtSumaNuPfim8/VXGGRkAYHtTz9oG2YlZwserktJGpO7njsWvzQChU/LM2VEwR9QH18ZKTHjjwsFDdUCp+kvzlHXOFl8DuYnta5qGiZb/TsLYXn7OgMwB4YaKTL0VbAH2N0MvDFy3nxDsE36NUM+pkqPTpdDrOjxwi7JmA+iJ1xdqtQ7MIWxIHBkbyxLZmHnK6uNejya3wGupYTlDMhiAiK+i62twxeRfsDfZBw89gyvFb6VpZfItL1AuF1T9bUCRDceFogzUukENi1VJ5/w/7vLE70Hc19j/nn6/nTvCXp8g9L4ExRSVu77JGwsbK13s82NX/C+bPgmo28iUevcgn4vB3sbMkymL1nKbKxoLjJKg9cGz5AfbfEP4A9zj+dpTqwRQ+XvhhPiPUPUAy6sPc+F+Pv3yGvFgY+9HXa6p1KMCNIs8ex4wmw4J0WASJje2TQlHY79s6rRXrIzPo/K0erVoy4E0bd4DZRqfXNDhoK1mvA5gtr2prNTHOrY/ajvb0wO+6bn4TXvV7r0s5HwH+l/hQuDjhGXKHANGpnRj0JVvAEbLqoDILT0w4iKFc7G7q18nXCixwyQ2kWyl8WO2KedsO1MuhRM/KWm6kOFU26pBO2+qbJNARY01AzmAqPTLehLE0sV5S87duGayUKsoj11cH0f3OSc3W32dGqN4//IsFdFNp9yXLvH9BN1cxsc+p6x/1itLci0QNBVd3CK3ifa0QJ2qxaDci8uw3KRdZm94BuFow18sYRHFJ2IBIwTkUCLawzHvNXq1G5Hz5815Tu93g/cEUzXQUm6losYIteBu7JOuPZQaIlwCcqRi8aMz9HvvKQPD/RYKv1zKxjPYztuUDApfaZTyduSn9xHPz9CK0acrl06e+dJ+VBQOQ7T1r699g9PMm9gtSfDBUBSdU20YrQMElNZxu5QiQ9/EqrB1rVooq8ho1qTMDaf20WUWP5FLwWgQ0pxJIaqDPStNQoALlaTAAL2g9ySwGCNoup0AW8vz24lbd4gyg7ZCyWAlU9A2AGuZd2f8uEPaXugD4MFvqnDHu1KBjyskOmdstwj4c2Am/HyvSdUpfXv3aixO+OoBpsgLwp4no0khBIBEdk5gGxm3znPJejc/xqDusjQX9cSc73ul6bSXG4R9UtVwuO2cPViuspPgV+/+0JhCu6L13tI2wimDfq/P0AoRq6umKfH2Z/NpCCfsHH+IygHDLqC3v7woTAGFK/Xu82nzd+ETOrkgLxSfwSKCFwAxtvN+6d8PzWQl05p0BzuT5EYJAPrifP4dD601/SW4qxyrGGE2hIL8Oa6stMfrO+fudYtU9v//KaDl8r8lIHvqeIr+wUuWsrsWgme7tepbi30GmhKABUcxUB/5dYlNtY8ofeGucmYiehsWiO4ArOjV/0qngBVzz+zh8ZkcQQdCGQMhdKr1fmlWFGfzK5A+wygF+aY4RbJCMS83vJ1V8RYNrmqFhvGp+gzFns1v/kuhz1pK9fGL7f4I/38AhqWqpO6UM5qbe/bN2tQgUhdkb2/Vo2pP0ZAReH6Kj68LNxKDH5ZWeQzyJcN/BBKrPGmi+dxlqM37JsZvvDWL2gKIBdxncB8VDEWLPa0ivT9I7PGDTHa2gg/cXJPgHIxH1Q2eR6tzVOePtq5C9Lge0LEQ2umOpZyrg2pyn4LzmTzoHG4x4lrF69XOdihLDd4pnrlk/JQQQI3bTJkepYA8NzKUqsnnsUFpno6SxSfs53SL8Za8SK42R7L7/EzCvreQ2jANfVRYdwmIcOrP4vwxOlezCzvGVD6Y5c6j5PlEgPGJM4zo0RoXCkpGtWfWJMe3HT3WyefCP56W5S8a1Q4QvaP0RwbXCjqSxeJsff0yaIn+Cq1v63ZMtAM+I1Ll9AnPQL1uG9Zd+XX8WSfBnO7GoQRdVI4PpnLWul77ubs0eBRLIGdzv7XNCzXU9asbkzHDyFucryCcqQvjbMGI7tRf2mWH0KDajRDWbeOyMw+LKTwX9ariEiXI8M8fflZccgELW+uv8STk0bGYXsAO2SzXHatNivjx2wyDgaDTrBSCKmIVzmvbYsLQGstwSA/Kh6Wxad7Ri5VkCC62maSc0uNDnDeV6/J5if3FqfxZZA4mj8YiJApvKVhAvMLE0uR7EReDyrVJYo8D7bwP9rVpgReup2KFgS/rXUak6lSXx29S/ygANfwDlibLcobxcEri5WkrBTOuSICK3RIqPE2xSJ7ORJvYQ52U5HvOIjTor55rySLW12LFr1l9M8r7ZeURw13DgKN4Rq/0ws++ZfZiBut+jNxUNmM2iRZ1Y20al3hrYEDs21yF4tEQpCo1CUVu58afnuaNyOzTF8bY6C0hENRtXqftZBAEixe9bbTiOpoR0gG3NT0dr2449ceZ3Wp3/4iFHSZ4y0BPw/dGVP6trhYOWA/37jqUGUMjiAULk7LlPwWqujqIN1FcMKGE5psJ0uFDkTxpGy8tnhINOF4d+5bYtCYqBXrQV5MO8jgFxENQheWqDrEinPqziP3ORslPWE8bneVT7XbRubhQ2NA+F3NCQT/QyD6CbP8va8XcIbxiPxCIQMniHrJguyT1UOPo/3wyI3ssX547P6sampOF3GtFCJ8CO2dzVL/A+jOAwG4vd/TPyeFamHNtRU0O6QmuartmqfLcAUFTbc2100StTyJDgtdKTGu1aFTyDuF1PBwEamZ5dOygZ8eQ6j8TUTOQI/KovScXAyK7qbBUMWZcc3oCfR9w1zad1fwDZwGVphgUnY7Raz0imV9gqRln//RY5cFOEyXh4E1THYlVM5sWFoM/w9zGZm/qo9baJv/jMxY1Uilni5oILcpQGdxxnvjuwOV62sOxYX0xfu7dST1993BB7sY7hR0hzE9plj0xKiu3F8BT1DiV2xlFS3sZYrObkBHyh+CgcXoRNIcZkPbqiuGrZi3Uy8YHrF1C9+nnlCqJP8dwXGvWtXFbkB91qb1nd+afNGsQoGkzjypa1SDxEfWEho312vS1rFDsBkuk22L+jZ78x6UAk6SZvaFH5V1OGR57fxgXR53QnOYhv2uKbe1QqI0X7V2qB6pGUT+nDsrD/DpsnC3e2CGWILh0/iT8e1RWqwSLpjHuLMhal9JaQ/bUzo10wtbN/qxLQW8JwPL7JjYxoWJtHGHBGr6luEc7QZWOjOps/c9U1CidG/fllv8O20gl7lcXY6NenrNURdm+mD6zUwqcmWE3jLSzi4JyKP+i2MKd0y1br/aKjhPNvIiD/ZuJgIPL/6kgbr3BzZQ+OPqUK45sErv2hFAPCBZzB1sOgdNVT2x1ktbOlQmlBtECxkLEGOModZLCdekJqEcCa/VCIvCj5dTSNN9PT7mxsJNnIvN673Oum56CksJcA1g+u5jbQk3GGT7hn5iwzLnZgRkeO4/QchMgp2qiKiO7xB9ZMtEhsyMXxydJzyn49D4+DYM00dECl5e4/sKWsChzjN7dlE3LS/CsuglxjHlRL0gPmlZ8AifyLAdQqJETHbZr8QaaOsRR2SmToUgcVZj67Ln0RopSYir8C3/OuKCk3cyqrN98/LNFRmsuAQ2T7e7nV1Fob/VTQtn9rGEsJ7hhewL9zHRPnnIySyJyUt0HOz8nJw0gEUPnZSfM+PamAebI+ivqdJP5FOI2ifT1Sf6xr04Ii1jBHIEPHw7WDBl8aDYEQRyvNGtdI26frgxsoX/8NbXbCK/t6DCxbBbj++nWt248MhRVJv0RXO1GCzw1uVJgXiCd1MQwvEuifsdrSot3rm5lv+0KbQHc9vlDTogd8oxPft7U+OFCNEa/8NqxnOdZRGaxD8RStS0g6v1bnLQCs0QcbzbQzdjT+rLPby2/cAoKZauP7Trk3JhzGqo3f4mY0MViZ3fY0IG36pSjlna+aHvckxD9sUzZb9uvcZoy7YaRkN8csQR8Vvm/wI6mVTd9IJ0oOZoW+rLhetOiVGMDbvHnXE88V3xi1I/4JvRGDhrpqzPEgtimDXSRqEVHOjwOosbwWzCaBGVMawP3/X5pM2ZGCD93+MTLryBP8X1vWQbZnxEZIKWkRNrw1sKEXgAVeA1uSp3zsx9uB8RzRHyKVPNjWgrAt/lWdgqZYgMuu8pEwjNfjRK0aYTR+B/hK+hLxzC4CsEjQe9wKHygR2nsOftRyKQPT4J1tFPdNjgpA1FEbm9GjfmdpIHV4HMe+3M6KQrxtjBD05qkPKGFb9hFlqtiLNcpiw31WDauRag4jp9+jSt6IGVcdfrjvnA4i2E8iff2tICuPEBGdCNWzqmA6drlVbTHV92ScnSguD8Cefx9yIV8XsFrOsLysElqDpFf/iEw/BlH6bT/+LOo1mmgTieFpMloHB327/I9paMIVtWwIBH2gpbIGhSnWHegD8EMi1sBMXeVli5UDAL+xXZZJBRF8vfzT0VLz41wqDH8DWtL/IShhFcUWz0fktZpQCd/9DUPk6tx1KIOaLTVwe6DyxQ1cRYD3wQWf5jAdqIa/eCA8a0io3e7UQhtLn8sgDu2M2efgi2BTGCHzd+Ky2u6OBR/QUBcIXvf7IiM/RT80IN2vrIyLOPH5ojzH89rmLG7bawU1UdxSH9RX8b1GSOTPrmqSfNC+T/vpDGZFm/uyqjV9keUkfJ8tUFZb9QNed4wcoio+1nFkWF3jfXELFfcgi26j61HrDCi7f94yXe1Vu3jR32t/IAupIl9/BA9YW3uOf4wHoraJrT86Stm+QVUT4M+okIPogbleOf6clhMoqjReJwowzNReo0ySER6AMjWy+f3TTBFVfdM27wK8tEoY/Zkn+S8+PYcX7XjuNPBEIcfREFDYLjRyRTxv2ROi72Qe9D0fHFjwlQbcRc4ytG7l10N26djhFYCNpQCaPYd2rW3+euzMW2pTTF3bR+TuOhuW4rdqPe6FEKtp9kBKRAg8MQ/rjfZD3eW5+ooF6xkGPh+G6jSFCeuoenEV6dmHIuj1p6pIVM4HY1XfImIlaKfYhD7AkBRvhnOMEyFOOTfTbHVnekqT1sUsnDp9XXcP7VTLzFFw0pe4KFuptFHsn1kEDbM5hh0IGezjBMOlKJUYyo5/Jk5dpRIY33nlb+87+i2mrVViCztPX534YTIaTrXPa8i/S3/lZfTnBPJLIOF8foEAPCgAm4qkJbWuTaOAsLT/xTCtk7ERTHXbPGeT5HhSmhYawDh4NvrNhu7DnMflqxuZkKnOuUXZwh1hdh2qdAIsxT1kRo8mjkhpvmDqpYWtF7Wj90MxcC4OFwpyNZYBrEEpIUuHT/SNVqkHrDUOTiSGc/qWkB3EzK7T7sE9/jr/Vr96PHjIKsLVpZzbY347ukchosM9N9JyfREf+z4FBy72Qozalwhq615UBStAvSZ7lu4UNwZwrcpbWyoys1WSQxFwqUM4GxNab1LO14HvLEOw+cTWT7nTITDS4Zq1dVHvh8TVD/uYemAe9USyN6Gyqu559x3Qh3XcKjFuP1DsdFyX2UJRHknlBdmlKa4hiyXREnOznJXiAoDDjc22/HITIC7UJfSGcwfWHsUvSdJBrXBDcBSRTId3cuBg4RuYHhsz2/n1W+eV8QUKrK7dLC2AcgVJ+1N6ua/XbJ7dNSlP4UaSgvtA12CIFbt9QRmq3q6jZ5rtNx82r/c6vcHbYORz+6C/r7jIkL1gxOcECFjvPAL4/q7Mr8/1RXveGkwXgGO378VqWAB6e7CkGlA7Q5F8JmmScchmNQS9q9wrc9UOwP4Shi7RYB9VAAPs4f27ptqemlwqmF18oRyMxDJaAtuAUZ+6kgURyWyWMLRJbeLjoHqJokay/Cv2xx/D+yK119Jhnyv63Yv67hB0lxmv1RXCVh5tFHhXV2TXtMUhTd+5kv335rkBm+0gbavi0apNSe5MGtxlVa3SEiAs8XoEhEl98cHhQHCBwlFUymLGu427SepHKcUJUe6QvEAoMA23/GH7drEY8j2RVlr0SnmNh6M6pz4KXcLEPTKEwd8eSyZcDQik0Ob3szxQrg5shCM1VEcoCftNA8mp0s1E1UYHKheZ9h/26vdGaPDJfRzy+NvGWkhuMAmHu/OfngQzJ8cqTchDz/f5bSQUuZuBP6VsiuYGB6XjtGIZEIQ6Zgv3jG/4Llgcbq11CG+ymP7/Xng48uYvx4nsZHofo3GBKS98kzAAYTeG6dx9GOLPCsTvMNMCOt/r7cAUVrOQOd7FHmetxuSkhQ+jR5wGCJfsLvmea8bsOyxOn4G2JL7taCQIiu3b9r49yX2JnfYCMYKeobExfxUr//chTvb1OulxgQ9/z4iQqrKWtXkL6xGpBAVENRsPYUdzFh5a0/hczquzkJBa4yc54sKteU6BKkR9MngGlN21om4o4OWUI4PKnrBB+xDNZ8Apqebuw635vqDsusQEW9nV956IkOhpUTG0tyqIZAvjV5GzctBBoLp/IQs3BPdE/c6j0RqDpILIyUXCGx9i+AiLI0tg/qSsAgJ54TSBVN/9kMvDAoAWDxR33UqQ+Mn48+9CjJPv5GPfYaE4ts71vca009B62uDCACK0EeKEoM1gYs3cfSSQSKW8SpPVSbdE9V70R91xiYP8a2HKPYGqt2gBXARbXqeVIH4ssZHyXkv/eTbqeLrg9ijDTPkMDW7cOJm9lnRkF2BfRzt709P9FF1e2r7i2bUg3lfS9wMahd0TuQJ9E0mIHXLPhcN5fWv+h7/FrDQk5/TgAREZ0p+4DiM5FHne4Rwck/MRVWcy6ZWDKycCK8E25pdavFrPkGCKnYwtooKPJykaJvZozXxFcZq8rUhzGqpjc5dliHPSrJnHO5WhITnR14biBOJ8cN4pXWNQc1jX5ZOojDDXG3V4M0dJgvTcy5GnZ6dRMlgZUnx31kkQb7zqkhaikiRR7Zb8fUJHY5/5VvGSNY+TvpeQNDVyIRS45iQA1bSsutsr500ObmOeqd/UgTdlrEVARKrRsKenzUiZKkefqqjbcXOQn9opLmzvGmYibr9lWkV8nG6DVUh9IFFHtH/Wvaqv/yzEX5fkgg/gsNRm++xbX0D6rJ6n4+QeknA2Pz61tTdM0F31RlxKUA1l22ntl0F0gfyJ5CjGVsRwTJCxUX6JW72arEwoL9/H+i7gXvrhMGy5w6v26WlxNjzFgSne3C0LmpabVXmb7vbfd15dYUANu039ZoD/F/3++G3TF1ftbwJ1DBd5+J0sR/xRT36g97zW0IZYhlUIzrxCrBs/+CjTtlKY66DCd8xpcbWaisCFjDMus0INXKOAnkc6HgDZK0R82O834V/KbVdHPNQqyg1DC09R/FHOPlCFlyEYeCexnVBTJlLZ0TLdrOn8bH5casR6G3d8G8ox+y8glwpKe5++q+Eabkk28z23Se9SPYNL/Kzb13F8wdmbZ+9vptgZM+qpCY/Yg5X3RL/Xt7TYo7lWJPF7JLiVRX3Fl4PJ1/gYcIoqxRwUewkXC8c6g+Do6Qg5fE7p99cCgukewizdpoOLfL1ILTE7qM5tIR2uArs+cOmB+xmQKXTEoCBFluQWs6M0DDzX73K+SVqoD+VT5WKIwGyLjkwhWAH9ft9OLIod71pJicPt52H0UvTscRbRXxCVM7sqj9gnnBkAa/zmV3pQwk1rpcXqsGExzkuE0NM8M26msiBHRYsgjKl0YvvBEInPcpLVEr3RS6jJpZ9aM4ui6PkQL7eIo7lafHVoAcSaTKhcNWBYuYlRvn8dAER0kASGTcg496/6lUcVykF4JRIDQ1ylmiyGRWPJpVCQlTq0qFXQ3+C1OEFufEk4sKNPpFlXglVQbNDA0ADV5DEq68Be26GXA4O770/fN8zc0+fE2ytmIzXsefBY8YuBsPccATwWUJ1KflDs2NRw3SzS5hFl05taeeEdam2jZpWFRasEGAt839j/viLrf3r6onZvhE/FbPCWhMMHTfYuBYK1vUSNBXUia/v6DyF+HW5n1P2SMahqYZY1hXxHqPS/Qu0ZkD9zAarnfPNEYc1wPQt1fYP1ETiYHq8Lg9U24TwFaQfJ7eusuvop9zBQ4VMtE9ZxhuJvhsSUfxw1mzPxUuo8RJ1j5nnBJwjdTJiOaEZzDGelS0xIvxHLpMfxcnlj9K3m+Q5TfFGhpqGlQf42Jvo8ygoYITptOfLJQXDlpHuDeWf9/GoC8MbZak2NTS2493EqUbBgdQ5TTBCuPKd3NMM6q18i/VYOQpLZqPs5QR3g3XDER23LO+l0KcOU64rTG2cKDFxU4m2WS0q/G8q0NNJFknwk7KAfXyx3lsqjT2NzwmQb0nLqmOCFVlnv15Xn13VwvO/dfm2kM/HWcMqT2IhE5EbGse0nrkN6s35+Yw0nqnzwRjL3RcbIInoDRjMnLSWYKIx5iwKWZY5mO76frr6r5zdZxgXV07KyWSkvByvD541CDYOkZa1LzaKeOzbQ0BWhGUtce36n1W0OH+6W0bAfHw/pzbFUZJ6J8mlDEXOAjTqFELEBxTc1EBu4eb3cfNaYPpvHDNjabHa8fu3Prd0LCtTLjQ3S6vJT2hETWARNTuIEWLl8sZHys6dWN16T70D+ZGTQIOiriLOcpBRwJJi1qpBExi8niP8wlXBAO1fGYM6bqoCRX7aTbCY5EhdeweX39zm6G0TOatksFyhl0JjFYeOPOepc4gd3relgTjIqFCqIlnrF279Y7Ig2+JtT7q6zxpx2J8JSygoc6T68yrHM1SDN/xJoBuiBdKq1+sm4VmweS37EiGjFLlkujtECzf4MigDsRwP8otF92lIJEvtrcsI4NjR+hRT3OGZ7pH5by2tvzir9cydWO2N439V3ElLjoWnuSjpUCp8jg91hey2s7cvc5lV2geDNeRp/fVeDz4ozeu6jNYXkIMAEcgLzdkg98UKY0wTtdeTULtA+Osto2Sq0QFnhv1xqVjxthgXdPXaNYKTGo9u4PhVhJnfuBQcziB1X2sQhFsJ5H2ObYYHi98Un6jpXSwMP44OW3SQwBKlLpmTkdJCDoNFfaRCHbRe0W0Cevj2blJghBctTrJB3UvEkEGfidISdJXPkrqYOBvGzZC83qDfhkU7mG7Ud9qGlrynqjIr0ODEgk9e++C17DwhYxiCK924Po0xiodOAK5X9g08DFTNeA/rLHYo2ApVM96i65PnqDZfhs7tVBAKWrDKB3ERGrtIjVzehT+c1gH3RsUFWbudxiV6sw7UxN7YzFmmZNi/CshoRbrsnhh14RhGkBjSkEfOe67lYf8IemIAafPtKfRjH6ZamkdirLnpfEBS45uqCkoUxhXHzxbgf09Nnh6Wk7gxgX9HuY8bRTGahiMMr1JHIrwMLaaxdV/MJDuiBIDc3eHW3/AOrNaRdcNehqVbmec8ZCRK3gLh89TZ+ErqTEKiItNUv2+3Urgxx/D9P+zkvHmGF761ovOBb/AP8K49rABPXYBGc/a1/lgxPNvp2EPu8R6UVFI6IMRuLxM98rXdx9OVIQ5SAZDWNA5GXgDvRUT8asyfT4b61+us9foAAAAAAAAAAAAAAAAAAAAxl0CFcjBTVVM6bb72IUyh6ajgWJGcUpr/I2oMP9GPMlmgw5AMntAtn4Hx+CrP84DUeVZqv8PZ1AAAAFbfK61pDVNKMTHEcQx54fL8vRVNkoomVkc6erFp0+g8vRRgs7QYTpLklsFB0/wAAAA=;" vertex="1" parent="1">
                    <mxGeometry x="770" y="181" width="200" height="100" as="geometry"/>
                </mxCell>
                <mxCell id="13" value="CDN / DDoS Protection" style="text;html=1;strokeColor=none;fillColor=none;align=center;verticalAlign=middle;whiteSpace=wrap;rounded=0;shadow=0;fontSize=16;" vertex="1" parent="1">
                    <mxGeometry x="777.5" y="140" width="185" height="30" as="geometry"/>
                </mxCell>
                <mxCell id="16" value="" style="endArrow=classic;startArrow=classic;html=1;fontSize=16;" edge="1" parent="1">
                    <mxGeometry width="50" height="50" relative="1" as="geometry">
                        <mxPoint x="570" y="231" as="sourcePoint"/>
                        <mxPoint x="760" y="231" as="targetPoint"/>
                    </mxGeometry>
                </mxCell>
                <mxCell id="17" value="" style="shape=image;verticalLabelPosition=bottom;labelBackgroundColor=#ffffff;verticalAlign=top;aspect=fixed;imageAspect=0;image=data:image/png,iVBORw0KGgoAAAANSUhEUgAAAMgAAADICAYAAACtWK6eAAAABHNCSVQICAgIfAhkiAAAAAlwSFlzAAALEwAACxMBAJqcGAAAE1dJREFUeJztnXmQHsV1wH+70uoACYlLAnGGU1hCRiYyIAFWhAhQ4MR2QihjI6cqDg6GYBx8kTgYubATxxhDTMDEXIE4gLHBFwGBJcBInDEYcUScAiF0H9aNVtr98sfbLxJr7byeb2a6e2ber6qrVJremdc9/b7p4x1gGIZhGIZhGIZhGIZhGIZhGIZhGIZhGIZhGIZhGIZhGIZhGIZhlIm20ALUnN2AfYA9gaHAgJ7/7wTWAiuAt4HfBZHOMAXxyChgMnAcMB4YCwxz/NvVwIvAs8BjwMPAktwlNAzPHAFMB54DGjmWbkRZLgUO89Yaw8iBAcA04HHyVYqkMhv4BNDfQ/sMoyUGAZ8D3sGfYvQubwMXAAMLbqthpOJsYAHhFKN3eRM4q8gGG4YLhwCzCK8QfZUHgYMKa71hJHAesIHwSqCVdcBfFdQHhvF7DAHuJPzAT1v+E9ipgP6oNHYOko59gXuBcRnu0Qk8AcwB5gEvAwuRX/r1PXWGIAeH+wGHI9vFk4BjgI4Mz34WOANYlOEehrFDjkAGciu/3uuB24DTgMEZZNgZGeC3AxtblGUBonSGkRtjgWWkH4xvAecjX4S82QW4iNaUdikwpgCZjBpyGGLWkXYAfpps0yFXBgCfBVamlHExsgtnGC0zAngD90HXDVwH7BpA1j2AG1LI2gBe7fk7w0hNB2LC4TrYlgGnBpH0vfwJsAp3uR/BTFSMFrga90H2JGKtGwv7A8/gLv93wohplJXTcB9c9yG7S7ExFPgV7lPDGL5+RgkYhrvB4d34WYi3ygDgl7i1ZSGyM2YYiVyL24CaRTmsZgfjvpa6JpCMRkkYB2xFH0j/S7l+bXcFXkNv11ayWQkYFec+9EG0ATk4LBsfAN5Fb9+9oQQ04uY43KYh54YSMAcuxK2NHwwloBEvd6MPnEcpt4FnO/AUejt/EkpAI04OALpIHjRbKOfUqjdHo7e1CzlLMQwAvo7+q3pzMOny53b09k4PJp0RHZq9VRfVCq8zFjkcTGrzq8GkM6JiAvWck7scII4PJl0ktIcWIALOcKhTpelVk1sc6pxetBBG/DxG8q/oUqpp7ToQ3er3kWDSGVEwCNhM8iC5KZh0xfNDktu+iXKY0xRG3adY72dbRPW+mOVDkEBobRtENba2W6buCuJid1RnBQE4snApIqbuCqJF91hBtUPkzEfCDSVxqA9BYqXuCnKAcv1lL1KERWvjgT6EiJW6K8heyvVXvEgRFq2NI71IESl1V5DdlOurvUgRllXK9RARWqKh7gqiRTnU5udVQGvjIC9SRErdFUQ7ANzoRYqwbFCuV/GQ1Jm6K8hW5XqWOLplQYv43ulFikipu4JsUq4P9SJFWLQ2al+YSlN3BbEFqt7GlV6kiJS6K8hS5XodgjtrB4GLvUgRKXVXkDeV66N9CBEYzZpgvhcpIqXuCqKdIo+g2gdl+wPDlTrzfAgSK3VXkLkOdf6ocCnCMcWhjksfVZa6K8hz6NuYLoOorGjKvxKJyGjUGC1u7SKgXzDpiqMDsVZOavs9waSLhLp/QQAeUK7vDUz1IYhnTgd2V+rM8CGIETfj0aN73B5MuuK4h+Q2dyNpqA2DV9CjKh4YSrgCGI0eXXFOMOkiwqZYwm3K9f7AV3wI4olL0N/9rT4EMcrBKOQrkfSLuplqRFd0yYGynnLlPzE88F/oa5EHg0mXD224ZZu6OpSARrwchR6vtgF8MpSAOXAuevs2o/vqGzXlLvQBtJZyGjGOQUzXtfZdG0pAI34ORY+02ACepVzOVEOBF9HbtYZq254ZOfDP6AOpAfyCcrijdiBrJ5c2fT6QjEaJGIx+LtIs/0HcW+X9cNt8aABPU02TGqMAjkPf9m2WH6HH9w3BIOCnuLVhI/C+MGIaZeUfcBtcDWAmul2TT0YAv8Zd/jJn7jUC0Yb7L3ADeBs4Poik7+VDiAWyq9w3hhHTqAJDgN/gPti2IIv8nQPJegX6Kfn2ZRZxTg+NEjEScc11HXQNYAFwFn4W8O3A2cDClDI+g+5uaxhO7ItkfU0zABvAS8A5FPMrPRD4FOmVt4G40e5ZgExGjdkLcdFNOxgbiOvqtcAksm2l9gdOAL6Pnl+wr/I49Yj3lQttoQUoGUORbd1TM9xjLbLDNAeJGPIyssBvmoGAvJchiMPS6J4yCVGOLNEefwxMQ48oaRgt0w58EzfDxjSlG1GedQXceyviA2I/iIY3TgbeId+BXESZj3x9DMM7w4F/J/9f/DxKF+LXMaSw1huGIxNwc0TyVWYiKa4NIypOQxbfoRTjIaod6M6oCMcCtyBGgEUrxTrgBuBoHw0zjDwZAnwcuBNJCJqXUqxAzNjPRM8QZWTAtv380Q9ZF0xEgtWNAQ5CP9FeBrwBvAD8FpnCzUU2BoyCMQUJz0BgDyTMzkDkC7EZORNZ2fNvwzCM+KjzF6QNya50GBLmpllAdoNuoR5poEHMV85FDhS7gLeQ7FtvIe7HTRdko8L0Q/JhfA24H33R/AqyRqg6hyBrnKS+WAn8N3Ap4pBlvusVoQM5m7gBWE763aIlyIK6qhyFJDJN2y/LEAuCUyhHZBejFyOBy5ABnnVLdT3wUa/S++HDyBlK1v5ZBPwj5l9SCo5AopK7BH9LU7qBy6nG1KIdGdBa+oO05V3gZqoR4Lty7AVcTzp/7FbKI5Q7T8goJKNWkX20BbgG+6JEQQfwVfKZKriWtcB5xB0wbkdMo3UvxFbKGuDL2BolGOOQGLm+Xnjv8gTwwcJbmZ1xwMOE66enkKmv4Yl2JKhbnuuMLlpb0HcDdyAusbFxEHKW08paY3GLf9dX2QR8gXqfu3lhGLIfn/WFLUcSc/414suxE6J4323xfl2IQeIxxTXdmfHIRoVr6NTe5RvIQB6EbAOfA9yEhDLK2u/3YA5chXE4EuSg1ZezDFGACSSvH84DOjM852ngfGC3PBrtyHDkJDyLL8oG4BPKcw5HDlpfz/CcuZR7oyNKTqB1c/E5wEeQBb0rE0kfiK132YKkHbgAGVh5cxiiiDPIptANJLLKkSme3QacCPyc1tyNlyM/VEYOTEYO69K+hIcQ05JW2R09l3iasrjnfl9FDh7H4hbCZxdk8H4MOb+4m3Sxd7XyfbL5lIxDQiGlfe7viGNKWmpOwi1t2PblTWQw5cU0xBYprwHZu2xA5vcvIbtyv+3594IW2p6mzAf+OMd+OhGZPqWRYQ3ytTZa4DjSuax2A9+mmNRoI5FkOTFGL0lb3gX+iWICbPcDvkS6Kd86LMBEav6AdEZ0i4CpHuQ6hnR5N2Iq3Yibrg8L5T8kXSzjBYg1hOHAMNwSTjbLbPybNZxCXGF+kspWZAt6XCE90TdDSbcl/xTlSowajF/g3ql3IG6qoZiIDL6su0hFlNXAVcDBhbVepz9iI+cq861hxCwPn8W9M79HPCezI4GLSZdsp6ivxQxkYyGmaCeX496GswLJGD2jcV+UX088ytGbg5F0yr/CT1ysFcBdSK6QPTy0r1WuwK09q5B8LMZ29ENOoF068IfEqxy9GYDkLbwYMW15HtlFalUZ1iJz9RuBzyC7P2XpC3Cfbj0QSsDexNK5n0EOrDSeRHyiyxwKpx3YB8n9MQoxSRmOLFAHIAOkE/n6rEZ+URciOUSWBJA3TzqQuMEnONT9GHKwWnuGIXZS2q/KO8DegWQ08mMEEi1Fe9+vYQlGAbgSvbO6yWY2YsTFibgdun4xlICxMAo3v45/DSWgURhX4bZgD5FSOxq+hd5JrxPXlqWRD4ORaZT2/i8MJWBohiIWnVoH/VkoASNiCOIIdWBgOfLmz9Hf/xtUI5pMav4OvXNmB5MuDgYgU5Htt4afBt4XUqiceQx9HJwZTLqAvIDeMccHky4ObmXH/bKE6oTVmYw+Du4NJVwoxqF3ypPBpIuDMST3z/RwouXOMyS3tRO/Lsz/T6jYTmc71Plu4VLEzUeU61VK7XyVcr2DfJ3gomc+yb8YS7GAY4+S3EcPhhMtdwagB7WLxvykaA5Gn15dG0y6OBiGHrbnm8GkK4abSG7vRgKcrIeYYk12qHNn0UJEzlT0L+gMH4J45EfK9cHUJJNvXzszzbKC8sW9zZsfkNxHa0gXxqgM9EePsfxl30KFGIiaJedsLIPrKcr1mcgUrEpsBR5X6njf9vetIDuzLQ9gXzzqQ5AcGI68sHHk6zYwBjGFT+J+h/u0I/4ixyNrmjKgvfsYYyDnyvvRF+ixx0lqR+LXbn+6PQ84Nqf7X4zeR/sr95jEtsSbDSR49HTi8f/pi6no5yGVNjtxsb3ZPZh0Ou30vYbaQD5h/h/s4/7N8pLy90fRt6vvD4hbSfZDHx+VTqx6CcmNXxVONJUk5WiWOzI+Yyd0l9wrlXvcq/z9dRllLJI25GuXJP/JwaTzwHdIbvzT4URLxEU5GkgAuyyc7vAMLVzoGod7fC+jnEWixUTzGvXE9yJdyw0R4xekHQk7eo5D3azTl1OV6xuRPIlJdDo85wL0L1EotDHg1TfIt4Jo0czXe5HCnaZyfNKxvjZ4NTQFeQQ9YIWr5evnEYe12NDGQKWd535O8uczpsh67cBt6NOV7RfpWfw0XExwXLzrRiEBLlzl/kYGmYvgLpLl/ZJPYXx/QTRbGpfpgQ+aaw7XL8cm4E/Rd5iS0L4e4Hb+sQhJG7HU8bl/D1zmWNcH2hfSqwVB3U06dkQ/RDm0dGRNNgEfRiIpZkFTkDeQsw0X5iFKssKx/teQxKhlwOs2tSnIe+mHrDnSKsfMjM8diB7WKK1x4ovIwZvrxsfleJ6+lAFTkG2EUg4Q+zQtvM19Ldz3OWRbeI1j/W8hi3ejB1MQoblblUY5ziAf5QB9etUJzGrx3r/puf86x/pXAn/b4rMqhymIcBHuyrERUY5WB+yO0BRkNrJL1ipPIIeQrve4Gjgtw/MqgymIcL5jvY3ItCpP5dgXseBNwmX3SuNRRPZNDnXbkIy6tccURHA1gDuTfJUD8tvedeEh3AJmAHwgp2eWGlMQ4S3HeheR/0mupiDvIHlF8mAn3NcXMZr9eMcURLjesd7JSGJKzabMlf7o2Xnz8j0fjOR/nOJYP6tlciUwBRG+jZjBuPAhZNDuksNzj0X39stjejUY+CXuyjEXOTysPaYgwlZkfeGqJBORk/NdMz5Xm151kT3+VVrleB75qrluC1caU5BtdJJOSSYg5yBZEmdqCvIkEgG/VdJOq55HTFSWZ3hmpTAFeS9plWQ8sjM0soVn7Ym+U5RletVUjpMc65ty7ABTkN+nE/Gdd1WSscDDiJl5Gk5BN7xrVUEGI/KbcmTEFGTHbEGU5GeO9UcjSpImArk2vVoO/E+K+zUZgCiHtjvWxJQjAVOQvtmCTLdcleRQ3FMStKH7lj+AOAil5RJMOXLDFCSZtEqipSxocjR6ApxWp1d/6VjPlMMBUxCdppL81KGu6ym7Nr1q0PoBocuGgSmHI6YgbmwB/gJdSeY43k9TkGdoffC+qFw35UiBbwXZqlyPOaykpiSbcTt9Ho4epjTL9u6/JFwrg3JoY0AbQ7niW0G0kC552TgVRVNJ/g055W6yEPERedbhHiejD4IsCnIXkiagq9f/z0YODGNWDtBDQ1X6hP8GkkO6ZI0r5ZNRiH/FiaSLtHEjyX2wmny+pIcggbCnI85PMcfk3Z6nSO6faeFEK56vk9z4xeFE88ZCkvvgx+FEiwItdKrrFnYu+J5iaWFr9iL9iXSZOBLYR6mTl3NUGTkU3Ur6ZR+CNPGtIPMc6rga1pURn96DZUR79xuQL3Bl6UAW6kmfUJfzhrIyk+S2vxBOtChoWg/0VWqRCvp+kjuhExgRTLriGIRsBSe1/Ypg0oVnX2TnLal/vuJbqBAHhVoAtA7E97tqjESPTdxKcLiq8AX08ViL/hmJHPYk/VKsBfYOJWBBDCI5e9R6dAWqKgfQd9q4ZskrcEUp0NKENYDbg0lXHDfRd3tvDChXaH6GPh5qFTf4JPQOaeCefqAsDENygfdu51zS+ZJUiXPRx8Fasvv/l44n0DtmPeL7XSX6I+ncfoLs2F2IeADWkYnoSTsbxJkJq3Cm4PYVWY64tRrV4igkOJ32/leSLTBGqbkDNyVZhdg8GdVgKm7ZeBvA3wSSMQr2RrIguXTUFsRK1XxYyks/4FL0XcxmmY29b04HunHrsAaS72JSEEmNLExGEvq4vueVwH4hBI2Ry3HvuGaZBXyU+p4dlIGBSHSYX5Pu3W4lkvwksfgItAE3A59q4W9XI8ryMOJu+joyv82ScMZIRxuSQm4Y4ocyBvliTEGPPbwjPk29z4V2SH/0HNlWql8uxuiTduA6wr8kK/7LFtxDFtWezyFWvaFfmhU/ZQnuYVKNHiYArxL+5VkptsxAPEmNFhgEXIabOYKVcpVFwMcxcmF/4BpMUapQlgBfJP4QT6VkJNK5cwn/oq24l2amrGnIrKA0xHIO0gqjkYXdFCSRzQGYWUIsbAZeQzJkzUJ88ZcElahFyqwgvRmE5DvfFYnOtzPVal/MdCGuCeuAZUha7d6RHQ3DMAzDMAzDMAzDMAzDMAzDMAzDMAzDMAzDMAzDMAzDMAzDMAyjcP4PO6wEZbjOAs4AAAAASUVORK5CYII=;" vertex="1" parent="1">
                    <mxGeometry x="230" y="760" width="120" height="120" as="geometry"/>
                </mxCell>
                <mxCell id="18" value="Developer" style="text;html=1;strokeColor=none;fillColor=none;align=center;verticalAlign=middle;whiteSpace=wrap;rounded=0;shadow=0;fontSize=16;" vertex="1" parent="1">
                    <mxGeometry x="235" y="880" width="110" height="30" as="geometry"/>
                </mxCell>
                <mxCell id="48" style="edgeStyle=none;html=1;exitX=1;exitY=0.5;exitDx=0;exitDy=0;entryX=0;entryY=0.5;entryDx=0;entryDy=0;fontSize=16;" edge="1" parent="1" source="19" target="26">
                    <mxGeometry relative="1" as="geometry"/>
                </mxCell>
                <mxCell id="19" value="" style="shape=image;verticalLabelPosition=bottom;labelBackgroundColor=#ffffff;verticalAlign=top;aspect=fixed;imageAspect=0;image=data:image/png,iVBORw0KGgoAAAANSUhEUgAADwAAAAhwAgMAAADt0CPhAAAADFBMVEVHcEwAAAAAAAAAAAALttw0AAAAA3RSTlMAS7e8/nQ/AABaUUlEQVR42uzdPXIbyRUAYAIugQGDjaRACHgEHME4glxlbqC9gRTgCMQREGiDzVeBoCozdwIfgYEPgEAKtJECB6ZKYnutXa8liuBPY4Dp1/19uVQEeh7fz7wZHhwAAAAAAAAAAAAAAAAAAAAAAAAAAAAAAAAAAAAAAAAAAPRk8PBkuVz+LX329+Xy1clfpr4ViODk2TJdY/lKEEPhqfdkuUobXS5PxDCU6uGzG6L39xh+9VffExTo+9fpTn750XcFpYXvWbqzD0IYooavEIaiPHid7u0XvTCUYPA0ZXk59d1B3x6dpUwfXvj2oN/0+yxt4ZUkDD16eJa28uGJ7xD68nSVtvXStwj9lM/PUwfeKaOhBw/OUieU0bB/o1VKIhhietRZ/KZ06X4S7NXj1KmffaOwP09TxwyjYW9+SJ1761uFsPErgiFy/IpgiBy/Ihgix68Ihp17nHbI3STYqUdpp2x0QNz4FcGwQ6PVrgP4cuFbht14sPP4/TWCn/ieYRcGs7QHF1PfNOzA87QX73zT0L1x2pM3vmvo2qO0N0bR0LF9DLAMsmA3Bmdpjz5MfePQoedprwyyoEOP057ZiobOjFb7DmAbWdBZAzxLe2efAzryQ+qBh4OhmwI69UIRDV0U0Kt+AvhSEQ3bm6WeXPjuYVuPU2/cS4KgBbQiGiIX0Ipo2No49UoRDUELaEU0RC6gFdGwlVHq3cIpQMwCWhENWxinAnhDFkQtoBXRkGtWRgCbY0HUAvq//uks4L5KmGCZY0H0BGyOBfc2SgVZOA+4l1lJAWyOBXETsBQMQSdYv/lkjgUhJ1jmWBA8AbuVBJETsBQMgROwFAx3NkkFcisJ7mSUirRwMnAHszIDWAqGuAlYCobACVgKhsgJWAqGwAlYCobICVgKhsAJWAqGyAlYCobACVgKhsgJWAqGwAlYCobICVgKhsAJWAqGyAlYCobACVgKhsgJWAqGwAlYCoZrDVMQU2cF3ziOEsD/clZwVYmvopSC4Y7GYeLXO6IhcAL2jmgInIClYLjqNFIAf3Je8KVRCmXhxOALs1gBbJkD4iZgKRi+NIkWwJY54A+R7iG5kwRXjFM47iTB/6ziBfClU4PfHKaAzp0bfDaLGMDuJMFnwxTS3MnBQaAHgd1Jgm8MVjED2J0k+NVRCmrt7CDWc0ieSYKvjFJYC6dH8yZxA/jfTg8jrLgBbIxF88YpMAvRGGEFZoyFEVZkxli07Th2ANvGwggrGWNBSEcpuLUzpGGz6AHsoUIaNkzhzZ0izRrHD2BjLNq1ih/A3o1Fsw5TBc6dI42a1BDAnmigUYNUhamTpElHdQTw2knSpFkdAeyJBpo0TJWYO0saNK4lgD0VTItWtQSwW8E0aJSqsXCaNOe4ngC2TklzBqt6AthTwTTnMCU1NEQ1qSmArVOigrZOCSpojyTBzs3qCmBv1qGtCrqu+DWHpi1HlQWwR5JQQauhQQVtDg0qaDU0tFJBe6wfFbQaGlTQamhQQZtDQzsVtBoaFbQaGlTQamhQQauhoZkKWg2NCloNDSpozxSCCtp7OeCqSb0B7N121F9Br5IaGqI6TEkNDSpoNTTs3armAPZ3CqncKCU1NER1XHcA+zuFqKDV0FCmYarc3BlTsXHtAfzGGVOx09oD2MspqdggVW/qlKnWUf0BvHbKVGtSfwBbxqLeCnqV1NAQ1WED8WsZi2odtxDAlrGoVQsVtGUsajVMTZg7aao0biOALWNRp9M2AtgyFlUapEZMnTUVOmwlgM+dNRWatBLAlrGo0aqVAHYjiQoNUzPmTpvqjNsJYDeSqM9pOwHsRhLVGaSGTJ03lTlsKYDPnTeVOW4pgD2RRG1WLQWwG0lUZpiaMnfiVOWorQBeO3GqMmsrgC+cODUZrNoK4MupM6cih6kx586cihy3FsBuJFGT09YC2DYlNbXAqTmaYLTAmmDQAmuCYRur9gLYNiXVGKYGzZ07lThqMYDXzp1KTFoMYO+mRAusCQYtsCYYtMCaYLTAmmCIZLBqM4A1wVRhlBq1cPZUYNxqAPsDDdRg1moAe68OWuDITfDU6aMF1gSDFlgTDFpgTTBaYE0waIE1waAF1gSDFlgTTIVWLQewdWiCG6amzV0BhHbUdgCvXQGENmk7gD0TjBZYEwxaYE0waIE1wWiBNcGgBdYEgxZYEwxaYE0wlTkWwP5OMHGdCuBPrgKiGojflKauA4I6FL4pnbsO0ALH5aF+tMCaYNh7C7wSvt5sR1gj0WuVg7iscVjlILCJ4PU8A3FpgT3PQFyeZNAEE5g1DqscBGaNw/MMBGaNwyoHcXmSwfMMaIE1wdAHaxxWOQjMGodVDgKzxmGVg7iscVjlwAzLFAv6YI3DKgeBWeOwykFc3sbx1RRr6orADMsUC/bDGodVDgKzxmGVAzMsUyzoY4YlZj2QRFzWOKxyYIZligVmWKZYcC/WODyQhBmWKRaYYZliwX14FMkDSZhhmWKBGZYpFphhmWJhhmWKBWZYplhghmWKBWZYpliYYZligRmWKRaYYZliYYaFKRZmWKZYYIZligVmWKZY1O07oXq9964NzLBMscAMyxQLzLBMsTDDasXC1UHxvNN9o7WrAzMsUyzYnVOBuom/UYgZlikW7M5QmG42d31ghmWKBbtyLEw380gwZlimWLAzFiktU2KGZYoFPbBIeaNzVwhF+06QmmIRV84i5eXyp5+WZ6F62eXJyckyo923TEl1Q+h3Tz7/y5PXYcL35fTzT/xgZgxNXXIWKf8Y7HwfY4L9+y+cX/3JMiWG0P+/ph9EqKNfbvVp/+EaoWAZi5Rf3hsdPC++fH6xXb2xdo1QsIxFyq/bwsIj+HLx1U97/5rfGJrKZlgfD+JE8JX4zQhgUyxK1sGdlVnBAfxi699XlikpWM4Q+mpROSg3gn+++nkz7npPXSUUK2eR8v03vwVKvZv0touW/9xVQrFynub/9ooelRm/F98mz4zF0bWrhGJNOgngg3GRA6xpJ7+wLFNSrowh9LVP2JXYBr/opmUwhqZcOYFx3VSnwDb47XWfd9hNIociDLsK4PLa4OvjbthRxQElyBlCb7gxWto+x+LanzLnttm564RCZdxV2dQTFlZEv93wiTN+SsuUlCpnCP1xw/81Kr+AzpvaGUNTqpwh9MbreVZ8AZ33iY2hKVTWn0XaWFEWVERfdFpzTF0pFClrCP1+439XzjrHk067/rkrhSJlvVJ2vfn/KyUFv+l2bHfuSqFIOVfzTZdzIXOsm1YvjrpsGqBXOQ3hjS+JmpWegLMC2BiaMuUMoW/sCItIwRdddw3G0BQpawh980z2uIAAXnQ+t5u6VijQsPsALuBW0kX3n3nuWqFAWUPoW94RNS47AedVHeeuFQqUVe/e0hD2noIvbvnQne6uQI8mOwjg3lPw4pafL+cXjDE0JcoaQn+8bTK2KjoBZ31oY2gKlDeEvjUbjYtOwAd/NoamDnlD6Fv7wV5T8K0JOK9vmLtaKE7WEDq9v/X/HZecgDtfH4We5C1drG8vzVcFJ+C8T20MTXmyism7JKNxwQn44D/s3T+WY8UVgPGWGlCgQE4ggEBL0BJaiXN8DkPg3MkQeAnSEghmCwRAMEt4WoKWoIDEJFZAMMBMy8d4sAH3zKir6r369/vy0fSrc79XVffeqrcaZeMPTM5uLIGzTcFXTMBBpxmkoVEgYZodrvjlT8qdgAN3/qIFpRGWhL4qIZtpCr5mAg4UeC9eUBhhkXxdSfSTYifgwPfWUbygMJYjCjzL4e91G9UwgU/iBYUReHR31B+P4jrJwt4t6kgojbAk9P11P57hao4rP0I2G3F2B6ZjGDWS/z65wN+N+dz34gVlMbuMKvAHhU7AoS+urYhBUdyGefLy2t+fegq+epcatnU4iBgURWAS+sXIvx/MflyBTyIGRbEeeaKbuJnjx6sf/G7c5wYmYTOywBM3c3w58oM7zoCyCFtJXs5jZ8kCU1hjLz3UkVAUoXo9Yi8YMtX9/PO3wz9HrCGF7x22YgYFMR9f4EdVkr7/5m9P/vyn1//yvb88+fybb8eoId0EHgh2nAFlEXiU4VFd/ddWkr7/+slD//y9J0+fj5BiWo7/4MDYLCcQ+Kr/46evPnvLT3x4ncNfjv/kJzGDggg9bXB4zD773ZWkb56881eevHst/eNjnjxw7aGOhJIITEI/biv4jkrS/VefXvUzHz5NubwNFFgaGiUxTCHwWzNl919/evUPvf80VQoruIfUcQYURHCR9lGuvC2N9Qh9f1H42yQ1pJvw/PtW1KAY5tMI/Mbl6k+fPfpP/vx5mgrPfIq1BzAqoVWkx17POLxh8xsync2eJkhhhS8+jqIGxRDYzfDoneCDaayfPg38qz98nsCsUIHPogbFsJlI4IdsCZp+X//cF7EprJuwT3w7zoCiCK0iPbqY8n9prPtnUX/4R0N0gXaY6NGB0RimEniRavn8K+8/j00uDepIqJzgKtLLyFfFP7bxf/sXMSmsiJfXVtygEObTCfy7NNZXSf76L+J6lHfqSKic4CrSi6h3xbNEf/5fI1JY4QIfxQ0KYTWdwP9LY90/S/b3fxxzxuBOHQmVE1pFCvFlmd7fm5uPQg4SRj68OhJKYTehwK8PFd5/mfQJXpeTXk349lJHQikMEwr8H2ES+/vrHPzdhAKrI6EQwi+MDNkHfjCGv68N3gb8w9C7DNSRUAjBVaSwi2V2Y/j7i8E/3kwp8F7koAgW0wr8yeXZKI/xcVhlJ1jgo8hBEaymFXj2bKTn+Hg76dOfRQ6KILiK1MQkNGURHBiBXdcCB3838aXIQREMBFZHQrVEfHbs0LPA6kgognnfAofn4PdiB1VHcBMhvLioI6HPNWTnAp/EDgpgTWDfR0K9bPoW+PaiEIyaCS8DN5GHDRfYgUKUwNC3wBFJeLGD/ESUgXsXeCt6UPESsnuBD6IH2VkSWB0J9bK69L0JjNhCnEUPsrMhsDoS6mVHYHUk1EtEFem+c4EdKETN8du9wOpIyM6cwH23kqJuFgQO5yh+kJll7wLfXBSCUS9rAofjQCFysyGwQjDqJaYM/Kp3gRWCkZuh+/gdFIJRLTE5WAIrBCMzcwIPCsGolgWBB4VgVMuSwINCMKplTeBBIRjVsiHwoBCMatkRWCENfUYvgRWCkZeoMjCBFYKRlzmB4wTeiyFkZEHgOIGPYggZWRI4TuCTGEJGVgSOE/gshpCRNYHjBNbJgZzcEThO4JdiCBnZEVgpHJ0Grxs5fCMYWYnr43Anlk4OZGVO4FiB96II2VgQOFbgoyhCNpYEjhX4JIqQjTWBY/MACsHIx4bAsQI70o987AgcK7BCMPIxEFgpDb3mb9roYpgZA1TKnMDxAu/FETJxS+D4txiBkYtFrMBbAuvkQDaWBI4X+CSOkIk1geMF1smBXGwIHC+wTg7kYneRwInO5OnkQC4GAscLrJMDubgQOEEqXhwhDzMC36ilodv0zeVyILBODlQbugTWyYF8RPdxNBG70aNwEknIwprAKQTWyYE8bAicQmCdHMjD3cXqMfb7br6ugmzsCJxiI6EVC3kYCJxCYK1YyEJ8H8flTGCdHMhEfB9HEwnY+FTeXiwhAwsCpxH4KJaQgSWB0wh8EkuoU+AWSqB3MgHoNHvThMA76xB0unZsoodh5zWGTiO3iR6GwSig08glsE4OZONC4DTDQGBkIEEjVguhm2IYtqIJkzMncCqB96IJk5OgEauFuSfFe+womjA5SwKnEvgkmjA5KwL/m9sEo3AWTZic9cXuL9FOQisWpmeTQuADgbViIQu7i/RNolSAViwQmMDAIxgu8q+JUgFasTA5KRoYCKwVC5mYJxG4/vzrRjIeNXJL4HQCH8QTJiZJJ2UDBRS5PFRJkk7KBq7k2EkFoNvkTQMFlMFOAgSuF6kA9Ju8qb8COpMKQL97v8uFwFqxUO3er/4WhrmFCPrd+9XfwnBrIYJ+l471C7ywEEG/S8f6WxiW3mPoeOlYfQvDKs0wHEQUalw6Vi/w2kIEHS8dq29h2HiPoeOZh8BasVCzwLX3IO0IjI5nnup7kAbvMXQ881Tfg+Q9hp5nntoFnhkGdC1w5T1IcwKj55mn9h6kW+8x9Dzz1N6DtPAeQ98CH6sehyWB0fXMQ2C9lKg4cCufepK9yE5iCjUKrIxEYExPqk5KrZR6KZGBjZkn7ZtMLyWqFLj25M2SwOh45ehWSs3QyMAgbtOOhF5K1Ciwz4sSGNOjepI8i7UVVahu59dAB+HCSKBbge/rn3fccI9+p50Wcq+J0gFHUYXqBG6h/2hDYNTGUg7rv3xiKFAbaxu/1KsRzdCoTuAmip8zAqPTfV8b/YNpsliaoTEdd2ad1G+zl6IKk7GTuEm9n3CaAbWtGhtpXljIB6Ay9P/+hkRtaaIKUzGTw0q/HtmKK9Q157SSeL2zn0CPAp8aGY41gdFh2qaZ9t+l0UCPArey65sTGB1OOc0UTmY2FKiKld6j35Gkr+UsrlBV1qad9v2N4UB3AdvQmnGlqIaaSFP4PDQzHgs7CnS352uo9ShJGtppBkzFIAn9e4wHuhO4pT3fjsDobMJpKuuaJKsnrjANGhf+yEpOAJ3lbBpKQidKQ+9FFibhVhJ6jFfaQWShnvmmqZxNkk3FUWShHoHb6lvYERjVsJSE/iMbWT1Uw0oS+o+kON5xFlmoJlobWzAurUnQ1XqxsaJJijS040ioSOC2hmRGYFRDitOErZ29GeTlUQs7080YY+I8IaqZbZrL2CTYVjiOhHoEPjU2JisCo6OETXONvym607ZiC7UI3Fqwzo0JOorV5paLKd5qe7GFSgRuL+M6EBj9bPfaa1pIUEc6ii1UInB7fb8bAqMOlqpID7AyKOhH4KNRITDysJZwfYBb+wr0I/C2uVGZERjdpGta7BqUmkc3Ard48GZHYHQSqU2G6sZrDb0I3OJub01gVMGgYPIQS5kB9CLwscFhWRAYVaAM/CAJCsFiC+OT4uDc1rg4EIxqA7XNtSKBUQMJjgO3mW7d2Vmgj73eCwJ3cVEYSiTBceA2m343kvPoQ+BTkwOzJjAqIMHB16OBcSAY9QrcZrJmQWB0sVJstFwSn54/iy7UIHCbAzOT3EMXArfa8zsQGOXj3OubiC4EO9GP8bnTxzHWyPjENyqYZ5pdKW4sTdCDwCfZAQKj2lRNsw1HS9k9ELheFgRG+WjEehPx57REF8bGxRNvZG5k0IHA94aGwKh3mmk31zrYXIDA9bIjMNrP1LTbMBjdinUQXxiZ+FOv7bbsbxTY0L7A52bHZk1glI6LY97MytCgfYGPxobAqHaWaTjVurC7QPP7vIYFnsvvoX2BtwQmMHIRXSpp+MhNdC+lO3VA4IwMBEbhRHcbvSKwS7GQDVcvjjg4BAaBK95fuBQLxQv8A4EJjGq3eU13G60l+EDgelkRGIWjFfotRDdDiy+MS/y9T4eGRye6GXorwlC4wPuGR+eWwGhd4JZjdG5w0HiINr3Nm1meoHGB7wlMYNS7y2u7UjLI8KFoovOsrwjsVjvUK3Db/fo7AqNtgds+8npHYBRNdK9R27fGxJ5mOIkwEDgfawKjaKJvlT0T2L2yqDZCG59jVtYnaFvgttM0SwKDwPWyIDCKJvpW2QOB3SuLegXeNz08twRG2wJvmx6eOYFRNHcEHlNgF0NjXKJvlW17eGLPE7pXFmULfE9gAoPApTIQGA0HaPMROni/oWWBW8/S7AiMlgV+QWACIx/O87+dO0l6FMyMwG8nttFlK8ZQssA/EJjAIHCprAmMgom+1/1EYDe7g8AEBgicnBWBUTDRX1Y5Nj5AsXfqHMQYCExg4CGiP8xwMEA+zYB6Bd4bIAKDwK3uMQiMkrd4BPZtFdQs8LbxAZoTGAQmMDAG0d82a32AYpvFz2IMBCYw8BCxrb73BPZxJBC4XAiMhgV+RWACg8DlMhAY5bIh8LgC+7oZCExgYBSB2//63o7AaFfgFwQmMPJxR+BxBfaBYBC44hEiMAqeXwgsy4eaBW6/zLkhMAhMYIDABAZ+y0DgcQX2gWCULPC5+RFaExgEJjBQoMAnAhMY/2LvjnHcSo4ADC858DBgQEcKPAGPwCPM+AYb2Mkq8BHmCOQRHPgKTjbZI5BH4BEm2MQZAwXahTTPgAEDwsLWipzu113V3x9LwTTqZ1dVV/drh2+bVRZ4EmMgMIEBAt/ChsDolgWBawv8JMrQr8BnAhMYBO6XNYFBYAIDBCYw8AVLAtcW+CDKQGACAwQmMAhMYAIjicAnAhMYzbgj8O+xskIgMIEBAhMYKBidBNbmA4EJDDQR+GCJpNAgsB0YIDCBQWACExgEtkQERmXWBK4t8IsoA4EJDBCYwCAwgQkMAhMYIDCBQWACExgEJjCBMScbAtcW+CLKQGACAwQmMAjsQj+B0QdbAtcW+IMoA4EJDBCYwCAwgQkMAhMYIHDvAl9EGQjcjrUdGASWQgMdCny2AxMYBCYwQGACg8AEJjAITGACo3eBTwQmMOzABAauZ0fg2gJ/FGWwA9uBATuwHRgEHkvgDYGRV+AXAhMYBCYwQGACg8AE/pItgUFgAgMEJjBAYAKDwAQmMKILfCEwgUFgAgME7nCJCIyOBf5giQgMAhMYIDCBQWACExgx2BK4tsBe5IAduCGPdmDk3YE/EtgOjLg7MIGtEOzAHbO3A8MOPK7AdmDYge3AQA2BPxGYwCAwgYEGAn9Ov0RHAoPABAYITGCAwAQGgf/Da/olMi0OAhMYIHADFgQGgQkM9CjwRGACg8AEBloI/JR8hZYERr9sCFxb4IsoA4EJDBD4eu4IjMwCHwhMYBC4V1YERr+sCVxb4BdRho4FPhGYwCBw2hUiMHoW+GyFCAwCExggcHE2BEZmgV8ITGC0YkXg32ErRQGBCQx0KfCFwARGXIGzX3fdERgEJjBAYAIDZQXO/oHgRwKDwHHZExj98ubr6uk/EPxmgU+iDARuxpHAyCzwZwITGK1YEri2wAdRho4Fzv5xJG8OgcBxWRAYBCYw0KfAE4EJjLjxmfzTDEvrAwITGOhU4Nwp4h2BQeC4rAiM3AKfCExgxBX4nHqB1rr06BkCExgETsuGwOiZN8/qJ39X9s2PUr6KMRCYwEAdgS8EJjDiCpz7WcodgdEzewJ/lTc/SvlZjKFrgT9aHwIjrsCfrA+BEVfg3BF6tDwg8MACfxJj6LlJk7zNqsIAgeOy0OND17z5nDP3sC+BkV7gp8TLsyQwCExgoA7btwt8SLw8PoAOAhMY6Ffgc+LlWRMYBCYwUIe3PxmT+kb/25fnIsZA4LgJyosYQ9c5YuokcUdgEJjAQLcCZx5VeCQwumZF4K+x16NHdoEzXwg+EhgEJjBQh7d//zb1hWAfb0R6gRNfCPb1VXTOsoDAT1ZnzKseIDCBgcYC543RlcVB+iovcZm3kp4gv8DntKuzJjDyC/ySdnU2BEbnEPgrbJ2xIb/Aea8jvf0yks8Doy5HAhMYQwuc9zrSnsBIH6OJv9/l240YQOC8QXq0NsgvcN400Y8beudxclTy/1goLzCCwE9J12apwYfeKfB5wrQD+3cEBoHj4sU/dE+BacG0txk8mo0hBH5JujYbAoPAQ68NgdH9LpM2Sgv0By4iDL3XeWk7NY+SExA4LnsCYwSBs84LHjXo0TsFzjrTDkM7YcMQAicdhvbgH/qnxLdVkg5Dl3gz+yTC0H2UJp2lXFkZjCHwicAERlyBc1Z6a8UFhujUJD3t3BIYYwicc5ZyR2D0D4FrCiy+UJkC40ZJZym994dBBP5sZQiMsPtMzjhd+GXDIAJPBCYwAgv8lHBhlgRGAEo8DJ1y4KjEIJZ33VGbEoclKUexPHWAYQR+SbgwWwJjkDhNOcmxtS4g8NjNAQKjNiXelU3ZrCnRnr+ILwTo1aQ8LjnqDWAUgROOYrlniRAUedUu4SSHlw4wkMCHdOtyR2AME6gJI7VIaXESX4iQKiYs9jYSE4wj8CXdumwJjAgU6bYmnFjY6e1hHIHzDf26ZokYFBE43yRHiTkOb9ohSKSmm+RYWBUMJHC6ZHFJYAxU7KXrt64UFhhJ4HOyVXHHA0Eo8ihWukmOIsfAnsRCfYoceKY7CN45XMNIAmeL1b1fNQyULKYr944ExkgCJzsxKTOfdhFdqE6Rfmu2g2B3tDCYwIdUi7IiMIaK1WQHwWtrgrEEzrXbbAmMIJR5UydZx7XM2dpJdCFIvybZQbABcQwmcK6DYFe0EIUyR565Lq8vHK0hDJNzpEp9AbGFMOliqpZrmVMk9/kRSOCXREtivBRx2DtH+i07fT2MJvBHS+I+Pxrw6BypTlXhPj/i5IuZeq4LOQlG69hkOkcyXYoBBT6nWZE1gRGHzeQcqcpP2ovYQpz9JtGGsyMw4lDoQnCiNvReTYHxBE4zeLTQFEAgCvVc81y+WWrLY8B4TfMAxYrAGDBjTNO02chIMKLAWdrQRtMQilICZxkd3GvqIRJHbegaP2gERqgdJ0vRV6qp5zowggl8SLEcpZrQrgMjVtMmSRt6oyWAMQX+YDkIjNkpdZ8wSdK493OGIXPGHH3XYsfiF5GFWSh1nzBHG3qpI4BRBT5bDZeRMDeryaZToSNAYMxDsfuEKRqvTsUxatWXYvjoSGDEoljfdXp9shhuEyJszCbYdco1BAQWomWNCbpYxXpYLiMhnsDxp492+gGIxl4Xq/yPGYExF4+TvLF4P8BtQoRLG+N3scr1sFxGQrjGTfwu1oN2AEYWOHrYlktGLuIKM1HuNkP41o0TNQwtcPAuVsGZlrO4QrjOTfQu1orAiMfdpItVvBtwEFeYiWVBgWOfnjwTGENXfsG7WOV6WC4jYT4KChw6cEumIqIKETee0M0b7XiEZF9Q4J/1sNxlQFyBP1oHdxkwLwVvM0TOHRd+xzC8wIHPT0oOtLjLgJC1X+RRji2BEZL1JHks3Ap4EVWIKXDYIrhkCWwUGkGLv7hF8D2BEZO7SRFc8jUOo9CYlWVRgaP2b54JDNVf2CJ4UXKg1F0GzElRgYMG770fMUTlqAguWwITGHOyLypwzJPgoiWwuwyYk0dF8MJvGMKyK1sEHwIuwYrACMt2Gr4ILrsERqExJ5tp+P1nr4+HsKyn0YvghRwEcSlbAE7T30dfgbOYwozcFRY4XgmojYfALAsLHO8Y9EhgxKVwBRhvmvJ+8L8fwSktcLQmzsPwXTyEpnAGGe4gaT96CYHYFA7g6TVWDrmYCIzI7Ern0OdQf/568AQEBA59kLQb+q9HfLalBQ7VxlkcCYzQlM4hY52ErkZvwoPAkTehwTsAiE/xPShSI7Z4Bj2dRBRmZTkNnEOvhq4fkIFFeYHjfOm7eAfPJCXmZho4hy6eQU/iCeGDOEweeV/8LzcKjbnZj5tD70Zu4CEJj8Pm0OV70CYpkWAbipJDl+9BG8TC7GynUXPoHYERn3UFgUP0cipk0CYpkSGRjPE4ZY1frrN4QgaBIzRzniv83SfxhJlZ1hA4wLscVf7ug3jC3KVgjUAOUAw+1Pizn8QT5qaKwL90/2cfR23eIRnHacRkskrpbxAL87OvInDvJ6LPBEYOdtOAbaw6lb9JSszPdhqwjfUwZNqBjGym8dpYi+OAP1rIybqOwF1PY60mAiMJlYK564Lwuc6ffBZNmJ1lJYE7nmq4r/QXH0QT5q8Hawnc76XC5+F+skDgPCdJ1XIOwYQGHEfbgre1frHEEhqwn8YK6EWtXyyDWGjBrpbAnR6rPNT6cw1iIVNG2ekwR7UN2CAWmrCpJnCXB6MPgyUcyM56GmkLrrcBm+NAE1bTSFvww0RgpGJZUeDuGrMVN2CDWGgT0xUF7q4urLgBG8RCG2oK3Nk4Vs0N2BwH2nCsaXBf41h/G6lcwCDsh9mC72v+pZ9EEprwraNYrz/+eIy9BT/XFNggFtrwbaNY//z+uz/++bu//hT4aY6qG7BBLDTiWyY5Xv/y33/9Q9hpjkXVYt8gFhrxDZMcr19soz9E3YIfqvprjgONuLuykH0fs4+1rOuvOQ50G9m/UfA5ZB/rubLATyIJbWrDa/szVxeTPSTRlRNoD+qgGcdrBbxWhl/a706VO1gGsdCO/dXZYbwkunYCbRALzdhdHZv30TrR1RNocxxoxvb62Lx2Q/u1bRL9h2N1gc1xoBWb62Pz6i34X00L4OoJtDkOtGN1w+ZytRL/aPgHvq/vrzkOhBL46i34tV0Z/G4Gf6eTOEIjlreUd1dvwc3K4BkKYHMcaFki3iLw9W/hNbrVsPhpDn/NcaAdxxsEvmEyos1p8PMs/prjQDv2txxx3nC02qKR9X4Wf81xoCG7Wx6LueV2z/yNrD/N4685DjRke9PuckNu+vr9zH/Zu5n8NceBhqxvatDc8k2WmQ2ezV9zHGjI73WUn/7n/7rpRfhf5zT43XE2gc+iCM24uy06d50bPKO/3uNAQxa35Ye3fddwNoPn9NccB1ryb/bOHrmNJInCaCjENsqgsysHBo7QR1AfYTdipYjl3GDX4BG6j0BjdIORIY7BIzSP0MYeoA2tIVkwaAwVJLAzszMRM5IoFOo3s+r7fCmA6PdYmS+zGm4JjeOvKiXqg18ktC9jYMjK5DbkdNyR2KeYB1+k9C9jYMjK4FYguv42eAIHf5fUv/yuCmSlc4to3H+Z9G3kpv7faf3LGBiysnVLsTx+F+1DzNTn+U1i/x52aAgycqwWfmpR0ONVU5/+UUj7yx4HZKd1DFm9fu0gUhmdvHzmOj/k5qgRn2iC/X4cPMoh/HrK4F/2OCArjWuJ2Pnp/m3oTvh5juOXPQ7IzbFj696x9j56CL8J+nfoYsrjX/Y4IC/H4uSnfmGw8db+x3B19OubQybY44C8HC2FZ0fnW/AujIVf/XjIBtf5IS/HBsFPbipsQ+g/gIVfZ7QvexyQG+Pa5bUyesizQ1YWFARZOe7DOVYTHKQEjf7roVznB8msnavEQcYJ1mU18IiCICvHD9KncuggTXAfvwdgDAwlM7mWiSGa4ABTmHVO/zIGhtwcr4Tv4zXBd0n+AjEGhnLpnOvEQUYGlLMJZgwMubFoZd9Ha4JDZEA5m2DGwJAb49zpGRktZM4meEE/kJnWudJdy6hAc06CZ/QDmbGx4X2k+CjMATbkM/CIfiAzVmHyVZz4KIz+t/kM3KMfyM3kHNZsZOi/zeZfxsCQH5sK9OvbWL7OCTRFzZdiMQaG/HTOaY3vKkeoIUy2FIsxMORn6y5Vz/hoCfQNLnMZeId6IDtW49yv19CeKdaY8k8QY2AoE7tOdnb2fvwMN1uKdYt6IDtr9361lREBZUuxetQD+XF3WyMjAsq2i4V2QACDe8M6yIiAMu1iMUUCCbx0D2y8Uqw52DfIdKOQKRJIYOuuVq9drDHYN8h0o5DLhCABO/nvg6dY4SKgTDH0gnZAAK37gdnI6CAzxdAz2gEBrD3Om0lGB5knhh7RDgig8TDcpYwOMk8M3aMdkMDk3gRvZRSgWWJoLhOCDAb3itHIKECzbEMzBgYZdO5H5lpGAZolhmaKBDLYugu2kVGAZomhdygHRNB6lIyDiAK0yWHgGeWACJ55FL3O8VHYPcQcc6QR5YAIbM+vq5DxUdgCNMccqUc5IAPL82sJGR+FLUAzzJGYIoEUBveq1zk+us2RwzFFghLp3CXbyChAM9xH4jIhSGHrYbpJRAGaYRDMGBikYDxSrJciCtAMg+AZ3YAQbOdIS7ju8yHsN8gwCB7RDQih8Wj7jIwCNP0guEc3IIXJve517D53gb9B8kEwUySQw+B+6jgWr0vgb5B8EMwUCeRgK//bYMXrbeBvkHwQzBQJ5LD1ODcHERFQ8kHwDtWAGIxH9NSJiICSD4JnVANiWHs0fkZEBPQstYFHVANiaDx814qIgJJvcvSoBuQwuZ87TtZ5yPUniCkSlMjg0fm5xNB32f4EMUWCArFNonYe5o9r4MSbHFxlAEmce0w/XUawS/Bv8DKtgRc0A4JoPSpHlxh6zlZDMEWCAll7hK9nAhaxkq9ijWgGBNF4CLcRof/Eq1g9mgFJTB6l4yBB/2lXsQihQRadR/p6evsZYYqa1sBcZQBZbD2UayQYOO0qFlMkkIXxsF4roQJNu4q1oBgQRevRvZ7unYcI3yCpgW9RDIjCJ4Y+fY0xRguZdJeyRzEgC58YupPQQqbcpeQqA0hj8PDeySnWTrmBmSKBNDqP6reVkAGl3KVkigTSOPc4fE5OseYIXyDlLuWCXkAYPjH0yeXrrXIDz+gFhGG9CDEGMM+YsYTgKgOUSONz+pyaYvURvkDK2wzIBcQxePR/awEGTrgMTQgN8vCJoU/doljpNjAhNMhj63P8nDbDibIHkfA2A1cZQB4+1xlObEAflRt4Ri0gDp+36pzonigGTngdaUQtIA5rA9x6N8EPUb4AVxmgamw9uHg3wT9l/fyE0FAkPm/VOa0JvtNtYEJokIjPW3VOa4LjGDjZdSRCaJCI8aogTzn/droNvKAVEIjtIbr3KsDjOSDZfcIRrYBAGq8Qtq3HwD1aAYnYVsG3XvaPtgiR6j4h79MBmXReB+hQi4EJoUEmW68UdpP3Pn+6C8GE0CAT43UErXOnQKkuBC8oBURia8FHvxZau4FHlAIiafxSnG3mGDfVheAepYBMJi8Jn9VhYDahQSqdXxFpXUOvNBuYEBqkYlsEz37/PNIg9RkhNNSN7Rm28wvBIhk40Ss5ZnQCQll7VpFDDQYe0QkIpfHMcTZZY6BE79Tp0QlIxfMIbSowMCE0yKXzPIUuyzcwITTI5dyzD7QbBT9E+vRJDLxDJSCW1jeJtRoFv4/06ZO8FGtGJSAW2yB3WXnEWPtes4FHVAJysfTAk8sMjcV/8J+VYgNzmx8kM/gmOceP4PvcH54QGopl6yvjo0fw/kq1gVmkBMkY70JykynBSmTgBY2AYGwvBPSuR/B9r9vAMxoBwTT+WewmUwG9Wr1kkRJqxzLJvXX8L35Y6TYwITTIpvOvJL+xjvVBwmdnkRLKxTKG3n3r//guRwOcxsCE0CCbNoCQm5uv/6NPkRvIjgwLamcdopQ8+2ob/OlvK/UGHlEIlJBiHVlIevG1/Ce2fxP8tgoZFkhnCKLkF+nP3xQGZpESCkmxjrWzLz47yT/0qwIMTIYF0jFhDLx6/scka/9G0N8eFimhYM5CpTnNxe+H8P5tvyrDwGRYIJ0m4Dzl1b+uP16/+3uf6KOfRzdwjz6gjBTLtphsEn7yczIsALtp6k7gJ49uYBYpQT4btXnsORkWQKv2MIr+C98z6oBCUqzHGg3cow6Qj9Uy5b5CA7NICRrotJ5GhgwLwHIfYqzPwCxSggZaDEyGBXpptKo5toFHtAEamJTORA0ZFoBlinVXnYHJsEAHW6VyNmRYAJYp1mN1Bp5RBqhgrbQjNGRYACvLFKvXWTmQYUHxWKVYt5WdwA/oApSw1dkStmRYALZOkCdoQ4YFsLJMsX7S+XeHDAvKZ1I5RzJkWAC/0KlUdNQTmD0s0MNW5RzJkGEBWJ9ls8pPTYYF5WN1o3Cp6gQeUQXoYdJYVLZkWAC/0mmMdQwZFsCvbDQeSjFP4PdoAhTRaoyhDRkWwK80GkUd8wTu0QRoYlAYQxsyLID/0ymMoVsyLAD70+xR4WfmdwmhCtYKG8OIBr5CEaAKqxRrrMbAPYoAXShMseIZ+BE9gDK2+lKseAbmKhJoo9V3MBkyLIDfUJhixTPwiB5AG5M6YUczMGscoI9OXWkZzcCscYA+NuqUbciwAH6nVVdbRjPwjBpAHfpWOaIZuEcNoA91qxyxDMwaB2hkq60JNmRYACf5YV+DgRe0AApZa2uCYxl4RAugkUnZ6RTJwKxxgE60vVvW0AIDnNgE98UbmDfKgk7OlC05RDLwjBJAJVarHHfFG7hHCaCTQVfEE8fArHGAVra6hixxDMxNBtBKqyvjMbTAAKc2wY+FG3hEB1ByEyxH4VEMzBoH6KVTVUNHMTBrHKAXo+qMimLgBRWAWqzuM4j53RFDCwzwJyZNVaahBQY4vQmWsg9taIEBHDyxlGtgbjJA+U3wY7kGvkIDoJhmUiTzGAbu0QAU3wQf7ks1MDcZQDcbRZWmoQUG+DNndkK/K9TAMwqAGppgEfsOhhYY4DMuD2q6YEMLDODWBEvogsMbmMv8UEkTLOEINrTAAI5NsIAj2NACA3zOYCn2/BvRhhYYwLUJzj8zNbTAAK5NcP4i2tACAzg3wdmLaEMLDPAFl9aCvy/LwLTAUFUTfDj8tygD0wJDXU3w4fCDxf/3Vy0GpgWGuprgn/n+6H938ajFwLTAUATdIZyDn/940GJgWmCorgn+mbffOswvYhrD0AIDfMn6NOF/eLL0fH1zUGRgWmAohOk05e/ffMO+agws5WW5AEmb4F/4+OqL3vfiJnpvGdbA9zx3KAQHZ3x885c/uPf1dYpwKKyBeR0WVNoE/8an63dvXr365/X1TaJ0N6yBR547VNoEZxrPBDUwP4oEFTfB+g3MjyJBObT1GXjhqUMxNPUZmBYYCmKozcC0wFAS29oMTAsMNMGKDTzzzKGkJniqzMA9zxxK4rIuA3OVEMrC1GVgrhJCWazrMvAVTxzKYqrJwFwlhNLoajIwQyQojbYmAy88byiMpiYDjzxvKI2hHgMzRILy2NRjYIZIUB5n9Rh45mlDeUy1GJghEpRIV4uBeR8llEhbi4EXnjUUSFOLgUeeNZTIUIeBeRkHlMmmDgMzRIIyWddh4JknDWUy1WBghkhQKtsaDMxNJCiVtgYDLzxnKJQwr7YTbmAqaCiWy/INzE0kKBdTvoH5WWAouIYu38BXPGUol6F0A7OGBSWzKd3ArGFByaxLN/DMM4aSmco2MGtYUDbbsg3MGhaUzVnZBqaCBmpoxQamgobC6Uo2MG/DgtJpSzbwwvOFwvG/0CDYwCPPF0rH+0LDXqyBucgA5WPKPYG5yAAV1NDlnsBU0EANne8EPqeCBoh+0O2lGpiLDEANrfgEvuLZAjW02hOYq8BADa34BKaCBmpoxScwFTRQQ+s1MBU01MKmRANTQQM1tGIDU0EDNbReA1NBQz2Y8gxMBQ3U0IoNTAUN1NB6DUwFDdTQ/2Pv3pGjuBYADEtyaRQowLfKEFwFs4RZAkqcQxVyADswwSxhtAQFZgd2gByQ36RZggIvQAEJBNcJgaCs6WtjXFwh9fucPv34vlwaabr/OadPP2bEAZtBYw494oBPbVPmZDWtgN1JyLwcTCtgz+JgZnPobFIBm0FjDj3egM2gMYceccBm0MxONqGAj21O5mY5nYB9owrzs5hOwJe2JvOzmUrAvtWbOTqaSsC+1Zs52ptKwGe2JXO0nkbAZtDM0+E0AnYjEvPU8nLKoQVsBs1MrYYVcLsz0y6jZK4WUwjYZZTMVjaBgI9tRubqaPwBu4yS+dobf8AXtiLztR57wE4CM2eHYw/YSWDmrM2p4EEFfGobMmfLcQfsJDDzthh3wJe2IPO2GXPAlrCYu8MxB2wJi7lrvow1oIDPbD/mbjXegC1hwWK8AV/aerAea8CWsKD5MtZgAraEBc2XsQYT8JltB83DGcjf4UZC+MveOAO+sOXgL+sxBmwJC/62GGPAnoUFn2UjDNgADJ8djS9gS1jwj2ZnkgYR8JmtBq3aGcIf4TJo+GJvbAFf2mbwxXpcATuHBP9vMa6AnUOCGzajCtgADDccjCngK9sLbmhwJil9wGe2F9x0NJ6AXcQB7Yfg5AEbgKH9EJw6YBdxwB1D8FgCvrCtoH1AiV9/a0vBHRbjCNhFHHCn9RgCdhUldBqC0wZsAIZOQ/BxyoANwNBtCE4asAEYug3BKQM2AEPHIThlwAZg6DgEJwzYAAxdh+CEARuAoesQnC5gAzB0HoLTBWwAhs5DcLKADcDQfQhOFrABGLoPwakCNgBDgCE4VcAGYAgwBO+kCdgADCGG4EQBG4ChlqM0T8RYGoAhgPIHVEYL+J4nYUH0IThawIeeBQ3Rh+DrJAGf2SoQYgiOFvCBARjCKDmV9EeKgA3A0MAiwVcDflP8mu9tEQgzBEeLac8pJAhVU9Z7wLuu4YBQCtexLqO9pAEYgo2HWe9XVGRWsCCUonWs02ivuHEKCYJZ93s34c7OygQagtnv+9s9l1awIJyjXi/EKriW8qMBGFq5cx3rKt7rHVjBgoAW/V4UddeJ4Le2ArT1rN/7cjMrWBB3En0a8eUe3nq132wDCDiJ3sZ8taVTwBDUur81rNurWCbQEHYSfRn1xZwChrAe9HcI/PXFlCbQ0Nnzni7juHUQbAINgSfRkSe1N+7p/9l7D90teptB35hDm0BDEEf9RXVoAg2hrXu7MPnLfP3M2w5h7Ge9ndZ54AwSxMmqlxsLnjkAhuBj8I/n5y/6eamnWf7xFwfAENS3/TX1rXcbAAAAAAAAAAAAAAAAAAAAAAAAAAAAAAAAAAAAAAAAAAAAAAAAAAAAAAAAAAAAAAAAAAAAAAAAAAAAAAAAAAAAAAAAAAAAYL4e/3B+/nv+2X/fnZ+fPD72rsAY7P9wnuW3fDw/eeS9gaHn+/RVXmD78sQ4DAO2W5zvJ+9eSBiG6v6veZWPEoZheprlNZw/8U7B8KbPP+Y1vTQIw9D6fZ7X9tEgDIOy/ypvYPvCOwYDGn8b9funX7xnMJh+13lTbx0Iw/iOfxUMA/MszxUMI/XvPFcwjNQiy9sW7M2D1AfA67y1n719kNbz9v3m25+8f5DSg7yLrcNgSDmBzjoFnH/wFkI6z/KOHAZDMouu/ebbR95FSGTdOWCTaEjlQR7A2XD/v/2TEs2mDrtlvyrp7ZX3y/6yYzv5hHVdwRr8SvQ63NThaKhvQflGdK3NlB3lQbwZ6v+3V/53n4b7rLtM908eOs9nAJ7oEFy+bzeqrmK17yrdP7kq/8su7OcG4LEOwatw1VV8Flyn+yc35X/Ze/u5AXisQ/AmXHXLircg2Tuwmw92bsBIBuDBLkRXfEJtG/yqh3m44+k+j/NTzg0YyQA81HPBVYNTk2FzM9aAt/Z0A3C147kHnGyt6EDAM7UJGfDF1APOBMygLEL2O8y1TgELeLrWQQO+ErCAGdDaR0PXAhYwPVomCHj3u8fHAhYwAfbtrPeAP315+H9eCFjAdHYYtt8au8k/357W48OkBSxgS1iBRuAv3374VsACZlBLWHn+R4NPjDcCFjCdHIUO+KrJC54JWMB0kfUc8M01sw8CFjAdLEL3W3Ul1leH3L8JWMC0t+w54K8/MK6PBSxgWu/YwWfQFU+nWaW5f1jAAp6kg7zfgG9/YHwQsIBpaxU+4NL99yjRIzwELOBJynoOeJPo9kMBC3iKwq9Blz9RZpHqMXgCFvAULXsOeJnqMXgCFrAZdPdnYmWpngAgYAGbQXcO+O7X62MOLWABT9BRjICbv96ZgAVMC5sI/W6bv957AQuYCHt14NuBd9M9RUvAAp6ew54DPghQj4AFzGerGAGX3M+/TLfLC1jA0xPjJFLZSaFNyzsQBSxgbtvL+w14t8uDLAUsYG6KchKpZDQ9CJKPgAXMJ+ueA14m3OcFLOCpiXISqex24JKzzm8ELGDCbu7gAWetH4QnYAHTYEYb5XbgvZS7loAFPDWbngM+CNSPgAVMtEPg4tuBlyl3egEL2CFwt4BXrZ+EJ2AB09MhcHEJWbuTTwIWMP0dAheWsNv2FggBC5jeDoEL7+ffS7pvCVjA07KI1O+25d51LGABU99hpIAL58L3yn/utYAFTH2rvgNetb2AS8ACpvFeGPx+/k3beyAELGCaLSnFuB04a/0cAAELmIbbOnjAu22n3gIWMLfEuoyjcCq8l3bnErCAJ2XTd8AHAQsSsIBnbjfWGlbhanLlaatTAQuY1GtYhQHfq/rB1wIWMDUdRgv4ou1B94WABUzqNazCvXfVdugWsIDpbQ2r8FC28hXfC1jABNqdwwdcuWp2JWABk3oNqzAEAQuY4a9hFYVQPeZfC1jApF7DyluP+VsBC5jUa1hbAQuY2KJdh1U4ET5of/QsYAHT1xqWgAVM6g0d4X7+GstmpwIWMHXcixfwlYAFTGSr/gOuse59IWABU0e8RejCCyIFLGD62pkFLGCGK+IidOE9Rav2PypgAdNkOw8u4MV5mTMBC3hWIl5IWbjzPuwS8Lr05z4IWMCzskoQ8Kb94XNlfMcCFvCcRFyEbn8/f0nAey1fU8ACnqKYi9BRAq7aL18LWMAzEnMRurCDmAFfCFjAM3KQIuBMwAImiMOYAe+0D/hKwAKmWsxF6K2ABUxcMRehrwUsYOLKBCxgRivqWaQ/BCxgovomZsBXAhYwUR0KWMCMV8xbGYrP5QpYwASxErCAGa+YZ5GKbwkUsIAJIhtqwC6lFDDd9+QotwO7mUHABLEnYAEzXlHvRSq+t17AAiaEewIWMOMV9SxScQYPOyyACVjANBgKYwS8ErCACSDqWaTtjoAFTEQdzyL9nrXcQ2pcwHkhYAFTofVZpHcvT548/tefvr9/cn6eNbwdWMACpo9tXLDlXz6+uYN/f3Jnw50Cfi1gAVOh1c2EL5/c8Zu+e/qq/v38nb7gW8ACpv5IeGuzvyiK4mlW934EAQuYEJqfBv74pPi37f9YN+AaU/djAQuYCg8b9/uo9Pf9kNW6mKpOwDsCFjAdd76G/e7s3H9VK+Dq1e+tgAVMlabHv4+q0/i1xrUYNQK+FrCA6boff+WnOr/zeY2AdwUsYDpr+EzZN/U+FdbVAVfP3a8ELGA6buKbPtTcq3dfVe+6lTdRvBewgKnQ6DqO7VntmfmrioupBCxgAliGn0B/ssjKr8WocQL6UsACpkKT6zi2DfbpnQdVO0jlR8eFgAVMhU2cAfhPz0oXkmtM3k8FLGA67nttB+C/l6Lfdwn4WMACpkK0AXhnZz/Lyxa9Kk9g7Qj4f+zdP3Ib1x0HcIAekQULTmYsF2aBA6TAEYTM2JPWnrGKMHVSWAWPABxBhZU6hVWEKXQE8AgofAAUcuNKBQvYQwCJxhpZlEDu23/Y98N+vqPOoBfc3Q+++96+BQGWmqdx5QJ+O5H18qH/elT95AIYYElSVKOA6wq6BRhgqXmE6xRwzdN+BTDAUpD0dRyrxrddMAH+BmCApSDp6zie73vbC4ABloIkr+NYN7/ts6q3gQEGWEoCfr33s2sCMMBSbxya1IdVc1T53AIYYEk69d4/R9jCtoeVr9kBBliSzuKEB/Nbqv8bgAGWpgBP2tj6uOpHBsAAS/EwtNU56EHBNPQ1wABLzQPc4hx00dYnAAMsBUldiDXbe/+vBwADLHUuYts/zvOKKzcBBljeJnEl5aqlzY8rTnsDDLAUCNrHCTiquPQaYIDlbZ50eBPp4fNrAjDAUpS0lZTrtjY/rLhJgAGWlDOveFFUSx8gNwADLLVP4rbPv1G1TQIMsKQDnuz/BJsADLAU5ajbIfD9itYDgAGWuse37SHwYHBZaekmwABLMuBli+/gvNIXcAEMsAxSl0LP9n4RvxkADLAUJmklZbsHeVrloh1ggCUV8G2rb+G8whU0wADL24y7nsPafQ29GQAMsBQnaSl0y2ffZYWvDwAYYBkkLoWetfseTitsEWCAZZC2FLrtYzycl/8KW4ABlkTA67bfxHnZKSyAAZakc7j9OawdFfzrAGCAJSFJS6GXrb+N87IFDDDAkgp41vrbuFvBvw4ABliaOLwtP0v4Pl98eEp9AzDA0hjgvRziZ39s78cBwABLUlKeZVjt440M36/meDkAGGBJy1kOk9C/a3pWxi/AAMsg7VmG5Z7ey8XVdnP1YgAwwJKalGcZrvf1ZoZ/+qqx8xJggAHe2yR08+clwAD3IU8ymYQGGGCpkISHkdYAAyyZJuFZhhXAAEtcwDcAAyx5JuVhpAXAAEtcwNcANzCZALC0kJSHkSYAa2AJCzjTA6yBAZaUh5HWAGtgiQt4BbAGlkyT8DThDcAaWOICXgKsgSXTJDxNuABYA0tcwNcAa2DJNAlPE04A1sACsAYGWJpO8ePAuR5fDQywJDwOvAZYA0tcwCuA+9jAw8d/u/p/Xj79CpKcU/w48A3A/WvgRxev3v/nq6eYRAa8BLhvDTy8uPvLXH0HSqZJeBx4AXDPGvjxq09e8gIVgDVwDMAXu36TlxNYggKeAdyrBr7Y/aqXsOSYhOf5JwD3qIGH39/3MoJjAs72LqEGbgPws/tf9yMu8RQA3K8Gvnjodc95CQh4DXB/GvjLB1/4m4msgIBXAPemgY8LfoefgcktxV/IcQNwXxp4+Kpod7iIBvjjfHl1f/4zqXFe/rLr//hSA98P+FnhyfArMZml+As5lu2+gaMHz/vXta7+izukwwZ+6IPr6oeijX3/0MdeRcBfJOy+n5CJBrjl4jivPINWDfDrTBp4+ODLNwXbPS5zyBIBD+cJu29tHgvgO7msDKga4HUmDXxS67pnXGbeMRHwswofgNJ1ir9RZ9buG5hX/fh4dFkJ8CaTBh7Vmvufl7l1nwb4OHH/qeBggNs9YEWC7m2iR6+21TLJo4Gnde6+D0t96CYBHqZ+Hv4bGoDTT66bpv3ePbm7a+B5nfVvnzV5tf77ts5T95+J6KwyLXfJuXfAq6b93j25O2vgehs+aRxw0gyWe8EAf5zTSoBr+G0P8LzRDc/q7LVlacDn6TtQBYcCvM4QcB2/mTTwUauA35QFXKKATWNllcIDd9vu9kcVANfym0kDZwb4vMwedCcpEuBVdoCP59utBi4x9VcMeFhql66xySddL4UuD/hxPb8aeAfg83K70DRWNhl2DfisLOAvavrVwJ8CHpbcpzfgxAG8zKuBa/vVwJ8CPi25C/0tFoArAq7vVwN/6rH0olTX0LnkqNz53jXgBvxq4AbiGhrgKmPgJvxq4AZiHjoO4Fk+DdyIXw3cRGbo5JGTSICn260GzqKBreWIA3iSDeDj7VYDZ9LA1kMDXHoMPNpq4FwaONu/twPwnm/5lWjgsQbOpoGz/ZOVfctpIMBTDZxPA7uRFATwOh/Acw2cTwO7kQRwyTHwcKuB82lgg+A8UjgxdNvxGwgEuFcNbBAcBPAKYA1sEAywBj6wBjYIjgG47Q9aY+CgDWwQnEXGXQPWwEEb2CA4BuA3AGtgg+C4gJcABwS8jwY2CAY4wBj468+/Tf0371cD+16dHDItdbr3sIHbGjTGb2DPBAMMcOAGbv3iTADWwC0CNosVAXDb10lnAEdtYLNYAGvgwA1sFiuDzAHWwGaxDhjwBGANbC0WwMbAh9fAZrEA1sCBG3jFT9cpPH9bn6gAOG4Dm8UCGODADeyJQoCNgQM38PaaoNwBt36zXgMHbuAlQQADHLeBTUN3nSOANbBpaICNgXvZwKahswfc+mesBg7cwKahAQY4cANbDQ0wwJEbeIFQ3wEbA0duYPeROk7hoW39RoEGjtzApqEBBjhwA/tSDoABDtzA7iP1HrAxcOQGdh8pd8BvHvrp4eOnZTPRwIfUwO4j5Q74wWnG8/IH/DXAB9XA7iNFBjxtYNAEcOgGdh+p25zWOUBHVY74c2PgQ2pgzyMFBnzSxEe2Bg7dwG4EZw54UWMCOekjG+DQDexGcGDAoyY+sgEO3cBuBAcGPG7iI9sYOHQDuxEcGPCTJgBr4NAN7EZwtzmrA3gKsAZ2I7jTjADWwG4EHzDgWduAjYFjN7AbwT0HrIFjNzDAAAMcuIFvIQIY4LgNbCWHMTDAgRvYSg4NDHDgBraSA2CAAzewlRx5A54ArIEfzDVFHWbcOWBj4OANvKCo14A1cPAGXlIEMMBxG9hKDoABDtzAvpPDGBjgwA0MsAYGOHADW4oFMMCBG9hSLIABDtzAW4qMgQGO28DWUmYNeKCBNXCNNyrt5hJgDVwz1xjl28AbgDVwmV9L8mrg9gEbA0dv4CVG3WWqgTUwwAAD3N8GthgaYIADN7C1lL0GbAycXwP/dvUKYIA1cMgG/uXFN4PJX77+b+UjKgAD3FUDb15M3v3QBcAAAxysgX/75o+f+nuqeYyMgQHOooE/9JuwTO9dMNLAAOfQwHf9Dh7N035swhHAAHffwJvnH23lPO3nZhwBDHD3DfzDx1sZzgEGuLEx8KAhR9caeGd+/nQz5+V/L9HA9wGeN+NoBvDOAfCOoewRwAA3B3jajKMJwLvyfNd2kiailxwBnAJ41Aiju28A4PsvoFOvoQE2Bk4CfNoIoxXAuw707ntBSbvH40gaOMnbsHlGAL/L6xrHGGCA0wrzzw0o+miuBuB7Z7CSr6EBBjgN8PDzb7/+4N9fi1rlzqvf/atyjXj4gH+6b0PHpQclYgyceHaclAFzTwDedVA+2D8J9+5uOdLAAHcJ+KdaB9nzhAAD3CXgzeT+LY0ABhjgvAG/HlTfyVsPBBsDA9wt4EW9HQSwBgY4V8ApK9AnIAEMcKaAxwADDHBcwCOAATYGjgs4YQX6DCQNDHCmgI8ABhjguIAT9tA1SAADnCnghGnoBUjGwADnCvgJwABr4LiAi6ehlyDlCngLcO8BnwIMMMBxAZ8AHBjwxBi474CL7yP5So4eA9bAuQMeAgwwwHEBF99HAhhggAMD9qVYxsAA5wv4CcBmoTVwXMBjgDUwwHEBF67k8LWUneUSYICLdtRp2WMqPQJsDJw94BOAs81YAwMM8AE38Azg3gMufKu+ljLfBgYY4CHAABsDAywaGOAOABcuxQIYYIAzBlxrtYAADDDAYgwMcMUdNQY4LOBrDQwwwHEBLwAGeFTrvUqLGQEMcOGOOgMYYGPguIBPAQZYA8cFfAIwwAADLAADnCPgBUm5Al4aAwN8BDDAGviAAV+TBHCmgP/1z9T8Y36ogIcaGOCogCfpO3MKsOw5hbfo3/R9DFwCsAaWfafwFv2NBtbAhR9NS5IA1sAAC8AaGGCA9wjYGDgA4CnAUQGvNDDAAAMMcGTATwDONCcAA1y8o8Y1bjbKYQM2Bj4AwDck5Qp4rYEBBhhggCMDHgEMMMCHC9gYOCTgcROAjYE1sFTOZ0Wn0aZtwBoYYKmcWn/6dQRwTwCfAnyIgE8BBhjgvAE/dAKfNAHYGBhg6QbwUAMDXLjcR7IFPLgEGGCAu8ywFuBjgPsB+ATgsIAfPI+++yRPz42BAZYggCscaw0MsOwR8DXAAAOcbQoBLwAGGOBsM+8asDEwwNIi4KUGBhhggAEODPgIYIABBlgaz3Rb6lQwBgYYYIA1MMACMMAAA9zwsQEYYNlfxl0DNgYGWFoEvNbAAAMMMMAASweANwADDHC2GXUN2BgYYGkR8FYDAwxwYMATgAEGONecAQwwwHFT/OXsM2Pg3gMeAgywBtbA0gHgBcAaGOBccwIwwAAfMuClMTDAAAOsgQGWxlP8x5FuAAYY4LiAVwCbhQYYYGNgDSyNp/hvq9xqYA0McFzAa4A1MMBxAW8A1sAAZ5t5x4CNgTWwtAm45ONIGlgDS1aAZwADDHCumQIMMMCHDHjRKmBjYIAlMGANDLDUyLjhpxkABliyAnwDMMBNniLSZEYdAzYG1sDSKuBVq4A1MMDSKuA1wAC7hM41xd9qtwEYYIABNgYGWBpP8ZdilVsMrYEBlrwAzwAGGOC4gK8BBhjgTFP8pVjl1lIaAwMseQFeamCAAc40xd+pU+7wAHyAgD8DODLgFcA9B3wCcL6ZFwK+bROwMTDA/2Pv/nXbxrIwgIv0WixYKEXsBaKCj8BHsAaI+wSwXDj9FnbhR6D6aVQ4xWwdL2AG2PQbYOVHEPYJVDhFvMCMCy0geUfiDAYzu04iief+5Tm839c70lD68dxz7qUGcQt45RIwKnALAD+AUXMp7B7FAmAARngBVjqKBcABAp6BUXM5snsUCz0wACM+k9s9yYEKDMAIM8AzAAZgAGaarB7wHIABGICZplcPeOEQMHpgAYBTAOab+if6lTaCUYEBGGEGeA3AAGxryolYDuGBYJVvMQADMOIzewTAI/TAAAzAPEN4IFjlA0IFBmDEZwjPE6oMKQAYgBFugOcAHDTgDIAZZ1IPeOEOMHpgAEZcA165A4wK3ALAt1DUYAqr+0gAHCDgERQxBzwCYAAGYJ7Jre4joQcGYIQd4BkqcMiAcwBmnIwAeAHAAAzAPNMjAF4BMAADMM8QHkdSeB4JPXCAgAdQ1GAojyPR77GowC0EfATAjEN5HIk+hgbgFgIuAJhxKI8j0cfQAAzAiNdQnmagj6HRAwcIGIjYA165AowKLADwxNaIE3GRCUXwAIABGIBZhnIYmjyGBmAARhgCnjkCjB4YgBGzUA5Dk3+UAxW4fYAjxc8U8RvKYWjyhwTAAIwwBEz9JgMwACN+k5IA36IHDhVwDMCsQzoMTZ1ioQIDMMIR8AKAQwW8Z+ergTgK6TA0da8AgNsHOAFg1iGdpaQe5UAPDMCI59AAz5wARgXWGRr6BZwCMO+QDkMTPyYAtgR4KgfwHISaDeksJbEJBuD2Ae4BMO/ktDX0yAVg9MD8AWcAzDu0o1i0JhgVuH09cN0N/gGERABeAnCYFTi3cWdH3IV2lrJaDwA4SMBHAMw7tKNYNBHogdsHuABg3omJgBcOADuswDPRgGdyAE9BSAbgNQAHCXgCwLxDPEtZVWMADhBwVAEw80yIgOf2AfcAWGNvhhfgWwhqOAV1DT2wDhgVWOdm6RWw2XMXiIfk1DX0VBLgBwC2AngPgLknowJeSgI8B2ArgBOL1whxkh4VcP1nxagHlg14wQZwCsDck5IB36ECBwc4A2DuSciAa8dYjAAvRANeyQEMQE0nrqyVYEaAfwZgK4DrRpz4P6s0nqiyVoIZ9cAr0YDXbAAXAMw+E7rgd2Iq8BqArQCeWLhRIm5TWCvBAExzUr/oGTABHFUAzD45HXBNF8wIMAUfANcCjgGYfzIFwOtXQnpgygkhxoBHTADXXmb8qmzzSRUA7z6OxakCT0UDnjIBnAIw/yQqgHcuojkBngGwBcC1qzP8KGXz2VMCXF1t/5f6jADPRQOeMQGcAzD/RGqAH7e2wQeqew4GPXBsYW3HGPCcCeACgAVEDfDWQdZp7YayxQpsYzzKGPCCB2CzpQLiKYWq4E2r6IPz+j/0CXgtGvCu28+lP8AxAEvIUaWa66+KcHR8TjnP5RMwYR+JMeC1wX+5GuCZ2QbFFHyaT6YMuHq8Pvnfnz8fnpW0v/LZAxO+Wo0BJpxeHWhPChUBr8y+GQDMIL1KJ2X5w/CHv5bl+4/kP/Fage9EA77d+qYndgHv/LXRQv99Iv6SVJ7iFfBCNOCZdgFWBbw0+K/CT2KxSCwQsFEbKQDwXLsAqwLeUYIJXwwAZpCoKcA9l4Drv1ucAW9rTf9cWQe8NJhh4Rd1WGTSxgpc3wRzBrzltaPCPuDtJTgHYBkpWgl4yRdwoauqXzkAvNRfruMHOVgkbyXgWn+sAd9pktIAvO2HVgh/CsAskjUE2KAHpqxC7yQDXukWYA3AW35oJdN8l4jvpPIqMAXwSjLgTS/enbgBvHkRHU0AWEj22gm47v+I2hxgyuHVb9cP0WXlCPDGRTTlto7n+YPaR/INeMkVcK715t9UzgBvesKsAGDsI7nrgUmT8yvBgL9ZPxxW7gBveMr7UP21kJbvI9mswKS3vPtncJkDXuo0wLqAq8eBxsC7eoCdkPaRvAOulgOWgGlj/y+64APyKkkPcLX8sgZfkP5oBjsh7SP5B1x9fvK1PB7KAvz0hxMOP1SOAVePTxuOswqABSVpBrBJD0xdNNz/rnb/tPx62ModcLV++8c7PVOYUsy1P9rrP+52+xfEv5jCDovE8iowfdV/fzMcluWGtpI94Kq6OXnZiY5P36tcZX3A1bocvj5+Pjwn3y5uYSekfaRmAG8l2RxghZMz/y0/Ku4RGABWzgh2QtpHsglYr22figOsHp+AB6AT0hjaZg+sB3gGwACMMbTcCjznAThpCWA8jMQlqTjAeu94AcAuP1Ck3WNoAAZgRPAY2mYPLBpw3BLAeJYhrDG0zQqcADAAI37H0ADsY8HjETAeRgprDG0TcAzAzQOeAQ6XJE0A7oUKuNMSwFPACWoMbbMCR6IBTwAYsRsABmDljOCGTQphgDuiARftADyAm6DG0DZ7YL0iBsAA3NKk0ipwIRlw3grAOArNKHsADMCGnyfSYCJpgHPJgLNWAP4ZbMKaYlntgQG4ccA4SRnYFMtqBc4kA05bARgnKTmlD8AArJYZ1DBKIgxwKhlw0grAU6gJa4pltQdOJAPeA2BE3hTLagUWDThuBeAR0IQ1xbIKOJYMOGoF4AHQcEoqC3AkGXCnDYBxEItXYu+Ae+ECnrQAMA5iMZtiTURVYC0DbAAXLQCMcxyhTbHsAi4kAz5qAWCc42CWDIC9Ac5bAPgBZHgl8Q3YqAfWMsAGcNYCwFOQYdYEy6rAmWTAvRYAvgWZwJpgu4BTyYDTFgAeQQyz5ADsC3DSAsADiGGW1DNgsx54TzLgWD5gnONgl1hUBY4lA47kA8bvcfDLRBLgSDLgjnzAOMcRXBNsF7DO7YYP4EI84Ad4Ca0JttsD6xgAYGwDownmUoFzyYBz8YCxixRcE2wZcCYZcCYeMHaRGCaTBDiVDDiVDhi7SByTeAVs2AMnkgEn0gHjaWCOiSRV4Fgy4Fg6YOwisUwhCHAkGXAkHTCeBmaZviDAGiM3PoDdzQs9AcYuEst0BfXAGssFRoAL4YCxixTeRpLtCpxLBpwLB4xdJJ7JBQHuSQbckw0Yu0gBbiTZBpxIBpzIBowhdIAbSbZ74Fgy4Fg2YAyhueZSTgWOJAOOZAOeQQrTpHIAq09yGQF2Ni70AxhDaK6JBQHOJQM+Eg0YQ2i2KbwBNu2B1Z+94AQ4kwwYJ6H5pi+nAieSAaeSAWMIHeIaemEbcCwZcFcy4Ac4CXANPbcNOJIMOJIMeAomAc6hZ7Z7YOV7DSfArsbQXgBjhsU4znYox7YrsPIgiBXgXC5gHKRkHUdnOVYd64BTyYB7cgFjhsU6jpZdd/YBx5IBJ3IBz4CE9RraSXe2HqiWoHrAkWTAUaOA/40ZVnuT+Vl2mVdg1SkWK8COplhEwP/CDKu9cbJFOXYBOJMMOG8S8NTg9oFzWNzjYCt42XEBOJEM2HC/7iczwJmtewTCLw62gqfqY1gC4EgyYMOFzvdGgEddq58l0vIx1mrgpAIrrhV4ATabYi1TM8AGn/EIQoIbY9113ADOBAM261SmhoD1P2Mc4whvjLUeOAKcSAacGV3RxBCw9meMYxwCcum+ANvogRWXocwAJ0ZX1AzwQH8bCy1wcCV4YwG2UoHVlqHMAJuMGgbmgPvaL40EVoLvOs4AZ4IBG1zk/2w9R0oHrHmTxi5wcDtJmwuwHcCJZMD6v34yNgWsf//ALrCMFK4LsJUeWK2T4wZY+9dPlh1DwGv9m/QYNkTE3m9jrQZ6q18a4FwwYO050tgKYK0efI0WWEisHea46rgEnEgGnOkX4G3vXwGw1k0am0ihDaKXHaeAVcoIO8Bd/QJsBnil/fLYRJKSyNIgeuwWsMoohh1gvY2kZccSYI0xFlbQoZXgT1v/fTtDLJU1NDvAeo8Ujne9qBLgLlbQbY6NErzjjt23811RqGL8AHe1C7AZ4IXuR4wVtKQSbGGO9W77P59autlnggHrjArHFgF3sYJuc964m2BZBNyVDLivf0kLC4BVSzBW0LLmWKYleP3KA2D6mROGgGPtAmwEeK65hh8DhagcultA10+fyGf2UsGAlbvQTx2rgNVeH+egpeXC2QK609mzBZi8UOAIWLEEPmlCN0+wH0iAZ3qvfwcRIS2idy6g61ePM/K77HMHPLLRAHy9pskJVy2uv7aXWncPJIBF9FXNv21tx4J6m1moqFP55ZjCAHBfd02TGQCeau01oAAHNYn+ZPi1v6W/SSKCucrLq/R7uUExV1nkrMe1gL+87UWEa0u/g6AAS1xE6x7nWA4Mv/YKXxcigpnKy6vsmGQmxVyhBN/Vz+5GpMX902sbfah07n+IkOzrtcGP9f4SexNPGoKpijqVr2tqdC/4oHdP7FLuFTnhjkKdY70CBpHROpD1xWJPq24qNVy0KjJS+d6OFV4+Nuodu3rXNKIM/vuUO8qFevlHWj7IuqL8wy/MKrgqgrXK7Fjt148vjZoBYpfyjlBdvx7dxxPCzYl0+8MIWm5euPHb6QzLbbk5sT9s+7qEHJY7cqX06vu7/ql3drqUz1uXRj/988cf78vyH39/f/ONshebLq7OIgsFWHDOFP1eNzBs+6AMQNYdcsOS5PXx89fPXz/77tnL76I/vXzp9A0soSAcwddNvMW6KlI/FW8w9V3o2u0I6U2zL484rxET5n7rqshn1i1c7fphfeX4DVwYnGpHJEyyqIJdf9X0lgmfmVeQuvWD84u6f2F0KAdhn33aduXjSXNv8Uxo/a2/Qb71sAi4rARfPoTwCZ9TRqWNVrptgm8EfAF3CfbSlGxfRcNvSzJ8X7d8ftvwR324aZnw+FbE1d26xPHVlERn8Nv2ZfTZznX0zUnz7/BcXPtb14Z6bEpON3281/AbBuF7HoXuoOT4rogtwIaLe+Pz/vPt/e/+BF/6lhE+LDfxLYds3uHBafl7P7kum17Tm94f731f1oPzp724tOuH0L5mp+WX3XB5ze0+PfwtL+Vd22j4/2u7buSu+OunW3789cXvy5shvuttzfPjg+FffjtY+7fh8BnHdzj4pV06KAEABAIg+NEAgoUEC/i4EEbStKYQEWYiLJv+bRux9nzYNZc6enM5AAAAAAAAAAAAAAAAAAAAAAAAAAAAAAAAAAAAAHDLAQ0ePmgUysoyAAAAAElFTkSuQmCC;" vertex="1" parent="1">
                    <mxGeometry x="210" y="600" width="160.01" height="90" as="geometry"/>
                </mxCell>
                <mxCell id="20" value="" style="endArrow=classic;html=1;fontSize=16;entryX=0.5;entryY=1;entryDx=0;entryDy=0;exitX=0.5;exitY=0;exitDx=0;exitDy=0;" edge="1" parent="1" source="17" target="19">
                    <mxGeometry width="50" height="50" relative="1" as="geometry">
                        <mxPoint x="295" y="760" as="sourcePoint"/>
                        <mxPoint x="300.0050000000001" y="690" as="targetPoint"/>
                    </mxGeometry>
                </mxCell>
                <mxCell id="21" value="git push" style="text;html=1;strokeColor=none;fillColor=none;align=center;verticalAlign=middle;whiteSpace=wrap;rounded=0;shadow=0;fontSize=16;" vertex="1" parent="1">
                    <mxGeometry x="300" y="710" width="60" height="30" as="geometry"/>
                </mxCell>
                <mxCell id="23" value="Call API /api/deploy" style="text;html=1;strokeColor=none;fillColor=none;align=center;verticalAlign=middle;whiteSpace=wrap;rounded=0;shadow=0;fontSize=16;" vertex="1" parent="1">
                    <mxGeometry x="717.5" y="600" width="60" height="30" as="geometry"/>
                </mxCell>
                <mxCell id="24" value="git pull (deploy)" style="text;html=1;strokeColor=none;fillColor=none;align=center;verticalAlign=middle;whiteSpace=wrap;rounded=0;shadow=0;fontSize=16;" vertex="1" parent="1">
                    <mxGeometry x="310.01" y="470" width="60" height="30" as="geometry"/>
                </mxCell>
                <mxCell id="25" value="" style="endArrow=classic;html=1;fontSize=16;exitX=0.5;exitY=1;exitDx=0;exitDy=0;" edge="1" parent="1" source="4">
                    <mxGeometry width="50" height="50" relative="1" as="geometry">
                        <mxPoint x="294.75" y="390" as="sourcePoint"/>
                        <mxPoint x="290" y="590" as="targetPoint"/>
                    </mxGeometry>
                </mxCell>
                <mxCell id="26" value="" style="shape=image;verticalLabelPosition=bottom;labelBackgroundColor=#ffffff;verticalAlign=top;aspect=fixed;imageAspect=0;image=data:image/png,iVBORw0KGgoAAAANSUhEUgAAASwAAADhCAIAAAD9Hh/8AAAAGXRFWHRTb2Z0d2FyZQBBZG9iZSBJbWFnZVJlYWR5ccllPAAAAyBpVFh0WE1MOmNvbS5hZG9iZS54bXAAAAAAADw/eHBhY2tldCBiZWdpbj0i77u/IiBpZD0iVzVNME1wQ2VoaUh6cmVTek5UY3prYzlkIj8+IDx4OnhtcG1ldGEgeG1sbnM6eD0iYWRvYmU6bnM6bWV0YS8iIHg6eG1wdGs9IkFkb2JlIFhNUCBDb3JlIDUuMC1jMDYwIDYxLjEzNDc3NywgMjAxMC8wMi8xMi0xNzozMjowMCAgICAgICAgIj4gPHJkZjpSREYgeG1sbnM6cmRmPSJodHRwOi8vd3d3LnczLm9yZy8xOTk5LzAyLzIyLXJkZi1zeW50YXgtbnMjIj4gPHJkZjpEZXNjcmlwdGlvbiByZGY6YWJvdXQ9IiIgeG1sbnM6eG1wPSJodHRwOi8vbnMuYWRvYmUuY29tL3hhcC8xLjAvIiB4bWxuczp4bXBNTT0iaHR0cDovL25zLmFkb2JlLmNvbS94YXAvMS4wL21tLyIgeG1sbnM6c3RSZWY9Imh0dHA6Ly9ucy5hZG9iZS5jb20veGFwLzEuMC9zVHlwZS9SZXNvdXJjZVJlZiMiIHhtcDpDcmVhdG9yVG9vbD0iQWRvYmUgUGhvdG9zaG9wIENTNSBXaW5kb3dzIiB4bXBNTTpJbnN0YW5jZUlEPSJ4bXAuaWlkOjZBNkM5M0VCNTQ2QzExRTlBN0Q4QTlGM0FCNEFCRTIyIiB4bXBNTTpEb2N1bWVudElEPSJ4bXAuZGlkOjZBNkM5M0VDNTQ2QzExRTlBN0Q4QTlGM0FCNEFCRTIyIj4gPHhtcE1NOkRlcml2ZWRGcm9tIHN0UmVmOmluc3RhbmNlSUQ9InhtcC5paWQ6NkE2QzkzRTk1NDZDMTFFOUE3RDhBOUYzQUI0QUJFMjIiIHN0UmVmOmRvY3VtZW50SUQ9InhtcC5kaWQ6NkE2QzkzRUE1NDZDMTFFOUE3RDhBOUYzQUI0QUJFMjIiLz4gPC9yZGY6RGVzY3JpcHRpb24+IDwvcmRmOlJERj4gPC94OnhtcG1ldGE+IDw/eHBhY2tldCBlbmQ9InIiPz7he0fPAABBEUlEQVR42uxdB2Bc1ZW9b5pGo957s2TJcq9ywzY2tgHb2PSSQAi7JNmEkLAkIZWF1N1NNiEJIY3dQEjoYMAFjG1ccC9yUbfVex9pNL2+vff/0ajL6hj8Tn6MpPnz58/777x77n333cc45yAgIPDJQSGaQEBAkFBAQJBQQEBAkFBAQJBQQEBAkFBAQJBQQEBAkFBAQJBQQEBAkFBAQJBQQEBAkFBAQJBQQEBAkFBAQJBQQEBAkFBAQJBQQEBAkFBAQJBQQEBAkFBAQJBQQEBAkFBAQJBQQEBAkFBA4DMHlWiC4eHygMMFDg9wDmolaKRDQECQcBLh9kCnjY4OC7RboBUPIzSbuYdDhI5FBwAdgRDqLx1aYqaAgCDhxKDVDE1GKGyGk7VwogaKmoCjXleAkoGCMYb85IBUxH/RKmZE8OUpbFkSLIgnTsYFifYTGCOY2IsCYXJAWTs8f4q/UwQmO9OowE95BROHMtXuArsbtCq+MZN9dSnMjIYwf9GWAoKEoxefpe3wXiH86RQ3OZhOjUavzwlc+r+vjdAg9n2dbKPNBUrgDyxiX1gIGeGgVYt+JSBIODLoLfDhZfjNEV7ewQI0JDt7kxNtHRJMpQC1AlRK4h7+xYl/d2Oz0d+Vih5C4plmJ0Tr4Osr4NaZkBAiupaAIOGV0GiEPxyH588Q9/xUPXbP6SZGRQaQmxcdAEFaHqxhgRpindHOjQ7WZedtZtbQBS1mOl+jIPMowylp1E1Z8JMNkBomepeAIOHQqDPATw/AjiJy/Hz6E+mHbTEtHKaF8evS2A0ZkB4++NtbjLC3DA5V8LJ2hs4kktY3b+GRrrMsCX61CTIiRAcTECQclEJm+N77sKeUjJvMQGSRww2JwTA3Dh5aBKvSRnqpi41kS3ProLqDJKt8NTKnLpgfD3+8VdhDAUHCAbA54emP+CvnGWdeJxA1JJJnaSK/fwG7ddZYrnmgHF7M5ceqmNXlNYlcmslYlcb/sJVF6EQ3ExAk7IUXzsLPDpLnppIy9vCHUB1syOC/uJEcvzEDG/En++HdImjsAn81/YrWFbn94EL44TqRZCMgSNiN/eXw6Lu8y87kOUCUoNGB8G9L6ZgQvJ0Pvz0Gl9vBX4r0uDwUWf3JBv7AQia6moAgIdR0wt2vQk2H1y4RQ5Tw3zfB3XMn8lOOVcNX3qHJD/lTUOuGavmLd7IlSaKzCQyOa2gVxTNHobmLTJMMlItfyRmcgY1GOFULe0vhZA39PCqsTIEfXE8M9EiDm5qB0c7+5yhxXkBgUFwruaPl7XC8mrLMNNK0u9EO22bxx1cNohKPVsM/z8PRSl5rgIRgtjoNNs+AFSkw8vjK5+ZDcQv/00kW6EfT+h4PlLTAkUpYmy76m8A1LEe//T68U0jmSM7D1ijgw38dZB7vQBk8/j6v7WRaFUVu8HwKeCrg8wvgjlmwPKVnXn54tJjg5hd4k4mR4eXAGaxOhRfvoiQbAYFrUY6ipERXzeLwZpkZbfClHEgakFlmdsBju6HVxIL8yF1EvuG/wX6gUcHfzpKn96dTcLl1RJ8Y5g//fh2zOeWBjshc0AwXGkR/E7hWSbizmIgnz0kgH1JD+efn96Sq+XC6jtbvqrqbxO6i8Cm1EYMQLeit8L098N0POFrUVvMVPhHZuzkb5sVT9gyJfvQMHbC9SPQ3gWuVhLm15ATK6Sxo7r68lMUOtvzvfANNssvmEn+YFUt52CYHJXPLvAr3R4+RffVd+NkB8vE8wwr5YA18cwV9nGwMrQ7IbwKxbkzgWiRhlx3K9BSS8blzq6cNvlYQraWPI+g33jkbnryBlkTgyRanlz8BGgrt/OM8/Nu7/HfHeFHzkJ+L7t/SJOQtLcmXP1lvgapO0eUErj0S5jWSOfJp0azIIeOc/aIm+NvWGfDcNvjWKr48iRYNokCV1Sk6ip1W9uP97IkP4PU8aDYNfkF0JpelMFmR4sVNdjhVK0yhwLVHwjoD2Nzen9HHW5wI2pHNy6AFQ9Ki6/jIcvbLTfClHJ4aRtbSp05D/MmN/MZO/tMDNK84EPjeBfE0Xy8Db6POIFJnBK49EuqtRAO57yN/EkL4GEozZUXBzzayH2+Au+ZS5Qs0rVwSmTo1/spevQDfeR+OVA2whAqKwbq7SYiURkUqIHDNkbDNwlEQepcsAVVMU4/1S2+cDr/bCk9cz1em0vyhrVudBvlBWRv8YA8YbH3ORw0crvP6mQppnWGbWchRgWuPhO0m5nT1KMyowJ5JiDEAzeCXc9ivboavLYMZUT1/R+uKnuGp6j4nMwZROsqYkX6huhholgUErj05apPkqDzx4KFioeNPW5keCU+vh++u4T0ZodL1zzf1PxP9Rt7LybQ4hU8ocO2RUK3gvXPN3O6JmasraeVn6/s2JaMJjH5w9Z1MFBQUGIjPfgJ3lD85gS5p+TwebWbvMr8xAx2/9wop/WV/KYsK8Bo6ZLZKCWsG1MXosPYQj7xHjehyAtceCUMDQK0Cl8NLg04bc7vHTsL9pXxHMXu7AOxuFtnNQLn0qM7NZ0T3MXXoDbZbmK/wDN4GvkVA4NojoT9XK5gcEEFvsKGLZgvHUJ+3oBkNIJXoLmuncGhgdy0Zq5RuOisGvrCgP7fRF20wdLug0n4yYTouNKnANUfChCAKacpJoUiSs3Xc5mLBI3uvXAmq3czfK2LvFMOxSvBTs1Ct91Uks93NV6WyW7JgZiwsT+7PLuTnuQZvMJYqlCohXmxZIXANkjAniRbXNhpBKU0knKtnbRYqLTMQ/QI2aC0Zg10lsKuY1mEg5YK0zDfpb3ZAajjcPQe2ZsPMmME/2uqAgxVco2KyNMXbWBgvzKDAtUfC2CA0hlSlF6SJO7MTCpogM/IKs4V4dlEzf2o/vFvIag1UJD9A6SWqxQE6Ddy/gBYr3Th9SFKh7a3uAHxvlDRf7wEI8ePz4gQJBa49EiIWJcC5RrDYaZ8zpNPbhXxTllR7oi8Sg6XEGkm44pkfXKa8U381pWvLoBWGLr4ug902GzZn0SLDYWB3w45LXKdmXLqkVgXZ0WKvGIFrlYQrU9lr+ZR7rZBSXg5XECevS+m/AdPyFJq9oKRQaeulDivz0Qz1Z5edNj+7ey6VnEFDekXUdfE3873J4qhFQ3WwKk2YQYFBcE0s6p0bB3GBXo8PCebh7PfHwOrsf1pGBCxLppCmfKqsVz2cliDhu76UA7+8mYpWjISBSOY/n4Q2E1N2l9kP0fI1aaK/CVyrllCnhvvm0dSC0U4TBvjr4XKKtdw7r29bKODJdWBz849KmTyv4HLTFPz66fy2mQw9wJGX6D5aBa+eZ8Fabylu9CE3ZUGUmCQUGDQAcY1UW0O7d//rtPzPu/+Em+bNX7ob5sX1P7Oohb+dzwqkJfMJwbSvy8oUnh4xCiVZb+APvIHXYdruOtxZkfDqfYOHZAUErqEK3B9egm/uJs9QLZUeNdjRLeT/dycbaKCQotVSHYooHWVgjwp2NzzyLn+7AEL9GW0L46HQzhNr4OElorMJXMM+oYyNmXBzJldKtbFx4AnRwpEq9tP9fKBziCxF/xCPkFHvQc//+zC8V8RCtMRALn3Q/Dh+z1zR0wQECaWQzOPXsfmx4KUHB/TZ3ipgj+2C5olYa2t1wXc/YH87Q6ZPhptDUgj/0Q1UyFRAQJCQkBRKG1nHBHp3hkBRqlICSsdv7IDStnFducUMj+3kL50j/SnPfOBHBPnxn29kc2NFNxMQPmFf7Cjmj++i9bWa7iQYkx1WJMPtc/i9c5n/KOfTubQj2psFVEIf36voDvwgfrxBuIICgoRDAGnzo33Qae2pw21yUPRycTzcPIPm8dFmXtn6meBEDewu4WfrWHUn+DSng7ad4T9cxx5cKLYHFRAkHBoHK+D7H/DqTqZReRcX0fYvDkgMhYxwSAnls+JYdhTNDQZIh1JBSdt4dNmhXM/zGqG6g1XoAQ+tqqeasMNFFTR+cRMlditEhoyAIOHwOFMHT+3nJ2tIgvqWAqKSdHrItUPDGBtIphIPNGjIKHl3CpuL9qJoNBJ1kXs+W4dvsTggMwr+8ya4fproWgKChCNDYQtsL4CXcqHdSkavt+1CwyinknLw1sCXc0rxX7SKKkXP4lyq4OQArZrfMw8+N48tShD9SkCQcDRAhXmuHrYX8lcvUrQGtSUeI1GS2HJoG60utId86wx273xYmACROtGpBAQJx4Q2M+0feLqOn6hh+K/VQbFTXV/biE0lK1U3J12qUnBk3fIktiyZ0t8SQ0QrCggSjhsWJ60hbDBQWYq8JjhZQ7UwfK8qgIfrWISOKgjPjIZFiVTlPjGYJv0FBAQJJxh2Kfry0Fu8rI35GmhePDx9A/iryEIiFQMmon5haRtcbgOzk3dZmcODV+bBGhbqT5WjYqY24bvTyvOamN5Ka03wUKvoToI0kBLGZ8WIOO8kQiWaYFD4qUhe0pp61lN8Bum4IH5irt9sgtcuwsVGXmdgBqoRzhwuUrlqJclg/PQwf5opWZFMRTQCJrNaqcsDH1zihyugXM9Qk9ukCDAeSgXTKKQNw7UsPojjAHTLDDY9UnQNYQmnFg+8QSsDfS0UpIb8x8d7TbzaX8/A9gJe1cHk0sC0eliOu4I3EsslbqgYLUFEk/jAQrg5a1K+4JEqeCEX8hpoxgXdXTnkKweB5aoc+H8cGjzS9gE4Km2ZAV9fITIQhCWcQgT7cQY9ctTkREeRz40duzYraeNP7WX5zdBqojCsbugUOezonLaUoqSC4lYaCx5dDrHBE/bVLA545ijfVcJqOqXCxAoYasc4+R6tLqq8Wt8Fx6r4t9ew5cmidwgSTk3r9KMbI9Mx5oRslHxP7oOSViKYT2HSPIck/9DaeKRKp3hopPQAORkA0WSEv5+Dqg743vV8TuwEuGe1BvjPg7C7hFGGnapnwtNJlVS94V80zwoFkdNPmrDBu8IhA6l7pJrV74RvrYa75ogOIkg4+eADlOT2Anhk2Viu81Y+/PwAqj7ms34oOI124vmiRKqCE+5P2QIdNqLcuXrIb6JKbchVFIdIAzwZTWK7mf1oHVw3vlo1Z+rhfz6G41V0V3LqLJfCwiY7z4yEJYkQH8wi/Mk5bLPykhY4UU0ua5AfiVUqDqKAqk742QFoMpFxFhAknGpU6tlL5+ALC0f3rqOV8OSHRDB5iQZ2erOd6vP/62K2IRPiAsnj8lNSL0fThMKvwwKl7bTjxc5irmBUnRFf8nC40Ag/P8R/Po4iwtUd8MwRssloadG4IcOtTrA5yee8ay7LiqSoL94kvkpzoS7WZacY0qEKeOEsTaXKgwIK6VYzPHuM4rd3C3soAjOTim/sIK+p7+5mEBMA+7/Eg/xGSoPLbXD/q7y6i+lURD85zrFhOjy+iqeEsmGKlzYa4WIj/O4YHKmkmUl8UPLOM1tnwo/XU/2b0cLhgu/vgdfyJHmpIDoh22fH8m+vYosTh0s2MDtw9IEXc+GVizQceJdreQAN5j/uGaROj8CooHz66adFKwyFDy4hhVi/UcrkgNpOtmnGiK5gssO3dkNug1eFeqSipttm8Z9sYBkR3kpQQwEVYEYEKdW6TgoIBfhREX4kwKVWCNVSldTR4i+nyaBR3FXpZeCSJPjFjQxHhOHzDdAw0jqvRBpBzkm7MjLJS+xyoHHmd89hKhEvHQcUoglGLR4Y7CmFXx6+8pluDxyt4vvKaHJfZiBiXRo8dQOLG/HOMHNj4Wcb4cbppAbl3HFk0btF/Ezd6CRMaRvsLgGjw1vnCvXwzBj+1HpYMWIyh+vgsZVw33waCGT9hBI6v4m9kQ9CTgkSTlWcpruroRL7ey78+fQVup7BBr/+mKyErFxRhc6QFjpFj7IAaXYMfG05y4z01qRCShe2sN3F/XXy8Hg9j+c3eiuC4+iAP3zverZilDMNKJ6/uwbmx4Jv82M0kr87xtF1FBAknJLG6lam2APRpPzxBPuPvUPyAO3V6Vqqt++n9P4aGQDfWc3jRubLNZmoc39w2fvrqjR4aDGzu+SdMsgWHa4ahTFEM3iyhtnc9EbkT4sZHl0BN2WOdNnxqxdRynK7mz4uQge/3Az+Ki4PAXiFBiN7pxDcwhgKEk4B7psHFifvJiRVx3j1Invwjf6b18tAq3WggisUXhOqUsDSJFibPqJen9cID7zG/3CCPfE+/PkUlw3OzZm0Vtgs2RytGgqbadnHCHGqhqYZNdLN2FywJJGjTzvCxJfHdvH/OgTPHGX/8ibtaYXIjISts2h6w7dfwM5i7hEkFCScAsxPYN9axbqs3s5Ha+3dcKiCfWMHPPE+b7f0OdnsgA8vM63S6w2iAblzzhX2Y5OR3wyP7uD5zczmpDnD7QUsVyJ5ahhszJTMkTSTbnex4hZmGpkOvNBIFXHk8EmXDW6bPaIdNRDf3Ml3FDG9hci/r4ztKqJJFMRXcqQyWVJDKBnk1rMOi+gggoSTDzVD34ycOoujR4yhOqzphO2F7K6X4Tvvk4C0uug1q4sm5ZTdu8qEamH1CCbZi1uIgZfbGNoZef1+hxX5QxfEX7OjWXoELbYAKZmm1kB5bVcEilgksywX8U4CNDA/bsgktd741vuwq5ihA6mUpuldbvpE+YunhUNyCPd5hsjMvEZhDMcIMVk/msAMQJAGvrAY4kLYN3f0ZDzjv043zQfWdLKPyiHEjwVpucfD5A1kuHRCUnBPZTeQ6pS+eoEmIe6e27PPzOVW+Pp7/FJrT+0pZPLMGO7bUy0+iE+PgDoDWSG0sZV6/uI5yI5icoXFQYHkaTRCRYf30/HM6ZF9tqahbJ48qDHwO2YzNLY+fO8DeK+QvqOie2MprYq2tZFdXEZ7XbFSPV1Q9lGrDUxwUJBwiuCvoh1Co++Df3uHLEOAxhvtUDHqka0maDbir7Qpmnf2jJP3ldBrKrzGAF94HRq7qC8fKIef3wgpoVDejtqPtpGRGSjvlrEskf/HOuZjaagfyVq3ZAnx4h029vpFKdV76O6PN0ZV5JxeDxDfGxfUZ23U9z7gO4qRP+zv5/ivbmY3ZtIfn9wLbxeSffMxELXxn26DrOieuCjeM35HZ3ekCr8Ol6NGAoKEUwA0L8uS4e37KWz4tzNUBFHXTUXKwB5gP9UqNJ7eX00OeOMiXGyAIC312oMV1OPvnMVfzGV5Td68bTzwmovi+TO3oP7suVSIP4sM8JJQjvdQFcaReB3d3EClHBMIAd35qx9e4gfLWaeV1KnBwx7bxX+/lX1UCu8UkYjtzcDfbYVbsr17WsnAYcV3WfzitZ2iXwgSTjmQHo9dR8mTr+fDi2fJPdNI+Z9yYhfr1V/lRXo+Q4pqEHVmKAN5odSxKnSoaGmvSuFdy9flgIXxxIfs6L58ZtIUBRuEXaNR1dx3iXAdkz8Ur4M602hn332fZl8cvRhodsIfboE7Zg2Ipvb9aCbCC4KEnwhQKGZGwePXwYMLadXf+QYycWVt5PKhxUOXjzq8NEnYaemxoitTYXkyLc+TiyyiddJbvbyVZyDnxPLfbunPQHIRHRSl9JHQV3jqimZQrfSSCv9FpqGVkzE/HnKSSB4j2fAlJCQOJT1DBseT+bPb2O2zacVTP3SYe2Qw/oAji5CigoSfGOQS3YkhsCqVZuGcUoHgD4rhR/uJZtih8dey9p7z08Lhv26Gr77L6w3enFK50xMD7TArGn67mc0cbNWi3kKT+PI8h5tTlGhJAl3NMXRgBunXaOCn6pjeRmISHdfqLm50MN+rP96AziffW8pkivaYVg4ddo53cufsPiElH8o7uNvjYys6q7yPjRYQJJx6KKRlr77lgtdNA7vTG/mUg/tof+TejGRYkgi/u4V9bQdv6fJuQcOklfszouHXW/i8uMG7c02ntCZYIiFebU4Mf2QFzIoZLiyJ1+mwsH/fBYcqaaTQqCG/EVqNAN1mNkQLz2xhj77LD1YwpuixgZ02/j+baUfxobLMj9M6wx5LmB4uKDjWniOaYJIQoaNMUVkrIj+77ChWeW/GrkiBZ7fQPsEOKcqPrldWONpAvjCBDdWdqzugvM2rDJGEmZFsQTwt/A0c+iATHYoHl7dGxeftdDFksquXiA3VwrO3stWp0vap0mkdVv7LTfD5+UPuUUVTlGbWKyrLlyaLvTcECa8yoEnEfinP4CkU0G6Gt/P7dFK0hyhf0dpgD241w4xI/sxWvjCRDdWVGwxUXEOt8loe9C1Tw0c0546YFUNrkTwS8fw1sLOE1xn6nIA8fO5WNK00L9Jlg19uYvcvYMOUwHntIsWWoDt4szBBqkwnIOToVQXslLfNhpfOc62aDBuau+M1cKKWL0/qIRkS6YYM2P0QazHCAiqhz4YxJqgndxbzQA2dYXMTYXKSRnoz69LZu4Vwuo6KU6BxO17D9pbCvyzuk0YXpoM/3wGFTZAWBmkR3kn5QdFiomodKLZli41i+/ZZTC2WFApLeLUBO+jsGFgzjclRE+QbSrjfHukfzFQrKIls/XSIDhiOgcif3x2nWqDyOTYnrJ7GcxJHmqOSGgZLkrif0hutDVDDrz6mTan6ITkENk4nv9RvWEZ9ezflJMgMxAtGBsCts/pMIQoIEl4tQH/v33LIG2TdQZKzdeyJDwaJnQzfg9EV/M1RXtnujetYnbTSd+N0phqxE4Yn3jMXsqMlDSml0ZnsVPqtXN//TOWVesRP9sOpWvCFY+1u+PpyoUUFCa/axmWUWHPvHAp7ym3t4vBeEXz9veEmFfohvxke2QFHKrwxEnmmfUs2jLbyZ2Yk25rNw7TekAzyuaQFHnyd5zaM4iLfeR9eySMxLLPfzcnbvHvelakrIEj4iSFcB0+sgfggb9eXJ+53lcBtL/ETNVd++5v5/KE3+cVGb1UYoHQ2vm0mf2T5iFZF9RsRvryUdK/H451kR+bUGNiDb8BfT4PzSoNCSQu/+2VAxxKVsHcWg9NkyR+2UlBHQJDwKvYMgVYt/GoT2Fw9de3wv4XN7Mvb4ZH3eGHTIO/ycNhfBp9/Db0v1mamXHC536OGXJrEvrq0J6V7VNAo2ZNrKZIpl8lg3gQa+MUBuOsVeKeQQiwDUd6GwpXf9xpDH9LZy6E1O+C3t0Cm2J1i/J1ElDwcBv1KHv5mM9w+eyzXsbng1fPwxIdcp+ozBygX244J4NOjmKd7RtHipFXwLSYSe25PTxYK/j09nP9sIy3PH8+M3Pl6eHw3FLWAbw4Qu4BcbDtAw7OjaWZC7hRobMvaeZOJ0txcfeNJyMDvr4WvLgV/tegm44WYopgKaFVw/0KIDGKP7aBIhk9JIs2Icp2sxtDfEvK+ad8mByxLgv+6ic2MGe+c+Lx4eOkueHQXP1XLvIs2mLcav93KTtb0uxPWb30SbVbj4n++jW2eAVrRfYQc/RRBraRViC/fy6N04Mufhu7+7eF9DujV7z3S5i2bMvlfb6coyPizUvAKSWHwz3sY3g/qT5+dl5dQDXMnIDm0WiW8/Dm2daZgoCDhp7GtGXl07z8EX8qhX9G/ki3eoODdC/liAuDXm+Gvd7D44IlMkEav8k+3wrPbqEqF0z3cnch6VdLG/N65sO9hWJ1K2lVAyNFPpwvOIC4YnroBvpIDey7DuXp+pg7qu5hS0cv0cYqFpoVDTiJflQorU1mI36SkZaJxvnUm3DidHauhNY2na6m+hm81vTwQIPdwFFiQQOW38czkEBDFtgUJPwtAyiWEwEOL4YuLKQfaYKPaFmXtvNMGiUEsLQJSwij1VCEFcSZ1bQLyLUADG9JhfTqZO5uL0nrK9RQZCvWj/LWMKAjTUtiGgcjPFiT8LKpT2eWK0NF04pJE75rCqe/q8mJikAg5Iwqyoro3hWNina4g4bUjU+EqKpF0Vd3MNTEciyYQEBAkFBAQJBS4CsDBu6r9arkZ8UiET3hVDFF9x6iJ3Xioe/KNYpJ6KxVxsrsgUMvDtbR9L5XBZ96w5FSwjveMAu0Wuhm8gbggaTND5s2qEX6iIOEngAhdnwkCvWViSkx7OKVQ5zfD+yX8QBkrbZcS2aRezjmlqmLXnx0Dm2bwDRksLXyk2yeNDTgKmBxQb4C6LqqiXWugNHG8FY/UOaIDqURNQhDVkosOomUTopyTIOGUIiZAIl23AWyzTEAHdLjhbB385ACcqQGdhlKxB82Bpp3PGtl/HoLNmZQqnRQ66rVLI7F+Zgct1zhbT0ZYThhgzGv/5U9rNlORxbNSDYuEEBwXYFoYiEoWgoRTaAn7FrRtMY3XADYa4TdH4J/nuUbJgoZdhodkkA3gjhI4VgNfW84fWsx0E/e40ABWdMC7BVSnGEk1FK982QIaFZ35/ElYmwFrp1G1KGERBQmnxBIG8t6uUEETR7k4Nj3m8sDJGqrOUtmBpo/1DoGAtFieeeUo6UDoVUdXq6Ilfz/ex05W859sZMmh463mwqW9mT6ugCPV5I72o59v60XevZKjNyE1ajhUAdWdtC9FfJBYUD8xEOsJhwP2/iV/oJ7q64UHvkzJXKMFrSfMgx/soQLYvo7LpcrzaGHQ4gX58bggFuQHrWbeakInjTk9RJXeNEBXLSuKtnBalTYuHtZ30Z5nVR2gVPbhmELazUYuwo3KU2+hZVbyWgo0m7yvSccvcWMWrEgW0lSQcPJxxz/4uQbmsw+Pr+JfXz46BmCX3V0CD77Bg/y8VlQuwosmLj2CdgW8KRP6bWRf0gJv5sPeUt5gZO6+i9lnRtMupctTxqgGkVcvnKXsUN9CJJnnIX60vw2a2fhgisH4xqA6AzR08bJ2hkK6X10cqxP+dTGtrhKhGkHCycWfTsGvDvcsusM+evDLV6gI2C/4cbYe7noZ5P1uvZ2e09afj69i6zOGC7c6PPDiGf78GfQkvcssaNNCG6zPgN9s6aHKqIaD/WVUQdjZvVRCfvhZkfyWbBYRMNx7j1bRG3sqx0lXi5TKyQWKUmvjg/Lpp58WrTAMgjXwRl7PDCEah1AtlWkZIVot8MMPeXk7k2vXywxcncZfuFPedGk4I4LicFEimx3LTtXQptly0BL5X9TKUcFelzrqIheX2mg7RJS1vuFApYC16bBtFgu4UtEaNJIp4dDURdaYd4eOjDaweyAjQjiH44JovCsgKxoWJfHevf25E9BpG9F7kbonq2HPZW89eXk2fEUq/8vtVwiN9gb6Xc9uo+WF3vX4DPxUbF8ZQ9M0KuDbD5ZDi7F7UycP7ZT4wAKyqyP0MJOD4ZHlkB3Voz9VSjhSSRtOCTUlSDi5+MH1zK/XVB4apf/Y16dExVBoNsIvD/NgrbePIidnRMFPb2SjLY60KIGmClH1ycXOkDz5jXxnEXeOuHgpSkckbWOXt3wwl6K1q9JgWsSoW+PGTCr162MdXvDDUto4UUCQcBIxOwZuyuyTTPlOAfzj/BWy2NDoFbXShLu6ezvBSB1V/kwPG8s9bM6Cbyz3SkE8dBp2qp6dqB3p29stVF7N7PIaMQdtqwYL48eSAIB+4NppPV4xSuJ6A+2O6hHWUJBwUvGd1ZJB6+5n6AI9vR8OVw5XSBu9x11FENAdtMDOPzeW3zl77PewYTpt8SuXDEWf8HIr5DeN9L0NXZSbJstOFKIBarh+Gu1MODbkJPHU0B53FlujqgNEgE+QcHKREMx+sBa06h5ziD3vX97kb+aTdRoUXXY4UO7d0BO1X0wgPLxkXLH87Gi4NZu7PNwj2R/Uw8Ut3OIcUd9HS4j3KQdy7G7ISYbY4PHcC7shg4Ro9/p7aDQJt1CQcPJx7zz43HzSb76exzn79m749VGpUG/f2rh4TlUnJcd445CcClisThvFxw1qWGbHklfplNxRHBGKm1l+ExshCS3dJPRINzPOgoUoSn1LTFDitppI4gqMDSJtbRR46gaKbewr886zMSnf5Y/H4VA5fGsV7YAd6u9N+ETTV9Li/ZlLdc2SQvtHSjqt0GamrhwbBL3L2uN78e96C0ViogP7sCUukKWFwaVW70KnVjNvNoFvnoNKCTv6l8qW/95p83KGpiUYROnG2xT+apq8sfRSAfVdkBEpEkoFCScfz22Df98Ne0vBbPcuO0CLhKx48E2aS7hrDl+WzJCK2NmRRcru/d/91DAttI+dRPL84xxZS9Sr8+LIxspxSyQnsvflC6RmsaPfkE6uoC98EurPowKQVEy2P3YX8wVpkWl4Gx+VQ5upT4EmeQsafFUeEdBiRwdMTN3e+GBK6fYWCGZEwvQIkT0jSDj5QOL9/hb45cfwz/O0A7ZKWl8nr0I4Ww9HqmgCfV06z4hg+S1crWLQPSceoutj64pbKA2aNirjtJAvvxkWSwkAJgecb6TkslAtZZyWtMKcOEjs9t+0Ghbg51WqCkpJ5dJ+g/QpKInRRFe0D7IwqnfdRGRjRADoNBPQFDHBoGjqCYoiIQUECacOT6yG9HBalNRk6lmJh6YGD04ZXuxQBW2BJP8KA7cB7d6ZjOpe874Sjns547MwvSMeCuk6Pe5iL7ujt5JxRnM6fBoNl0zihFQQ1Sp7Pp9B/yRvARGYmXTcMRveeoDfMgMSgqkLopfo9ngZhUwI0JBt9HVKp0dele8FvoSuXbhUwwIP9AlTusUq+oFI7wA1eZs6NdnAmMCeDzU7wGDtjq8ABGl6tsiN9CedifdA4nPA4eMt2uZmYx9fbsyoM/SYQfxvdJBwCIUlnHLEBbLf3gIXG+D3J/jlNma0Q5eNNKSvKIvSW86XKNrU1aeLpoTBFxdT4W1UqlnRtLG2d1CkfFFaMttipDDPjKg+a4VMdkrgliOuHg8xNqibhDFBsGYaiVu8DWXfVYBy2rddujF8byvaTOcEfP0GQ09MGP+bKEgoSPhJYV48/N8drKGLtnPAo6iVPDqHm/Zy6bBKSpXR1FxpO3d5mC/EgmRLDaNjIFAuzo9Dig/yUr2Rl+mRlkz27oL9uLRLrrfzT4+kA60l6+sRKhl/M5+hq+knCUiLHTptnI8vhuL28DZrz65p+LXQnouojCDhJ4n4YLhrLh2I4lYKk1xqhf8+zF1uJhvGdis7Vw85SWP/CMqDa2IFTRDiL0V33JAUwgYuaBpsPQSLC6K0NZl5aFqbjMzh8sZjx4aazj6EQ6MdqBG9QPiEVw2yo2BNGnxxEc3O26W8NjRdbWZ45eK4IhcNRpqBUDBv6SkuJbX29hiHQXgAkcTTbWkvtSAPxx5HQRV6voE0tm/z+vhAEZURJLwqsT6Dycml0pweHKlk2HfHBpeHtlLbU8rlFbR4tfQImBM70rfHBlKwR3bh1Aqo7YKj1SSbx4aiFn62vid/He8NdbXYs0mQ8KoDGpx16ZAW5l1whF0fNepPD3C9ZSxXu9AIL5/n6GAqupdBrEiBxSMWtyhHU8K80xtckqw4HKBgHkPWtckBB8p79ozxoGuqhVmxwiEUJLwqEaGDx1Yyed2D3GcvNrJnjlE/HhVQOv7pJJysBZ8ZTAjhN2fKUZmRYvU0Sitzd++AjQeK23L96O4Ev8veyzSa+MiLg8KWGfRNBQfHDFHeYjIbVwHJIXCsmnJi1NIUuUNKgsEOOy1ipJGMyg7474NU9ylMx2TL4/DA5+axLy5io1oN6K8m44xXs7noTvC97RZKcwnxp8nGkVyqzQIfV1HhRl9aHBr52bG0zFdAkPDqhVZNdQrRnUMbgpzEA73EY1XQYOTTwhkakGFcKZOdSoM+vQ/eLuRhOm/yDFJoaRL/xkpaXTXam4kJpPhQg9HrpiInkYclLcSlUH8YpswMTbG0wc5itOTg29kbhwP0M++ZB4FqsZ+hIOFVDCbNXoT5c/Sj5IJrcmHPvCZ2sIwoin9RSYec6eLxEEvR5lxuhb+fh6f289I2Fhng7eNWBySF8qfWwfLkMfb6qADKHW81S+SX7CEK1IJmyoNFjjvdzC6l/uDfUfQa7ZSGjuefa6BSpfizRuWlm/xdts2EzEjBwHF3ElHycAqAvPr5Acr5NjupQozc4ihNLS5KUluXTtFFOXSJBgrtUnELHKzgjUYW7u9dwYhPCekRG8SfXAt3zBlXr0ebtr+M1sLLglkeKexSdkGQH1nLyACeEMqMVqIfHugBKhR0277QC34dVLCLEqnohoAg4acJvz5ChXebjCT8fFWAkXKoVNEMdi97koSigoykunsBsUvKCJ0eAd+7HjbPmIA7aTbD/lKaLbS5e+SlrDDdHu+GbQopx03J+pQzlAtyRwdQkailSeKRChJ+CvFmPn/uOCvTE6n8lFcO62OPR1mIpMUe/+gKWJHCJ0r84Q0cr4Lcemgyk5lVsuFuRjbF+Ba8E9l0j6H0sIAg4dWCcj3//TE4XsPqO0kEqpU9O0DIK5h82z/godNQad0tM/i/LoEQ7cT7XlUd/HAlqzNQxqmcV+C9k27iyTeDxlCrIgm6OAGuTxfPUJDwM4G9pbCvlNcZWLuFak8Y7XSgl4isC5LWRoTrIMIf0sL5nXPY7JhJvBN0BS+10bokvZXuAbUxEtImLZLUqcn06VQ0jRGpIz2cGCoenSDhZw4FTby8gzUaORpG5EB0AIsPIbGHPT4lbKpvBm+gxQytRtDbKL0biRcTSHVuREqaIKGAwGcZIm1NQECQUEBAkFBAQECQUEBAkFBAQECQUEBAkFBAQECQUEBAkFBAQECQUEBAkFBAQECQUEBAkFBAQECQUEBAkFBAQECQUEBAkFBAQECQUEBAkFBAQECQUEBAkFBAQECQUEBAkFBAQECQUEBAkFBAQODaJmFbe3ttfYPH4xFP7jMAs9lcVV3rcrmv8XZQfYru9fDRE3s/Omy3O9atWYmHVqsV/fhTCs55dU3dS6+8ZbFa0lJTHvr83Ro/jSDhVMPt9hi6DNzDQ4KDVeor34bFaj128syZcxeVCoVKpZwzKzspMf5T1NAOp/Pc+bzcC/mJ8XHbttx4jZPQ6XIdP3X2xJlcP42moanlhutXZkxLEyScOhw7cfrs+Xyb3YbgHNRqdXxszKoVORnpwz0GlRLZp3S73Q6HIzAgQOfvP1H3c/DjY8WXyvCK99y5Tevn1+9Vl8v1/IsvowDOWbRgyaL5Y+92TufFgqI339m1cP7sKSMh6r29B4+UlVcmx8evX7c6IiLsKul2DECj0TgdTsaY2+MOD72mt1ybUhK2tet3frDv6PHTdQ2N2Cm9XqlSGRocfCGvYPNN6zfesGao9+Izu+XmDVGRYdwDK5ctCQu78laxb27feamsImfR/FUrl/oPrV0Liy7tP3Q0NDTk9m2bBpLQ4/LsO/ixy+kODwsdDwmx26lVKqS634CPmDxUVNZ8uO9QeWWVv582NS1pkkj4x+dftNps1y3LyVm8gLER7aKmUqlWr1xqsVjsDkfW9PTw8DBBwqmAyWze9f7enXv2Wy3WaanJK5YuDg4K9HBeVHL53IX8y+VV+lff0mjU169aMdQVZmVnpqcl42MeYT8+l1dw7MSZkKDAZTkLhyEh0hstK5rWwTsQA3zR5XKjxf7UPd2LBcU48EWEh3Uaumrq6hctmKtSTvwT//j4KZPRnBSfgIPUCEmIp0VHRd53160OhxMbXwRmpgiFxZd3f3gA9eeynEX33rktJTkRzQ466MtzFqEQ/XDvwYamZnycs7KzoiIjhrrIqIIxeH18wMhYheJanIlBtV/f2Gi1WdXoc6uUKEo7OgzDtO2YgeOXx+3BAXSEDPRBLUGEqaaod+JIfPL0uQ6DITU54Z47tqICkYUfPrbYmOhtm29cunQRUyjKyquKSy5P2HdTKJDkDDj2j6uz9dHA6vUdrm5lPrGoqq5pbGpGFb1y2eK0lKSz5/Lq6htH8kbu8aD91Hd0oPs9Yq0t7XTPJn1HX6PR1NHR4R7lHBWKXn2H3uVyjry7YguM+Ot/Sixhe5v+cmkFaj6kHx4DTda8OTMPHD6Ko3VlTe1qWC7/HfvBnn2Hyiqr/DQ98WuTyXzLpo05Q7hn7+z8oPhSGY78arWqprY+MCDgQkFx6+//gn8BaUtih9OxZOG8NatW9L7maGG1Wp957n9xFN+4bjXeeZ8ezHllVc1Lr74VGRGOw81AyyOb5Qt5hWj2DYYufNJ4qwlxsRvWrUlOSphILZpfXF5RvXTxgs033vDe7r35hSXVtXVzZ89QDq1IL+YVHjlxutNgsNsdyCzUrokJcTetX5sQH9vvzL/87R+GLqPEO4ZfAb/UoaMnSsoqGDAfMa+/bnlvL9rlcm3f+QHekqLX7tv49vRpqXds3TT8d2lqadm950Bzc7PD6fJ4yDXAhkXPZUZmxgD+GPZ+dBi/+6Yb165clnPq7PnTuRf0er3L7cabTE1MuGnD2ri42CG4Z9iz/3BZRaXD7nB73H4aP3w0a1etQO32WSChwWSqra8PDw9NT00ZdLxMT0m+5/atdQ2NWdMzegX3rCfP5B4/nRvg7486VqlSontmMprQtxnqg87kXjhw+JhW6+fxcHxO+EN9Y1PxpVIcO5mXPzZ/rd+K5TnjIaHT6Tx+8ozWX9uPgTI6DF1Hjp9KTky4ZdOGgc6Q2+3OKyj67XPPo5OGPyuVSpSLIcGBlTV1qAhwgJiQBrc77LX1DYaurtSUpOkZ04KCArHjlpZXdRqMEUNEQd7YvuvI8ZPVNXXovWPrSTEzBRrSgsJLD3/xvpnZWb0f2/4DH7e0teOjxPPiYqKRV6UVVecuFgLw7i+qSElM6E1Ct9uTe+7C0ZO5KqVCph86C1o/LZJzWLPMz5y/+Npb71bX1uv1nfLu7vhxwcFBONquW7MSG63PF7fbSy6VHjmGfk2mTleA7dzc0uZ2u6id1eri4stVdfUP3HtnxrTUfh9UWVW9fcf7J8+cb9N3aNRqpUJptdtUSpLxjc0tN65fo/PXfbpJaEQZYTZjh4iMDB/0hIiI8E0b1+FwpenlJERGhj384Odv37pFpVJgT21ta/vo8NH8ghKVasjbvvuOrauvW4YtrtNq33p3d2V17cwZ03EkQ/Z6OGkYt8udkpSoHcBAivcMRstBJ5HxZH9/9E+1+JAGvqpUKHT0sp9iwHCD5zc2tTz/4sv48hOPfS0gMMBqsZ7Py//42OnC4ktqpSolKSE6KnL8DV5T29Dc2qbT6dCIYefDoS0h/uLZ3AvYmQYl4aEjJ/bsP9jQ0JiZMe361Svi42Kkflmz4/19pRUVf3nhnz/8zjdjet3YN772sM1mR3OnYIq/v/ImWk707RcvmMe6rRz+Z3r6tL4eoOoLn7tny80byXoCw7egyaqqrdUMOxqi9cbmqq1riAwP+8q/3I9iAZu3tr7x0MfHi0ouo27089Ogre79aDR+fiEhwWgAj506ixLjofvvxnZA3xiZebGgOPd8XmpSYlJCXO/wnsPp3Hvg8OEjJ9E5Qp2VnZWhUWssFsvuDz+6WFD00itvTUtJnjd31qebhBarTY5qBgYGDuW/DQy6+Gv9587O7tG07frcC3kuz3BZTvPnzII53sbaf+iovbQ8Pj5m7eoVQUN8ru/JWayWS6XlyFXePZb7RlbOJ6wd6IMslojw0O9882s+8blw/uzwsDCaUCkt33/wyOfuvm0itGhRaVnlrBmZOOLgrzOzp8fHxqKsqKmpn52d1S9S1dVlPPDxUfS1UN198f57Zs/Mkoe5BXNnI2P/+dp27O55+UXYjL7hb9WKpb63v/zGdpvNM31a6sYbVgOwYVx0tE49asLlupBXUFFdPcy3MJstHx0+hm4FttUX7rsjZ/FCeaBcON+VnpaMn1tYXHr8ZC5K7rC+M404FlRW16xcuuSB++6Ii42R/4iDwgv/eP3E6Vwcmlva9MhD3/ktLW3VNfVGi+X+dau3btrg64rR0VH/++KrF3DgLy3LysrQTs700hSR0KciVKoe02G3OUwWc28PAU/z89MG6AafiHe7PGPgAw7VIwks2Gy2/3vpNal39vkMD7og7glLVUVPIzY86u7bb+nt/kVGRNy8Ye3lsorC4svYdSiYNL4IB6rl2rr6zq6urOnTcGjHv8RGRwUHB+Jl0eFBXy4stM8sa0NTU0eHwWyxbrxhzfxe4z0OmuvWXHcxrwi1X2tbu9PpGkaDMAqDwchv3Oly8is9zi6jEQ1aSFDQgjmzrlu+1NcsaFQXzJuDOrOg6FJbezsqxiWLFvR+I7qp82Zn37Fts4+BiNTkJBzTz+ReRFnb0dHZm4Q2u90jOSwBgbrexiA9LeWRr3yxq6srLCxErZossnySuaOncs+/sX0Huis9BtNsIZW/5abBmQx8bPznI+AuMi2/sHhgajj6NuhbTlTYD68fHBQ4b/bMAWo8bM7MGRfyixwOp9liCQwIGM+n1Dc0tbS24+iTmJCgk0Y01OeoM9E8nj53AZnWj4SNza3YC5Fg0wckLeEfH/z83TaHHY2A37DpnXI7j2L4GMHD7DKZcTRBtsydlT3wytPSUtC86zs66+qblizqF3Z2JcTHpaUm93tLTFQUyhC9wYDOUe+/x8ZE+fv7q9Tqjw4eDQsOXpazUKHwWovE+FiIj/0sBGZkGrC+YqWxqRllenhEGD4PpVKBwh3NEWqhqR8O8PaCgoMef/TLKID7Ud3pcP7uT/87UcZQCi+p/Afk3Pmp/VCRos1F2Kz2cZIwD/3LsvLsrOm95d+yJQtPnjmXeyG/pq4eX+rdp5GyKPwS4+IGnTePjo6ETwgmowmtOvrPcbHRA18NCgxISow/k3uhtb19wGDHcfTpLbJk6HTagAB/fWdXv9EWG3zRgrmoutGo/vP17e/vPRAVFZmVkYa+9EAmf1pJqJZStFGBWK023x/R6E1PT8WxFkcdFBV79h/MPZ+vHCzUMekkJBpoFs6fqxk4dzxucThAHrPBtByTs9hHaLeHNenu6to6h91htVopAuSvxR6J3dFud7S16/21fuXlVV05xpDg4J6BxuZwu9xh4SFK1dW1qga/Cza+QqnQagdxxrDnINOcTjfKh0Hd70H/ONTTXLtqRUhw0Btvo2dehm4PDpTosgYHBaGgvef2WyaVilPU6IE6nTQ9YEeV7/sjyjzfNJq+o+PEqbPuT3ShIDoSA0k46AMe5kmPnUL43RnDd4+ThOjgtbS0ou/d2q6vrW+QroY3SUOJVtKUuRfy1q9b05uEXJIodskvgqsP+BUGjcbh3aLsZBOUb4IqYOWyJWkpyTWogBubqqtrz17IR2GPv1RUVX/lofuHmRj7dJAQPfvoqMj2jk78VoOr/y6T0WyZcLMz1Ig4fsspdW7usNsH9hiUdkPFCGnRgNuD/1MqlH2jFC6zxcpodFf4+Y0rvye/6NLl8srQ0JBVy5eiWnN2p32o1er6hsYTZ89X19ShIs3MSPO1THhoqM5fW1vfOPyIM/XtjEMGGiWXy91lNA18FW27Xt8ZGBgQGRE+MSJFgV50HB44HuHjuH2bIfdi3t79H1dV15y7kJ81PR0/69NMwqBAdK8Lii+XVVTbbPaB6qK5tbWmpj4gICB04la1eKQpZ5Q0E/51NGoNaiGkYXNb+8BXK6qqhhLV2FNtdltjU0tifFzvv1ss1srqGnyXRqMJCgoa++jg8eAQ3t7egVL/5g1rY2KiOff4PtpoMlXU1FZW1VRWVpmWLPBN20RFhmu12vrGlrbWtpQBWTuvv70TLQM6SOvXrho0dV5uYWnOfYJ5iP6bn0Zt6OoqLimdMzO736utbe1lFVUx0ZEJcXHjH1VZX/IjwsNCE+LjyiuqsXNeLCjacMOaSSLhFOWOorBeMH8O0q/4cun+Q0f6vWo0mo6fOKPv7IyPiUocOhKFfVRO0RhhQnZYaEiAv39hcanNNsFJgMjA+NhY7Hanz17oJ+Gwi+/Zf0gzRF4y+mYtre3v7vqw398LCktOnDmHTNDpdONJN29sbmlqbsUbS05KjI2NVioVqm5g64WGhKD+99dqT5/La23tGT5SUxI1GrVKrdx/6CgOB70viNLs42MnDx4+imPHUPMPEeHheM95hSUDAyHDAO9Hdo+HMaGhIaGLF8zrNBjPXyxs6zveWazWoydOW212HEqSx728+4MPDzz+/R9/+4c/ySso7muKNeh24iPWavxUk7YMYMoCM+qcRfNPnDxbWV27/b3dzc2tOKyGhYXgAyguubzvoyOFly7jcDR7dvacWT0DnsftRp0mTw6qVSqjyeh0OpGINmSV00mGjlwowA40qOXJmJZ6Mb+wrb39j8//ffnShTOzpoeEBKMaVNG6Pt2oesxAg7Zw3qyaurp2vf7Xz/7l3ju2Ykc0mc15+UVvvbebQqlDdCzsrPgVDn18DL/FlpvXo2NmNptPnM7dtecjp8OJQmjD2lXjaefCklI0DuHhYclJCYOSed6s7ILCS9W1qEgbpqWleOOfUVEzMzORvecuFjz31xe3btqQlpqMTVtQVPz2e++ju45tNWtG1lAjy8zMDCQ/WuDfPPt8zuJ52OzoX6GGxOcSoNP1FZB2+WliA5otFosNxTyzWW34FCn/RianQulLuMcesnrlsqMnzlTV1j33/Iu3brkpO2s6fq/yyqrdez7CETA0OGj2zKyEhPFOIcTGRplM5qqauje378QHNHdONo5JXUbjydO5pWWVDrszNTURXapPNwlBmiq9546tf/vH6w2NTQePHM8rKJLjgTj06js68Vi8cB62cm+l2tza/ta7u0rLK1Gk4ajpcDo6OgwR4WF7PzqMHVdywNCZ7Prqww8umDd7kHjX6pX4/FrbS3B4q62nZG60Bza7ff2aVTdvXDdowG3Eo7hi3fWrdu89gG7JuYv56Lur1SpkUYfBgI/qqw9/4TfP/nXwcJ/LnZqStHThghdefr2w5DIOtKjlDAZjW7te66+9bkXOzBmZ42nkyspqFGlLFs1PHSIXHDtxZERYVXVtRUXlkoVzA6S5EOzWd962ubmtNfd8/ulzF5Ci/v40YY3ObXNLa2dn19e/8lDaEEm/iM03rT9y8nSnoevE6bOXSkv9/f2VlB3Kbt1yY+/EGuzcf/v7K2VVNYyRCcQxtF3fiR9dWlH5vSd/QTE5znGwXrl8yZab1ncTUrF08fx779z66lvvoXOLIgLtkpR1ZG1ubUMSr1i6aNuWG1XjDurOmTljzXXL9Ts/KCy51NreHhwUpFDicOnq7DQ0tbTiI8O+NEladEpJiMYqZ/ECpNA7O/ccPXm6paWVAuKco02LiY5+6IF71q9dHd13zQEOnDiunzufj32CS/E9WcN0dRmlOCp1ija9/j6DYah412Nfe/jw0RPIk+JLZTW19TLn587K9nlKsn+PHQivPHhUkgHKIRR4zr4LW+Jio3/w7Uffenf3yTPnOvSdnBJfwpctWXDTxhvwDlE74af3TvDBH5H/SLaM9NRbt97kcrsPHztZcrkMeyQSGLmxdfOGRfPnjmeGpqGxGQeslta2hNiYuJiYQc+JjIxAbwet0KHjp9asXpme5u1YERHhj3z5oQOHjn50+FhFVTXaMWxtpM3iBfNv3rh2Wc7CYWbq4+JinvzOY4eOHkdFik6/rFDw7evWrOjnopdV1Z6/WIC2jksPT3qYik6DB0cxBszDPSiVM/sWmwkMDMSxOykhft+Bj3Mv5vtpNHhxpO60lKSb7lmHwxZ6bv0CY2hiOzo6rTbboO5rl9GM/adfiTck/7bNG/GZonkoLLpUXlGlUCrxoQcFBW5cR0N2elrq5K1KZXwCMyNHhk6DgUyf3tDeoVcyZVRUOCIqInygacJO0KbvQLnChpaOqP1iY6L6yZ7eQO1qMltQbMgFNbApw8NDQ0OCWXdsu13fga9i74+PixnY0Ng+yF4cAsJCEMH9XsX3tuMD7+xCGxsTHRUcGIiPzeFwkG3UqGOjo3yLVrEL4hfv6OzCsTwuJhq7CL4LlZ7VakNRGhoajJ1pnHOkDocT5bHZYsWRrl9OTL94htFkUipVeHv9qIVthSNOS2ur0WjG+0exFxYWFhEeOpL+h2ocP9psMtOiIRwuVSp8pr2tB7Zkc0sbfsQw4RsFUwQHBYYOuHnkDDYzDrhGk5kBp0cRhPcWMjD5G5mj13d2mUzYAgNT1bG18SJIRfSNB/YZfK8BOWqx4BXwPnX+OvwYbMrgoMBJZcQnQMLe3xlvoHc2qcBVAnl+/1puAT4Js2VXIwkFBARAlMEXEBAkFBAQJBQQEBAkFBAQJBQQEBAkFBAQJBQQEBAkFBAQJBQQEBAkFBAQJBQQEBAkFBAQJBQQEBAkFBAQJBQQEBAkFBAQJBQQEBAkFBAQJBQQEBAkFBAQJBQQEJg0/L8AAwDxyGiL+fFa5AAAAABJRU5ErkJggg==;" vertex="1" parent="1">
                    <mxGeometry x="488" y="595.5" width="132" height="99" as="geometry"/>
                </mxCell>
                <mxCell id="27" value="" style="endArrow=classic;html=1;fontSize=16;exitX=1;exitY=0.5;exitDx=0;exitDy=0;entryX=0.5;entryY=1;entryDx=0;entryDy=0;" edge="1" parent="1" source="26" target="12">
                    <mxGeometry width="50" height="50" relative="1" as="geometry">
                        <mxPoint x="90" y="490" as="sourcePoint"/>
                        <mxPoint x="106" y="390" as="targetPoint"/>
                        <Array as="points">
                            <mxPoint x="870" y="645"/>
                        </Array>
                    </mxGeometry>
                </mxCell>
                <mxCell id="41" value="HTTP Req/Res" style="text;html=1;align=center;verticalAlign=middle;resizable=0;points=[];autosize=1;strokeColor=none;fillColor=none;fontSize=16;" vertex="1" parent="1">
                    <mxGeometry x="610" y="200" width="120" height="20" as="geometry"/>
                </mxCell>
                <mxCell id="49" value="Run actions" style="text;html=1;align=center;verticalAlign=middle;resizable=0;points=[];autosize=1;strokeColor=none;fillColor=none;fontSize=16;" vertex="1" parent="1">
                    <mxGeometry x="370.01" y="617.69" width="100" height="20" as="geometry"/>
                </mxCell>
                <mxCell id="57" style="edgeStyle=none;html=1;entryX=1;entryY=0.75;entryDx=0;entryDy=0;fontSize=16;" edge="1" parent="1" source="7" target="12">
                    <mxGeometry relative="1" as="geometry">
                        <Array as="points">
                            <mxPoint x="1100" y="291"/>
                            <mxPoint x="1100" y="256"/>
                        </Array>
                    </mxGeometry>
                </mxCell>
                <mxCell id="43" value="" style="endArrow=classic;html=1;fontSize=16;exitX=0;exitY=0.5;exitDx=0;exitDy=0;entryX=1;entryY=0.25;entryDx=0;entryDy=0;" edge="1" parent="1" source="29" target="12">
                    <mxGeometry width="50" height="50" relative="1" as="geometry">
                        <mxPoint x="1200" y="250" as="sourcePoint"/>
                        <mxPoint x="1250" y="200" as="targetPoint"/>
                        <Array as="points">
                            <mxPoint x="1100" y="173"/>
                            <mxPoint x="1100" y="206"/>
                        </Array>
                    </mxGeometry>
                </mxCell>
            </root>
        </mxGraphModel>
    </diagram>
</mxfile>